<?xml version="1.0" encoding="utf-8"?>
<!-- Generator: Adobe Illustrator 22.0.1, SVG Export Plug-In . SVG Version: 6.00 Build 0)  -->
<svg version="1.1" xmlns="http://www.w3.org/2000/svg" xmlns:xlink="http://www.w3.org/1999/xlink" x="0px" y="0px"
	 viewBox="0 0 330 120" style="enable-background:new 0 0 330 120;" xml:space="preserve">
<style type="text/css">
	.st0{fill:#E1BAF7;}
	.st1{fill:#B689D3;}
	.st2{fill:#FFFFFF;}
	.st3{clip-path:url(#SVGID_2_);fill:#D6E6ED;}
	.st4{clip-path:url(#SVGID_4_);fill:#67B4D6;}
	.st5{clip-path:url(#SVGID_6_);}
	.st6{fill:#3E88BA;}
	.st7{display:none;clip-path:url(#SVGID_8_);fill:#D6E6ED;}
	.st8{clip-path:url(#SVGID_10_);fill:#67B4D6;}
	.st9{clip-path:url(#SVGID_12_);}
	.st10{clip-path:url(#SVGID_14_);fill:#C6CECE;}
	.st11{fill:#01B0A1;}
	.st12{fill:#FFDBB7;}
	.st13{clip-path:url(#SVGID_16_);}
	.st14{fill:#E55A5A;}
	.st15{clip-path:url(#SVGID_18_);}
	.st16{fill:#EF8989;}
	.st17{fill:#8D4E22;}
	.st18{clip-path:url(#SVGID_20_);}
	.st19{fill:url(#SVGID_21_);}
	.st20{clip-path:url(#SVGID_23_);}
	.st21{fill:#049599;}
	.st22{fill:#FFFDBD;}
	.st23{fill:none;stroke:#FFFDBD;stroke-width:2;stroke-miterlimit:10;}
	.st24{fill:#EE2326;}
	.st25{clip-path:url(#SVGID_25_);fill:#FFFFFF;}
	.st26{clip-path:url(#SVGID_27_);}
	.st27{fill:#D3161F;}
	.st28{clip-path:url(#SVGID_29_);}
	.st29{clip-path:url(#SVGID_31_);fill:#FFFFFF;}
	.st30{fill:#F8F9FF;}
	.st31{fill:url(#SVGID_32_);}
	.st32{fill:#6D2C0B;}
	.st33{fill:#DD7C5E;}
	.st34{fill:#FF9C9C;}
	.st35{fill:#F7A6A6;}
</style>
<g id="图层_2">
	<path class="st0" d="M200.1,58.9c2-1.8,2.9-5.2,2.2-7.6c-0.8-2.7-2.7-4.3-5.2-5.1c0.3-1.1,0.3-2.4-0.1-3.7c-0.7-2.6-3.3-5-6.1-5.5
		c-1.2-1.8-3.1-3-5.5-3c1.1-3.1,0.3-6.8-2.1-8.8c0.8-0.4,1.7-0.7,2.5-1.1c7.4-3.3,2.8-13.5-3.8-14c-2.1-0.1-4.2-0.1-6.3,0
		c-0.9-3.7-4.2-6.6-8.8-4.9c-7.7,2.9-15.4,6-22.8,9.6c-6.6,3.2-13.9,6.1-18,12.5c-1.6,2.6-1.2,5.5,0.3,7.8c-3.2,2-6.3,4.3-9.1,7.1
		c-4.3,4.3-1.9,10.1,2.7,12.1c-0.3,0.5-0.6,0.9-0.9,1.4c-1.7,3.1-0.9,6.6,1.2,9c-2.7,1.6-5.2,3.4-7.5,5.6c-4.7,4.4-0.8,13.2,5.2,13
		c-0.5,4.9,3.2,10.1,9.1,8.1c4.7-1.6,9.4-3.4,14.1-5.2c-2.4,1.4-4.7,3-6.9,4.8c-6,5,0.5,14.4,7.3,12.5c2.3-0.6,4.7-1.3,7-1.9
		c0.8,1.6,2.1,2.9,3.9,3.6c1.3,1.6,3.2,2.7,5.5,2.6c5.7-0.2,11.2-1.2,16.5-3.2c2.9-1.1,4.5-3.4,4.9-5.8c0,0,0.1,0,0.1,0
		c4.3-1.9,4.5-6.7,2.5-10.2c0.3-1.3,0.2-2.6-0.2-3.9c1.3-0.6,2.6-1.3,3.8-2.1c2.5-1.5,3.6-3.9,3.6-6.3c3.3-1.4,6.5-3.1,9.6-5
		C203.2,68.3,203.3,62,200.1,58.9z"/>
	<path class="st1" d="M176.6,106.2c0.2-1-0.6-2.2-1.8-1.8c-1.3,0.4-2.7,0.9-4,1.3c-0.1-0.9-0.9-1.7-1.9-1.3c-1,0.4-2,0.8-3,1.2
		c0.2-0.9-0.8-2.1-1.9-1.9c-4.3,1-8.5,2.4-12.7,3.9c-0.4-0.4-1.1-0.6-1.7-0.2c-1.1,0.7-2.1,1.4-3.2,2c-1.4,0.9-0.5,3.4,1.2,2.7
		c0.7-0.3,1.4-0.5,2.1-0.8c0.3,0.7,1,1.2,1.8,1.1c2.2-0.4,4.3-0.8,6.4-1.3c0,0.9,0.7,1.8,1.8,1.4c3.2-1.1,6.4-2.1,9.6-3.2
		c-0.4,0.4-0.8,0.8-1.1,1.3c-0.8,1.3,0.8,2.9,2.1,2.1c2.2-1.4,4.3-2.7,6.5-3.9C177.8,108.1,177.4,106.7,176.6,106.2z"/>
</g>
<g id="图层_1">
	<g>
		<path class="st2" d="M153,107.7c-0.8,0.1-1.8-0.1-2.8,0.5c-1.4,0.9-1.3,1.4-0.9,2.5c0.1,0.4,2.2,0.9,4.5,1c2.4,0.1,4.8,0,5.3-0.5
			s0.3-1.8,0-2.6c-0.2-0.5-0.4-0.7-0.4-0.7L153,107.7z"/>
		<g>
			<g>
				<defs>
					<path id="SVGID_1_" d="M153,107.7c-0.8,0.1-1.8-0.1-2.8,0.5c-1.4,0.9-1.3,1.4-0.9,2.5c0.1,0.4,2.2,0.9,4.5,1
						c2.4,0.1,4.8,0,5.3-0.5s0.3-1.8,0-2.6c-0.2-0.5-0.4-0.7-0.4-0.7L153,107.7z"/>
				</defs>
				<clipPath id="SVGID_2_">
					<use xlink:href="#SVGID_1_"  style="overflow:visible;"/>
				</clipPath>
				<path class="st3" d="M160.2,110.1c0,0-4.6,1.1-7.6,0.9c-1.2-0.1-2.6-0.4-3.2-0.8c-0.7-0.5-0.4-1.1-0.4-0.4c0,1.3,0.3,1.8,1,2.8
					l8.6,0.4L160.2,110.1z"/>
			</g>
			<g>
				<defs>
					<path id="SVGID_3_" d="M153,107.7c-0.8,0.1-1.8-0.1-2.8,0.5c-1.4,0.9-1.3,1.4-0.9,2.5c0.1,0.4,2.2,0.9,4.5,1
						c2.4,0.1,4.8,0,5.3-0.5s0.3-1.8,0-2.6c-0.2-0.5-0.4-0.7-0.4-0.7L153,107.7z"/>
				</defs>
				<clipPath id="SVGID_4_">
					<use xlink:href="#SVGID_3_"  style="overflow:visible;"/>
				</clipPath>
				<path class="st4" d="M150.7,106.3c2.1,0.8,1.9,4.5,1.9,4.6s4.8,0.8,7-0.1v-4.6L150.7,106.3z"/>
			</g>
			<g>
				<defs>
					<path id="SVGID_5_" d="M153,107.7c-0.8,0.1-1.8-0.1-2.8,0.5c-1.4,0.9-1.3,1.4-0.9,2.5c0.1,0.4,2.2,0.9,4.5,1
						c2.4,0.1,4.8,0,5.3-0.5s0.3-1.8,0-2.6c-0.2-0.5-0.4-0.7-0.4-0.7L153,107.7z"/>
				</defs>
				<clipPath id="SVGID_6_">
					<use xlink:href="#SVGID_5_"  style="overflow:visible;"/>
				</clipPath>
				<g class="st5">
					<g>
						<g>
							<path class="st6" d="M153.4,109.5c1.5,0.8,5.1,0.5,7.4-0.4v-4.6c0,0-5.9,0-8.3,1.4C150.9,106.9,152.8,109.2,153.4,109.5z"/>
						</g>
					</g>
				</g>
			</g>
		</g>
		<path class="st2" d="M168.2,102.1c0,0-1.5,2.2-1.3,2.7c0.2,0.6,0.6,0.9,1.6,1.5s6.4,2,6.8,1.3c0.5-0.8,0.7-0.9,0.5-2.6
			c-0.4-2.5-3.2-3.5-3.2-3.5L168.2,102.1z"/>
		<g>
			<g>
				<defs>
					<path id="SVGID_7_" d="M168.2,102.1c0,0-1.5,2.2-1.3,2.7c0.2,0.6,0.6,0.9,1.6,1.5s6.4,2,6.8,1.3c0.5-0.8,0.7-0.9,0.5-2.6
						c-0.4-2.5-3.2-3.5-3.2-3.5L168.2,102.1z"/>
				</defs>
				<clipPath id="SVGID_8_">
					<use xlink:href="#SVGID_7_"  style="overflow:visible;"/>
				</clipPath>
				<path class="st7" d="M166.4,101.9c0,0,4.1,2.1,7,3.2c0.6,0.3,2,1.2,2.3,1.8c0.3,0.5,0.3,0.5-0.3,1.1c-0.1,0.1-0.3-0.2-0.4-0.1
					l-8.1-2.8L166.4,101.9z"/>
			</g>
			<g>
				<defs>
					<path id="SVGID_9_" d="M168.2,102.1c0,0-1.5,2.2-1.3,2.7c0.2,0.6,0.6,0.9,1.6,1.5s6.4,2,6.8,1.3c0.5-0.8,0.7-0.9,0.5-2.6
						c-0.4-2.5-3.2-3.5-3.2-3.5L168.2,102.1z"/>
				</defs>
				<clipPath id="SVGID_10_">
					<use xlink:href="#SVGID_9_"  style="overflow:visible;"/>
				</clipPath>
				<path class="st8" d="M175.7,103.6c0,0-0.1,0.1-0.6-0.3c-0.8-0.5-2.8,1-2.4,1.5c0,0-2.1-0.8-3.5-1c-1.1-0.2-2.3,0.1-2.8,0.5
					c-1.1,0.9,2.3-4.8,2.3-4.8l6.9,1.6L175.7,103.6z"/>
			</g>
			<g>
				<defs>
					<path id="SVGID_11_" d="M168.2,102.1c0,0-1.5,2.2-1.3,2.7c0.2,0.6,0.6,0.9,1.6,1.5s6.4,2,6.8,1.3c0.5-0.8,0.7-0.9,0.5-2.6
						c-0.4-2.5-3.2-3.5-3.2-3.5L168.2,102.1z"/>
				</defs>
				<clipPath id="SVGID_12_">
					<use xlink:href="#SVGID_11_"  style="overflow:visible;"/>
				</clipPath>
				<g class="st9">
					<g>
						<path class="st6" d="M175.6,102c0,0-0.8,0.5-3.3,1.1c-2.4,0.6-5.1-0.8-5.6-0.4c-1.1,0.9,2.1-4.3,2.1-4.3l6.9,1.6L175.6,102z"
							/>
					</g>
				</g>
			</g>
			<g>
				<defs>
					<path id="SVGID_13_" d="M168.2,102.1c0,0-1.5,2.2-1.3,2.7c0.2,0.6,0.6,0.9,1.6,1.5s6.4,2,6.8,1.3c0.5-0.8,0.7-0.9,0.5-2.6
						c-0.4-2.5-3.2-3.5-3.2-3.5L168.2,102.1z"/>
				</defs>
				<clipPath id="SVGID_14_">
					<use xlink:href="#SVGID_13_"  style="overflow:visible;"/>
				</clipPath>
				<path class="st10" d="M165.7,105.1c1.5-0.9,2.3-1.3,5.9,0c2,0.7,3.6,1.5,3.9,2.4c0.2,0.7,0.4,0.8-0.1,1
					c-0.9,0.4-2.1,0.1-2.1,0.1l-8.1-1.8C165.1,106.8,164.2,106,165.7,105.1z"/>
			</g>
		</g>
		<path class="st11" d="M155.7,91.6c0.6-0.3-10.5,5.8-11,8.4c-0.2,0.8,1.7,2.4,3.6,4.1c2.7,2.4,5.9,4.8,5.9,4.8
			c1.6,0.6,4.5,0.4,4.8-0.3c0.3-0.6-1.4-2.7-3.7-4.8c-1.7-1.6-3.8-2.9-4.3-3.2c-0.8-0.5,1.9-2.2,5.1-3.4c2-0.8,3.1-1.1,6.6-1.5
			s10.4,0.8,9.7,1.1c-0.5,0.2-4.3,4.9-4.3,5.7c0,0.5,4.4,0.6,5.6-0.2c1.1-0.8,1.4-1.8,3.3-3.8c1.4-1.5,3-2.6,2.4-3.7s-10-3.7-10-3.7
			L155.7,91.6z"/>
		<path class="st12" d="M149.8,48.5c0,0-4.4,6.3-5.8,10.4c-1.4,4.1,1.6,15.7,15.9,15.2s16.2-11.4,16.2-11.4s2.5-8.5,2-11.1
			s-9.5-2.4-15-4C157.6,45.8,149.8,48.5,149.8,48.5z"/>
		<g>
			<g>
				<defs>
					<path id="SVGID_15_" d="M149.8,48.5c0,0-4.4,6.3-5.8,10.4c-1.4,4.1,1.6,15.7,15.9,15.2s16.2-11.4,16.2-11.4s2.5-8.5,2-11.1
						s-9.5-2.4-15-4C157.6,45.8,149.8,48.5,149.8,48.5z"/>
				</defs>
				<clipPath id="SVGID_16_">
					<use xlink:href="#SVGID_15_"  style="overflow:visible;"/>
				</clipPath>
				<g class="st13">
					<g>
						<path class="st14" d="M175.5,52.7c0,0,2.5,6.7-5.8,14.6c-10.4,10-22.4,2.8-22.7-0.2l4.3,8.8l35-3.2L175.5,52.7z"/>
					</g>
				</g>
			</g>
			<g>
				<defs>
					<path id="SVGID_17_" d="M149.8,48.5c0,0-4.4,6.3-5.8,10.4c-1.4,4.1,1.6,15.7,15.9,15.2s16.2-11.4,16.2-11.4s2.5-8.5,2-11.1
						s-9.5-2.4-15-4C157.6,45.8,149.8,48.5,149.8,48.5z"/>
				</defs>
				<clipPath id="SVGID_18_">
					<use xlink:href="#SVGID_17_"  style="overflow:visible;"/>
				</clipPath>
				<g class="st15">
					<g>
						<g>
							<g>
								<g>
									<g>
										<path class="st16" d="M179.7,48.8c2.7,2.1,6,5.1,4.4,6.8c-2.3,2.3-10.7,2.8-11.4,1.4c-1.1-2.4,3.3-5.1,2.3-5.1
											c-1.8,0-3.6,0.7-5.8,0.8s-1.4-2-4.6-1.3c-2,0.5-6.6,1.3-8.3,0.8c-1.1-0.4,0-1.5-0.3-1.4c-1.1,0.5-8.5,2.2-8.5,1.8l5.3-6.7
											l25.9-3.2L179.7,48.8z"/>
									</g>
								</g>
							</g>
						</g>
					</g>
				</g>
			</g>
		</g>
		<path class="st14" d="M160.8,74"/>
		<path class="st16" d="M190,43.8"/>
		<path class="st17" d="M141.7,47.3c-0.1,1.1,3.8,2,3.9,2.5c0.1,0.5-5.3,4-5.3,4.6s4.6,4,4.6,4c2.2-2.8,4.1-5.6,4.9-8
			c-1.2,1.1,6.9-1.8,7.1-1.6c0.3,0.1-3.8,2.2-3,2.9c1.4,1.2,11.3-1.6,11.9-1.5c0.6,0.1-2.3,0.7-2.4,1c-0.4,1.7,9.8-1.2,10.1-0.9
			s-2.8,5.8-2.3,6.4c0.5,0.6,5.6,0.3,5.4,0.3s7.4-1.2,7.3-2.8c-0.1-0.8-2.3-4.2-4.6-7c-0.5-0.6-0.4-1.7-0.9-2.3
			c-0.6-0.7-2-0.6-2.4-1.1c-2.9-2.9-3.2-1.9-3.2-1.9S141.7,46.6,141.7,47.3z"/>
		<g>
			<g>
				<defs>
					<path id="SVGID_19_" d="M141.7,47.3c-0.1,1.1,3.8,2,3.9,2.5c0.1,0.5-5.3,4-5.3,4.6s4.6,4,4.6,4c2.2-2.8,4.1-5.6,4.9-8
						c-1.2,1.1,6.9-1.8,7.1-1.6c0.3,0.1-3.8,2.2-3,2.9c1.4,1.2,11.3-1.6,11.9-1.5c0.6,0.1-2.3,0.7-2.4,1c-0.4,1.7,9.8-1.2,10.1-0.9
						s-2.8,5.8-2.3,6.4c0.5,0.6,5.6,0.3,5.4,0.3s7.4-1.2,7.3-2.8c-0.1-1.2-5.3-7.7-8-10.3c-2.9-2.9-3.2-1.9-3.2-1.9
						S141.7,46.6,141.7,47.3z"/>
				</defs>
				<clipPath id="SVGID_20_">
					<use xlink:href="#SVGID_19_"  style="overflow:visible;"/>
				</clipPath>
				<g class="st18">
					<g>
						
							<linearGradient id="SVGID_21_" gradientUnits="userSpaceOnUse" x1="157.7442" y1="80.012" x2="206.5342" y2="80.012" gradientTransform="matrix(1 7.557643e-04 7.557643e-04 -1 -0.1629 119.9156)">
							<stop  offset="2.970297e-02" style="stop-color:#610707"/>
							<stop  offset="0.1155" style="stop-color:#691C1D"/>
							<stop  offset="0.2156" style="stop-color:#702D2E"/>
							<stop  offset="0.3401" style="stop-color:#753839"/>
							<stop  offset="0.5148" style="stop-color:#773F40"/>
							<stop  offset="1" style="stop-color:#784142"/>
						</linearGradient>
						<path class="st19" d="M181.2,40.8c0,0-10,8.4-20.7,9.3s-18.7-7-18.7-7l48.8-13.2L181.2,40.8z"/>
					</g>
				</g>
			</g>
		</g>
		<g>
			<g>
				<defs>
					<path id="SVGID_22_" d="M155.7,91.6c0.6-0.3-10.5,5.8-11,8.4c-0.2,0.8,1.7,2.4,3.6,4.1c2.7,2.4,5.9,4.8,5.9,4.8
						c1.6,0.6,3.2,0.6,4.9,0c0.5-0.2-1.5-2.9-3.8-5.1c-1.7-1.6-3.8-2.9-4.3-3.2c-0.8-0.5,1.9-2.2,5.1-3.4c2-0.8,3.1-1.1,6.6-1.5
						s10.4,0.8,9.7,1.1c-0.5,0.2-4.3,4.9-4.3,5.7c0,0.5,5.1,0.6,5.6,0.2s1.4-2.2,3.3-4.1c1.4-1.5,3-2.6,2.4-3.7s-10-3.7-10-3.7
						L155.7,91.6z"/>
				</defs>
				<clipPath id="SVGID_23_">
					<use xlink:href="#SVGID_22_"  style="overflow:visible;"/>
				</clipPath>
				<g class="st20">
					<g>
						<path class="st21" d="M176.5,85.8c0,0-2.5,5.3-5.4,8.3c-1.5,1.6-3.5,1-5.1,1.6c-2.5,1-7.9,0.3-12-1c-3.9-1.1-6.6-2.7-6.6-2.7
							L176.5,85.8z"/>
					</g>
				</g>
			</g>
		</g>
		
			<rect x="171.7" y="94.5" transform="matrix(0.2011 -0.9796 0.9796 0.2011 43.9642 244.3862)" class="st22" width="0.3" height="1.5"/>
		
			<rect x="172" y="97.5" transform="matrix(0.6818 -0.7316 0.7316 0.6818 -16.4367 157.442)" class="st22" width="1.5" height="0.3"/>
		
			<rect x="170.4" y="99.2" transform="matrix(0.6082 -0.7938 0.7938 0.6082 -11.8038 174.8057)" class="st22" width="1.5" height="0.3"/>
		
			<rect x="169" y="101.2" transform="matrix(0.5078 -0.8615 0.8615 0.5078 -3.7656 196.075)" class="st22" width="1.5" height="0.3"/>
		<path class="st22" d="M174,96.7h-0.2c0-0.4,0-0.7-0.6-0.8l0.1-0.2C173.9,95.8,174.1,96.1,174,96.7z"/>
		<path class="st23" d="M166.9,95.1"/>
		<path class="st23" d="M165.4,95.1"/>
		
			<rect x="169" y="94.1" transform="matrix(7.700410e-02 -0.997 0.997 7.700410e-02 61.5995 256.186)" class="st22" width="0.3" height="1.5"/>
		
			<rect x="150.7" y="98.5" transform="matrix(0.8311 -0.5562 0.5562 0.8311 -29.2869 100.9031)" class="st22" width="1.5" height="0.3"/>
		
			<rect x="151.3" y="101.2" transform="matrix(0.5431 -0.8397 0.8397 0.5431 -16.3893 173.7886)" class="st22" width="0.3" height="1.5"/>
		
			<rect x="153.4" y="102.7" transform="matrix(0.6517 -0.7585 0.7585 0.6517 -25.0144 152.4925)" class="st22" width="0.3" height="1.5"/>
		
			<rect x="157.4" y="106.7" transform="matrix(0.8319 -0.5549 0.5549 0.8319 -33.1162 105.4775)" class="st22" width="0.3" height="1.5"/>
		
			<rect x="155.6" y="104.8" transform="matrix(0.7715 -0.6362 0.6362 0.7715 -31.5642 123.2008)" class="st22" width="0.3" height="1.5"/>
		<path class="st22" d="M149.8,101.1c-0.3-0.5-0.2-0.9,0.3-1.3l0.2,0.2c-0.4,0.3-0.4,0.6-0.2,1L149.8,101.1z"/>
		
			<rect x="156" y="95.8" transform="matrix(0.9208 -0.3901 0.3901 0.9208 -25.0052 68.7553)" class="st22" width="1.5" height="0.3"/>
		
			<rect x="153.4" y="97" transform="matrix(0.8942 -0.4476 0.4476 0.8942 -27.172 79.2668)" class="st22" width="1.5" height="0.3"/>
		<path class="st24" d="M175.3,43.8c-1,0-3.9,1.1-3.8,2.4s6.5,8.1,3.9,14.7c-2.9,7.1-9.1,11.4-13.3,12.3c-1.4,0.3-4.2,0.6-6.9,0.4
			c-4.7-0.4-11.4-5.3-10.6-12c0.2-1.5,0.9-3.1,1.8-4.8c2.4-4.3,5.4-7.9,5-8.3c-0.4-0.4-3.4-0.8-4.4-0.5s-5.5,6.8-6.5,10.5
			c-1.1,3.9-0.3,7.6,0.9,10.1c2.2,5.1,11.6,8.1,12.7,9.5s-2.8,13.8-1.3,15.3c0.7,0.7,4.7,1.7,8.8,1.8c4.5,0.1,9.1-0.9,9.3-2.6
			c0.4-2.7-4-13.2-3.4-15.3c0.6-2.1,12.1-6.8,13.5-17.9c0.7-5.5-1-9.3-2.4-11.8C177.2,45,175.9,43.8,175.3,43.8z"/>
		<g>
			<g>
				<defs>
					<path id="SVGID_24_" d="M175.3,43.8c-1,0-3.9,1.1-3.8,2.4s6.5,8.1,3.9,14.7c-2.9,7.1-5.5,9.8-10.1,11.4s-5,1.8-10,1.3
						c-4.7-0.5-11.4-5.3-10.6-12c0.2-1.5,0.9-3.1,1.8-4.8c2.4-4.3,5.4-7.9,5-8.3c-0.4-0.4-3.4-0.8-4.4-0.5s-5.5,6.8-6.5,10.5
						c-1.1,3.9-0.3,7.6,0.9,10.1c2.2,5.1,11.6,8.1,12.7,9.5s-2.8,13.8-1.3,15.3c0.7,0.7,4.8,0.9,8.9,1c4.5,0.1,9-0.1,9.3-1.8
						c0.4-2.7-4-13.2-3.4-15.3c0.6-2.1,12.1-6.8,13.5-17.9c0.7-5.5-1-9.3-2.4-11.8C177.2,45,175.9,43.8,175.3,43.8z"/>
				</defs>
				<clipPath id="SVGID_25_">
					<use xlink:href="#SVGID_24_"  style="overflow:visible;"/>
				</clipPath>
				<path class="st25" d="M150,86.6c7.1,1.4,14.9,1.2,23.1-0.2l-1.7,4.3c-7.2,0.6-14,0.3-20.4-1.1L150,86.6z"/>
			</g>
			<g>
				<defs>
					<path id="SVGID_26_" d="M175.3,43.8c-1,0-3.9,1.1-3.8,2.4s6.5,8.1,3.9,14.7c-2.9,7.1-5.5,9.8-10.1,11.4s-5,1.8-10,1.3
						c-4.7-0.5-11.4-5.3-10.6-12c0.2-1.5,0.9-3.1,1.8-4.8c2.4-4.3,5.4-7.9,5-8.3c-0.4-0.4-3.4-0.8-4.4-0.5s-5.5,6.8-6.5,10.5
						c-1.1,3.9-0.3,7.6,0.9,10.1c2.2,5.1,11.6,8.1,12.7,9.5s-2.8,13.8-1.3,15.3c0.7,0.7,4.8,0.9,8.9,1c4.5,0.1,9-0.1,9.3-1.8
						c0.4-2.7-4-13.2-3.4-15.3c0.6-2.1,12.1-6.8,13.5-17.9c0.7-5.5-1-9.3-2.4-11.8C177.2,45,175.9,43.8,175.3,43.8z"/>
				</defs>
				<clipPath id="SVGID_27_">
					<use xlink:href="#SVGID_26_"  style="overflow:visible;"/>
				</clipPath>
				<g class="st26">
					<g>
						<path class="st27" d="M154.1,78.5l0.1-2.5c-6-1.3-10.9-4.4-15.5-9.8l8.8,10.3l3,4L154.1,78.5z"/>
					</g>
				</g>
			</g>
			<g>
				<defs>
					<path id="SVGID_28_" d="M175.3,43.8c-1,0-3.9,1.1-3.8,2.4s6.5,8.1,3.9,14.7c-2.9,7.1-5.5,9.8-10.1,11.4s-5,1.8-10,1.3
						c-4.7-0.5-11.4-5.3-10.6-12c0.2-1.5,0.9-3.1,1.8-4.8c2.4-4.3,5.4-7.9,5-8.3c-0.4-0.4-3.4-0.8-4.4-0.5s-5.5,6.8-6.5,10.5
						c-1.1,3.9-0.3,7.6,0.9,10.1c2.2,5.1,11.6,8.1,12.7,9.5s-2.8,13.8-1.3,15.3c0.7,0.7,4.8,0.9,8.9,1c4.5,0.1,9-0.1,9.3-1.8
						c0.4-2.7-4-13.2-3.4-15.3c0.6-2.1,12.1-6.8,13.5-17.9c0.7-5.5-1-9.3-2.4-11.8C177.2,45,175.9,43.8,175.3,43.8z"/>
				</defs>
				<clipPath id="SVGID_29_">
					<use xlink:href="#SVGID_28_"  style="overflow:visible;"/>
				</clipPath>
				<g class="st28">
					<g>
						<path class="st27" d="M167.8,78.2c-0.1,1.2-1.8-0.6-0.6-2.4s9.8-6.3,13.4-12.5L173.9,75l-2.2,4.5
							C171.7,79.5,167.9,77,167.8,78.2z"/>
					</g>
				</g>
			</g>
			<g>
				<defs>
					<path id="SVGID_30_" d="M175.3,43.8c-1,0-3.9,1.1-3.8,2.4s6.5,8.1,3.9,14.7c-2.9,7.1-5.5,9.8-10.1,11.4s-5,1.8-10,1.3
						c-4.7-0.5-11.4-5.3-10.6-12c0.2-1.5,0.9-3.1,1.8-4.8c2.4-4.3,5.4-7.9,5-8.3c-0.4-0.4-3.4-0.8-4.4-0.5s-5.5,6.8-6.5,10.5
						c-1.1,3.9-0.3,7.6,0.9,10.1c2.2,5.1,11.6,8.1,12.7,9.5s-2.8,13.8-1.3,15.3c0.7,0.7,4.8,0.9,8.9,1c4.5,0.1,9-0.1,9.3-1.8
						c0.4-2.7-4-13.2-3.4-15.3c0.6-2.1,12.1-6.8,13.5-17.9c0.7-5.5-1-9.3-2.4-11.8C177.2,45,175.9,43.8,175.3,43.8z"/>
				</defs>
				<clipPath id="SVGID_31_">
					<use xlink:href="#SVGID_30_"  style="overflow:visible;"/>
				</clipPath>
				<path class="st29" d="M150.3,80c6.7,1.3,14.5,0.9,23-0.8l-1.6,4.4c-7,0.6-13.9,0.5-20.4-0.6L150.3,80z"/>
			</g>
		</g>
		<path class="st2" d="M165.2,70.8"/>
		<path class="st30" d="M142.5,40.3c-1.9-4.1-1.9-8.9,0-14c2-5.4,6.1-10.7,10.9-14.2c4.8-3.5,9.8-4.6,13.7-3.2
			c3.9,1.5,6.8,5.6,8.2,11.4c1.3,5.7,0.9,12.4-1.1,17.8c-1.9,5.1-5.1,8.8-9.2,10.6c-3.8,1.6-8.6,1.6-13.1,0
			C147.4,46.9,144.3,44,142.5,40.3z"/>
		
			<linearGradient id="SVGID_32_" gradientUnits="userSpaceOnUse" x1="168.7752" y1="44.4531" x2="149.9492" y2="11.8454" gradientTransform="matrix(1 0 0 1 0 2)">
			<stop  offset="0.1059" style="stop-color:#5BEAD5"/>
			<stop  offset="0.547" style="stop-color:#868BDA"/>
			<stop  offset="0.8188" style="stop-color:#BF7BDD"/>
			<stop  offset="1" style="stop-color:#E171DE"/>
		</linearGradient>
		<path class="st31" d="M142.5,40.3c-1.9-4.1-1.9-8.9,0-14c2-5.4,6.1-10.7,10.9-14.2c4.8-3.5,9.8-4.6,13.7-3.2
			c3.9,1.5,6.8,5.6,8.2,11.4c1.3,5.7,0.9,12.4-1.1,17.8c-1.9,5.1-5.1,8.8-9.2,10.6c-3.8,1.6-8.6,1.6-13.1,0
			C147.4,46.9,144.3,44,142.5,40.3z"/>
		<path class="st2" d="M175.2,20.3c-1.4-5.8-4.3-9.9-8.2-11.4c-0.7-0.3-1.5-0.5-2.4-0.6v0.1c0,0.8,0.3,1.4-0.5,1.4s-1.4-0.6-1.4-1.4
			V8.3c-3,0.2-6.2,1.5-9.4,3.8c-4.8,3.4-8.8,8.8-10.9,14.2c-1.4,3.7-1.7,7.2-1.1,10.3c0-0.7,0.1-1.2,0.4-1.6c0.9-1,1.1-2.4,2.4-2.4
			c1.3,0,0.9,2.1,0.9,3.4c0,1.3,2.9,6.9,0.5,8.5c1.7,1.7,3.8,3.1,6.3,4.1c4.4,1.7,9.3,1.7,13.1,0c0.4-0.2,0.7-0.3,1.1-0.5
			c-1.4,0-4.4,0.2-4.4-1.1s3.6-3.5,4.7-4.2c1.6-1.1,4.6-0.1,4.7,1.2c1.3-1.6,2.4-3.6,3.2-5.8C176.1,32.7,176.5,26,175.2,20.3z
			 M162.7,15.3c0.8,0,0.3,2.7,0,4.5c-0.2,1.3,0.1,3.7-0.7,3.7s-2.8-1.5-2.8-3.7C159.2,16.6,161.9,15.3,162.7,15.3z M155.5,12
			c0.8,0,1.4,0.6,1.4,1.4c0,0.8-0.6,1.4-1.4,1.4s-1.4-0.6-1.4-1.4S154.7,12,155.5,12z M157.2,19.8c0,0.6-0.3,1-0.7,1s-0.7-0.5-0.7-1
			s0.3-1,0.7-1C156.8,18.8,157.2,19.2,157.2,19.8z M154.1,44c-0.2,0-0.5-0.2-0.5-0.5c-0.1-0.4,0.3-0.7,0.7-0.7
			c0.2,0,0.5,0.2,0.5,0.5C154.8,43.7,154.5,44,154.1,44z M155.7,44c-0.2,0-0.5-0.2-0.5-0.5c-0.1-0.4,0.3-0.7,0.7-0.7
			c0.2,0,0.5,0.2,0.5,0.5C156.5,43.7,156.1,44,155.7,44z M157.1,44.6c-0.2,0-0.5-0.2-0.5-0.5c-0.1-0.4,0.3-0.7,0.7-0.7
			c0.2,0,0.5,0.2,0.5,0.5C157.8,44.3,157.5,44.6,157.1,44.6z M167.3,32.9c-2.7,5.8-8.2,7.8-9.5,7.8c-3.8,0-4.5-3.9-4.2-5.1
			c1-3.5,9.7-9.1,11-8.9C168,27.4,167.8,31.8,167.3,32.9z M169.9,20c-0.5-0.3-0.6-1.2-0.2-1.9s1.2-1,1.7-0.6
			c0.5,0.3,0.6,1.2,0.2,1.9S170.4,20.4,169.9,20z M171.1,28.8c-1-1.3,0.5-2.7,1.7-1.7C173.8,28.3,172.4,29.7,171.1,28.8z"/>
		<path class="st12" d="M142.9,41.6c0.1-0.9,3.1,3.6,3.5,3.6s-1.2-2.4-0.9-2.6c0.4-0.4,1.5,1.6,3.1,2.6c2.1,1.3,3.7,3.3,2.5,4
			c-0.7,0.4-4.4-1.1-4.4-1.1c-1.1-0.7-2-1.7-2.4-2.8C143.9,44.1,143.1,43.1,142.9,41.6z"/>
		<g>
			<path class="st17" d="M152,52.9c-0.2,0.4-0.3,0.6,0,0.8s0.5-0.2,0.8-0.6s0.3-0.6,0-0.8C152.5,52.1,152.3,52.4,152,52.9z"/>
			<path class="st32" d="M152.2,53.7c-0.1,0-0.1,0-0.2-0.1c-0.1-0.1-0.2-0.2-0.2-0.3s0.1-0.3,0.2-0.5l0,0c0.2-0.4,0.5-0.9,0.8-0.7
				c0.1,0.1,0.2,0.2,0.2,0.3s-0.1,0.3-0.2,0.5C152.7,53.4,152.5,53.7,152.2,53.7z M152.1,52.9c-0.1,0.2-0.2,0.3-0.2,0.4
				c0,0.1,0,0.1,0.2,0.2c0.2,0.1,0.4-0.1,0.7-0.6c0.1-0.2,0.2-0.3,0.2-0.4c0-0.1,0-0.1-0.2-0.2C152.5,52.2,152.4,52.4,152.1,52.9
				L152.1,52.9z"/>
		</g>
		<g>
			<path class="st17" d="M162.2,52.9c-0.2,0.4-0.3,0.6,0,0.8s0.5-0.2,0.8-0.6s0.3-0.6,0-0.8C162.6,52.1,162.4,52.4,162.2,52.9z"/>
			<path class="st32" d="M162.3,53.7c-0.1,0-0.1,0-0.2-0.1c-0.1-0.1-0.2-0.2-0.2-0.3s0.1-0.3,0.2-0.5l0,0c0.2-0.4,0.5-0.9,0.8-0.7
				c0.1,0.1,0.2,0.2,0.2,0.3s-0.1,0.3-0.2,0.5C162.8,53.4,162.6,53.7,162.3,53.7z M162.2,52.9c-0.1,0.2-0.2,0.3-0.2,0.4
				c0,0.1,0,0.1,0.2,0.2c0.2,0.1,0.4-0.1,0.7-0.6c0.1-0.2,0.2-0.3,0.2-0.4c0-0.1,0-0.1-0.2-0.2S162.5,52.4,162.2,52.9L162.2,52.9z"
				/>
		</g>
		<path class="st33" d="M153.9,55.2h-0.1c0.1-0.7,0.4-1.1,0.7-1.2c0.4-0.1,1,0.2,1.6,0.9L156,55c-0.6-0.7-1.1-1-1.5-0.9
			C154.2,54.2,154,54.6,153.9,55.2z"/>
		<g>
			<g>
				<ellipse class="st34" cx="165.5" cy="55" rx="3.3" ry="1"/>
			</g>
		</g>
		<g>
			<g>
				<ellipse class="st35" cx="147.9" cy="55.6" rx="3.3" ry="1"/>
			</g>
		</g>
		<path class="st14" d="M150.4,57.7c0-0.3,2.1,0.8,5.1,0.8c2.9-0.1,6-1.9,6.4-1.9c0.9,0-1.9,5.3-5.1,5.5
			C153.6,62.4,150.4,58.2,150.4,57.7z"/>
		<path class="st2" d="M150.7,59.2c0.2,0.1,2.3,0.4,2.4,0.3c0.2-0.1,0.3-1.1,0.3-1.1c-0.5-0.1-0.9-0.2-1.4-0.3
			C152,58.1,150.5,59.1,150.7,59.2z"/>
		<path class="st2" d="M157.1,59.4c0.3,0.2,2.3-0.3,2.3-0.4c0.1-0.2-0.8-1.1-0.8-1.1c-0.5,0.1-1,0.3-1.6,0.4
			C157.1,58.2,156.7,59.2,157.1,59.4z"/>
		<path class="st12" d="M171.7,46.2c-0.5,0.1-2.8-2.6-2.9-3s-2.1-1.3-1.7-1.9c0.4-0.6,2.2,0.8,2.5-0.1c0.2-0.6-1.1-3.8-0.1-3.8
			c0.9,0,1.4,3,1.9,2.9s-0.1-3.5,0.6-3.6c0.8-0.2,1,3.3,1.4,3.4c0.4,0.1,0.3-2.4,1-2.3c0.8,0.1,0.1,3.5,0.5,4.2
			C176.3,44.5,174.3,45.9,171.7,46.2z"/>
	</g>
</g>
</svg>
