<?xml version="1.0" encoding="utf-8"?>
<!-- Generator: Adobe Illustrator 22.0.1, SVG Export Plug-In . SVG Version: 6.00 Build 0)  -->
<svg version="1.1" xmlns="http://www.w3.org/2000/svg" xmlns:xlink="http://www.w3.org/1999/xlink" x="0px" y="0px"
	 viewBox="0 0 330 120" style="enable-background:new 0 0 330 120;" xml:space="preserve">
<style type="text/css">
	.st0{fill:#FFCCD7;}
	.st1{fill:#D891A3;}
	.st2{fill:#F8F9FF;}
	.st3{fill:url(#SVGID_1_);}
	.st4{fill:#FFFFFF;}
	.st5{fill:#CC2E3D;}
	.st6{clip-path:url(#SVGID_3_);fill:#67B4D6;}
	.st7{clip-path:url(#SVGID_5_);}
	.st8{fill:#3E88BA;}
	.st9{fill:#01B0A1;}
	.st10{clip-path:url(#SVGID_7_);}
	.st11{fill:#049599;}
	.st12{clip-path:url(#SVGID_9_);}
	.st13{clip-path:url(#SVGID_11_);}
	.st14{clip-path:url(#SVGID_13_);fill:#67B4D6;}
	.st15{clip-path:url(#SVGID_15_);}
	.st16{clip-path:url(#SVGID_17_);}
	.st17{fill:#EE2326;}
	.st18{clip-path:url(#SVGID_19_);}
	.st19{clip-path:url(#SVGID_21_);}
	.st20{clip-path:url(#SVGID_23_);}
	.st21{clip-path:url(#SVGID_25_);fill:#FFFFFF;}
	.st22{clip-path:url(#SVGID_27_);fill:#FFFFFF;}
	.st23{fill:#FFFDBD;}
	.st24{fill:#FF9C9C;}
	.st25{fill:#6D3A17;}
	.st26{fill:#FFDBB7;}
	.st27{clip-path:url(#SVGID_29_);}
	.st28{fill:#8D4E22;}
	.st29{clip-path:url(#SVGID_31_);}
	.st30{fill:#DD7C5E;}
	.st31{fill:#6D2C0B;}
	.st32{fill:#E55A5A;}
	.st33{fill:url(#SVGID_32_);}
	.st34{fill:url(#SVGID_33_);}
</style>
<g id="图层_3">
	<path class="st0" d="M236.8,81c-0.4-3.1-3.4-6.5-6.9-6.1c-0.6,0.1-1.2,0.2-1.9,0.3l0,0c0,0-0.1,0-0.1,0c-2.8,0.4-5.5,0.8-8.3,1.4
		c1.4-3.2,0.3-7.1-2.4-8.9c2.4-4.1-0.4-10-5.9-10.4c4.6-1.7,9.3-3.4,13.9-5c8.4-3,5.1-15.9-3.7-13.5c-9.8,2.6-19.5,5.4-29.1,8.4
		c2.1-1.7,3.3-4.2,2.5-7.2c-0.9-3.3-5.1-6.4-8.6-4.9c-1.6,0.7-3.2,1.3-4.8,2c-1.8-1.6-4.2-2.4-6.4-1.5
		c-12.2,5.1-24.4,10.2-36.6,15.2c1.6-0.9,3.2-1.8,4.8-2.6c11.5-6.1,23.4-11.5,34.3-18.6c6.8-4.4,2.4-14.3-5.4-12.8
		c-3.8,0.7-7.5,1.7-11.1,2.8c0.2-4.4-7.2-17.6-21.7-9c-15.9,9.4-25.3,12.7-35.5,27.5c-2.7,3.9-5.2,9.7,0,12.1
		c2.8,1.3,5.5,1.6,8.1,1.3c-6.1,5.3-10.7,11.7-10.2,19.1c0.1,2,1.2,4.2,2.9,5.6c-3.7,2.5-7.3,5.1-10.9,7.9c0,0,0,0-0.1,0l0,0
		c-0.5,0.4-1,0.7-1.4,1.1c-2.7,2.1-2.5,6.7-0.5,9.2c2.3,2.9,5.8,3.2,9,1.8c6.6-3,13.3-5.8,20-8.6c0.1,0.7,0.3,1.5,0.6,2.2
		c-7.7,3.2-14.9,6.7-21.1,12.5c-4.9,4.6,0.1,14.1,6.8,11.7c8.6-3.1,17.3-6.1,26-9c-0.3,4.4,3.3,8.4,8.6,7.3c5.5-1.2,11-2.7,16.4-4.2
		c2.8,0.1,5.6,0.1,8.4,0.2c1.4,2.2,4,3.7,7.5,3c0.5-0.1,1-0.2,1.5-0.3c0.9,2.7,3.2,4.9,6.4,4.6c6.9-0.7,13.7-1.9,20.3-3.7
		c3.1-0.8,4.6-3.1,4.9-5.5c6.8-2,13.6-3.8,20.2-5.8c5.7-1.7,6.1-7.8,3.2-11.3c0.4-0.2,0.8-0.3,1.2-0.5
		C235.1,87.4,237.3,84.7,236.8,81z"/>
</g>
<g id="图层_4">
	<path class="st1" d="M199.7,96.4c-0.9-0.5-1.9-0.8-3.2-0.7c-1.1-1-2.6-1.6-4.6-1.3l-3.7,0.5c-0.4-1.9-1.9-3.6-4.7-3.6
		c-3.2,0-6.4,0.2-9.7,0.6c-0.8-1.2-2.1-2-4-1.7c-0.4,0.1-0.9,0.1-1.3,0.2c0,0,0,0,0,0c0,0,0,0,0,0c-6.6,0.9-13.3,1.9-19.9,3.1
		c-0.8,0.1-1.5,0.4-2,0.8c-2,0.2-4,0.4-6,0.6c-2.5,0.3-4.7,1.9-4.9,4.5c0,0-0.1,0.1-0.1,0.1c-0.8,1.4-1,3.7,0,5c2.2,3,4.8,3,8.3,3.1
		c3,0.1,6.1,0.1,9.1,0.2c2.4,0.1,3.9-1.3,4.5-3c1.8-0.3,3.7-0.7,5.5-1.1c0.5,2.3,2.7,4.3,6,3.8c3.4-0.5,6.9-1,10.3-1.5
		c0.8,0.8,1.8,1.4,3.1,1.5c0.4,0.6,0.9,1.1,1.5,1.5c5.6,4,13.2,3,18.2-1.4c0.8-0.7,1.3-1.8,1.4-2.8C207,102,203.9,96.2,199.7,96.4z"
		/>
</g>
<g id="图层_1">
	<g>
		<path class="st2" d="M137.3,104.8c-3.9-0.7-7.3-3.2-9.9-7.1c-2.8-4.3-4.5-9.8-4.5-14.9c0-5.2,1.7-9.2,4.7-11.3c3-2,7.4-1.9,12.2,0
			c4.7,2,9.2,5.7,12,9.9c2.6,4,3.6,8.1,2.7,11.9c-0.8,3.5-3.3,6.9-6.7,9.2C144.5,104.7,140.8,105.4,137.3,104.8z"/>
		
			<linearGradient id="SVGID_1_" gradientUnits="userSpaceOnUse" x1="235.4558" y1="363.0376" x2="219.0455" y2="334.6142" gradientTransform="matrix(0.5863 -0.8101 0.8101 0.5863 -277.1005 67.3361)">
			<stop  offset="0.1059" style="stop-color:#5BEAD5"/>
			<stop  offset="0.547" style="stop-color:#868BDA"/>
			<stop  offset="0.8188" style="stop-color:#BF7BDD"/>
			<stop  offset="1" style="stop-color:#E171DE"/>
		</linearGradient>
		<path class="st3" d="M137.3,104.8c-3.9-0.7-7.3-3.2-9.9-7.1c-2.8-4.3-4.5-9.8-4.5-14.9c0-5.2,1.7-9.2,4.7-11.3c3-2,7.4-1.9,12.2,0
			c4.7,2,9.2,5.7,12,9.9c2.6,4,3.6,8.1,2.7,11.9c-0.8,3.5-3.3,6.9-6.7,9.2C144.5,104.7,140.8,105.4,137.3,104.8z"/>
		<path class="st4" d="M139.6,71.3c-4.8-2-9.2-2-12.2,0c-0.6,0.4-1.1,0.8-1.6,1.4c0,0,0,0,0.1,0c0.5,0.4,1.1,0.5,0.7,1
			s-1.1,0.7-1.7,0.3c0,0,0,0-0.1,0c-1.4,2.2-2.1,5.2-2.1,8.5c0,5.1,1.6,10.7,4.5,14.9c1.9,2.8,4.2,4.9,6.7,6.1
			c-0.5-0.3-0.8-0.7-0.9-1.1c-0.2-1.1-1.1-1.9-0.5-2.8c0.7-0.9,1.9,0.4,2.8,1.1s6.4,1.4,6.2,4c2-0.3,4.2-1.1,6.1-2.4
			c3.5-2.2,5.9-5.7,6.7-9.2c0.1-0.3,0.1-0.7,0.2-1c-0.7,0.9-2.1,3.3-3,2.5c-0.9-0.7-0.6-4.3-0.6-5.5c0-1.6,2.2-3.4,3.3-2.7
			c-0.5-1.7-1.3-3.6-2.4-5.3C148.8,77.1,144.3,73.3,139.6,71.3z M129.7,77.6c0.4-0.5,2,1.1,3.2,2.3c0.8,0.8,2.6,1.8,2.2,2.3
			c-0.4,0.5-2.4,1.2-4.1,0.1C128.8,80.7,129.3,78.1,129.7,77.6z M123.7,81c0.4-0.5,1.1-0.7,1.7-0.3c0.5,0.4,0.7,1.1,0.3,1.7
			c-0.4,0.5-1.1,0.7-1.7,0.3C123.4,82.3,123.3,81.5,123.7,81z M130.1,83.8c0.4,0.3,0.5,0.7,0.3,1c-0.2,0.3-0.7,0.3-1.1,0
			c-0.4-0.3-0.5-0.7-0.3-1C129.2,83.5,129.7,83.5,130.1,83.8z M145.5,98.3c-0.1,0.2-0.4,0.2-0.6,0.1c-0.3-0.2-0.4-0.6-0.1-0.8
			c0.1-0.2,0.4-0.2,0.6-0.1C145.7,97.6,145.8,98.1,145.5,98.3z M146.3,97.1c-0.1,0.2-0.4,0.2-0.6,0.1c-0.3-0.2-0.4-0.6-0.1-0.8
			c0.1-0.2,0.4-0.2,0.6-0.1C146.5,96.5,146.6,96.9,146.3,97.1z M147.5,96.5c-0.1,0.2-0.4,0.2-0.6,0.1c-0.3-0.2-0.4-0.6-0.1-0.8
			c0.1-0.2,0.4-0.2,0.6-0.1C147.7,95.9,147.8,96.3,147.5,96.5z M144.5,83.3c2.7,4.8,1.3,9.9,0.6,10.8c-1.9,2.7-5.1,1.2-5.7,0.3
			c-1.9-2.4-1.4-11.6-0.6-12.4C140.9,80,143.9,82.4,144.5,83.3z M136.7,74.8c-0.5,0.2-1.1-0.1-1.4-0.8c-0.3-0.6-0.1-1.3,0.4-1.5
			c0.5-0.2,1.1,0.1,1.4,0.8S137.2,74.7,136.7,74.8z M143.5,78.5c-1.4,0-1.6-1.7-0.3-2.1C144.6,76.4,144.8,78.1,143.5,78.5z"/>
		<path class="st5" d="M150.1,49.3l-5.7,2.3c0,0,16.9,18.8,17.2,19.1c0.4,0.2,4-1.6,4-1.6L150.1,49.3z"/>
		<path class="st4" d="M147.2,106.1c3.3,1,9.9-2.5,9.5-4.5c-0.4-1.9-1.5-3.3-2.5-3.4c-0.5,0-5.7,0-8,2.1
			C144.1,102.1,145.6,105.6,147.2,106.1z"/>
		<g>
			<g>
				<defs>
					<path id="SVGID_2_" d="M147.2,106.1c3.3,1,9.9-2.5,9.5-4.5c-0.4-1.9-1.5-3.3-2.5-3.4c-0.5,0-5.7,0-8,2.1
						C144.1,102.1,145.6,105.6,147.2,106.1z"/>
				</defs>
				<clipPath id="SVGID_3_">
					<use xlink:href="#SVGID_2_"  style="overflow:visible;"/>
				</clipPath>
				<path class="st6" d="M146.7,98.1c2.8,2.5,4,5.9,3.9,9.8l6.5-2.6l-2.4-8.4L146.7,98.1z"/>
			</g>
			<g>
				<defs>
					<path id="SVGID_4_" d="M147.2,106.1c3.3,1,9.9-2.5,9.5-4.5c-0.4-1.9-1.5-3.3-2.5-3.4c-0.5,0-5.7,0-8,2.1
						C144.1,102.1,145.6,105.6,147.2,106.1z"/>
				</defs>
				<clipPath id="SVGID_5_">
					<use xlink:href="#SVGID_4_"  style="overflow:visible;"/>
				</clipPath>
				<g class="st7">
					<g>
						<g>
							<path class="st8" d="M154,104.6c-1.7-0.5-4.9-4.7-3.3-6.8c1.1-1.4,2.9-2.9,2.9-2.9l5.4,7C159,101.9,155.2,105,154,104.6z"/>
						</g>
					</g>
				</g>
			</g>
		</g>
		<path class="st9" d="M177.1,90.7c0,0-24.8,7.8-25.4,8.7c-0.9,1.3,0.9,4.2,2.2,4.1c0.7,0,13.9-4,13.9-4s4.8,1.2,7.1,0.2
			C177.2,98.7,177.1,90.7,177.1,90.7z"/>
		<g>
			<g>
				<defs>
					<path id="SVGID_6_" d="M177.1,90.7c0,0-24.8,7.8-25.4,8.7c-0.9,1.3,0.9,4.2,2.2,4.1c0.7,0,13.9-4,13.9-4s4.8,1.2,7.1,0.2
						C177.2,98.7,177.1,90.7,177.1,90.7z"/>
				</defs>
				<clipPath id="SVGID_7_">
					<use xlink:href="#SVGID_6_"  style="overflow:visible;"/>
				</clipPath>
				<g class="st10">
					<g>
						<path class="st11" d="M175.9,93c0,0-0.9,5.4-4.1,5.9c-3.3,0.5-20.9,4-20.9,4l5.7,4.3l20-5.6l2.9-6.8L175.9,93z"/>
					</g>
				</g>
			</g>
			<g>
				<defs>
					<path id="SVGID_8_" d="M177.1,90.7c0,0-24.8,7.8-25.4,8.7c-0.9,1.3,0.9,4.2,2.2,4.1c0.7,0,13.9-4,13.9-4s4.8,1.2,7.1,0.2
						C177.2,98.7,177.1,90.7,177.1,90.7z"/>
				</defs>
				<clipPath id="SVGID_9_">
					<use xlink:href="#SVGID_8_"  style="overflow:visible;"/>
				</clipPath>
				<g class="st12">
					<g>
						<polygon class="st11" points="151,97.9 150.6,100.1 157.9,102.3 163.5,100.8 154.6,97.4 						"/>
					</g>
				</g>
			</g>
			<g>
				<defs>
					<path id="SVGID_10_" d="M177.1,90.7c0,0-24.8,7.8-25.4,8.7c-0.9,1.3,0.9,4.2,2.2,4.1c0.7,0,13.9-4,13.9-4s4.8,1.2,7.1,0.2
						C177.2,98.7,177.1,90.7,177.1,90.7z"/>
				</defs>
				<clipPath id="SVGID_11_">
					<use xlink:href="#SVGID_10_"  style="overflow:visible;"/>
				</clipPath>
				<g class="st13">
					<g>
						<polygon class="st11" points="156.8,97.1 156.6,99.3 164.1,100.8 171.8,99.7 160.3,96.3 						"/>
					</g>
				</g>
			</g>
		</g>
		<path class="st4" d="M171.6,107.5c-3.4,0.1-8.8-5.1-7.9-6.9c0.9-1.8,2.3-2.7,3.4-2.5c0.5,0.1,5.5,1.5,7.2,4.2
			C175.6,104.4,173.1,107.5,171.6,107.5z"/>
		<g>
			<g>
				<defs>
					<path id="SVGID_12_" d="M171.6,107.5c-3.4,0.1-8.8-5.1-7.9-6.9c0.9-1.8,2.3-2.7,3.4-2.5c0.5,0.1,5.5,1.5,7.2,4.2
						C175.6,104.4,173.1,107.5,171.6,107.5z"/>
				</defs>
				<clipPath id="SVGID_13_">
					<use xlink:href="#SVGID_12_"  style="overflow:visible;"/>
				</clipPath>
				<path class="st14" d="M174,99.8c-3.5,1.7-5.4,4.6-6.3,8.3l-5.5-4.3l4.7-7.5L174,99.8z"/>
			</g>
			<g>
				<defs>
					<path id="SVGID_14_" d="M171.6,107.5c-3.4,0.1-8.8-5.1-7.9-6.9c0.9-1.8,2.3-2.7,3.4-2.5c0.5,0.1,5.5,1.5,7.2,4.2
						C175.6,104.4,173.1,107.5,171.6,107.5z"/>
				</defs>
				<clipPath id="SVGID_15_">
					<use xlink:href="#SVGID_14_"  style="overflow:visible;"/>
				</clipPath>
				<g class="st15">
					<g>
						<g>
							<path class="st8" d="M168.7,96.3c0.9,1.5,0.6,6.7-2,7.2c-1.8,0.3-4.2,0.3-4.2,0.3l0.5-8.7C163.1,95.1,168.1,95.2,168.7,96.3z
								"/>
						</g>
					</g>
				</g>
			</g>
		</g>
		<path class="st9" d="M155,89c0,0-11.9,0.9-13.4,3.2c-1.5,2.2-1,4.2,0,4.9c1,0.7,23.8,6,24.8,6c1,0,2.8-4,2-4.5
			c-0.9-0.6-17.7-3.8-17.7-4.4c0-0.6,9.2,0,9.2,0l8.4,2.2l5.4-5L155,89z"/>
		<g>
			<g>
				<defs>
					<path id="SVGID_16_" d="M155,89c0,0-11.9,0.9-13.4,3.2c-1.5,2.2-1,4.2,0,4.9c1,0.7,23.8,6,24.8,6c1,0,2.8-4,2-4.5
						c-0.9-0.6-17.7-3.8-17.7-4.4c0-0.6,9.2,0,9.2,0l8.4,2.2l5.4-5L155,89z"/>
				</defs>
				<clipPath id="SVGID_17_">
					<use xlink:href="#SVGID_16_"  style="overflow:visible;"/>
				</clipPath>
				<g class="st16">
					<g>
						<polygon class="st11" points="168.3,94 161,95.6 165.4,92.4 168.6,93.1 						"/>
					</g>
				</g>
			</g>
		</g>
		<path class="st17" d="M160.4,67.9c2.6,8.1-6.3,18.6-5.7,20.5c0.6,1.9,12.6,6.6,22.3,6.7c1.1-4.5,2.3-8.8,2.5-13.3
			c0.2-5.9-1.1-11.8-2.5-17.7L160.4,67.9z"/>
		<g>
			<g>
				<defs>
					<path id="SVGID_18_" d="M160.4,67.9c2.6,8.1-6.3,18.6-5.7,20.5c0.6,1.9,12.6,6.6,22.3,6.7c1.1-4.5,2.3-8.8,2.5-13.3
						c0.2-5.9-1.1-11.8-2.5-17.7L160.4,67.9z"/>
				</defs>
				<clipPath id="SVGID_19_">
					<use xlink:href="#SVGID_18_"  style="overflow:visible;"/>
				</clipPath>
				<g class="st18">
					<g>
						<polygon class="st5" points="175.3,65.9 172.6,68 176.8,69.8 179.5,67.8 						"/>
					</g>
				</g>
			</g>
			<g>
				<defs>
					<path id="SVGID_20_" d="M160.4,67.9c2.6,8.1-6.3,18.6-5.7,20.5c0.6,1.9,12.6,6.6,22.3,6.7c1.1-4.5,2.3-8.8,2.5-13.3
						c0.2-5.9-1.1-11.8-2.5-17.7L160.4,67.9z"/>
				</defs>
				<clipPath id="SVGID_21_">
					<use xlink:href="#SVGID_20_"  style="overflow:visible;"/>
				</clipPath>
				<g class="st19">
					<g>
						<polygon class="st5" points="172.1,68.8 169.3,71 173.6,72.7 176.2,70.8 						"/>
					</g>
				</g>
			</g>
			<g>
				<defs>
					<path id="SVGID_22_" d="M160.4,67.9c2.6,8.1-6.3,18.6-5.7,20.5c0.6,1.9,12.6,6.6,22.3,6.7c1.1-4.5,2.3-8.8,2.5-13.3
						c0.2-5.9-1.1-11.8-2.5-17.7L160.4,67.9z"/>
				</defs>
				<clipPath id="SVGID_23_">
					<use xlink:href="#SVGID_22_"  style="overflow:visible;"/>
				</clipPath>
				<g class="st20">
					<g>
						<polygon class="st5" points="168.4,67.6 165.7,69.8 169.9,71.5 172.6,69.5 						"/>
					</g>
				</g>
			</g>
			<g>
				<defs>
					<path id="SVGID_24_" d="M160.4,67.9c2.6,8.1-6.3,18.6-5.7,20.5c0.6,1.9,12.6,6.6,22.3,6.7c1.1-4.5,2.3-8.8,2.5-13.3
						c0.2-5.9-1.1-11.8-2.5-17.7L160.4,67.9z"/>
				</defs>
				<clipPath id="SVGID_25_">
					<use xlink:href="#SVGID_24_"  style="overflow:visible;"/>
				</clipPath>
				<path class="st21" d="M157.6,72.3c0,0,3.4,1.9,11,2.8c7.7,0.9,16.6,1.5,16.6,1.5l0.1,7.2c0,0-11.8-2.6-17.8-3.8
					c-5.9-1.1-9.5-3.3-9.5-3.3L157.6,72.3z"/>
			</g>
			<g>
				<defs>
					<path id="SVGID_26_" d="M160.4,67.9c2.6,8.1-6.3,18.6-5.7,20.5c0.6,1.9,12.6,6.6,22.3,6.7c1.1-4.5,2.3-8.8,2.5-13.3
						c0.2-5.9-1.1-11.8-2.5-17.7L160.4,67.9z"/>
				</defs>
				<clipPath id="SVGID_27_">
					<use xlink:href="#SVGID_26_"  style="overflow:visible;"/>
				</clipPath>
				<path class="st22" d="M155.5,80.6c0,0,3.2,2.2,10.7,3.8c7.6,1.5,16.4,2.9,16.4,2.9l-0.6,7.2c0,0-11.6-3.7-17.4-5.4
					c-5.8-1.7-9.1-4.2-9.1-4.2L155.5,80.6z"/>
			</g>
		</g>
		
			<rect x="165.2" y="94.6" transform="matrix(0.9151 -0.4033 0.4033 0.9151 -24.0918 74.9405)" class="st23" width="1.3" height="0.2"/>
		
			<rect x="162.5" y="95.8" transform="matrix(0.9151 -0.4033 0.4033 0.9151 -24.8162 73.9532)" class="st23" width="1.3" height="0.2"/>
		<rect x="155.6" y="92.6" class="st23" width="1.6" height="0.2"/>
		<rect x="152.2" y="92.6" class="st23" width="1.6" height="0.2"/>
		<rect x="152" y="95" transform="matrix(0.2808 -0.9598 0.9598 0.2808 17.4515 214.8811)" class="st23" width="0.2" height="1.6"/>
		
			<rect x="155.7" y="96" transform="matrix(0.2808 -0.9598 0.9598 0.2808 19.1632 219.1515)" class="st23" width="0.2" height="1.6"/>
		
			<rect x="159.1" y="96.9" transform="matrix(0.2598 -0.9657 0.9657 0.2598 23.4687 226.0469)" class="st23" width="0.2" height="1.6"/>
		<path class="st23" d="M149.1,94.5c-0.1-0.2-0.2-0.5-0.1-0.8c0.2-0.2,0.5-0.3,1.2-0.3v0.2c-0.7,0-0.9,0.1-1,0.2
			c-0.1,0.1,0,0.3,0.1,0.5L149.1,94.5z"/>
		<path class="st24" d="M165.1,65.9c0,0-0.1,2.5,0.7,3.2s4.5,0.6,4.9-0.4s-0.4-5.4-0.4-5.4L165.1,65.9z"/>
		<path class="st25" d="M187.5,57.8c0,0-1.5,5.5-2.6,6.5c-1.1,1-6-6.5-6-6.5l4-5.8L187.5,57.8z"/>
		<path class="st26" d="M162.7,35.7c-6.9,4.5-15.5,17.2-13.8,23.1s11.9,9.2,11.9,9.2s13.8,1.4,17.9-2c4.1-3.5,2-1.7,5-4.2
			c1-0.8,1.2-0.2,2.1-0.5c1.7-0.5,3.4-2.6,3.6-3c0-0.1,0.3-0.6,0.4-1.2c0.3-1.7,0.7-4.5,0.7-4.5l-3.8-15.2L162.7,35.7z"/>
		<g>
			<g>
				<defs>
					<path id="SVGID_28_" d="M162.7,35.7c-6.9,4.5-15.5,17.2-13.8,23.1s11.9,9.2,11.9,9.2s13.8,1.4,17.9-2c4.1-3.5,2-1.7,5-4.2
						c1-0.8,1.2-0.2,2.1-0.5c1.7-0.5,3.4-2.6,3.6-3c0-0.1,0.3-0.6,0.4-1.2c0.3-1.7,0.7-4.5,0.7-4.5l-3.8-15.2L162.7,35.7z"/>
				</defs>
				<clipPath id="SVGID_29_">
					<use xlink:href="#SVGID_28_"  style="overflow:visible;"/>
				</clipPath>
				<g class="st27">
					<g>
						<path class="st24" d="M184.6,53.7c-1.4,5.4-4.8,10.8-10.5,12.1c-7.6,1.8-18.2,0.6-23.2-3.7l20,14.6l23-10.4l-1-14.4
							L184.6,53.7z"/>
					</g>
				</g>
			</g>
		</g>
		<path class="st28" d="M191.2,43.3c0.7,3.7,6.5,9.4,6,11.1c-0.6,1.7-8,4.4-7.9,4.3c0.6-1,1.7-4.5-1.2-4.8c-2.8-0.3-4.4,2.2-4.8,1
			c-0.4-1.2,0.5-4.5,0.5-5c0-0.5-1.7,0.6-1.4-0.6c0.3-1.2,5.4-8.5,2-6.1c-3.7,2.6-12.2,0.5-11.3-0.7c1.4-1.8,4.8-3-0.9-1.1
			c-5.3,1.7-10.2,1.3-11,0.6c-0.5-0.4,1.2-1.6,2.8-2.4c1.2-0.6,1.3-1.2,0.7-1c-1.3,0.4-6.4,2.8-6.4,2.8l-12.5,5.2l9.2-19.7
			c0,0,10.3,1.8,12,1.6c1.7-0.2-1.9-4.2,0.3-4.5c3.6-0.6,14,7.7,14.6,8.5c0.6,0.7,0.4-4,2.4-2.7C186.6,30.8,190.4,39.4,191.2,43.3z"
			/>
		<g>
			<g>
				<defs>
					<path id="SVGID_30_" d="M191.2,43.3c0.7,3.7,6.5,9.4,6,11.1c-0.6,1.7-8,4.4-7.9,4.3c0.6-1,1.7-4.5-1.2-4.8
						c-2.8-0.3-4.4,2.2-4.8,1c-0.4-1.2,0.5-4.5,0.5-5c0-0.5-1.7,0.6-1.4-0.6c0.3-1.2,5.4-8.5,2-6.1c-3.7,2.6-12.2,0.5-11.3-0.7
						c1.4-1.8,4.8-3-0.9-1.1c-5.3,1.7-10.2,1.3-11,0.6c-0.5-0.4,1.2-1.6,2.8-2.4c1.2-0.6,1.3-1.2,0.7-1c-1.3,0.4-6.4,2.8-6.4,2.8
						l-12.5,5.2l9.2-19.7c0,0,10.3,1.8,12,1.6c1.7-0.2-1.9-4.2,0.3-4.5c3.6-0.6,14,7.7,14.6,8.5c0.6,0.7,0.4-4,2.4-2.7
						C186.6,30.8,190.4,39.4,191.2,43.3z"/>
				</defs>
				<clipPath id="SVGID_31_">
					<use xlink:href="#SVGID_30_"  style="overflow:visible;"/>
				</clipPath>
				<g class="st29">
					<g>
						<path class="st25" d="M194.2,40.7c0,0-2.6,8.8-6.5,11.3c-3.9,2.4-8.8,4.2-8.8,4.2l10.5,9.5l19.7-8.1c0,0-5.3-14.4-6.2-14.6
							C202,42.4,194.2,40.7,194.2,40.7z"/>
					</g>
				</g>
			</g>
		</g>
		<path class="st30" d="M160.8,49.9c-0.1,0-0.2,0-0.3,0l0.1-0.2v0.1v-0.1c0,0,0.6,0.2,0.8-0.3c0.1-0.3,0.1-0.5,0-0.7
			c-0.1-0.2-0.3-0.3-0.7-0.4c-0.1,0-0.2,0-0.3-0.1c-0.1,0-0.2-0.1-0.3-0.1c-0.2-0.1-0.4-0.3-0.3-0.6c0-0.3,0.2-0.6,0.5-0.6
			c0.1,0,0.2,0,0.4,0c0.3,0,0.8,0.1,1.2,0.3c0.9,0.5,1.5,1.4,1.5,1.4l-0.2,0.1c0,0-0.6-0.9-1.4-1.3c-0.4-0.2-0.8-0.3-1.1-0.3
			c-0.2,0-0.3,0-0.4,0c-0.1,0-0.3,0.2-0.3,0.4c0,0,0,0.3,0.1,0.4c0.1,0,0.2,0.1,0.3,0.1s0.2,0,0.3,0.1c0.3,0.1,0.6,0.2,0.8,0.5
			c0.1,0.2,0.1,0.5,0,0.9C161.5,49.8,161.1,49.9,160.8,49.9z"/>
		<path class="st30" d="M161.3,51.8c-1.1,0-2.2-0.7-2.6-1.4c-0.2-0.4-0.1-0.8,0.2-1.2c0.1-0.1,0.3-0.2,0.5-0.2
			c0.2,0,0.3-0.1,0.4-0.2c0.4-0.3,0.7-0.8,0.7-0.8l0.2,0.1c0,0-0.3,0.6-0.8,0.9c-0.2,0.1-0.4,0.2-0.5,0.2c-0.2,0-0.3,0.1-0.4,0.2
			c-0.3,0.2-0.3,0.5-0.1,0.9c0.4,0.7,1.7,1.4,2.8,1.2c0.8-0.2,0.9-0.5,0.9-0.5h0.2c0,0-0.1,0.5-1.1,0.7
			C161.7,51.7,161.5,51.8,161.3,51.8z"/>
		<path class="st31" d="M173.5,44.3c-0.3-0.6-0.8-1.3-1.1-1.3c-0.3,0-1.1,0.3-1.5,0.6l-0.2-0.3c0.2-0.1,1.3-0.7,1.8-0.6
			c0.5,0.1,1.1,1.2,1.3,1.5L173.5,44.3z"/>
		<path class="st30" d="M164.3,45.9c-0.3-0.5-0.8-1.3-1.1-1.3c-0.3,0-0.7,0.5-0.9,0.7l-0.2-0.1c0.1-0.1,0.6-0.9,1.1-0.8
			s1.2,1.2,1.3,1.4L164.3,45.9z"/>
		<path class="st31" d="M160.9,42.7c-0.2-0.6-0.6-1.2-0.7-1.3c-0.1,0-0.6,0.2-0.9,0.6l-0.2-0.3c0.3-0.2,0.9-0.7,1.3-0.6
			c0.3,0.1,0.7,1,0.9,1.5L160.9,42.7z"/>
		<g>
			<g>
				<g>
					
						<ellipse transform="matrix(0.1531 -0.9882 0.9882 0.1531 101.3908 214.6497)" class="st24" cx="175.9" cy="48.2" rx="2.1" ry="5.1"/>
				</g>
			</g>
		</g>
		<g>
			<g>
				<g>
					
						<ellipse transform="matrix(0.1531 -0.9882 0.9882 0.1531 87.9418 191.2157)" class="st24" cx="155.5" cy="44.3" rx="1.7" ry="4.1"/>
				</g>
			</g>
		</g>
		<g>
			<g>
				<path class="st32" d="M185,57.4c0-0.5,1.9-2.1,2.7-2.1s1.3,0.7,1.1,0.9c-0.2,0.2-0.5-0.4-1.2-0.3C186.9,55.9,185,57.9,185,57.4z
					"/>
			</g>
		</g>
		<path class="st2" d="M177.1,95.5c-0.8-4.5,0.5-9,3.7-13.5c3.5-4.7,8.7-8.7,14.2-10.9c5.6-2.1,10.7-1.9,14,0.5s5.1,7.2,4.9,13.2
			c-0.2,5.9-2.3,12.2-5.8,17c-3.2,4.5-7.2,7.1-11.7,7.7c-4.1,0.6-8.7-0.7-12.6-3.5C180.1,103.3,178,99.5,177.1,95.5z"/>
		
			<linearGradient id="SVGID_32_" gradientUnits="userSpaceOnUse" x1="144.8675" y1="166.6433" x2="126.0109" y2="133.9828" gradientTransform="matrix(0.9647 0.2632 -0.2632 0.9647 104.9755 -90.4424)">
			<stop  offset="0.1059" style="stop-color:#5BEAD5"/>
			<stop  offset="0.547" style="stop-color:#868BDA"/>
			<stop  offset="0.8188" style="stop-color:#BF7BDD"/>
			<stop  offset="1" style="stop-color:#E171DE"/>
		</linearGradient>
		<path class="st33" d="M177.1,95.5c-0.8-4.5,0.5-9,3.7-13.5c3.5-4.7,8.7-8.7,14.2-10.9c5.6-2.1,10.7-1.9,14,0.5s5.1,7.2,4.9,13.2
			c-0.2,5.9-2.3,12.2-5.8,17c-3.2,4.5-7.2,7.1-11.7,7.7c-4.1,0.6-8.7-0.7-12.6-3.5C180.1,103.3,178,99.5,177.1,95.5z"/>
		<path class="st4" d="M214.1,84.5c0.2-6-1.5-10.8-4.9-13.2c-0.6-0.5-1.4-0.8-2.1-1.1v0.1c-0.2,0.7-0.1,1.4-0.8,1.2
			c-0.7-0.2-1.2-0.9-1-1.7v-0.1c-2.9-0.6-6.4-0.2-10.1,1.1c-5.5,2-10.9,6.1-14.2,10.9c-2.2,3.2-3.6,6.5-3.9,9.7
			c0.1-0.7,0.4-1.2,0.8-1.4c1.1-0.7,1.6-2,2.8-1.6c1.2,0.3,0.3,2.2,0,3.5c-0.3,1.2,1,7.5-1.8,8.3c1.1,2.1,2.8,4.1,5.1,5.6
			c3.9,2.7,8.5,4.1,12.6,3.5c0.4-0.1,0.8-0.1,1.2-0.2c-1.3-0.4-4.3-1-4-2.2c0.3-1.2,4.4-2.4,5.6-2.8c1.8-0.6,4.5,1.1,4.2,2.3
			c1.7-1.2,3.3-2.8,4.7-4.8C211.7,96.7,213.9,90.4,214.1,84.5z M203.4,76.4c0.7,0.2-0.4,2.6-1.2,4.4c-0.6,1.2-0.9,3.6-1.6,3.4
			c-0.7-0.2-2.3-2.1-1.7-4.3C199.6,76.7,202.7,76.2,203.4,76.4z M197.3,71.3c0.7,0.2,1.2,0.9,1,1.7c-0.2,0.7-0.9,1.2-1.7,1
			c-0.7-0.2-1.2-0.9-1-1.7S196.6,71.1,197.3,71.3z M196.9,79.2c-0.1,0.5-0.6,0.9-1,0.8c-0.4-0.1-0.6-0.6-0.4-1.2
			c0.1-0.5,0.6-0.9,1-0.8C196.8,78.2,197.1,78.7,196.9,79.2z M187.5,101.8c-0.2-0.1-0.4-0.4-0.3-0.6c0-0.4,0.5-0.6,0.8-0.5
			c0.2,0.1,0.4,0.4,0.3,0.6C188.3,101.8,187.9,102,187.5,101.8z M189.1,102.3c-0.2-0.1-0.4-0.4-0.3-0.6c0-0.4,0.5-0.6,0.8-0.5
			c0.2,0.1,0.4,0.4,0.3,0.6C189.9,102.2,189.4,102.4,189.1,102.3z M190.3,103.2c-0.2-0.1-0.4-0.4-0.3-0.6c0-0.4,0.5-0.6,0.8-0.5
			c0.2,0.1,0.4,0.4,0.3,0.6C191.1,103.1,190.7,103.3,190.3,103.2z M203.2,94.7c-4.1,4.9-10.1,5.4-11.3,5.1c-3.7-1-3.4-4.9-2.6-6
			c1.8-3,11.8-6.3,13-5.7C205.3,89.4,204.1,93.6,203.2,94.7z M209.2,82.9c-0.4-0.5-0.3-1.3,0.3-1.8c0.6-0.5,1.4-0.6,1.8-0.1
			c0.4,0.5,0.3,1.3-0.3,1.8C210.4,83.3,209.6,83.3,209.2,82.9z M208,91.6c-0.6-1.5,1.1-2.4,2.1-1.2C210.7,91.9,209,92.8,208,91.6z"
			/>
		<path class="st2" d="M125.4,40.6c-1.2-4.6-0.4-9.5,2.5-14.3c3.2-5.2,8.2-9.9,13.8-12.6s11-2.9,14.6-0.8c3.7,2.2,6,7,6.3,13.2
			c0.3,6.1-1.3,12.9-4.5,18.1c-2.9,4.9-6.9,8-11.4,9.1c-4.2,1-9.1,0.1-13.4-2.4C129.3,48.4,126.6,44.7,125.4,40.6z"/>
		
			<linearGradient id="SVGID_33_" gradientUnits="userSpaceOnUse" x1="179.9238" y1="11.1895" x2="160.2671" y2="-22.8568" gradientTransform="matrix(0.9842 0.1768 -0.1768 0.9842 -23.8291 9.0256)">
			<stop  offset="0.1059" style="stop-color:#5BEAD5"/>
			<stop  offset="0.547" style="stop-color:#868BDA"/>
			<stop  offset="0.8188" style="stop-color:#BF7BDD"/>
			<stop  offset="1" style="stop-color:#E171DE"/>
		</linearGradient>
		<path class="st34" d="M125.4,40.6c-1.2-4.6-0.4-9.5,2.5-14.3c3.2-5.2,8.2-9.9,13.8-12.6s11-2.9,14.6-0.8c3.7,2.2,6,7,6.3,13.2
			c0.3,6.1-1.3,12.9-4.5,18.1c-2.9,4.9-6.9,8-11.4,9.1c-4.2,1-9.1,0.1-13.4-2.4C129.3,48.4,126.6,44.7,125.4,40.6z"/>
		<path class="st4" d="M162.8,25.7c-0.3-6.2-2.6-11-6.3-13.2c-0.7-0.4-1.5-0.8-2.3-1v0.1c-0.1,0.8,0.1,1.5-0.7,1.3
			c-0.8-0.1-1.3-0.9-1.2-1.7v-0.1c-3-0.4-6.7,0.4-10.4,2.1c-5.5,2.6-10.7,7.4-13.8,12.6c-2,3.5-3.2,7-3,10.4
			c0.1-0.7,0.3-1.2,0.7-1.5c1.1-0.8,1.5-2.2,2.8-2c1.3,0.2,0.5,2.3,0.3,3.7c-0.2,1.3,1.7,7.6-1.1,8.8c1.4,2.1,3.4,4,5.8,5.4
			c4.3,2.5,9.2,3.5,13.4,2.4c0.4-0.1,0.8-0.2,1.2-0.3c-1.4-0.2-4.6-0.6-4.4-1.9c0.2-1.3,4.4-2.9,5.6-3.5c1.8-0.8,4.8,0.7,4.6,2
			c1.6-1.4,3.2-3.3,4.4-5.4C161.5,38.6,163.1,31.8,162.8,25.7z M150.9,18.2c0.8,0.1-0.2,2.8-0.8,4.7c-0.5,1.3-0.6,3.8-1.4,3.7
			s-2.6-2-2.2-4.3C147.1,19,150.1,18.1,150.9,18.2z M144.1,13.5c0.8,0.1,1.3,0.9,1.2,1.7c-0.1,0.8-0.9,1.3-1.7,1.2
			c-0.8-0.1-1.3-0.9-1.2-1.7C142.6,13.9,143.3,13.4,144.1,13.5z M144.4,21.9c-0.1,0.6-0.5,1-0.9,0.9c-0.4-0.1-0.7-0.6-0.6-1.2
			s0.5-1,0.9-0.9C144.2,20.8,144.5,21.3,144.4,21.9z M136.8,46.2c-0.2-0.1-0.4-0.3-0.4-0.6c0-0.4,0.4-0.7,0.8-0.6
			c0.2,0.1,0.4,0.3,0.4,0.6C137.6,46.1,137.2,46.4,136.8,46.2z M138.5,46.5c-0.2-0.1-0.4-0.3-0.4-0.6c0-0.4,0.4-0.7,0.8-0.6
			c0.2,0.1,0.4,0.3,0.4,0.6C139.3,46.4,138.8,46.7,138.5,46.5z M139.7,47.4c-0.2-0.1-0.4-0.3-0.4-0.6c0-0.4,0.4-0.7,0.8-0.6
			c0.2,0.1,0.4,0.3,0.4,0.6C140.5,47.2,140.1,47.5,139.7,47.4z M152.4,37.3c-3.8,5.4-9.9,6.5-11.3,6.3c-4-0.7-4-4.8-3.4-6
			c1.6-3.4,11.7-7.6,13-7.1C154.1,31.6,153.2,36.2,152.4,37.3z M157.4,24.5c-0.5-0.4-0.4-1.3,0.1-1.9c0.6-0.6,1.4-0.8,1.9-0.3
			c0.5,0.4,0.4,1.3-0.1,1.9C158.7,24.8,157.9,24.9,157.4,24.5z M157.1,33.8c-0.7-1.5,1-2.6,2.1-1.4C160,33.8,158.2,35,157.1,33.8z"
			/>
		<path class="st17" d="M156.5,47.1c-2.1-2.3-6.4-0.2-5,1.9c1.3,2.1,22.2,25.2,22.2,25.2s1.3,0.7,2.8-0.8c1.6-1.5,0.2-4.1,0.2-4.1
			S158.6,49.3,156.5,47.1z"/>
		<path class="st26" d="M155.9,47.5c0.1-1.4-1.1-3.7-1.4-4c-0.3-0.3-0.3-2.4-1-2.4c-0.7,0.1-0.3,2.2-1.2,2.2c-0.7,0-2.9-2.6-3.4-1.7
			c-0.4,0.8,2.1,2.5,1.8,2.9c-0.3,0.4-3.2-1.5-3.6-1c-0.5,0.7,2.5,2.3,2.4,2.7c0,0.4-2.2-0.8-2.4-0.1c-0.2,0.7,3,1.6,3.6,2.2
			C152.4,50.9,155.9,48.9,155.9,47.5z"/>
	</g>
</g>
</svg>
