<?xml version="1.0" encoding="utf-8"?>
<!-- Generator: Adobe Illustrator 22.0.1, SVG Export Plug-In . SVG Version: 6.00 Build 0)  -->
<svg version="1.1" xmlns="http://www.w3.org/2000/svg" xmlns:xlink="http://www.w3.org/1999/xlink" x="0px" y="0px"
	 viewBox="0 0 340 340" style="enable-background:new 0 0 340 340;" xml:space="preserve">
<style type="text/css">
	.st0{fill:#D6F1FF;}
	.st1{fill:none;}
	.st2{clip-path:url(#SVGID_2_);}
	.st3{fill:#F6FFEC;}
	.st4{clip-path:url(#SVGID_4_);}
	.st5{clip-path:url(#SVGID_6_);}
	.st6{fill:#CCE8D2;}
	.st7{clip-path:url(#SVGID_8_);}
	.st8{fill:#00E592;}
	.st9{clip-path:url(#SVGID_10_);}
	.st10{opacity:0.2;enable-background:new    ;}
	.st11{fill:#000002;}
	.st12{opacity:0.2;fill:#FFFFFF;enable-background:new    ;}
	.st13{fill:#30323C;}
	.st14{clip-path:url(#SVGID_12_);}
	.st15{clip-path:url(#SVGID_14_);}
	.st16{clip-path:url(#SVGID_16_);}
	.st17{fill:#CEEAD3;}
	.st18{opacity:0.2;fill:url(#path-1-5_1_);enable-background:new    ;}
	.st19{fill:#DDDDDD;}
	.st20{fill:#65708C;}
	.st21{clip-path:url(#SVGID_18_);}
	.st22{clip-path:url(#SVGID_20_);}
	.st23{clip-path:url(#SVGID_22_);}
	.st24{clip-path:url(#SVGID_24_);}
	.st25{fill:#1D8D81;}
	.st26{fill:#969696;}
	.st27{fill:#FFFFFF;}
	.st28{fill:#DD7C7C;}
</style>
<g id="图层_2">
</g>
<g id="图层_1">
	<title>8</title>
	<circle class="st0" cx="170" cy="170" r="170"/>
	<path class="st1" d="M97.6,248.7C83.4,269,80,291.5,79.3,315.9c-0.8,24.7,17.6,53.7,41.6,59.5c1.7,4.3,2.2,5.1,5.9,7.9
		c3.7,2.8,11.4,2.3,15.4,0c5.1-2.9,8.4-7.5,8.8-13.4c0.3-6.3-5.7-14.8-6.3-16.2c-0.3-0.6,9.8,4.7,15.7,5.3
		c24.3,2.1,33.1-2.7,36.4-5.7c-1.7,7.9-6.5,13.4-4.3,20.8c2.1,6.9,13.1,14.7,23.2,12.8s11.2-11,11.6-11.5c7.7-9.1,22-17.4,29.1-53.3
		c7-35.3-17.1-75-21.7-79s-55.4,5.2-76.3,2.9c-15.1-1.7-30.3-2.5-45.5-2.3C107.3,243.7,97.6,248.7,97.6,248.7z"/>
	<g>
		<defs>
			<circle id="SVGID_1_" cx="170" cy="170" r="170"/>
		</defs>
		<clipPath id="SVGID_2_">
			<use xlink:href="#SVGID_1_"  style="overflow:visible;"/>
		</clipPath>
		<g class="st2">
			<g id="tailFur">
				<g id="tail-mainColor">
					<g id="tail-mainColor08">
						<path id="_tail02_-clip-5" class="st3" d="M253.6,331.2c0,0,13.5,4.7,15.8,6.7c2.8,2.4-2.8,12.3-2.8,12.3l7,7.3
							c0,0,16.1-1.5,18.4,0.1c2.3,1.6,2.4,11.1,2.4,11.1s6.5,3.4,9,2.7c2.5-0.7,7.2-8,10.6-8.1s8.5,6.6,10.4,6.7
							c1.9,0.2,17.3-3,17.6-1.3c0.3,1.7-16,15.8-51.5,17.3c-35.5,1.5-55.7-13.9-55.7-13.9l2.7-46.2l12.3-1.5l0,0L253.6,331.2z"/>
						<g>
							<defs>
								<path id="SVGID_3_" d="M253.6,331.2c0,0,13.5,4.7,15.8,6.7c2.8,2.4-2.8,12.3-2.8,12.3l7,7.3c0,0,16.1-1.5,18.4,0.1
									c2.3,1.6,2.4,11.1,2.4,11.1s6.5,3.4,9,2.7c2.5-0.7,7.2-8,10.6-8.1s8.5,6.6,10.4,6.7c1.9,0.2,17.3-3,17.6-1.3
									c0.3,1.7-16,15.8-51.5,17.3c-35.5,1.5-55.7-13.9-55.7-13.9l2.7-46.2l12.3-1.5l0,0L253.6,331.2z"/>
							</defs>
							<clipPath id="SVGID_4_">
								<use xlink:href="#SVGID_3_"  style="overflow:visible;"/>
							</clipPath>
							<g class="st4">
								<rect id="rectangles" x="223.2" y="281.3" class="st3" width="150.7" height="150.7"/>
							</g>
						</g>
					</g>
				</g>
				<g id="tailFur08">
					<g id="color2">
						<g>
							<defs>
								<path id="SVGID_5_" d="M253.6,331.2c0,0,13.5,4.7,15.8,6.7c2.8,2.4-2.8,12.3-2.8,12.3l7,7.3c0,0,16.1-1.5,18.4,0.1
									c2.3,1.6,2.4,11.1,2.4,11.1s6.5,3.4,9,2.7c2.5-0.7,7.2-8,10.6-8.1s8.5,6.6,10.4,6.7c1.9,0.2,17.3-3,17.6-1.3
									c0.3,1.7-16,15.8-51.5,17.3c-35.5,1.5-55.7-13.9-55.7-13.9l2.7-46.2l12.3-1.5l0,0L253.6,331.2z"/>
							</defs>
							<clipPath id="SVGID_6_">
								<use xlink:href="#SVGID_5_"  style="overflow:visible;"/>
							</clipPath>
							<g class="st5">
								<path id="path-3" class="st6" d="M391.3,318.9c-33,7.3-12.6-19.9-46.5,16.5s-55.8,36.4-34,48c21.8,11.6,53.2,34.4,70.7,6.3
									c17.5-28.1,26.2-30.1,18-50.4L391.3,318.9z"/>
								<path id="path-2" class="st6" d="M221.8,294.5c47.5,22.1,56.7,4.2,63,25.5c6.3,21.3-11,11.2-18.9,31.5
									c-10.3,26.5-22.6,16.5-35.9-9.7c-5.1-10-9.6-20.2-13.6-30.6L221.8,294.5z"/>
							</g>
						</g>
					</g>
					<g id="color1">
						<g>
							<defs>
								<path id="SVGID_7_" d="M253.6,331.2c0,0,13.5,4.7,15.8,6.7c2.8,2.4-2.8,12.3-2.8,12.3l7,7.3c0,0,16.1-1.5,18.4,0.1
									c2.3,1.6,2.4,11.1,2.4,11.1s6.5,3.4,9,2.7c2.5-0.7,7.2-8,10.6-8.1s8.5,6.6,10.4,6.7c1.9,0.2,17.3-3,17.6-1.3
									c0.3,1.7-16,15.8-51.5,17.3c-35.5,1.5-55.7-13.9-55.7-13.9l2.7-46.2l12.3-1.5l0,0L253.6,331.2z"/>
							</defs>
							<clipPath id="SVGID_8_">
								<use xlink:href="#SVGID_7_"  style="overflow:visible;"/>
							</clipPath>
							<g class="st7">
								<path id="path-0" class="st8" d="M216,387.8c49.9-4.8,58.2-18,64.5-13.6c6.3,4.4,10.2,28.2,9.7,38.3
									c-0.5,10.2,37.8,13.6-3.4,17.9s-42.7,17.9-53.3,4.9C222.8,422.2,216,387.8,216,387.8z"/>
							</g>
						</g>
					</g>
					<g id="tailShadow02">
						<g>
							<defs>
								<path id="SVGID_9_" d="M253.6,331.2c0,0,13.5,4.7,15.8,6.7c2.8,2.4-2.8,12.3-2.8,12.3l7,7.3c0,0,16.1-1.5,18.4,0.1
									c2.3,1.6,2.4,11.1,2.4,11.1s6.5,3.4,9,2.7c2.5-0.7,7.2-8,10.6-8.1s8.5,6.6,10.4,6.7c1.9,0.2,17.3-3,17.6-1.3
									c0.3,1.7-16,15.8-51.5,17.3c-35.5,1.5-55.7-13.9-55.7-13.9l2.7-46.2l12.3-1.5l0,0L253.6,331.2z"/>
							</defs>
							<clipPath id="SVGID_10_">
								<use xlink:href="#SVGID_9_"  style="overflow:visible;"/>
							</clipPath>
							<g class="st9">
								<g class="st10">
									<path id="path-1_1_" d="M334.8,396.4c-59.6,8.2-88.8-29.1-95-39c-6.1-9.9-6.3-7.7-6.3-7.7l-15.6,8.3l7.7,18.5l49.6,29.3
										l34.9,4L334.8,396.4z"/>
									<path class="st11" d="M310.1,410L310.1,410l-35-4l0,0l-49.6-29.3l0,0l-7.7-18.6l0.1-0.1l15.6-8.3c0-0.1,0.1-0.2,0.2-0.2
										c0.8-0.2,2.9,2.5,6.3,7.9c3,4.9,31.6,47.7,94.8,39l0.1,0.2L310.1,410z M275.2,405.8l34.8,4l24.1-13.1
										c-63,8.4-91.3-34.3-94.4-39.2c-4.6-7.5-5.8-7.9-6-7.8c-0.1,0-0.1,0.1-0.1,0.1l0,0.1l-0.1,0l-15.5,8.3l7.6,18.4L275.2,405.8
										z"/>
								</g>
								<path id="path-0-2" class="st12" d="M352,364.7c0,0,32.9-2.3,14.8,2.5c-72.4,19.4-89.8,2.1-94.4-0.5
									c-9.2-5.3-23-26.3-23-26.3l12-14.9l16.2,5.2l53.4,26.7l19.7,7.5L352,364.7z"/>
							</g>
						</g>
					</g>
				</g>
			</g>
			<g id="tail">
				<g id="tail02">
					<g id="layer">
						<g id="path-3-2">
							<path class="st13" d="M310.5,373.2c-2.2,0-3.7-0.2-5.2-0.4c-0.5-0.1-1-0.1-1.5-0.2l-0.5-0.1l-0.3-0.5
								c-0.2-0.3-0.3-0.8-0.1-1.5c0.9-2.5,7.7-7.2,10.9-8.3c2.7-0.9,6.6,2.2,8.7,4.2c3.4,3.2,3.1,4,3,4.4c-0.1,0.4-0.4,0.7-0.8,0.8
								c-3.2,0.7-6.5,1.2-9.7,1.4C313.2,373.2,311.7,373.2,310.5,373.2z M305.2,370.8c0.1,0,0.2,0,0.3,0c2.3,0.3,4.5,0.5,9.2,0.1
								c2.7-0.2,5.5-0.5,8.1-1.1c-1.7-2.1-6.5-6.3-8.4-5.6C311.6,365.3,306.6,369,305.2,370.8z"/>
						</g>
						<g id="path-2-2">
							<path class="st13" d="M294.4,369.8c-1.9,0-7.8-2.5-11.4-4.7c-3.3-2.1-6.4-4.5-9.1-7.2l-1.6-1.5l2.2-0.2
								c8.7-0.9,14.4-0.7,18,0.6c1,0.4,1.8,1.2,2.3,2.5c1.5,3.3,1,9.1,0.7,9.9l0,0c-0.1,0.3-0.4,0.5-0.7,0.6
								C294.7,369.7,294.5,369.8,294.4,369.8z M276.9,357.9c2.2,2,4.6,3.8,7.1,5.4c3.8,2.3,7.9,3.9,9.6,4.3c0.2-2.3,0.1-8.2-1.9-9
								C288.8,357.5,283.9,357.3,276.9,357.9z"/>
						</g>
						<g id="path-1-2">
							<path class="st13" d="M266.9,351.3l-0.5-0.1c-0.6-0.1-1.5-0.2-13.7-19.5l-1.6-2.5l2.8,1c2.7,1,5.1,1.7,7.3,2.3
								c4.3,1.2,7.4,2.1,9.3,4.1c0.7,0.7,1,1.8,1,3.2c-0.1,4.1-3.4,10.5-4.2,11.2l0,0L266.9,351.3z M256,333.1
								c4.2,6.6,8.7,13.3,10.4,15.5c1.4-2.5,4.1-9.1,2.6-10.6c-1.5-1.5-4.4-2.4-8.4-3.5C259.2,334.1,257.7,333.6,256,333.1z"/>
						</g>
						<path class="st13" d="M281.5,387.1c-2.9,0-5.8-0.1-8.7-0.3c-11.9-1-22.3-4-31-9c-10.1-5.8-17.9-14.3-23.1-25.2
							c-11.9-25.1-14.3-41.6-7.2-49c9.2-9.5,30.4-0.2,31.3,0.2l0.5,0.2l0.1,0.5c0.1,0.2,5.3,20.2,18.2,38
							c13.6,19,30.2,28.6,49.3,28.6c4.8,0,9.8-0.6,14.9-1.8c16.6-3.9,17.3-1.5,17.6-0.5c1,3.1-7.9,7.1-13.2,9.1
							C318.2,382.6,299.9,387.1,281.5,387.1z M223.5,301.4c-4.1,0-7.9,0.9-10.6,3.6c-6.4,6.6-3.8,22.7,7.5,46.7
							c16.2,34.2,54.4,35,75.7,32.5c14.7-1.7,26.2-5.5,31.7-7.6c9.1-3.4,12.8-6.2,13.3-7.1c-0.6-0.3-3.5-0.9-15.1,1.9
							c-14.5,3.4-28.1,2-40.2-4.1c-9.7-4.9-18.5-12.8-26.2-23.6c-11.9-16.6-17.4-35-18.3-38.2C239.5,304.6,231.2,301.4,223.5,301.4z
							"/>
					</g>
				</g>
			</g>
			<g id="wingsFur">
				<g id="wingsFur02">
					<g id="wingsColor02-left">
						<path id="_wings02-left_-clip-2" class="st6" d="M93.5,283.2c0,0-11.3-4.4-19.8-10.1c-8.1-5.4-9.9-14.6-12.2-12.8
							c-4.9,3.8-10.4,13-14.3,16.3c-3.8,3.3-11.1,12-11.3,19.9c-0.2,7.4,2,18.6,4.2,16.7s4.8-13,13.3-12.9s16.5,5.7,16.5,5.7
							s9.6-14,16.9-9.7C93.2,300.2,93.5,283.2,93.5,283.2z"/>
						<g>
							<defs>
								<path id="SVGID_11_" d="M93.5,283.2c0,0-11.3-4.4-19.8-10.1c-8.1-5.4-9.9-14.6-12.2-12.8c-4.9,3.8-10.4,13-14.3,16.3
									c-3.8,3.3-11.1,12-11.3,19.9c-0.2,7.4,2,18.6,4.2,16.7s4.8-13,13.3-12.9s16.5,5.7,16.5,5.7s9.6-14,16.9-9.7
									C93.2,300.2,93.5,283.2,93.5,283.2z"/>
							</defs>
							<clipPath id="SVGID_12_">
								<use xlink:href="#SVGID_11_"  style="overflow:visible;"/>
							</clipPath>
							<g class="st14">
								<g id="wingsColor02-left02">
									<rect x="-80.9" y="197.1" class="st6" width="219.7" height="171"/>
								</g>
							</g>
						</g>
					</g>
					<g id="wingsColor02-right">
						<path id="_wings02-right_-clip-2" class="st6" d="M245.5,283.2c0,0,11.3-4.4,19.8-10.1c8.1-5.4,9.8-14.6,12.2-12.8
							c4.9,3.8,10.4,13,14.3,16.3c3.8,3.3,11.1,12,11.3,19.9c0.2,7.4-2,18.6-4.2,16.7s-4.8-13-13.3-12.9s-16.5,5.7-16.5,5.7
							s-9.6-14-16.9-9.7C245.8,300.2,245.5,283.2,245.5,283.2z"/>
						<g>
							<defs>
								<path id="SVGID_13_" d="M245.5,283.2c0,0,11.3-4.4,19.8-10.1c8.1-5.4,9.8-14.6,12.2-12.8c4.9,3.8,10.4,13,14.3,16.3
									c3.8,3.3,11.1,12,11.3,19.9c0.2,7.4-2,18.6-4.2,16.7s-4.8-13-13.3-12.9s-16.5,5.7-16.5,5.7s-9.6-14-16.9-9.7
									C245.8,300.2,245.5,283.2,245.5,283.2z"/>
							</defs>
							<clipPath id="SVGID_14_">
								<use xlink:href="#SVGID_13_"  style="overflow:visible;"/>
							</clipPath>
							<g class="st15">
								<g id="wingsColor02-right02">
									<rect x="206.1" y="202.3" class="st6" width="217" height="168.9"/>
								</g>
							</g>
						</g>
					</g>
				</g>
			</g>
			<g id="wings">
				<g id="wings02">
					<g id="layer-2">
						<path class="st13" d="M40,315.8c-0.3,0-0.6-0.1-1-0.5c-2.5-2.5-7.2-15.9-2.3-26.3c2.8-5.9,7-10,11.1-14c2.6-2.5,5.1-5,7.1-7.8
							c0.9-1.2,1.7-2.4,2.3-3.4c2.1-3.2,3.6-5.4,5.7-5.2c1.8,0.2,3.4,2.3,5.4,7.4c1.4,3.6,16.3,11.7,25.9,16.2l0.8,0.4l-1.9,6
							l-1.1-0.5c-3.1-1.5-11.9-4.7-15.6-2.3c-3.1,2-4.1,11.1-4.7,16.4c-0.5,4.6-0.7,5.6-1.7,6c-0.4,0.2-0.9,0-1.3-0.3
							c-1.5-1.6-6.4-7.7-4.7-21.1c0.2-1.4-0.7-2.2-1.4-2.5c-2.8-1.3-8.6,0.3-14.7,6.8c-4.9,5.3-5.8,14.2-6.3,19.5
							c-0.3,3.4-0.5,4.6-1.5,5C40.3,315.7,40.1,315.8,40,315.8z M62.7,260.7c-0.9,0-2.3,2.2-3.7,4.3c-0.7,1-1.5,2.2-2.4,3.5
							c-2.2,3-4.8,5.5-7.4,8c-3.9,3.9-8,7.8-10.7,13.4c-4,8.5-0.9,18.9,1,22.7c0.1-0.6,0.2-1.4,0.2-2.1c0.6-5.6,1.5-14.9,6.9-20.7
							c6.8-7.4,13.5-9,17-7.3c1.9,0.9,2.8,2.6,2.6,4.6c-1.3,10.2,1.4,15.8,3.2,18.2c0.1-0.9,0.3-2.1,0.4-3.2
							c0.9-8.1,2.1-15.6,5.6-17.9c4.5-3,13.4,0.3,16.5,1.7l0.6-2.1c-4.7-2.3-24.1-11.9-26.1-16.9C64.4,261.6,63.3,260.7,62.7,260.7
							C62.8,260.7,62.7,260.7,62.7,260.7z"/>
						<path class="st13" d="M40.3,315.5l-1.2-1.7c0.2-0.2,0.8-1.4,1.2-2.3c1.8-3.8,4.9-10.2,11.4-11.7c7-1.6,14,3.5,17,5.6
							c0.3,0.2,0.7,0.5,0.9,0.6c0.3-0.4,0.8-1.1,1.2-1.7c3-4.4,9.4-13.4,19.1-7.9c1.7,1,3.9,1.9,5.2,1c2-1.5,1.4-7.4,0.6-10.9
							l-2.6-2.6l1.5-1.4l3,3l0.1,0.3c0.3,1.1,2.5,10.5-1.3,13.3c-1.7,1.3-4.2,1-7.4-0.8c-8.1-4.6-13.5,3.1-16.4,7.3
							c-1.3,1.9-1.9,2.7-2.8,2.7c-0.5,0-0.9-0.3-2.2-1.2c-3-2.2-9.3-6.7-15.3-5.3c-5.6,1.2-8.3,7.1-10,10.6
							C41.4,314,40.9,315,40.3,315.5z M69.4,306.3L69.4,306.3L69.4,306.3z M70,306.3L70,306.3L70,306.3z"/>
					</g>
					<g id="layer-1">
						<path class="st13" d="M299.1,315.8c-0.2,0-0.3,0-0.4-0.1c-1-0.4-1.2-1.6-1.5-5c-0.5-5.3-1.4-14.2-6.3-19.5
							c-6.1-6.6-11.9-8.1-14.7-6.8c-0.7,0.3-1.6,1.1-1.4,2.5c1.6,13-2.8,19.1-4.7,21.1c-0.3,0.4-0.8,0.5-1.3,0.3
							c-1-0.3-1.1-1.3-1.7-6c-0.6-5.4-1.7-14.4-4.7-16.5c-3.7-2.4-12.5,0.8-15.6,2.3l-1.1,0.5l-1.9-6l0.8-0.4
							c9.6-4.6,24.5-12.7,25.9-16.2c2.1-5.1,3.6-7.2,5.4-7.4c2.1-0.2,3.6,2.1,5.7,5.2c0.7,1,1.5,2.2,2.3,3.4
							c2.1,2.8,4.5,5.2,7.2,7.8c4.1,4,8.3,8.1,11.1,14c4.9,10.5,0.2,23.8-2.3,26.3C299.7,315.7,299.3,315.8,299.1,315.8z
							 M278.3,281.9c3.7,0,8.9,2.3,14.1,7.9c5.4,5.8,6.3,15.2,6.9,20.7c0.1,0.7,0.1,1.4,0.2,2.1c1.9-3.8,5-14.2,1-22.7
							c-2.6-5.6-6.7-9.6-10.7-13.4c-2.6-2.5-5.2-5.1-7.4-8c-0.9-1.2-1.7-2.4-2.4-3.5c-1.5-2.2-3-4.4-3.8-4.3
							c-0.5,0.1-1.6,0.9-3.7,6.1c-2,5-21.4,14.6-26.1,16.9l0.6,2.1c3.1-1.3,12-4.6,16.5-1.7c3.6,2.4,4.7,9.9,5.7,18
							c0.1,1.1,0.3,2.3,0.4,3.2c1.8-2.5,4.4-8.1,3.2-18.2c-0.3-2,0.7-3.8,2.6-4.6C276.1,282.1,277.1,281.9,278.3,281.9z"/>
						<path class="st13" d="M298.8,315.5c-0.7-0.4-1.1-1.5-1.9-3.1c-1.7-3.5-4.4-9.3-10-10.6c-6.1-1.4-12.3,3.1-15.3,5.3
							c-1.3,0.9-1.7,1.2-2.2,1.2c-0.9,0-1.5-0.9-2.8-2.7c-2.9-4.2-8.3-11.9-16.4-7.3c-3.2,1.8-5.7,2.1-7.4,0.8
							c-3.8-2.9-1.6-12.3-1.3-13.3l0.1-0.3l3-3l1.5,1.4l-2.6,2.6c-0.8,3.5-1.4,9.4,0.6,10.9c1.2,0.9,3.5,0,5.2-1
							c9.7-5.5,16.1,3.5,19.1,7.9c0.4,0.6,0.9,1.3,1.2,1.7c0.3-0.2,0.6-0.4,0.9-0.6c3-2.2,10-7.2,17-5.6c6.6,1.5,9.6,7.9,11.4,11.7
							c0.4,0.9,1,2.1,1.2,2.3L298.8,315.5z M269,306.3L269,306.3L269,306.3z"/>
					</g>
				</g>
			</g>
			<g id="bodyFur">
				<g id="bodyShadow">
					<g id="bodyShadow08">
						<g id="bodyShadow-2">
							<g>
								<defs>
									<path id="SVGID_15_" d="M96.6,267.9c-1.2-0.7-13.7,31.2-9.6,56.6c1.7,10.8-1.3,34.3,7.5,35.8c11.3,2,13.4,18,13.4,18
										c4.5,5.8,11.8,9.5,13.5,12.7c4.3,7.8,9.5,11,19.4,7.7c10.1-7,13.4-15.6,4.5-27.3c-0.6-3.1,4,0.1,12.4,1.2
										c13,1.7,32.9,2.2,39.1-4.3c3.8-4-5,9.8-4.6,17.2c0.8,13.5,21,22.1,30.2,10.7c6.3-4.6,18.5-32.3,22.1-39.6
										c4.3-8.8,3.5-19.7,4.3-30.7c1.8-24.9-2.9-50.1-14.8-59c-7.9-6-16.6-2.8-28.5-3.6l-42.9-18L96.6,267.9"/>
								</defs>
								<clipPath id="SVGID_16_">
									<use xlink:href="#SVGID_15_"  style="overflow:visible;"/>
								</clipPath>
								<g class="st16">
									<rect x="33.9" y="233.6" class="st3" width="333.4" height="286.7"/>
									<path class="st17" d="M150.6,375.1c0,0-14.6-2.9-16.5-25.2c-1.8-21.9,19.9-57.8,35-58.5c15.1-0.7,40.7,46.8,32.4,64.7
										c-8.2,17.8-14.9,24-14.9,24L150.6,375.1z"/>
									<path class="st8" d="M79.2,240.4c12.3-2.8,41,8.2,30,35.5s4.9,40.1,4.6,58.9c-0.4,18.8-27.9,44.7-55.9,3
										S66.9,243.1,79.2,240.4z"/>
									<path class="st8" d="M263.4,245c-12.4-2.8-41,8.2-30,35.5c11,27.3-4.9,40.1-4.6,58.9c0.4,18.8,27.9,44.7,55.9,3
										C312.6,300.8,275.7,247.8,263.4,245z"/>
									<path class="st8" d="M103.3,402.1c21.8-32.9,40.7-24.2,53-6.7c6.9,9.8,45.3,31.4,21.1,50.9c-24.2,19.6-49.4,4.6-59.7-1.5
										S86.8,426.9,103.3,402.1z"/>
									
										<linearGradient id="path-1-5_1_" gradientUnits="userSpaceOnUse" x1="423.7135" y1="-453.7648" x2="348.138" y2="-313.4977" gradientTransform="matrix(1 0 0 -1 -285.15 -52.27)">
										<stop  offset="0" style="stop-color:#232323"/>
										<stop  offset="0.32" style="stop-color:#1E1E1E"/>
										<stop  offset="0.68" style="stop-color:#111111"/>
										<stop  offset="0.98" style="stop-color:#000000"/>
									</linearGradient>
									<path id="path-1-5" class="st18" d="M95.4,247.3c-0.4,10.2,15.7-5.7,10,10.5s-13.7,47.7-11.4,77.5s27.6,49.6,30.5,51.7
										c1.4,1,5.9,6.2,12,5.4c6.2-0.8,12.7-5.2,13.8-15.6c0.6-6.1,6.6,12.3,4.6,14.5c-2.9,3.4-28,18.3-36.7,15.2
										c-8.7-3.1-9.3-0.6-19.6-15.2s-24.9-7-26.8-27.6c-0.6-6.9-11.4-12.4-11.1-18.4c0.8-11.8,5.1-24.1,1.5-37.6
										C47.3,251.5,95.4,247.3,95.4,247.3z"/>
									<path id="path-0-9" class="st10" d="M133.8,357.9c-4.9-7.9,2.3,1.3,17.4,6.2c13.6,4.4,34.3,4.6,45.7-3.6
										c23.9-17.3-7.7,16.3,5.8,31.1c13.6,14.8,20.8,3.1,20.8,3.1l-4.7,27l-48.6-44C170.3,377.8,142.2,371.4,133.8,357.9z"/>
									<path id="path-0-10" class="st12" d="M208.9,237.3c9.5,15.1,47.7,33.2,35.1,96.6c-0.7,3.3,2.6,5.1,0,18
										c-2.6,12.9-12.3,56.9-11.3,56.2l26.6-10.5l10.7-96.3l-38.5-55.1L208.9,237.3z"/>
								</g>
							</g>
						</g>
					</g>
				</g>
			</g>
			<g id="body">
				<g id="body03">
					<g id="path-4">
						<path class="st13" d="M104.6,372c2.5,6,5.7,12,10.8,16.2c1.2,0.9,2.4,1.7,3.6,2.5c1.4,0.9,2,2.9,3,4.5
							c8.2,12.4,27.7,4.3,29.5-8.9c0.5-3.7-0.6-7.2-2.1-10.5c-0.8-1.7-1.7-3.4-2.6-5c-0.3-0.5-0.6-1.1-0.9-1.6
							c-0.3-0.5-0.5-1.3-0.5-0.7l-0.8,1.1c-0.9,0.1,0.7,0.4,1.2,0.7c1.1,0.5,2.1,0.9,3.2,1.4c2.7,1.2,5.6,2.2,8.5,2.9
							c6.5,1.4,14,1.1,20.6,0.4c7-0.7,14.6-2.4,20.1-7.2l-1.9-1.1c-1.8,7.7-8.2,15.7-4.6,23.9c2.9,6.7,10.6,11.3,17.6,12.4
							c6.6,1,13.5-1.4,16.9-7.3c0.9-1.5,1.2-3.3,1.9-4.9c0,0,0.4-0.5,0.6-0.9c0.5-0.7,1-1.4,1.5-2.2c4.8-7,8.4-14.7,11.3-22.6
							c0.5-1.4-1.7-2-2.2-0.6c-2.6,6.8-5.6,13.4-9.5,19.6c-1.3,2.1-3.4,4.2-4.1,6.5c-1.5,4.9-4.6,8.5-9.8,9.8
							c-7.5,1.8-16.3-2.2-20.8-8.4c-5.7-7.9,1.5-16.8,3.4-24.7c0.1-0.6-0.2-1.3-0.9-1.4c-0.4-0.1-0.8,0-1.1,0.3
							c-5.5,4.8-13.8,6.2-20.8,6.7c-6.6,0.5-13.9,0.7-20.3-1.3c-2.6-0.9-5.2-1.9-7.7-3c-1-0.5-2.4-1.4-3.6-1.2
							c-0.5,0.1-0.8,0.6-0.8,1.1c-0.1,1.2,1.5,2.9,2.1,3.9c1.5,2.7,3,5.5,3.8,8.5c1.8,6.9-2.2,14-8.6,16.8c-3.1,1.3-6.5,1.7-9.8,1
							c-3.6-0.8-5.8-3.4-7.5-6.5c-0.7-1.2-1.2-2.4-2.3-3.2c-0.8-0.6-1.8-1.1-2.6-1.7c-5.3-3.9-8.7-10-11.1-15.9
							C106.3,370,104.1,370.6,104.6,372L104.6,372z"/>
					</g>
					<g id="path-3-3">
						<path class="st13" d="M200.4,361.8c-1.5,2.2-3.7,4-5.6,5.8c-1.1,1,0.6,2.7,1.6,1.6c2.1-2,4.3-3.9,6-6.3
							C203.3,361.7,201.3,360.5,200.4,361.8L200.4,361.8z"/>
					</g>
					<g id="path-2-3">
						<path class="st13" d="M138.5,363.7c0.9,1.6,2,3.1,3.5,4.3c0.9,0.9,2,1.7,3.2,2.2c1.4,0.6,2.5-1.4,1.2-2
							c-2.5-1.2-4.5-3.2-5.8-5.7C139.9,361.2,137.9,362.4,138.5,363.7L138.5,363.7z"/>
					</g>
					<g id="path-1-6">
						<g id="path-0-3-2">
							<path class="st13" d="M111.8,303.8c1.3,8.6,2.9,17.1,4,25.7c0.5,3.6,0.8,7.2,1,10.7c0.2,4,0.9,8.9-0.2,12.7
								c-0.8,3.1-3.3,6.8-6.4,7.8c-2.8,1-6.1,0.7-9,0.5c-3.9-0.3-7.3-1.6-9.7-5c-2-2.8-2.4-6.7-2.8-10.1c-0.4-3.6,0-6.9,0.2-10.5
								c0.1-2-0.2-4-0.4-5.9c-0.2-3.4-0.5-6.9-0.6-10.3c-0.6-12.9-0.2-26,3.7-38.4c4.8-15.2,15.7-27.8,30.6-33.9
								c1.4-0.6,0.8-2.8-0.6-2.2c-13.7,5.6-24.6,16.5-30.2,30.2c-5.6,13.4-6.3,28.3-5.8,42.7c0.1,3.7,0.4,7.4,0.6,11.1
								c0.2,2.4,0.6,4.9,0.4,7.3c-0.5,4.5-0.3,9,0.4,13.5c1.1,6.8,4.7,12.5,11.9,13.6c5.6,0.9,13,1.3,16.7-3.7
								c2.4-3,3.7-6.8,3.7-10.7c0.1-5-0.1-10-0.7-15c-1.1-10.3-3.1-20.5-4.6-30.7C113.8,301.7,111.6,302.4,111.8,303.8L111.8,303.8z
								"/>
						</g>
						<g id="path-0-2-2">
							<path class="st13" d="M221.6,303.2c-2.3,15.7-6.2,31.7-5.2,47.7c0.3,5.1,3.8,10.9,9,12.3c2.4,0.6,4.9,0.6,7.4,0.5
								c3.2-0.2,6.5-0.4,9.3-2.2c8.2-5.4,7.7-16.7,7-25.5c-0.1-2,0.2-4.1,0.4-6.1c0.4-4.3,0.7-8.7,0.8-13c0.3-11.4,0.3-24-4.1-34.6
								c-0.6-1.4-2.8-0.8-2.2,0.6c3.7,8.8,4.1,18.8,4.1,28.2c0,7.3-0.5,14.5-1.2,21.7c-0.2,1.7-0.1,3.4,0.1,5.1
								c0.5,4.2,0,8.4-0.7,12.5c-0.6,3.1-1.5,5.7-3.9,7.8c-2.7,2.5-6.1,2.9-9.6,3.1c-2.7,0.1-5.8,0.3-8.4-1
								c-2.5-1.2-4.7-4.8-5.4-7.5c-1-3.6-0.4-8.1-0.2-11.8c0.2-3.9,0.6-7.8,1.1-11.7c1.1-8.6,2.8-17.1,4-25.7
								C224.1,302.4,221.8,301.8,221.6,303.2L221.6,303.2z"/>
						</g>
					</g>
					<g id="path-0-11">
						<path class="st13" d="M236.7,270.3c3.8,5.5,7.2,11.2,8.9,17.6c0.4,1.4,2.6,0.8,2.2-0.6c-1.8-6.6-5.3-12.6-9.2-18.2
							C237.8,268,235.8,269.1,236.7,270.3z"/>
					</g>
				</g>
			</g>
			<g id="paw">
				<g id="paw01">
					<g id="layer-2-2">
						<g id="claw-4">
							<g id="path-2-4">
								<path class="st19" d="M111,87.4c7.2-2.5,24.2-4.6,24-8.4c-0.1-1.3-22.6-21.3-30.1-22.9C97.3,54.5,103.8,89.9,111,87.4z"/>
							</g>
							<g id="path-1-7">
								<path class="st19" d="M87.3,134.6c-0.7-7.6,1.3-24.6-2.4-25.3c-1.2-0.2-26,16.9-29.4,23.8S88,142.2,87.3,134.6z"/>
							</g>
							<g id="path-0-12">
								<path class="st19" d="M74.9,166.1c-0.1-7.6,3.3-24.4-0.3-25.4c-1.2-0.3-27.4,14.7-31.3,21.3C39.4,168.7,75,173.8,74.9,166.1
									z"/>
							</g>
						</g>
						<g id="claw-3">
							<g id="path-2-5">
								<path class="st19" d="M223.5,88.8c-7.2-2.5-24.2-4.6-24-8.4c0.1-1.3,22.6-21.3,30.1-22.9C237.2,55.9,230.7,91.3,223.5,88.8z
									"/>
							</g>
							<g id="path-1-8">
								<path class="st19" d="M248,136.1c0.7-7.6-1.3-24.6,2.4-25.3c1.2-0.2,26,16.9,29.4,23.8C283.3,141.6,247.4,143.6,248,136.1z"
									/>
							</g>
							<g id="path-0-13">
								<path class="st19" d="M259.3,167.5c0.1-7.6-3.3-24.4,0.3-25.4c1.2-0.3,27.3,14.7,31.3,21.3
									C294.9,170.1,259.3,175.2,259.3,167.5z"/>
							</g>
						</g>
						<g id="claw-2">
							<path id="path-2-6" class="st20" d="M216.3,401.7c-0.8,3.1-5.4,8-6.9,8.7s-4.3-10.1-3.1-9
								C207.7,402.6,216.3,401.7,216.3,401.7z"/>
							<path id="path-1-9" class="st20" d="M191.5,389.4c-2.1,2.4-3.7,8.8-3.6,10.3c0.1,1.5,10.3-2.6,8.9-2.9
								C195.2,396.5,191.5,389.4,191.5,389.4z"/>
							<path id="path-0-14" class="st20" d="M197.5,397.8c-1.4,0.8-1.5,9.4,0.7,9.9c3.1,0.7,8.6-7.3,7.2-6.7
								C203.9,401.6,197.5,397.8,197.5,397.8z"/>
							<g id="claw">
								<path class="st20" d="M124.4,397.8c0,3.2,3.4,9.1,4.6,10.1c1.2,1,6.5-8.8,5.1-8.1C132.6,400.6,124.4,397.8,124.4,397.8z"/>
								<path class="st20" d="M149.7,391.3c1.7,2.7,2.3,9.3,1.9,10.8s-9.8-4.2-8.3-4.3C145,397.7,149.7,391.3,149.7,391.3z"/>
								<path class="st20" d="M143.1,398c1.3,1,0,9.5-2.3,9.6c-3.1,0.2-7.3-8.6-6-7.8C136.2,400.7,143.1,398,143.1,398z"/>
							</g>
						</g>
						<g id="claw-1">
							<path id="path-2-7" class="st20" d="M219.8,359.7c-0.5,3.2,1.9,9.5,2.9,10.7c1,1.2,7.9-7.7,6.3-7.1
								C227.4,363.9,219.8,359.7,219.8,359.7z"/>
							<path id="path-1-10" class="st20" d="M245.4,356.7c1.3,3,0.7,9.5,0.1,10.9s-9-5.8-7.4-5.6
								C239.7,362.3,245.4,356.7,245.4,356.7z"/>
							<path id="path-0-15" class="st20" d="M238.1,362.3c1.1,1.2-1.6,9.4-3.8,9.1c-3.1-0.3-5.8-9.6-4.7-8.7
								C230.8,363.8,238.1,362.3,238.1,362.3z"/>
						</g>
						<g id="claw-0">
							<path id="path-2-8" class="st20" d="M91.4,358.6c-0.5,3.2,1.9,9.5,2.9,10.7c1,1.2,7.9-7.7,6.3-7.1
								C99.1,362.8,91.4,358.6,91.4,358.6z"/>
							<path id="path-1-11" class="st20" d="M117.4,356.4c1.3,3,0.7,9.5,0.1,10.9c-0.6,1.4-9-5.8-7.5-5.6
								C111.7,361.9,117.4,356.4,117.4,356.4z"/>
							<path id="path-0-16" class="st20" d="M109.6,362.3c1.1,1.2-1.6,9.4-3.8,9.1c-3.1-0.3-5.8-9.6-4.7-8.7
								C102.4,363.8,109.6,362.3,109.6,362.3z"/>
						</g>
					</g>
				</g>
				<g id="jiao01">
					<g id="layer-3">
						<path class="st13" d="M129.3,408.7c-0.3,0-0.6-0.1-0.7-0.3c-1.3-1.1-4.9-7.1-4.9-10.7l0-1.1l1,0.4c3.8,1.3,8.3,2.5,9.1,2.1
							c0.5-0.3,1-0.1,1.2,0.2c0.2,0.3,0.6,0.8-1.3,4.3c-0.4,0.8-1.9,3.3-3.1,4.5C130,408.6,129.6,408.7,129.3,408.7z M125.3,398.9
							c0.6,2.9,2.9,7,4,8.2c1-0.7,3.3-4.5,4-6.4C131.3,400.8,127.7,399.7,125.3,398.9z"/>
						<path class="st13" d="M151.1,403.1c-0.1,0-0.2,0-0.4,0c-1.5-0.2-4.1-1.7-4.9-2.2c-3.5-2.1-3.4-2.7-3.4-3
							c0-0.4,0.3-0.8,0.9-0.8c0.7-0.1,3.4-2.9,5.8-6.2l0.7-0.9l0.6,1c1.9,3,2.4,9.8,2,11.4C152.3,402.5,152.1,403.1,151.1,403.1z
							 M144.4,398.1c1.5,1.2,5.2,3.2,6.5,3.4c0.2-1.6-0.3-6.2-1.3-8.8C148.2,394.5,146,397.1,144.4,398.1z"/>
						<path class="st13" d="M140.7,408.5c-3.1,0-6-5.5-6.6-7.1c-0.4-1-0.6-1.7-0.1-2.1c0.2-0.2,0.6-0.3,1.1,0
							c0.6,0.3,4.2-0.6,7.6-1.9l0.4-0.2l0.3,0.3c1.4,1.1,0.7,5.5,0,7.6c-0.7,2.2-1.6,3.3-2.7,3.4
							C140.9,408.5,140.8,408.5,140.7,408.5z M135.6,400.8c0.6,1.3,2,3.9,3.5,5.3c0.7,0.6,1.2,0.9,1.7,0.8c0.1,0,0.5-0.3,1-1.3
							c1-2.2,1.2-5.4,1-6.6C140.8,399.7,137.6,400.8,135.6,400.8C135.6,400.8,135.6,400.8,135.6,400.8z"/>
						<g id="path-14">
							<path class="st13" d="M111.3,88.5c4.9-1.6,10.1-2.5,15.1-3.8c2.7-0.7,8.6-1.7,9.6-4.9c0.6-2-1.9-3.7-3.2-4.9
								c-3.3-3.1-6.7-6-10.2-8.9c-3.6-3-7.4-5.8-11.4-8.3c-2-1.2-5.5-3.7-8-2.7c-2.2,0.9-2.6,3.8-2.8,5.9c-0.3,3.8,0.2,7.7,0.9,11.4
								C102,76.3,104.7,90.5,111.3,88.5c1.4-0.4,0.8-2.7-0.6-2.2c-1.8,0.5-3.2-2.5-3.8-3.7c-1.3-2.8-2.3-5.8-3-8.9
								c-0.8-3.3-1.2-6.7-1.3-10.1c0-1.4-0.2-5.2,1.3-6.1c1.5-0.9,5,1.7,6.2,2.4c3.3,2.1,6.5,4.4,9.6,6.9c3.1,2.5,6.2,5.1,9.2,7.8
								c1,0.9,2.1,1.9,3,2.8c0.5,0.5,1.7,1.4,2,2.1c0.1,0.2,0.1-0.2-0.3,0.1c-0.6,0.5-1.2,0.8-1.9,1.1c-2.1,0.9-4.3,1.5-6.5,2
								c-4.8,1.2-9.8,2-14.5,3.6C109.3,86.8,109.9,89,111.3,88.5z"/>
						</g>
						<g id="path-13">
							<path class="st13" d="M88.5,134.6c-0.4-5.3,0-10.6-0.1-15.8c0-2.7,0.4-8.6-2.5-10.3c-1.8-1-4.3,1.2-5.7,2.2
								c-3.8,2.4-7.4,5.1-10.9,7.8c-3.8,2.8-7.5,5.9-10.9,9.3c-1.6,1.6-4.7,4.4-4.2,7c0.5,2.3,3.4,3.4,5.3,4.1
								c3.6,1.2,7.4,1.6,11.2,1.8C74.6,140.7,88.8,141.4,88.5,134.6c-0.1-1.5-2.4-1.5-2.3,0c0.1,1.9-3,2.5-4.3,2.8
								c-3.1,0.7-6.4,0.9-9.6,0.8c-3.3,0-6.6-0.4-9.8-1.1c-1.5-0.3-5.2-1-5.9-2.6c-0.7-1.7,2.4-4.2,3.4-5.2c2.8-2.7,5.7-5.3,8.8-7.7
								c3.2-2.5,6.4-4.9,9.8-7.2c1.3-0.9,2.6-1.7,3.9-2.5c0.6-0.4,1.7-1.3,2.5-1.4c0.2,0-0.2-0.3,0.1,0.3c0.3,0.7,0.6,1.4,0.7,2.1
								c0.3,2.2,0.5,4.5,0.4,6.8c0,5-0.3,10,0.1,14.9C86.3,136.1,88.6,136.1,88.5,134.6z"/>
						</g>
						<g id="path-12">
							<path class="st13" d="M76.1,166.1c0-5.3,0.9-10.5,1.2-15.8c0.2-2.7,1.1-8.4-1.6-10.3c-1.7-1.2-4.3,0.8-5.8,1.6
								c-4,2.1-7.9,4.5-11.7,6.9c-4,2.5-7.8,5.2-11.4,8.2c-1.7,1.5-5.1,3.9-4.9,6.6c0.2,2.4,2.9,3.7,4.9,4.6c3.5,1.5,7.3,2.2,11,2.7
								C61.8,171.2,75.9,173.1,76.1,166.1c0.1-1.4-2.3-1.4-2.3,0c-0.1,1.8-3.4,2.2-4.7,2.4c-3.2,0.4-6.4,0.4-9.5,0
								c-3.3-0.3-6.6-1-9.7-1.9c-1.4-0.4-5.2-1.5-5.6-3.2c-0.4-1.6,3-4,4-4.8c3.1-2.6,6.5-5,9.9-7.2c3.3-2.2,6.7-4.2,10.1-6.2
								c1.3-0.7,2.5-1.4,3.8-2.1c0.7-0.3,1.7-1.1,2.4-1.1c0.2,0,0-0.2,0.1,0.3c0.2,0.8,0.4,1.5,0.5,2.3c0.1,2.2,0.1,4.4-0.1,6.6
								c-0.4,5-1.2,9.9-1.2,14.9C73.8,167.6,76.1,167.6,76.1,166.1z"/>
						</g>
						<g id="path-11">
							<path class="st13" d="M223.8,87.7c-4.1-1.4-8.4-2.2-12.6-3.2c-3.2-0.8-7.6-1.4-10.2-3.6c-0.4-0.4-0.3,0.1-0.3-0.1
								s0.5-0.6,0.7-0.8c0.8-0.9,1.8-1.8,2.7-2.6c2.6-2.4,5.4-4.8,8.1-7.1c3.3-2.7,6.7-5.3,10.2-7.7c1.3-0.9,2.7-1.7,4.1-2.5
								c0.9-0.5,2.5-1.6,3.6-1.5c3.6,0.3,1.5,11.6,1.2,13.6c-0.6,3.7-1.6,7.3-3,10.7C227.5,84.3,225.9,88.3,223.8,87.7
								c-1.4-0.4-2.1,1.8-0.6,2.2c5.8,1.7,8.5-9.5,9.4-13.1c1-3.8,1.5-7.8,1.6-11.7c0-2.4,0-5.9-1.8-7.8c-1.8-1.9-4.5-0.6-6.4,0.4
								c-4,2-7.7,4.8-11.2,7.6c-3.7,2.9-7.4,5.9-10.9,9.1c-1.5,1.4-4.5,3.4-5.3,5.4c-1.4,3.4,5.2,5.1,7.3,5.7
								c5.7,1.7,11.7,2.5,17.4,4.4C224.6,90.4,225.2,88.2,223.8,87.7z"/>
						</g>
						<g id="path-10">
							<path class="st13" d="M249.2,136.1c0.4-4.3,0.1-8.7,0.1-13c0-2.1,0-4.2,0.2-6.3c0.1-1.3,0.1-3.6,1.1-4.7
								c0.2-0.3-0.4-0.1-0.1-0.1c0.3,0.1,0.6,0.3,0.9,0.5c1.1,0.6,2.2,1.4,3.3,2.1c3.1,2.1,6.1,4.2,9.1,6.4c3.4,2.5,6.7,5.2,9.8,8.1
								c1.1,1.1,2.3,2.1,3.3,3.3c0.6,0.6,2,2.1,2.1,3c0,1.5-2.9,2.3-4,2.7c-3.1,0.9-6.3,1.4-9.5,1.5c-3.6,0.3-7.2,0.1-10.8-0.5
								C253.1,138.9,249.1,138.2,249.2,136.1c0.1-1.5-2.2-1.5-2.3,0c-0.3,5.9,11.1,6,14.8,6c4,0.1,7.9-0.3,11.8-1.2
								c2.4-0.5,5.6-1.3,7.1-3.4c1.6-2.2-0.1-4.3-1.5-6.1c-2.9-3.5-6.5-6.4-9.9-9.1c-3.7-3-7.6-5.8-11.6-8.5c-1.8-1.2-4.4-3.7-6.7-4
								c-3.7-0.5-3.7,6.3-3.8,8.5c-0.3,6,0.4,12-0.1,17.9C246.8,137.5,249.1,137.5,249.2,136.1z"/>
						</g>
						<g id="path-9">
							<path class="st13" d="M260.5,167.5c0-4.3-0.6-8.7-1-13c-0.3-3.2-1.3-7.9,0.2-11c0.2-0.5-0.3-0.2,0.1-0.2
								c0.3,0.1,0.6,0.2,0.8,0.3c1.1,0.5,2.2,1.1,3.3,1.7c3.3,1.8,6.6,3.8,9.8,5.8c3.4,2.1,6.7,4.3,9.9,6.8c1.4,1.1,2.8,2.2,4.1,3.5
								c0.7,0.6,2.2,1.8,2.3,2.8c0.2,1.5-2.5,2.6-3.6,3c-2.9,1.1-5.9,1.9-9,2.3c-3.6,0.6-7.3,0.8-11,0.5
								C265,170,260.6,169.7,260.5,167.5c-0.1-1.5-2.4-1.5-2.3,0c0.2,6,11.4,5.1,15.1,4.8c4-0.3,7.9-1,11.8-2.2
								c2.3-0.7,5.6-1.8,6.9-4.1c1.3-2.3-0.6-4.3-2.2-5.9c-3.1-3.1-6.9-5.7-10.5-8.2c-4-2.7-8-5.2-12.2-7.6
								c-1.9-1.1-4.8-3.3-7.1-3.5c-3.7-0.2-3.2,6.5-3.1,8.6c0.2,6,1.3,11.9,1.3,17.9C258.2,169,260.5,169,260.5,167.5z"/>
						</g>
						<path class="st13" d="M209.3,411.2c-0.4,0-0.9-0.2-1.4-1c-1-1.4-3.5-8.5-2.3-9.5c0.3-0.3,0.8-0.3,1.2,0.1
							c0.7,0.6,5.4,0.5,9.4,0.1l1.1-0.1l-0.3,1.1c-0.8,3.4-5.7,8.5-7.3,9.3C209.7,411.2,209.5,411.2,209.3,411.2z M206.9,402.4
							c0.3,2,1.6,6.2,2.4,7.1c1.4-0.9,4.6-4.4,5.8-7C212.7,402.8,208.9,403,206.9,402.4z"/>
						<path class="st13" d="M188.6,400.9C188.6,400.9,188.6,400.9,188.6,400.9c-1.3,0-1.4-0.8-1.5-1c-0.2-1.7,1.5-8.3,3.8-10.9
							l0.7-0.8l0.5,1c1.8,3.6,4,6.8,4.7,7c0.6,0.1,0.8,0.6,0.8,0.9C197.5,398.6,190.2,400.9,188.6,400.9z M191.4,390.9
							c-1.5,2.5-2.7,6.8-2.7,8.5c1.3,0,5.2-1.4,6.9-2.3C194.2,395.8,192.5,392.9,191.4,390.9z M196.6,397.6
							C196.6,397.6,196.6,397.6,196.6,397.6C196.6,397.6,196.6,397.6,196.6,397.6z"/>
						<path class="st13" d="M198.6,408.5c-0.2,0-0.4,0-0.6-0.1c-1.1-0.3-1.8-1.5-2.1-3.7c-0.3-2.2-0.3-6.7,1.2-7.6l0.4-0.2l0.4,0.2
							c3.2,1.9,6.5,3.3,7.2,3.1c0.5-0.2,0.9,0,1.1,0.2c0.5,0.6,0.1,1.3-0.4,2C204.6,404.5,201.3,408.5,198.6,408.5z M197.7,398.8
							c-0.4,1.1-0.7,4.3-0.1,6.6c0.3,1.1,0.6,1.4,0.8,1.5c0.4,0.1,1.1-0.1,1.8-0.6c1.7-1.1,3.6-3.4,4.3-4.6
							C202.5,401.5,199.5,399.8,197.7,398.8z M205.7,401.7C205.7,401.7,205.7,401.7,205.7,401.7
							C205.7,401.7,205.7,401.7,205.7,401.7z"/>
						<path class="st13" d="M223,371.3c-0.4,0-0.7-0.2-0.8-0.4c-1.1-1.3-3.7-7.8-3.1-11.4l0.2-1.1l1,0.5c3.5,1.9,7.8,3.8,8.7,3.6
							c0.6-0.2,1,0.1,1.2,0.4c0.7,1.4-4.4,7-5.8,7.9C223.7,371.2,223.3,371.3,223,371.3z M220.5,360.9c0.1,2.9,1.7,7.4,2.7,8.8
							c1.1-0.5,4-3.9,5-5.6C226.1,363.8,222.7,362.1,220.5,360.9z"/>
						<path class="st13" d="M245.2,368.6c-0.2,0-0.4,0-0.7-0.1c-1.5-0.5-7.7-5-7.4-6.5c0.1-0.4,0.4-0.7,1-0.7c0.8,0,3.8-2.3,6.7-5.1
							l0.8-0.8l0.4,1c1.3,3.2,0.8,10,0.1,11.6C246.2,368.1,245.9,368.6,245.2,368.6z M239.1,362.6c1.3,1.4,4.6,4,5.8,4.4
							c0.4-1.6,0.7-6.1,0.1-8.9C243.4,359.7,240.9,361.9,239.1,362.6z"/>
						<path class="st13" d="M234.3,372.2c-0.1,0-0.1,0-0.2,0c-3.1-0.3-5.1-6.4-5.5-8c-0.2-1-0.3-1.8,0.3-2.1
							c0.3-0.2,0.7-0.2,1.1,0.1c0.6,0.4,4.2,0.1,7.8-0.6l0.4-0.1l0.3,0.3c1.2,1.3-0.2,5.6-1.3,7.6
							C236.4,371.2,235.4,372.2,234.3,372.2z M230.2,363.8c0.3,1.4,1.3,4.2,2.6,5.8c0.6,0.7,1.1,1.1,1.5,1.1c0.1,0,0.6-0.2,1.2-1.1
							c1.3-2.1,2.1-5.1,2-6.3C235.5,363.5,232.1,364.1,230.2,363.8z M229.1,363.3C229.1,363.3,229.1,363.3,229.1,363.3
							C229.1,363.3,229.1,363.3,229.1,363.3z"/>
						<path class="st13" d="M94.6,370.3c-0.4,0-0.7-0.2-0.8-0.4c-1.1-1.3-3.7-7.8-3.1-11.4l0.2-1.1l1,0.5c3.5,1.9,7.8,3.8,8.6,3.6
							c0.6-0.2,1,0.1,1.2,0.4c0.7,1.4-4.4,7-5.8,7.9C95.3,370.2,94.9,370.3,94.6,370.3z M92.1,359.9c0.1,2.9,1.7,7.4,2.7,8.8
							c1.1-0.5,4-3.9,5-5.6C97.8,362.7,94.4,361.1,92.1,359.9z M101,363C101,363,101,363,101,363C101,363,101,363,101,363z"/>
						<path class="st13" d="M117.2,368.3c-0.2,0-0.4,0-0.7-0.1c-1.5-0.5-7.7-5-7.4-6.5c0.1-0.4,0.4-0.7,1-0.7c0.8,0,3.8-2.3,6.7-5.1
							l0.8-0.8l0.4,1c1.4,3.3,0.8,10,0.1,11.6C118.2,367.8,117.9,368.3,117.2,368.3z M111.1,362.3c1.3,1.4,4.6,4,5.8,4.4
							c0.4-1.6,0.7-6.1,0.1-8.9C115.4,359.3,112.9,361.5,111.1,362.3z M110,362.5C110,362.5,110,362.5,110,362.5
							C110,362.5,110,362.5,110,362.5z"/>
						<path class="st13" d="M105.9,372.2c-0.1,0-0.1,0-0.2,0c-3.1-0.3-5.1-6.4-5.5-8c-0.2-1-0.3-1.8,0.3-2.1
							c0.3-0.2,0.7-0.2,1.1,0.1c0.6,0.4,4.2,0.1,7.8-0.6l0.4-0.1l0.3,0.3c1.2,1.3-0.2,5.6-1.3,7.6
							C108,371.2,106.9,372.2,105.9,372.2z M101.7,363.8c0.3,1.4,1.3,4.2,2.6,5.8c0.6,0.7,1.1,1.1,1.5,1.1c0.1,0,0.6-0.2,1.2-1.1
							c1.3-2.1,2.1-5.1,2-6.3C107.1,363.5,103.7,364.1,101.7,363.8z M100.6,363.3C100.6,363.3,100.6,363.3,100.6,363.3
							C100.6,363.3,100.6,363.3,100.6,363.3z"/>
					</g>
				</g>
			</g>
			<g id="head">
				<g id="headFur">
					<g id="head-mainColor">
						<g id="head-mainColor02-8">
							<path id="_head02_-clip-5" class="st3" d="M107.4,85.9C91.3,80,58,77.1,56.5,80.8c-1.5,3.7,8.9,26,19.8,32.9
								c-0.9,1.4-12.8,29.3-17,60s-0.8,64.3,6.9,72.7c16.6,18.1,56.9,30.7,63.6,32.2c7.2,1.6,12.7,1.5,15.8,2s20.2,17.6,47.9,1.7
								c0,0,39.7-7.7,56.4-19.2c16.6-11.4,21-16.1,26.3-27.7c2.8-6.1,3.5-39.4-1.6-69.4c-4.6-27-14.7-51.2-14.7-51.2
								c4.9-4.5,9.5-9.4,13.5-14.7c7.2-9.3,8.2-17.5,6.3-19c-1.9-1.5-12.5-2.1-24.8-0.6c-11.9,1.5-23.7,6.5-24.7,6.6
								c-1,0.1-27.6-8-58-9.3S106.9,84.9,107.4,85.9z"/>
							<g>
								<defs>
									<path id="SVGID_17_" d="M107.4,85.9C91.3,80,58,77.1,56.5,80.8c-1.5,3.7,8.9,26,19.8,32.9c-0.9,1.4-12.8,29.3-17,60
										s-0.8,64.3,6.9,72.7c16.6,18.1,56.9,30.7,63.6,32.2c7.2,1.6,12.7,1.5,15.8,2s20.2,17.6,47.9,1.7c0,0,39.7-7.7,56.4-19.2
										c16.6-11.4,21-16.1,26.3-27.7c2.8-6.1,3.5-39.4-1.6-69.4c-4.6-27-14.7-51.2-14.7-51.2c4.9-4.5,9.5-9.4,13.5-14.7
										c7.2-9.3,8.2-17.5,6.3-19c-1.9-1.5-12.5-2.1-24.8-0.6c-11.9,1.5-23.7,6.5-24.7,6.6c-1,0.1-27.6-8-58-9.3
										S106.9,84.9,107.4,85.9z"/>
								</defs>
								<clipPath id="SVGID_18_">
									<use xlink:href="#SVGID_17_"  style="overflow:visible;"/>
								</clipPath>
								<g class="st21">
									<rect id="rectangles-2" x="51.9" y="44.3" class="st3" width="231.7" height="247"/>
								</g>
							</g>
						</g>
					</g>
					<g id="headFur08-2">
						<g id="color2-2">
							<g id="color2-3">
								<g>
									<defs>
										<path id="SVGID_19_" d="M107.4,85.9C91.3,80,58,77.1,56.5,80.8c-1.5,3.7,8.9,26,19.8,32.9c-0.9,1.4-12.8,29.3-17,60
											s-0.8,64.3,6.9,72.7c16.6,18.1,56.9,30.7,63.6,32.2c7.2,1.6,12.7,1.5,15.8,2s20.2,17.6,47.9,1.7c0,0,39.7-7.7,56.4-19.2
											c16.6-11.4,21-16.1,26.3-27.7c2.8-6.1,3.5-39.4-1.6-69.4c-4.6-27-14.7-51.2-14.7-51.2c4.9-4.5,9.5-9.4,13.5-14.7
											c7.2-9.3,8.2-17.5,6.3-19c-1.9-1.5-12.5-2.1-24.8-0.6c-11.9,1.5-23.7,6.5-24.7,6.6c-1,0.1-27.6-8-58-9.3
											S106.9,84.9,107.4,85.9z"/>
									</defs>
									<clipPath id="SVGID_20_">
										<use xlink:href="#SVGID_19_"  style="overflow:visible;"/>
									</clipPath>
									<g class="st22">
										<path class="st6" d="M131.8,86.2c15.6,22.6,12.4,60.7-8.2,94s-56.3,58.8-98.5,61s-57.8-50.5-53.4-82S-1.6,55.4,32,53.2
											S116.2,63.7,131.8,86.2z"/>
									</g>
								</g>
							</g>
						</g>
						<g id="color1-2">
							<g>
								<defs>
									<path id="SVGID_21_" d="M107.4,85.9C91.3,80,58,77.1,56.5,80.8c-1.5,3.7,8.9,26,19.8,32.9c-0.9,1.4-12.8,29.3-17,60
										s-0.8,64.3,6.9,72.7c16.6,18.1,56.9,30.7,63.6,32.2c7.2,1.6,12.7,1.5,15.8,2s20.2,17.6,47.9,1.7c0,0,39.7-7.7,56.4-19.2
										c16.6-11.4,21-16.1,26.3-27.7c2.8-6.1,3.5-39.4-1.6-69.4c-4.6-27-14.7-51.2-14.7-51.2c4.9-4.5,9.5-9.4,13.5-14.7
										c7.2-9.3,8.2-17.5,6.3-19c-1.9-1.5-12.5-2.1-24.8-0.6c-11.9,1.5-23.7,6.5-24.7,6.6c-1,0.1-27.6-8-58-9.3
										S106.9,84.9,107.4,85.9z"/>
								</defs>
								<clipPath id="SVGID_22_">
									<use xlink:href="#SVGID_21_"  style="overflow:visible;"/>
								</clipPath>
								<g class="st23">
									<path class="st8" d="M168.6,86.2c-15.6,22.6-12.4,60.7,8.2,94s56.3,58.8,98.5,61c42.3,2.2,57.8-50.5,53.4-82
										c-4.5-31.5-26.7-103.9-60.4-106.1S184.1,63.7,168.6,86.2z"/>
								</g>
							</g>
						</g>
					</g>
				</g>
				<g id="headShadow">
					<g id="headShadow02">
						<g id="headShadow-2">
							<g>
								<defs>
									<path id="SVGID_23_" d="M107.4,85.9C91.3,80,58,77.1,56.5,80.8c-1.5,3.7,8.9,26,19.8,32.9c-0.9,1.4-12.8,29.3-17,60
										s-0.8,64.3,6.9,72.7c16.6,18.1,56.9,30.7,63.6,32.2c7.2,1.6,12.7,1.5,15.8,2s20.2,17.6,47.9,1.7c0,0,39.7-7.7,56.4-19.2
										c16.6-11.4,21-16.1,26.3-27.7c2.8-6.1,3.5-39.4-1.6-69.4c-4.6-27-14.7-51.2-14.7-51.2c4.9-4.5,9.5-9.4,13.5-14.7
										c7.2-9.3,8.2-17.5,6.3-19c-1.9-1.5-12.5-2.1-24.8-0.6c-11.9,1.5-23.7,6.5-24.7,6.6c-1,0.1-27.6-8-58-9.3
										S106.9,84.9,107.4,85.9z"/>
								</defs>
								<clipPath id="SVGID_24_">
									<use xlink:href="#SVGID_23_"  style="overflow:visible;"/>
								</clipPath>
								<g class="st24">
									<path id="path-0-18" class="st10" d="M90.2,74.8c-33.3,2.9-45-1-23.8,15.4c6.9,5.3,11.9,12,15.3,20.9
										c1.8,4.7-2.1,4.6-1.2,15.1c0.9,10.5-0.2,14-3.2,19.4c-6.4,11.6-8.9,24.4-7.5,31.2c7.1,35.7-14.7,35.1,4.1,62.6
										c24,35.2,81.8,47,81.8,47l-59.9-14.3l-25.9-9.9l-23.5-40.8l-7.6-42.3l5.7-58c0,0,3.2-44.5,14.1-46.3
										C69.2,73,90.2,74.8,90.2,74.8z"/>
									<path id="path-0-19" class="st12" d="M291.4,73.3c-1.6-7.3-11.9,3.2-21.4,15.4c-7.5,9.8-14.5,20.7-16.1,24.6
										c-1.8,4.7,26.7,100.8,7.9,128.3c-24,35.2-81.8,47.1-81.8,47.1l59.9-14.3l25.9-9.9l23.5-40.8l7.6-42.3l-5.7-58
										C291.3,123.3,292.7,79.7,291.4,73.3z"/>
								</g>
							</g>
						</g>
					</g>
				</g>
				<g id="head02">
					<g id="layer-4">
						<path class="st13" d="M191.7,222.5c-9.2-6.5-19.7-6.9-26.9-6.1c-8.3,0.9-14.3,3.6-14.9,4.3l-1.1-1.1c2-2,25.6-11.3,43.8,1.6
							L191.7,222.5z"/>
						<g id="path-2-10">
							<path class="st13" d="M107.7,84.8c-7.1-2.6-14.6-4-22-5.1c-7-1-14.1-1.8-21.1-1.7c-2.5,0-8.4-0.4-9.3,2.8
								c-0.5,1.8,0.4,4.2,1,5.9c1.1,3,2.4,5.9,3.9,8.7c3.8,7.2,8.7,14.7,15.6,19.2l-0.4-1.6c-2.5,4-3.8,9.1-5.4,13.5
								c-3.6,10.2-6.6,20.7-8.9,31.3c-4.9,22.5-6.4,46.5-2.7,69.4c1.1,6.5,2.5,14.4,6.9,19.6c5.3,6.2,12.8,10.9,19.8,14.9
								c13.2,7.4,27.2,13.1,41.8,17.2c3.1,0.8,6.2,1.4,9.3,1.8c2.3,0.3,4.7,0.4,7,0.6c1,0,1.9,0.2,2.9,0.5c1.8,0.7,3.4,2,5.1,2.9
								c2.6,1.5,5.4,2.7,8.3,3.6c8.3,2.6,17.2,2.1,25.3-0.8c2.7-0.9,5.2-2.1,7.7-3.4c0.7-0.4,1.4-0.7,2.2-1c1.8-0.5,3.7-0.8,5.5-1.2
								c15.2-3.4,31-7.5,44.9-14.7c4.1-2.2,7.9-4.9,11.7-7.6c3.7-2.6,7.2-5.5,10.5-8.6c4.5-4.5,9-10.6,10.8-16.8
								c1.9-6.7,1.7-14.3,1.7-21.2c0-11.4-0.6-22.9-1.9-34.2c-2.5-20.8-7.6-41.1-15.1-60.6c-0.5-1.3-1-2.5-1.5-3.7l-0.3,1.1
								c5-4.3,9.5-9.5,13.5-14.7c2.7-3.5,5.1-7.4,6.5-11.7c0.7-2.3,1.5-5.3,0.6-7.6c-0.7-1.8-2.6-2.2-4.4-2.5
								c-3.8-0.6-7.8-0.6-11.7-0.5c-10.1,0.4-20.2,2.2-29.7,5.6c-1.3,0.5-2.7,0.9-4,1.4c-0.4,0.1-0.8,0.3-1.2,0.4
								c-0.6,0.2,0,0.1-0.1,0.1c-1.5-0.1-3.1-0.7-4.5-1.1c-6.9-1.7-13.9-3.2-20.9-4.5c-20.3-3.6-40.7-4.7-61.3-2.6
								c-9.2,0.9-18.3,2.4-27.4,4.4c-2.5,0.5-5,1.1-7.5,1.9c-1.1,0.4-2.6,0.7-2.4,2.2c0.2,1.5,2.4,0.8,2.2-0.6
								c0.2,1.7-0.8,0.9,0.3,0.8c0.7-0.2,1.4-0.4,2.1-0.7c2.3-0.7,4.7-1.2,7.1-1.7c7.6-1.6,15.2-2.8,22.9-3.7
								c19.3-2.2,38.7-1.8,57.9,1.3c7.4,1.2,14.8,2.7,22.1,4.4c2.2,0.5,4.3,1,6.5,1.6c0.8,0.2,1.9,0.6,2.8,0.6
								c1.9-0.1,4.1-1.3,5.9-2c4.1-1.4,8.3-2.6,12.6-3.6c8.6-1.9,18.6-2.9,27.4-1.5c0.8,0.1,2.4,0.2,3,0.8c0.6,0.8,0.3,2.5,0.2,3.4
								c-0.7,4.5-3.1,8.8-5.7,12.5c-4.2,5.9-9.1,11.3-14.5,16c-0.3,0.3-0.4,0.7-0.3,1.1c5.9,14.3,10.4,29,13.4,44.2
								c4.3,21.1,6.1,43.6,4.7,65.1c-0.1,2.9-0.5,5.8-1.1,8.7c-0.7,2.9-2.4,5.7-3.9,8.2c-4.4,7.3-11,12.5-17.8,17.4
								c-6.9,5-14.5,9-22.6,11.9c-7.5,2.7-15.2,5-22.9,7c-4.8,1.2-9.7,2.2-14.6,3.4c-2.9,0.7-5.5,2.7-8.3,3.8c-4.8,1.9-9.9,3-15,3
								c-6.8,0-13.2-2.1-19-5.3c-1.5-0.9-3-2-4.6-2.7c-2.5-1.1-5.8-0.8-8.4-1c-13.4-1.3-26.7-6.7-38.9-12.2c-8-3.6-15.9-7.7-23-12.8
								c-3.3-2.3-6.3-4.9-9.1-7.8c-2.1-2.2-3.3-5-4.2-7.9c-2.9-8.7-3.8-18.3-4.3-27.4c-0.6-11.7-0.1-23.5,1.4-35.1
								c2.6-19.7,7.8-39,15.4-57.4c0.5-1.3,1-2.6,1.7-3.8c0.3-0.6,0.1-1.3-0.4-1.6c-5.7-3.7-9.9-9.7-13.2-15.5
								c-1.6-2.8-3.1-5.7-4.3-8.7c-0.7-1.8-2-4.3-1.9-6.4c0.1-2.3,6.5-1.7,8.3-1.7c6.6,0.1,13.1,0.7,19.6,1.7
								c7.3,1.1,14.7,2.5,21.7,5C108.5,87.5,109.1,85.3,107.7,84.8z"/>
						</g>
						<path d="M183.7,256.4l-1.4-0.7c2.4-4.6,5.2-7.3,8.4-8c3.6-0.7,6.4,1.3,7.5,2.1l-1,1.2c-0.7-0.6-3.2-2.4-6.2-1.8
							C188.4,249.8,185.9,252.2,183.7,256.4z"/>
						<path d="M152.9,255.4c-2.1-4.2-4.6-6.6-7.4-7.2c-2.9-0.6-5.3,1.1-6.2,1.8l-1-1.2c1.1-0.9,3.9-2.9,7.5-2.1
							c3.2,0.7,6.1,3.3,8.4,8L152.9,255.4z"/>
					</g>
				</g>
			</g>
			<g id="eye">
				<g id="eye04">
					<circle id="eyeColor04-left" class="st25" cx="112.1" cy="178.4" r="34.8"/>
					<circle id="path-14-2" class="st13" cx="112.1" cy="178.4" r="29.6"/>
					<circle id="path-13-2" class="st1" cx="112.1" cy="178.4" r="35.2"/>
					<path id="path-12-2" class="st26" d="M121.5,186.1c-6.7,10.6-15,4.6-20.4,3.3c-3-0.7-5.7-2.7-8-0.9c-2.6,2-2.6,5.4-0.9,8
						c5,7.5,15.1,9.8,23.5,7.6c9.9-2.6,15.6-7.7,21.2-15.8c2.1-2.9-0.2-8.4-2.9-9.8C131.2,177,125.7,179.4,121.5,186.1z"/>
					<path id="path-11-2" class="st27" d="M131.5,171.4c-0.2-0.3-0.3-0.7-0.5-1c-0.3-0.5-0.8-0.9-1.3-1c-1.2-0.3-2.4,0.4-2.8,1.5
						c-0.1,0.6-0.1,1.2,0.2,1.7l0.5,1c0.3,0.5,0.8,0.9,1.3,1c0.6,0.2,1.2,0.1,1.7-0.2c0.5-0.3,0.9-0.8,1-1.3
						C131.8,172.5,131.7,171.9,131.5,171.4z"/>
					<path id="path-10-2" class="st27" d="M113.4,191.8c-1.6-1.4-3.9-1.5-5.4,0.2c-2.1,0.9-3.6,3.3-2.8,5.7c0.3,0.9,0.9,1.7,1.7,2.3
						c0.4,0.5,0.9,0.7,1.5,0.7c1.4,0.5,3,0.3,4.3-0.5C115.4,198.3,115.9,194,113.4,191.8z"/>
					<path id="path-9-2" class="st27" d="M124.7,158.2c-2.7-0.9-4.9,1.4-4.7,3.8c-0.2,1.1,0,2.2,0.5,3.1c0.6,1,1.8,1.4,2.9,1.1
						c0.7-0.2,1.4-0.6,2-1.2c1.1-0.8,1.8-2.1,1.8-3.4C127.1,160,126.1,158.7,124.7,158.2z"/>
					<path id="path-8-2" class="st27" d="M114.2,161.6c0.1-3.5-3-6.9-6.7-6.9c-12.1,0.3-21.3,11.8-17.6,23.7
						c1.1,3.5,4.5,5.8,8.2,4.9c3.4-0.8,6-4.7,4.9-8.2c-0.7-2.1-0.7-3.5,0.5-5.1c-0.1,0.2,0.6-0.6,0.8-0.7c0.4-0.3-0.1,0,0.7-0.5
						c0.7-0.4,1.5-0.6,2.3-0.6C111,168.2,114.1,165.4,114.2,161.6z"/>
					<circle id="eyeColor04-right" class="st25" cx="224.9" cy="178.8" r="34.8"/>
					<circle id="path-6-2" class="st13" cx="224.9" cy="178.8" r="29.6"/>
					<circle id="path-5-2" class="st1" cx="224.9" cy="178.8" r="35.2"/>
					<path id="path-4-3" class="st26" d="M234.3,186.5c-6.7,10.6-15,4.6-20.4,3.3c-3-0.7-5.7-2.7-8-0.9c-2.6,2-2.6,5.4-0.9,8
						c5,7.5,15.1,9.8,23.5,7.6c9.9-2.6,15.6-7.7,21.2-15.8c2.1-2.9-0.2-8.4-2.9-9.8C243.9,177.3,238.5,179.8,234.3,186.5z"/>
					<path id="path-3-6" class="st27" d="M244.2,171.8c-0.2-0.3-0.3-0.7-0.5-1c-0.6-1.1-2-1.4-3.1-0.8c0,0,0,0,0,0
						c-0.5,0.3-0.9,0.8-1,1.3c-0.1,0.6-0.1,1.2,0.2,1.7l0.5,1c0.6,1.1,2,1.4,3.1,0.8c0,0,0,0,0,0c0.5-0.3,0.9-0.8,1-1.3
						C244.6,173,244.5,172.4,244.2,171.8z"/>
					<path id="path-2-11" class="st27" d="M226.2,192.2c-1.6-1.4-3.9-1.5-5.4,0.2c-2.1,0.9-3.6,3.3-2.8,5.7c0.3,0.9,0.9,1.7,1.7,2.3
						c0.4,0.5,0.9,0.7,1.5,0.8c1.4,0.5,3,0.3,4.3-0.5C228.2,198.7,228.7,194.4,226.2,192.2z"/>
					<path id="path-1-14" class="st27" d="M237.4,158.6c-2.7-0.9-4.9,1.3-4.7,3.8c-0.2,1.1,0,2.2,0.5,3.1c0.6,1,1.8,1.4,2.9,1.1
						c0.7-0.2,1.4-0.6,2-1.2c1.1-0.8,1.8-2.1,1.8-3.4C239.9,160.4,238.9,159.1,237.4,158.6z"/>
					<path id="path-0-21" class="st27" d="M226.9,162c0.1-3.5-3-6.9-6.7-6.9c-12.1,0.3-21.3,11.8-17.6,23.7c1.1,3.5,4.5,5.8,8.2,4.9
						c3.4-0.8,6-4.7,4.9-8.2c-0.7-2.1-0.7-3.5,0.6-5.1c-0.1,0.2,0.6-0.6,0.7-0.7c0.4-0.3-0.1,0,0.7-0.5c0.7-0.4,1.5-0.6,2.3-0.6
						C223.7,168.6,226.9,165.8,226.9,162z"/>
				</g>
			</g>
			<g id="mouth">
				<g id="mouth04">
					<g id="path-4-4">
						<path class="st13" d="M22.5,235.7c5.5-0.6,11.2-0.1,16.7,0.4c7.5,0.6,15,1.5,22.5,2.3c14.3,1.4,29.2,3.5,43.6,1.7
							c2.6-0.3,5.2-0.9,7.7-1.7c2.7-1,10-4.5,12-1c0.2,0.3,0.5,0.3,0.8,0.2c0.2-0.1,0.3-0.4,0.2-0.6c-1.8-5.7-12.1-0.3-15.5,0.6
							c-6.1,1.7-12.7,1.6-19,1.4c-16.2-0.4-32.3-2.7-48.5-3.9c-6.7-0.5-13.7-1.1-20.4-0.3C21.9,234.8,21.8,235.8,22.5,235.7z"/>
					</g>
					<g id="path-3-7">
						<path class="st13" d="M312.7,236.5c-5.8-0.7-11.7-0.4-17.5-0.1c-7.8,0.4-15.6,1-23.4,1.5c-8.1,0.6-16.3,1.2-24.4,1.3
							c-6.5,0.1-13.1,0.1-19.5-1.4c-3.7-0.9-15.1-7-17-1c-0.1,0.3,0.1,0.6,0.4,0.7c0.2,0.1,0.5,0,0.6-0.2c1.7-3.1,8.3-0.4,10.8,0.5
							c2.2,0.9,4.4,1.5,6.7,2c6.1,1.1,12.4,1.2,18.6,1c15.3-0.2,30.5-1.9,45.7-3c6.3-0.5,12.7-1,19-0.3
							C313.4,237.5,313.4,236.5,312.7,236.5L312.7,236.5z"/>
					</g>
					<path class="st13" d="M203.9,281.1c-5.8,0-12.6-2.4-18.9-4.6c-4.9-1.7-9.5-3.3-12.9-3.6c-6-0.4-18.6,2.8-27.8,5.2
						c-4.4,1.1-8.3,2.1-10.6,2.5l-0.2,0l-0.2,0c-0.8-0.2-18.6-4.9-23.7-14.6c-1.6-3-1.7-6.1-0.5-9.4l1.4,0.5c-1,2.8-0.9,5.5,0.5,8.1
						c4.5,8.6,20.8,13.3,22.5,13.7c2.3-0.4,6-1.4,10.4-2.5c9.8-2.5,22.1-5.7,28.3-5.2c3.6,0.3,8.3,1.9,13.3,3.6
						c7.6,2.7,16.1,5.7,22,4.1c9-2.4,16.8-5.6,21.7-19.7l1.5,0.5c-5.2,14.8-13.4,18.1-22.8,20.7
						C206.7,280.9,205.3,281.1,203.9,281.1z"/>
					<g>
						<path id="path-5-3_1_" class="st28" d="M190.4,277.5c1.6,0,1,10.2-2.2,15.5c-8.4,13.7-29.3,10.8-34.6-2.9
							c-2.4-6.2-4.8-13.9,1.6-15.4c2.9-0.7,9.7-2.7,17.1-2.5C181.4,272.5,188.8,277.5,190.4,277.5z"/>
						<path d="M172,302.7c-0.7,0-1.4,0-2.1-0.1c-7.9-0.7-14.4-5.4-17.1-12.3c-1.9-4.8-3.6-10.2-1.8-13.6c0.8-1.5,2.1-2.4,4-2.9
							c0.3-0.1,0.7-0.2,1.1-0.3c3.3-0.8,9.5-2.4,16.1-2.2c6.6,0.2,12.2,2.8,15.6,4.3c1.1,0.5,2.3,1,2.6,1h0c0.3,0,0.8,0.1,1.1,0.8
							c1.2,2.2,0.3,11-2.7,15.9C185.2,299.4,179,302.7,172,302.7z M170.9,272.9c-5.9,0-11.4,1.4-14.4,2.2c-0.4,0.1-0.8,0.2-1.2,0.3
							c-1.4,0.3-2.4,1-2.9,2.1c-1.5,2.8,0.1,7.8,1.9,12.3c2.4,6.3,8.5,10.6,15.8,11.3c7.3,0.7,13.8-2.5,17.5-8.5
							c3-4.9,3.4-13.1,2.7-14.3c-0.6-0.1-1.5-0.5-3-1.2c-3.3-1.5-8.7-4-15-4.2C171.8,272.9,171.4,272.9,170.9,272.9z"/>
					</g>
					<path class="st13" d="M175.3,293.1l-1-0.2c0-0.1,1.4-7.3,0.6-11.6c-0.6-3.5-2.2-7-2.9-8.3c-0.3-0.7-0.4-0.9-0.2-1.2l0.2-0.3
						l0.3,0.1l-0.2,0.5l0.5-0.1c0,0.1,0.1,0.3,0.2,0.5c0.6,1.4,2.3,5,3,8.6C176.7,285.7,175.3,292.8,175.3,293.1z"/>
				</g>
			</g>
		</g>
	</g>
</g>
</svg>
