<?xml version="1.0" encoding="utf-8"?>
<!-- Generator: Adobe Illustrator 22.0.1, SVG Export Plug-In . SVG Version: 6.00 Build 0)  -->
<svg version="1.1" id="图层_1" xmlns="http://www.w3.org/2000/svg" xmlns:xlink="http://www.w3.org/1999/xlink" x="0px" y="0px"
	 viewBox="0 0 340 340" style="enable-background:new 0 0 340 340;" xml:space="preserve">
<style type="text/css">
	.st0{fill:#FCDEDE;}
	.st1{fill:none;}
	.st2{clip-path:url(#SVGID_2_);}
	.st3{fill:#FFE0DE;}
	.st4{clip-path:url(#SVGID_4_);}
	.st5{clip-path:url(#SVGID_6_);}
	.st6{opacity:0.2;enable-background:new    ;}
	.st7{fill:#000002;}
	.st8{opacity:0.2;fill:#FFFFFF;enable-background:new    ;}
	.st9{fill:#30323C;}
	.st10{clip-path:url(#SVGID_8_);}
	.st11{fill:#DDDDDD;}
	.st12{clip-path:url(#SVGID_10_);}
	.st13{clip-path:url(#SVGID_12_);}
	.st14{clip-path:url(#SVGID_14_);}
	.st15{clip-path:url(#SVGID_16_);}
	.st16{fill:#FCFFFF;}
	.st17{fill:#65708C;}
	.st18{fill:#F6FFEC;}
	.st19{clip-path:url(#SVGID_18_);}
	.st20{clip-path:url(#SVGID_20_);}
	.st21{clip-path:url(#SVGID_22_);}
	.st22{fill:#FFFFFF;}
	.st23{fill:#C665B6;}
	.st24{fill:#FCFCFC;}
	.st25{fill:#FFA2C5;}
</style>
<title>img_homedragon1</title>
<circle class="st0" cx="170" cy="170" r="170"/>
<circle class="st1" cx="170" cy="170" r="170"/>
<g>
	<defs>
		<circle id="SVGID_1_" cx="170" cy="170" r="170"/>
	</defs>
	<clipPath id="SVGID_2_">
		<use xlink:href="#SVGID_1_"  style="overflow:visible;"/>
	</clipPath>
	<g class="st2">
		<g id="tailFur_1_">
			<g id="tail-mainColor_1_">
				<g id="tail-mainColor05">
					<path id="_tail05_-clip-3" class="st3" d="M234.5,359.7l13.7-13.9c0,0,5.9,30.2,17.8,36.9c11.9,6.7,19.7,2.9,30.3,7
						c10.6,4.1,11.9,16.9,10.3,18c-2.4,1.6-4.7-7.9-16.5-10c-7-1.2-20.8,3.8-34.4,1.1c-13.6-2.7-28.2-14-28.2-14L234.5,359.7z"/>
					<g>
						<g>
							<defs>
								<path id="SVGID_3_" d="M234.5,359.7l13.7-13.9c0,0,5.9,30.2,17.8,36.9c11.9,6.7,19.7,2.9,30.3,7c10.6,4.1,11.9,16.9,10.3,18
									c-2.4,1.6-4.7-7.9-16.5-10c-7-1.2-20.8,3.8-34.4,1.1c-13.6-2.7-28.2-14-28.2-14L234.5,359.7z"/>
							</defs>
							<clipPath id="SVGID_4_">
								<use xlink:href="#SVGID_3_"  style="overflow:visible;"/>
							</clipPath>
							<g class="st4">
								
									<rect id="rectangles_1_" x="238.6" y="300.7" transform="matrix(0.368 -0.9298 0.9298 0.368 -171.1768 498.9479)" class="st3" width="85.6" height="149.4"/>
							</g>
						</g>
					</g>
				</g>
			</g>
			<g id="tailFur05">
				<g id="tailShadow05">
					<g>
						<g>
							<defs>
								<path id="SVGID_5_" d="M234.5,359.7l13.7-13.9c0,0,5.9,30.2,17.8,36.9c11.9,6.7,19.7,2.9,30.3,7c10.6,4.1,11.9,16.9,10.3,18
									c-2.4,1.6-4.7-7.9-16.5-10c-7-1.2-20.8,3.8-34.4,1.1c-13.6-2.7-28.2-14-28.2-14L234.5,359.7z"/>
							</defs>
							<clipPath id="SVGID_6_">
								<use xlink:href="#SVGID_5_"  style="overflow:visible;"/>
							</clipPath>
							<g class="st5">
								<g class="st6">
									<path id="path-1_2_" d="M320.3,402.4c-58.8,8.1-87.7-28.8-93.7-38.5s-6.2-7.6-6.2-7.6l-15.4,8.2l7.6,18.3l48.9,28.9l34.5,4
										L320.3,402.4z"/>
									<path class="st7" d="M295.9,415.9L295.9,415.9l-34.5-4l0,0l-49-28.9l0,0l-7.6-18.4l0.1-0.1l15.3-8.2c0-0.1,0.1-0.2,0.2-0.2
										c0.8-0.2,2.9,2.4,6.2,7.8c3,4.8,31.1,47.1,93.6,38.5l0.1,0.2L295.9,415.9z M261.4,411.7l34.4,4l23.8-13
										c-62.2,8.3-90.2-33.8-93.2-38.7c-4.6-7.4-5.7-7.8-5.9-7.7c-0.1,0-0.1,0.1-0.1,0.1l0,0.1l-15.4,8.2l7.5,18.1L261.4,411.7z"
										/>
								</g>
								<path id="path-0_1_" class="st8" d="M272.1,376.8c-9-5.4-35.6-34.2-35.6-34.2l12.1-14.4l15.9,5.5
									C264.4,333.7,276.6,379.5,272.1,376.8z"/>
							</g>
						</g>
					</g>
				</g>
			</g>
		</g>
		<g id="tail_1_">
			<g id="tail05">
				<path class="st9" d="M306.1,408.9c-1.2,0-2.2-1.2-3.4-2.5c-2.3-2.6-5.7-6.4-12.6-7.6c-2.7-0.5-6.6,0.1-11.1,0.7
					c-6.7,0.9-15.1,2-23.3,0.4c-13.6-2.8-28-13.7-28.6-14.2l-0.5-0.4l7.2-26.1l15.3-15.4l0.4,1.9c0.1,0.3,5.9,29.8,17.3,36.2
					c6.6,3.7,11.8,4.1,17.2,4.5c4.1,0.3,8.3,0.6,12.9,2.4c7.5,2.9,10.8,10,11.4,15.3c0.2,1.4,0.2,3.8-0.9,4.6
					C306.8,408.8,306.5,408.9,306.1,408.9z M306,407L306,407L306,407z M287.6,396.6c1,0,1.9,0.1,2.7,0.2c7.6,1.3,11.5,5.7,13.8,8.3
					c0.6,0.7,1.5,1.7,1.9,1.8c0.2-0.6,0.4-2.6-0.5-5.6c-0.9-2.9-3.4-8.2-9.5-10.6c-4.4-1.7-8.3-2-12.4-2.3
					c-5.4-0.4-11.1-0.8-18.1-4.8c-10.6-6-16.4-28.9-17.9-35.7l-12.2,12.3l-6.7,24.3c2.8,2,15.5,11,27.2,13.4
					c7.9,1.6,16,0.5,22.6-0.4C282,397,285.1,396.6,287.6,396.6z"/>
			</g>
		</g>
		<g id="wingsFur_1_">
			<g id="wingsFur03">
				<g id="wingsColor03-left">
					<g>
						<g>
							<defs>
								<path id="SVGID_7_" d="M97.3,308.7c-27.2-7.3-16.6,10.4-20.6,10.9c-9.6,1.4-16.3-12.1-22.5-9.9c-9.5,3.5,5.3,32.3,5.3,32.3
									c-33.2-8-33.6-36-33.6-36l-5.5,11.5c-4.1-9.5-5.3-25-0.3-37.7c5.6-13.9,17.7-24.5,19.8-25.1c4.1-1.1,3.1,2.9,6.5,4.3
									c3.5,1.4,8.2,0.3,8.3,1.4c2.3,15.9,21.1,25.2,34.1,22.3c9-2.1,14.4,2.6,14.4,2.6l-1.9,7.1L97.3,308.7z"/>
							</defs>
							<clipPath id="SVGID_8_">
								<use xlink:href="#SVGID_7_"  style="overflow:visible;"/>
							</clipPath>
							<g class="st10">
								<path id="wingsColor03-left-2" class="st11" d="M107.7,292.9c-0.9,0.2-30.4-6.9-30.4-6.9l-36.8-17.1c0,0-14.3,17.2-14,19
									c0.3,1.8,11.7,40.4,11.7,40.4L65,351.6l52.7-28.2L107.7,292.9z"/>
								<path id="wingsColor03-left-1" class="st3" d="M106.7,278.9l-4.3,19.5l-3-1.1c0,0-6.8,1-9.3,0.3c-2.5-0.7-6.4-4.5-6.4-4.5
									c-14.3-3-16.1-5.4-36.5-19.8c0,0-17.8,2.2-14.7,30.2c3,28,23.9,37.4,23.9,37.4s-5.7,0.9-19.9-10.5
									c-15-12-27.6-17.1-27.6-17.1s14.3-63.3,14.7-63.3c0.4-0.1,39.3-14.1,39.3-14.1l16,28.5l26.5,15.5L106.7,278.9z"/>
							</g>
						</g>
					</g>
				</g>
				<path id="wingsPaw-right" class="st11" d="M54.7,259.1c1.5-0.8,5.3-9.9,2.6-11.8c-1.4-1-15.8,5.2-13.7,8.5
					C44.7,258.6,51.1,261,54.7,259.1z"/>
				<g id="wingsColor03-right">
					<g>
						<g>
							<defs>
								<path id="SVGID_9_" d="M242.7,312.3c27.2-7.3,16.6,10.4,20.6,10.9c9.6,1.4,16.3-12.1,22.5-9.9c9.5,3.5-5.3,32.3-5.3,32.3
									c33.2-8,33.6-36,33.6-36l5.5,11.5c4.1-9.5,5.3-25,0.3-37.7c-5.5-13.9-17.6-24.5-19.8-25c-4.1-1.1-3.1,2.9-6.5,4.3
									c-3.5,1.4-8.2,0.3-8.3,1.4c-2.3,15.9-21.1,25.2-34.1,22.3c-9-2.1-14.4,2.6-14.4,2.6l1.9,7.1L242.7,312.3z"/>
							</defs>
							<clipPath id="SVGID_10_">
								<use xlink:href="#SVGID_9_"  style="overflow:visible;"/>
							</clipPath>
							<g class="st12">
								<path id="wingsColor03-left-2-2" class="st11" d="M232.3,296.4c0.9,0.2,30.4-6.9,30.4-6.9l36.8-17.1c0,0,14.3,17.2,14,19
									c-0.3,1.8-11.7,40.4-11.7,40.4L275,355.1l-52.7-28.2L232.3,296.4z"/>
								<path id="wingsColor03-left-1-2" class="st3" d="M233.3,282.4l4.3,19.5l3-1.1c0,0,6.8,1,9.3,0.3c2.5-0.7,6.4-4.5,6.4-4.5
									c14.3-3,16.1-5.4,36.5-19.8c0,0,17.8,2.2,14.7,30.2c-3,28-23.9,37.4-23.9,37.4s5.7,0.9,19.9-10.5c15-12,27.6-17.1,27.6-17.1
									s-14.2-63.3-14.7-63.4c-0.5-0.1-39.3-14.1-39.3-14.1l-16,28.5l-26.5,15.5L233.3,282.4z"/>
							</g>
						</g>
					</g>
				</g>
				<path id="wingsPaw-right-2" class="st11" d="M285.2,262.6c-1.5-0.8-5.3-9.9-2.6-11.8c1.4-1,15.8,5.2,13.7,8.5
					C295.3,262.2,288.9,264.5,285.2,262.6z"/>
			</g>
		</g>
		<g id="wings_1_">
			<g id="wings03">
				<g id="right">
					<path class="st9" d="M288.4,264.3c-1.3,0-2.5-0.2-3.7-0.8l0,0c-1.6-0.9-3.9-6.3-4.1-9.6c-0.1-1.9,0.4-3.2,1.4-3.9
						c1.9-1.3,11.1,3,13.9,5.7c1.9,1.8,1.8,3.2,1.3,4.1c-0.6,1.5-2.2,2.8-4.4,3.7C291.5,264,290,264.3,288.4,264.3z M285.7,261.7
						c1.6,0.8,4.1,0.8,6.3-0.1c1.7-0.6,3-1.7,3.3-2.6l0.1-0.2c0-0.1,0.2-0.3-0.2-0.8c-2-2.9-10.5-6.3-12.1-6.3
						c-0.3,0.3-0.4,0.9-0.4,1.7C282.7,256.5,284.9,261.2,285.7,261.7z M283,251.7L283,251.7L283,251.7z"/>
					<path class="st9" d="M278.5,347.2l1-2c0.1-0.2,10.8-21.3,7.9-28.8c-0.4-1-1.1-1.7-2-2.1c-2.4-0.9-5.2,1.4-8.4,3.9
						c-3.9,3.2-8.4,6.8-13.9,6c-2-0.3-2-2.4-2-4.5c0-2.4,0-5.1-2-6.7c-2.6-2-8-1.9-16.2,0.3l-1,0.3l-4.5-17.1l-2-7.7l0.5-0.4
						c0.2-0.2,5.9-5,15.3-2.8c6.8,1.5,15.3-0.4,22.1-5.1c6.1-4.2,9.9-10,10.8-16.4c0.2-1.4,1.7-1.4,3.7-1.5c1.6,0,3.6-0.1,5.3-0.8
						c1.1-0.5,1.7-1.3,2.2-2.2c0.8-1.3,1.9-3,5-2.2c2.4,0.6,14.7,11.2,20.4,25.7c5.4,13.5,3.6,29.4-0.3,38.4l-0.9,2.1l-4.9-10.3
						c-0.5,2.9-1.6,7.2-4.1,11.8c-4,7.5-12.4,17.3-29.9,21.5L278.5,347.2z M284.3,312.1c0.6,0,1.2,0.1,1.8,0.3
						c1.5,0.5,2.6,1.6,3.2,3.2c2.7,7-4.3,22.9-7,28.5c15.3-4.3,22.8-13.1,26.4-19.9c4.1-7.7,4.2-14.4,4.2-14.5l0.1-4.4l6.3,13.3
						c3.1-8.9,4.2-22.8-0.6-34.7c-5.5-13.9-17.4-24-19.1-24.4c-1.6-0.4-1.9,0-2.7,1.3c-0.6,1-1.4,2.3-3.2,3c-2,0.8-4.3,0.9-6,0.9
						c-0.6,0-1.4,0-1.8,0.1c-1.1,6.8-5.2,12.9-11.6,17.4c-7.2,5-16.3,7-23.7,5.4c-6.9-1.6-11.6,1-13,2l1.7,6.4l4,15.1
						c8.4-2.1,14-2.1,17,0.3c2.8,2.2,2.8,5.8,2.8,8.3c0,0.9,0,2.3,0.2,2.5c4.6,0.6,8.5-2.5,12.3-5.5
						C278.7,314.3,281.5,312.1,284.3,312.1z M286.2,264.4C286.2,264.4,286.2,264.4,286.2,264.4C286.2,264.4,286.2,264.4,286.2,264.4
						z"/>
					<path class="st9" d="M283,345.5l-0.5-0.8c22.2-13.3,26.9-35.4,24.1-50.2c-1.7-9.2-6.4-15.8-11.9-16.8c-3.1-0.5-5.6,1.5-9.3,4.7
						c-4,3.4-9.5,8-18.6,11.7c-1.6,0.6-3.4,1-5.1,1.3c-2.9,0.5-5.6,1-6.9,2.8c-3.6,5-8.9,3.7-12,3c-1-0.2-2.4-0.5-2.6-0.3l-0.7-0.5
						c0.6-0.7,1.8-0.5,3.5-0.1c3.1,0.7,7.8,1.8,11.1-2.7c1.5-2.1,4.4-2.6,7.5-3.2c1.7-0.3,3.5-0.6,4.9-1.2
						c9.1-3.7,14.5-8.3,18.4-11.6c3.8-3.2,6.5-5.5,10-4.9c5.9,1,10.8,7.9,12.6,17.5c1.6,8.6,0.6,18-2.9,26.5
						C300.5,330.9,293,339.5,283,345.5z"/>
				</g>
				<g id="left">
					<path class="st9" d="M51.6,260.8c-1.3,0-2.8-0.3-4.2-0.8c-2.3-0.9-4-2.2-4.6-3.7c-0.5-0.9-0.6-2.2,1.3-4.1
						c2.8-2.7,11.9-7.1,13.9-5.8c1,0.7,1.5,2,1.4,3.9c-0.2,3.4-2.5,8.8-4.1,9.6l0,0C54.2,260.5,52.9,260.8,51.6,260.8z M56.8,248.2
						c-1.7,0-10.1,3.4-12,6.3c-0.4,0.6-0.3,0.8-0.2,0.8l0.1,0.2c0.4,0.9,1.7,2,3.4,2.6c2.3,0.9,4.7,0.9,6.2,0.1c0.8-0.5,3-5.2,3-8.3
						C57.3,249.1,57.1,248.5,56.8,248.2C56.8,248.2,56.8,248.2,56.8,248.2z M56.9,248.2L56.9,248.2L56.9,248.2z"/>
					<path class="st9" d="M61.5,343.6l-2.2-0.5c-17.5-4.2-25.9-14-29.9-21.5c-2.5-4.6-3.6-8.9-4.1-11.8l-4.9,10.3l-0.9-2.1
						c-3.9-9-5.7-24.9-0.3-38.4c5.7-14.3,18-25,20.5-25.7c3.1-0.9,4.1,0.8,5,2.2c0.6,0.9,1.1,1.7,2.2,2.2c1.7,0.7,3.7,0.7,5.3,0.8
						c1.9,0,3.5,0.1,3.7,1.5c0.9,6.4,4.8,12.2,10.8,16.3c6.8,4.7,15.2,6.6,22.1,5.1c9.4-2.2,15.1,2.6,15.3,2.8l0.5,0.4l-2,7.7
						L98,310l-1-0.3c-8.2-2.2-13.7-2.3-16.2-0.3c-2.1,1.6-2,4.3-2,6.7c0,2.1,0,4.3-2,4.5c-5.5,0.8-9.9-2.8-13.9-6
						c-3.2-2.6-6-4.8-8.4-3.9c-0.9,0.3-1.6,1-2,2.1c-3,7.5,7.8,28.6,7.9,28.8L61.5,343.6z M26.9,301.8l0.1,4.4
						c0,0.1,0.2,6.9,4.3,14.6c5.2,9.7,14.1,16.4,26.4,19.8c-2.7-5.6-9.7-21.5-7-28.5c0.6-1.6,1.7-2.7,3.2-3.2
						c3.5-1.3,6.8,1.4,10.4,4.3c3.8,3,7.7,6.2,12.3,5.5c0.2-0.2,0.2-1.6,0.2-2.5c0-2.6,0-6.1,2.8-8.3c3-2.3,8.6-2.4,17-0.3l5.7-21.6
						c-1.5-1-6.1-3.6-13-2c-7.4,1.7-16.5-0.4-23.7-5.4c-6.4-4.4-10.5-10.6-11.6-17.4c-0.4-0.1-1.2-0.1-1.8-0.1c-1.7,0-4-0.1-6-0.9
						c-1.7-0.7-2.5-2-3.2-3c-0.8-1.3-1.1-1.7-2.7-1.3c-1.6,0.5-13.6,10.8-19.1,24.5c-4.8,12-3.7,25.8-0.6,34.7L26.9,301.8z
						 M53.9,260.8C53.9,260.8,53.9,260.8,53.9,260.8C53.9,260.8,53.9,260.8,53.9,260.8z"/>
					<path class="st9" d="M57,341.9c-10-6-17.5-14.5-21.6-24.7c-3.5-8.5-4.5-17.9-2.9-26.5c1.8-9.6,6.7-16.5,12.6-17.5
						c3.5-0.6,6.3,1.7,10,4.9c3.9,3.3,9.3,7.9,18.4,11.6c1.5,0.6,3.2,0.9,4.9,1.2c3.1,0.6,6,1.1,7.5,3.2c3.3,4.5,8,3.4,11.1,2.7
						c1.7-0.4,2.9-0.7,3.5,0.1l-0.7,0.5c-0.2-0.3-1.5,0-2.6,0.3c-3.1,0.7-8.4,1.9-12-3c-1.3-1.8-4-2.3-6.9-2.8
						c-1.7-0.3-3.6-0.7-5.1-1.3c-9.2-3.8-14.7-8.4-18.6-11.7c-3.7-3.1-6.2-5.2-9.3-4.7c-5.5,1-10.1,7.5-11.9,16.8
						c-2.8,14.9,1.9,37,24.1,50.2L57,341.9z"/>
				</g>
			</g>
		</g>
		<g id="bodyFur_1_">
			<g id="bodyFur-2_1_">
				<g id="body-mainColor_1_">
					<g id="body-mainColor09">
						<g id="clipping_Path_1_">
							<path id="_body03_-clip-4" class="st3" d="M98.8,274.6c-1.2-0.7-13.5,30.8-9.5,55.9c1.7,10.7-1.3,33.9,7.5,35.4
								c11.2,1.9,13.2,17.8,13.2,17.8c4.4,5.7,11.6,9.4,13.4,12.6c4.3,7.7,9.4,10.8,19.2,7.6c10-6.9,13.3-15.4,4.4-26.9
								c-0.6-3,4,0.1,12.2,1.2c12.9,1.7,32.5,2.2,38.6-4.2c3.8-4-4.9,9.7-4.5,17c0.8,13.4,20.7,21.8,29.9,10.6
								c6.2-4.5,18.3-31.9,21.8-39.1c4.3-8.7,3.5-19.5,4.2-30.3c1.8-24.5-2.8-49.5-14.6-58.3c-7.8-5.9-16.4-2.8-28.1-3.6L164,252.5
								L98.8,274.6"/>
							<g>
								<g>
									<defs>
										<path id="SVGID_11_" d="M98.8,274.6c-1.2-0.7-13.5,30.8-9.5,55.9c1.7,10.7-1.3,33.9,7.5,35.4
											c11.2,1.9,13.2,17.8,13.2,17.8c4.4,5.7,11.6,9.4,13.4,12.6c4.3,7.7,9.4,10.8,19.2,7.6c10-6.9,13.3-15.4,4.4-26.9
											c-0.6-3,4,0.1,12.2,1.2c12.9,1.7,32.5,2.2,38.6-4.2c3.8-4-4.9,9.7-4.5,17c0.8,13.4,20.7,21.8,29.9,10.6
											c6.2-4.5,18.3-31.9,21.8-39.1c4.3-8.7,3.5-19.5,4.2-30.3c1.8-24.5-2.8-49.5-14.6-58.3c-7.8-5.9-16.4-2.8-28.1-3.6
											L164,252.5L98.8,274.6"/>
									</defs>
									<clipPath id="SVGID_12_">
										<use xlink:href="#SVGID_11_"  style="overflow:visible;"/>
									</clipPath>
									<g class="st13">
										<rect id="rectangles-2_1_" x="8" y="224.9" class="st3" width="298.8" height="199.8"/>
									</g>
								</g>
							</g>
						</g>
					</g>
					<g id="body-mainColor03">
						<g id="clipping_Path-2">
							<g>
								<g>
									<defs>
										<path id="SVGID_13_" d="M98.8,274.6c-1.2-0.7-13.5,30.8-9.5,55.9c1.7,10.7-1.3,33.9,7.5,35.4
											c11.2,1.9,13.2,17.8,13.2,17.8c4.4,5.7,11.6,9.4,13.4,12.6c4.3,7.7,9.4,10.8,19.2,7.6c10-6.9,13.3-15.4,4.4-26.9
											c-0.6-3,4,0.1,12.2,1.2c12.9,1.7,32.5,2.2,38.6-4.2c3.8-4-4.9,9.7-4.5,17c0.8,13.4,20.7,21.8,29.9,10.6
											c6.2-4.5,18.3-31.9,21.8-39.1c4.3-8.7,3.5-19.5,4.2-30.3c1.8-24.5-2.8-49.5-14.6-58.3c-7.8-5.9-16.4-2.8-28.1-3.6
											L164,252.5L98.8,274.6"/>
									</defs>
									<clipPath id="SVGID_14_">
										<use xlink:href="#SVGID_13_"  style="overflow:visible;"/>
									</clipPath>
									<g class="st14">
										<rect id="rectangles-3_1_" x="8" y="224.9" class="st3" width="298.8" height="199.8"/>
									</g>
								</g>
							</g>
						</g>
					</g>
				</g>
			</g>
			<g id="paunchFur_1_">
				<g id="paunchFur03_1_">
					<g>
						<g>
							<defs>
								<path id="SVGID_15_" d="M98.8,274.6c-1.2-0.7-13.5,30.8-9.5,55.9c1.7,10.7-1.3,33.9,7.5,35.4c11.2,1.9,13.2,17.8,13.2,17.8
									c4.4,5.7,11.6,9.4,13.4,12.6c4.3,7.7,9.4,10.8,19.2,7.6c10-6.9,13.3-15.4,4.4-26.9c-0.6-3,4,0.1,12.2,1.2
									c12.9,1.7,32.5,2.2,38.6-4.2c3.8-4-4.9,9.7-4.5,17c0.8,13.4,20.7,21.8,29.9,10.6c6.2-4.5,18.3-31.9,21.8-39.1
									c4.3-8.7,3.5-19.5,4.2-30.3c1.8-24.5-2.8-49.5-14.6-58.3c-7.8-5.9-16.4-2.8-28.1-3.6L164,252.5L98.8,274.6"/>
							</defs>
							<clipPath id="SVGID_16_">
								<use xlink:href="#SVGID_15_"  style="overflow:visible;"/>
							</clipPath>
							<g class="st15">
								<path id="color3_1_" class="st16" d="M211.6,348.2c0,17.1-18.1,31-40.3,31s-40.4-13.9-40.4-31c0-3.5,24.6-28.9,40.5-28.7
									C187.6,319.6,211.6,343.3,211.6,348.2z"/>
							</g>
						</g>
					</g>
				</g>
			</g>
		</g>
		<g id="body_1_">
			<g id="body03">
				<g id="path-4_1_">
					<path class="st9" d="M106.7,377.4c2.5,5.9,5.7,11.8,10.7,16c1.1,0.9,2.3,1.7,3.6,2.4c1.4,0.9,1.9,2.9,3,4.4
						c8.1,12.2,27.4,4.3,29.1-8.8c0.5-3.7-0.6-7.1-2-10.4c-0.8-1.7-1.6-3.4-2.6-4.9c-0.3-0.5-0.6-1.1-0.9-1.6
						c-0.3-0.5-0.5-1.3-0.5-0.7l-0.9,1.1c-0.9,0.2,0.7,0.5,1.2,0.7c1.1,0.5,2.1,0.9,3.2,1.4c2.7,1.2,5.5,2.2,8.4,2.9
						c6.5,1.4,13.8,1.1,20.3,0.4c6.9-0.7,14.4-2.4,19.8-7.1l-1.9-1.1c-1.8,7.6-8,15.5-4.6,23.6c2.8,6.6,10.5,11.2,17.4,12.2
						c6.5,1,13.4-1.4,16.7-7.2c0.9-1.5,1.2-3.2,1.9-4.8c0,0.1,0.4-0.5,0.6-0.9c0.5-0.7,1-1.4,1.5-2.1c4.7-6.9,8.2-14.5,11.2-22.3
						c0.5-1.4-1.7-2-2.2-0.6c-2.5,6.7-5.5,13.3-9.3,19.4c-1.3,2.1-3.4,4.1-4.1,6.5c-1.5,4.8-4.5,8.4-9.7,9.7
						c-7.5,1.8-16.2-2.2-20.5-8.3c-5.6-7.8,1.5-16.6,3.3-24.4c0.2-0.6-0.3-1.2-0.9-1.4c-0.4-0.1-0.8,0-1.1,0.3
						c-5.5,4.8-13.6,6.1-20.6,6.6c-6.5,0.5-13.8,0.7-20-1.3c-2.6-0.9-5.1-1.8-7.6-2.9c-1-0.5-2.4-1.3-3.6-1.2
						c-0.5,0.2-0.8,0.6-0.9,1.1c-0.1,1.2,1.5,2.9,2,3.9c1.5,2.6,2.9,5.4,3.7,8.4c1.8,6.8-2.2,13.8-8.5,16.6c-3,1.3-6.5,1.6-9.7,1
						c-3.6-0.8-5.7-3.4-7.4-6.4c-0.7-1.2-1.2-2.3-2.3-3.2c-0.8-0.6-1.8-1.1-2.6-1.6c-5.2-3.8-8.5-9.9-11-15.7
						c-0.6-1.3-2.8-0.8-2.2,0.6V377.4z"/>
				</g>
				<g id="path-3">
					<path class="st9" d="M201.3,367.3c-1.5,2.2-3.6,3.9-5.5,5.7c-1.1,1,0.6,2.6,1.6,1.6c2.1-2,4.2-3.9,5.9-6.2
						C204.1,367.3,202.1,366.2,201.3,367.3L201.3,367.3z"/>
				</g>
				<g id="path-2-3">
					<path class="st9" d="M140.1,369.3c0.9,1.6,2,3,3.5,4.2c0.9,0.9,2,1.6,3.1,2.2c1.3,0.6,2.5-1.4,1.2-2c-2.4-1.2-4.5-3.2-5.7-5.6
						C141.5,366.8,139.5,367.9,140.1,369.3L140.1,369.3z"/>
				</g>
				<g id="path-1-5_1_">
					<g id="path-0-3-2">
						<path class="st9" d="M113.8,310.2c1.3,8.4,2.9,16.9,4,25.4c0.5,3.5,0.8,7.1,1,10.6c0.3,3.9,0.9,8.7-0.2,12.6
							c-0.8,3-3.2,6.7-6.3,7.7c-2.8,0.9-6,0.7-8.9,0.5c-3.9-0.3-7.3-1.6-9.6-4.9c-2-2.8-2.4-6.6-2.7-10c-0.4-3.6-0.1-6.9,0.2-10.4
							c0.1-1.9-0.2-3.9-0.4-5.9c-0.3-3.4-0.5-6.8-0.6-10.2c-0.6-12.7-0.3-25.7,3.7-37.9c4.8-15,15.5-27.5,30.2-33.4
							c1.4-0.6,0.8-2.7-0.6-2.2c-13.5,5.5-24.3,16.3-29.9,29.8c-5.5,13.3-6.2,27.9-5.7,42.1c0.2,3.7,0.4,7.3,0.6,11
							c0.2,2.4,0.6,4.8,0.4,7.2c-0.5,4.4-0.3,8.9,0.4,13.3c1.1,6.7,4.6,12.3,11.8,13.4c5.5,0.9,12.8,1.3,16.5-3.6
							c2.4-3,3.7-6.7,3.7-10.5c0.1-5-0.2-9.9-0.7-14.8c-1.1-10.2-3-20.2-4.6-30.3C115.8,308.1,113.6,308.7,113.8,310.2L113.8,310.2z
							"/>
					</g>
					<g id="path-0-2-2">
						<path class="st9" d="M222.3,309.6c-2.3,15.5-6.1,31.3-5.2,47.1c0.3,5.1,3.7,10.8,8.9,12.1c2.3,0.6,4.8,0.6,7.3,0.5
							c3.2-0.2,6.5-0.4,9.1-2.2c8.1-5.4,7.6-16.5,7-25.2c-0.2-2,0.3-4,0.4-6c0.4-4.3,0.7-8.6,0.8-12.9c0.4-11.2,0.4-23.7-4.1-34.2
							c-0.6-1.3-2.8-0.8-2.2,0.6c3.7,8.7,4.1,18.6,4.1,27.8c0,7.2-0.5,14.3-1.2,21.5c-0.2,1.7-0.1,3.4,0.1,5.1
							c0.5,4.1,0,8.2-0.7,12.3c-0.6,3-1.5,5.6-3.8,7.7c-2.7,2.4-6,2.9-9.5,3.1c-2.7,0.2-5.7,0.3-8.3-1c-2.5-1.2-4.6-4.7-5.3-7.4
							c-1-3.6-0.4-8-0.2-11.6c0.2-3.9,0.6-7.7,1.1-11.6c1.1-8.5,2.7-16.9,4-25.4C224.6,308.7,222.5,308.1,222.3,309.6L222.3,309.6z"
							/>
					</g>
				</g>
				<g id="path-0-4">
					<path class="st9" d="M237.1,277.1c3.7,5.4,7.1,11,8.8,17.4c0.4,1.4,2.6,0.8,2.2-0.6c-1.8-6.6-5.2-12.4-9-17.9
						C238.2,274.7,236.2,275.9,237.1,277.1z"/>
				</g>
			</g>
		</g>
		<g id="paw_1_">
			<g id="paw01_1_">
				<g id="layer_1_">
					<g id="claw-4_1_">
						<g id="path-2-4">
							<path class="st16" d="M113,96.5c7.1-2.4,23.9-4.5,23.7-8.3c-0.1-1.2-22.3-21-29.8-22.6S105.9,98.9,113,96.5z"/>
						</g>
						<g id="path-1-6_1_">
							<path class="st16" d="M89.6,143.1c-0.7-7.5,1.3-24.3-2.4-24.9c-1.2-0.3-25.7,16.7-29.1,23.5
								C54.8,148.5,90.4,150.6,89.6,143.1z"/>
						</g>
						<g id="path-0-5_1_">
							<path class="st16" d="M77.4,174.2c-0.1-7.5,3.3-24.1-0.3-25c-1.2-0.3-27,14.5-30.9,21C42.3,176.7,77.4,181.7,77.4,174.2z"/>
						</g>
					</g>
					<g id="claw-3_1_">
						<g id="path-2-5">
							<path class="st16" d="M224.1,97.9c-7.1-2.4-23.9-4.5-23.7-8.3c0.1-1.3,22.3-21,29.8-22.6C237.7,65.4,231.2,100.3,224.1,97.9z
								"/>
						</g>
						<g id="path-1-7">
							<path class="st16" d="M248.3,144.5c0.7-7.5-1.3-24.3,2.4-24.9c1.2-0.2,25.7,16.7,29.1,23.5
								C283.1,149.9,247.7,152,248.3,144.5z"/>
						</g>
						<g id="path-0-6_1_">
							<path class="st16" d="M259.5,175.6c0.1-7.5-3.3-24.1,0.3-25c1.2-0.3,27,14.5,30.9,21C294.6,178.1,259.4,183.1,259.5,175.6z"
								/>
						</g>
					</g>
					<g id="claw-2">
						<path id="path-2-6_1_" class="st17" d="M217,406.7c-0.8,3.1-5.3,7.9-6.8,8.6c-1.4,0.7-4.2-10-3-8.9
							C208.4,407.6,217,406.7,217,406.7z"/>
						<path id="path-1-8" class="st17" d="M192.5,394.7c-2.1,2.4-3.7,8.7-3.6,10.2c0.2,1.5,10.2-2.6,8.7-2.9
							C196.1,401.7,192.5,394.7,192.5,394.7z"/>
						<path id="path-0-7_1_" class="st17" d="M198.4,402.9c-1.4,0.8-1.5,9.2,0.7,9.8c3,0.7,8.5-7.2,7.1-6.6
							C204.7,406.7,198.4,402.9,198.4,402.9z"/>
						<g id="claw">
							<path class="st17" d="M126.3,402.9c0.1,3.2,3.4,8.9,4.6,10c1.2,1.1,6.5-8.7,5-8C134.4,405.7,126.3,402.9,126.3,402.9z"/>
							<path class="st17" d="M151.2,396.5c1.7,2.7,2.3,9.1,1.9,10.7c-0.4,1.5-9.7-4.2-8.2-4.2C146.6,402.8,151.2,396.5,151.2,396.5z
								"/>
							<path class="st17" d="M144.7,403.1c1.3,1-0.1,9.3-2.2,9.5c-3.1,0.2-7.3-8.4-6-7.7C137.9,405.8,144.7,403.1,144.7,403.1z"/>
						</g>
					</g>
					<g id="claw-1">
						<path id="path-2-7_1_" class="st17" d="M220.4,365.3c-0.5,3.2,1.9,9.3,2.9,10.6c1,1.3,7.8-7.6,6.2-7
							C228,369.4,220.4,365.3,220.4,365.3z"/>
						<path id="path-1-9" class="st17" d="M245.7,362.3c1.2,2.9,0.7,9.4,0.1,10.8c-0.6,1.4-8.9-5.7-7.4-5.5
							C240.1,367.8,245.7,362.3,245.7,362.3z"/>
						<path id="path-0-8_1_" class="st17" d="M238.5,367.8c1.1,1.2-1.6,9.2-3.8,9c-3.1-0.3-5.8-9.5-4.6-8.5
							C231.3,369.3,238.5,367.8,238.5,367.8z"/>
					</g>
					<g id="claw-0">
						<path id="path-2-8" class="st17" d="M93.7,364.3c-0.5,3.2,1.9,9.3,2.9,10.6c1,1.2,7.8-7.6,6.2-7
							C101.2,368.4,93.7,364.3,93.7,364.3z"/>
						<path id="path-1-10_1_" class="st17" d="M119.3,362c1.2,2.9,0.7,9.4,0.1,10.8s-8.8-5.7-7.4-5.5
							C113.7,367.5,119.3,362,119.3,362z"/>
						<path id="path-0-9" class="st17" d="M111.6,367.8c1.1,1.2-1.6,9.2-3.8,9c-3.1-0.3-5.8-9.5-4.6-8.5
							C104.5,369.3,111.6,367.8,111.6,367.8z"/>
					</g>
				</g>
			</g>
			<g id="jiao01_1_">
				<g id="layer-2_1_">
					<path class="st9" d="M131.1,413.8c-0.3,0-0.6-0.1-0.7-0.3c-1.3-1.1-4.8-7.1-4.8-10.6l0-1.1l1,0.4c3.7,1.3,8.2,2.5,9,2.1
						c0.5-0.3,1-0.1,1.2,0.2c0.9,1.2-3.1,7.5-4.4,8.7C131.8,413.6,131.4,413.8,131.1,413.8z M127.2,404c0.6,2.8,2.9,6.9,4,8.1
						c1-0.7,3.3-4.5,4-6.3C133.1,405.9,129.5,404.8,127.2,404z M136.2,405.6C136.2,405.6,136.2,405.6,136.2,405.6
						C136.2,405.6,136.2,405.6,136.2,405.6z"/>
					<path class="st9" d="M152.6,408.2c-0.1,0-0.3,0-0.4,0c-1.5-0.3-4.1-1.8-4.8-2.2c-3.4-2-3.4-2.6-3.3-3c0-0.4,0.3-0.8,0.9-0.8
						c0.8-0.1,3.6-3.3,5.7-6.1l0.7-0.9l0.6,1c1.7,2.8,2.4,9.5,2,11.3C153.8,407.6,153.5,408.2,152.6,408.2z M146,403.3
						c1.5,1.1,5.2,3.2,6.4,3.4c0.2-1.6-0.2-6-1.3-8.7C149.7,399.7,147.6,402.3,146,403.3z M145,403.7C145,403.7,145,403.7,145,403.7
						C145,403.7,145,403.7,145,403.7z"/>
					<path class="st9" d="M142.4,413.4c-3,0-6-5.6-6.5-7c-0.3-0.8-0.6-1.6,0-2c0.2-0.2,0.6-0.3,1.1,0c0.6,0.3,4.2-0.5,7.6-1.9
						l0.4-0.2l0.3,0.3c1.3,1.1,0.7,5.4,0,7.5c-0.7,2.2-1.6,3.3-2.7,3.4C142.5,413.4,142.4,413.4,142.4,413.4z M137.3,405.9
						c0.6,1.3,2,3.8,3.5,5.2c0.6,0.6,1.2,0.9,1.6,0.8c0.1,0,0.5-0.3,1-1.3c1-2.2,1.2-5.3,1-6.5c-1.9,0.7-5,1.8-7,1.8
						C137.3,405.9,137.3,405.9,137.3,405.9z"/>
					<g id="path-14">
						<path class="st9" d="M113.3,97.6c4.8-1.6,10-2.4,14.9-3.7c2.6-0.7,8.5-1.6,9.5-4.8c0.6-1.9-1.9-3.7-3.1-4.8
							c-3.2-3-6.6-5.9-10.1-8.7c-3.6-2.9-7.4-5.7-11.3-8.2c-1.9-1.2-5.4-3.7-7.9-2.7c-2.2,0.9-2.6,3.8-2.8,5.8
							c-0.4,3.7,0.2,7.6,0.9,11.2C104.1,85.5,106.8,99.5,113.3,97.6c1.4-0.4,0.8-2.6-0.6-2.2c-1.8,0.5-3.2-2.4-3.8-3.7
							c-1.3-2.8-2.3-5.7-2.9-8.8c-0.8-3.3-1.2-6.7-1.3-10c0-1.4-0.3-5.1,1.2-6c1.5-0.9,4.9,1.7,6.1,2.4c3.3,2.1,6.5,4.3,9.5,6.8
							c3.1,2.4,6.1,5,9.1,7.7c1,0.9,2,1.8,3,2.8c0.5,0.5,1.7,1.3,1.9,2c0.1,0.2,0.2-0.2-0.3,0.2c-0.6,0.5-1.2,0.8-1.9,1.1
							c-2.1,0.9-4.2,1.5-6.4,2c-4.7,1.2-9.7,2-14.3,3.6C111.3,95.8,111.9,98,113.3,97.6z"/>
					</g>
					<g id="path-13">
						<path class="st9" d="M90.8,143.1c-0.4-5.2,0-10.4-0.1-15.6c-0.1-2.6,0.4-8.5-2.5-10.2c-1.8-1-4.3,1.2-5.6,2.1
							c-3.7,2.4-7.3,5-10.8,7.7c-3.8,2.8-7.4,5.8-10.8,9.1c-1.6,1.6-4.7,4.3-4.2,6.9c0.5,2.3,3.3,3.4,5.2,4c3.5,1.2,7.3,1.6,11,1.8
							C77,149.1,91.1,149.7,90.8,143.1c-0.1-1.5-2.3-1.5-2.3-0.1c0.1,1.8-2.9,2.5-4.3,2.8c-3.1,0.7-6.3,0.9-9.5,0.8
							c-3.3-0.1-6.5-0.4-9.7-1.1c-1.5-0.4-5.1-1-5.8-2.6c-0.7-1.6,2.4-4.1,3.4-5.1c2.7-2.7,5.6-5.2,8.7-7.6c3.2-2.5,6.4-4.8,9.7-7.1
							c1.3-0.9,2.5-1.7,3.8-2.5c0.7-0.4,1.7-1.3,2.4-1.4c0.3-0.1-0.2-0.3,0.1,0.3c0.3,0.7,0.6,1.4,0.7,2.1c0.4,2.2,0.5,4.5,0.4,6.7
							c0.1,4.9-0.4,9.8,0.1,14.7C88.6,144.6,90.9,144.6,90.8,143.1z"/>
					</g>
					<g id="path-12">
						<path class="st9" d="M78.6,174.2c0-5.2,0.9-10.4,1.2-15.6c0.2-2.6,1.1-8.3-1.6-10.2c-1.7-1.2-4.3,0.8-5.7,1.6
							c-4,2.1-7.8,4.4-11.6,6.9c-3.9,2.4-7.7,5.2-11.3,8.1c-1.7,1.5-5,3.9-4.8,6.5c0.2,2.4,2.9,3.7,4.8,4.5
							c3.5,1.5,7.2,2.2,10.9,2.7C64.4,179.2,78.3,181,78.6,174.2c0.1-1.4-2.2-1.4-2.3,0.1c-0.1,1.8-3.4,2.2-4.6,2.4
							c-3.1,0.4-6.2,0.4-9.4,0c-3.3-0.3-6.5-1-9.6-1.9c-1.4-0.4-5.1-1.4-5.5-3.2c-0.4-1.6,2.9-3.9,3.9-4.8c3.1-2.6,6.4-4.9,9.8-7.1
							c3.3-2.1,6.6-4.2,10-6.1c1.3-0.7,2.5-1.4,3.8-2.1c0.7-0.4,1.7-1.1,2.4-1.1c0.2,0-0.1-0.3,0.2,0.4c0.3,0.8,0.4,1.5,0.5,2.3
							c0.2,2.2,0.1,4.4-0.2,6.6c-0.4,4.9-1.2,9.8-1.2,14.7C76.3,175.7,78.6,175.7,78.6,174.2z"/>
					</g>
					<g id="path-11_1_">
						<path class="st9" d="M224.4,96.8c-4.1-1.4-8.3-2.1-12.4-3.1c-3.2-0.8-7.5-1.4-10.1-3.6c-0.5-0.4-0.4,0.1-0.3-0.2
							c0.1-0.2,0.5-0.6,0.7-0.8c0.9-0.9,1.7-1.7,2.6-2.6c2.6-2.4,5.3-4.7,8-7c3.3-2.7,6.6-5.2,10.1-7.6c1.3-0.9,2.6-1.7,4-2.4
							c0.9-0.5,2.5-1.6,3.5-1.5c3.5,0.4,1.5,11.4,1.2,13.4c-0.6,3.6-1.6,7.2-3,10.6C228.1,93.4,226.4,97.4,224.4,96.8
							c-1.4-0.4-2,1.8-0.6,2.2c5.7,1.7,8.4-9.3,9.3-12.9c1-3.8,1.5-7.7,1.6-11.6c0.1-2.4,0.1-5.8-1.8-7.7c-1.8-1.9-4.4-0.6-6.4,0.4
							c-4,2-7.6,4.8-11.1,7.5c-3.7,2.8-7.3,5.8-10.8,8.9c-1.5,1.4-4.4,3.3-5.2,5.3c-1.4,3.4,5.1,5,7.2,5.6
							c5.6,1.7,11.5,2.5,17.2,4.3C225.2,99.4,225.8,97.2,224.4,96.8z"/>
					</g>
					<g id="path-10">
						<path class="st9" d="M249.4,144.5c0.4-4.3,0.1-8.6,0.1-12.9c0-2.1,0-4.2,0.2-6.2c0.1-1.3,0.1-3.6,1.1-4.6
							c0.3-0.3-0.4-0.2-0.1-0.1c0.3,0.1,0.6,0.3,0.9,0.5c1.1,0.7,2.2,1.4,3.3,2.1c3,2,6,4.2,9,6.4c3.4,2.5,6.6,5.2,9.7,8
							c1.1,1.1,2.2,2.1,3.3,3.3c0.6,0.7,2,2,2,2.9c0.1,1.5-2.9,2.3-4,2.6c-3,0.9-6.2,1.4-9.3,1.5c-3.6,0.3-7.2,0.1-10.7-0.5
							C253.4,147.3,249.4,146.7,249.4,144.5c0.1-1.5-2.2-1.5-2.2,0c-0.3,5.9,11,5.9,14.6,5.9c3.9,0.1,7.8-0.4,11.6-1.2
							c2.3-0.5,5.5-1.3,7-3.4c1.6-2.1-0.1-4.3-1.5-6c-2.8-3.4-6.4-6.3-9.8-9c-3.7-2.9-7.5-5.8-11.4-8.4c-1.8-1.2-4.4-3.6-6.6-4
							c-3.6-0.5-3.7,6.2-3.8,8.3c-0.3,5.9,0.4,11.8-0.2,17.7C247.1,145.9,249.3,145.9,249.4,144.5z"/>
					</g>
					<g id="path-9_1_">
						<path class="st9" d="M260.6,175.6c0-4.3-0.6-8.5-1-12.8c-0.3-3.2-1.2-7.8,0.2-10.8c0.3-0.5-0.3-0.3,0.1-0.2
							c0.3,0.1,0.6,0.2,0.8,0.4c1.1,0.5,2.2,1.1,3.3,1.7c3.3,1.8,6.5,3.7,9.7,5.7c3.3,2.1,6.6,4.3,9.8,6.7c1.4,1.1,2.8,2.2,4.1,3.5
							c0.7,0.7,2.2,1.8,2.3,2.7c0.3,1.5-2.5,2.5-3.5,2.9c-2.8,1.1-5.8,1.9-8.9,2.3c-3.6,0.6-7.3,0.8-10.9,0.5
							C265,178,260.7,177.7,260.6,175.6c-0.1-1.5-2.3-1.5-2.3,0c0.2,5.9,11.2,5.1,14.9,4.8c4-0.3,7.8-1,11.6-2.1
							c2.3-0.7,5.5-1.8,6.8-4c1.3-2.2-0.6-4.3-2.1-5.8c-3-3.1-6.8-5.6-10.4-8.1c-3.9-2.6-7.9-5.1-12.1-7.5c-1.9-1.1-4.7-3.3-7-3.5
							c-3.6-0.2-3.2,6.5-3,8.5c0.2,5.9,1.3,11.7,1.3,17.6C258.3,177,260.6,177,260.6,175.6z"/>
					</g>
					<path class="st9" d="M210.1,416.1c-0.4,0-0.9-0.2-1.4-1c-0.9-1.4-3.4-8.4-2.2-9.4c0.3-0.2,0.8-0.3,1.2,0.1
						c0.7,0.6,5.3,0.5,9.2,0.1l1.1-0.1l-0.3,1.1c-0.8,3.3-5.6,8.4-7.2,9.1C210.4,416.1,210.3,416.1,210.1,416.1z M207.7,407.5
						c0.3,2,1.6,6.2,2.4,7.1c1.3-0.9,4.5-4.3,5.7-6.9C213.4,407.8,209.7,408,207.7,407.5z"/>
					<path class="st9" d="M189.6,406C189.6,406,189.6,406,189.6,406c-1.3,0-1.4-0.8-1.5-1c-0.2-1.9,1.5-8.3,3.7-10.8l0.7-0.8l0.5,1
						c1.8,3.5,4,6.7,4.7,6.9c0.6,0.1,0.8,0.6,0.8,0.9C198.4,403.7,191.2,406,189.6,406z M189.7,404.5
						C189.7,404.5,189.7,404.5,189.7,404.5c1.3,0,5.2-1.4,6.8-2.3c-1.4-1.2-3.1-4.1-4.1-6.1C190.9,398.5,189.7,402.9,189.7,404.5z"
						/>
					<path class="st9" d="M199.5,413.5c-0.2,0-0.4,0-0.6-0.1c-1.1-0.3-1.8-1.5-2.1-3.7c-0.3-2.2-0.3-6.6,1.2-7.4l0.4-0.2l0.4,0.2
						c3.2,1.9,6.4,3.3,7.1,3.1c0.5-0.2,0.9,0,1.1,0.2c0.4,0.5,0.1,1.2-0.4,2.1C205.7,409,202.3,413.5,199.5,413.5z M198.6,403.9
						c-0.4,1.1-0.7,4.2-0.1,6.5c0.3,1.1,0.6,1.5,0.8,1.5c0.4,0.1,1.1-0.1,1.8-0.6c1.8-1.1,3.5-3.3,4.3-4.5
						C203.4,406.6,200.4,405,198.6,403.9z M206.4,406.8C206.4,406.8,206.4,406.8,206.4,406.8C206.4,406.8,206.4,406.8,206.4,406.8z"
						/>
					<path class="st9" d="M223.6,376.8c-0.5,0-0.7-0.3-0.9-0.4c-1.1-1.4-3.6-7.8-3.1-11.2l0.2-1.1l0.9,0.5c3.5,1.9,7.7,3.8,8.6,3.5
						c0.5-0.2,0.9,0.1,1.1,0.4c0.7,1.4-4.2,6.9-5.8,7.8C224.3,376.7,223.9,376.8,223.6,376.8z M221.1,366.5c0.1,2.9,1.8,7.3,2.6,8.7
						c1.1-0.5,3.9-3.9,4.9-5.6C226.7,369.3,223.3,367.7,221.1,366.5z M229.8,369.6C229.8,369.6,229.8,369.6,229.8,369.6
						C229.8,369.6,229.8,369.6,229.8,369.6z"/>
					<path class="st9" d="M245.5,374.1c-0.2,0-0.4,0-0.7-0.1c-1.5-0.5-7.6-5-7.3-6.5c0.1-0.4,0.4-0.7,1-0.7c0.7,0.1,3.8-2.3,6.6-5.1
						l0.8-0.8l0.4,1c1.3,3.2,0.7,9.9,0.1,11.4C246.5,373.6,246.2,374.1,245.5,374.1z M239.5,368.2c1.3,1.4,4.6,3.9,5.8,4.4
						c0.4-1.6,0.7-6,0.1-8.8C243.7,365.3,241.2,367.5,239.5,368.2z M238.4,368.4C238.4,368.4,238.4,368.4,238.4,368.4
						C238.4,368.4,238.4,368.4,238.4,368.4z"/>
					<path class="st9" d="M234.8,377.6c-0.1,0-0.1,0-0.2,0c-3.1-0.3-5.1-6.3-5.4-7.9c-0.2-1-0.3-1.8,0.3-2.1
						c0.3-0.2,0.7-0.2,1.1,0.1c0.6,0.4,4.1,0.1,7.7-0.7l0.4-0.1l0.3,0.3c1.2,1.3-0.3,5.5-1.3,7.5
						C236.8,376.7,235.8,377.6,234.8,377.6z M230.7,369.3c0.3,1.4,1.3,4,2.6,5.7c0.5,0.7,1.1,1.1,1.5,1.1c0.1,0,0.5-0.2,1.2-1.1
						c1.3-2,2.1-5.1,2-6.3C235.9,369.1,232.6,369.6,230.7,369.3z M229.6,368.9C229.6,368.9,229.6,368.9,229.6,368.9
						C229.6,368.9,229.6,368.9,229.6,368.9z"/>
					<path class="st9" d="M96.9,375.8c-0.4,0-0.7-0.2-0.8-0.4c-1.2-1.4-3.6-7.8-3.1-11.2l0.2-1.1l0.9,0.5c3.5,1.9,7.7,3.8,8.6,3.5
						c0.5-0.2,0.9,0.1,1.1,0.4c0.7,1.4-4.3,6.9-5.7,7.8C97.5,375.7,97.2,375.8,96.9,375.8z M94.4,365.5c0.1,2.9,1.8,7.3,2.6,8.7
						c1.1-0.5,3.9-3.9,4.9-5.6C100,368.3,96.6,366.7,94.4,365.5z M103.1,368.6C103.1,368.6,103.1,368.6,103.1,368.6
						C103.1,368.6,103.1,368.6,103.1,368.6z"/>
					<path class="st9" d="M119.1,373.8c-0.2,0-0.4,0-0.7-0.1c-1.5-0.5-7.6-5-7.3-6.5c0.1-0.4,0.4-0.7,1-0.6c0,0,0,0,0,0
						c0.8,0,3.8-2.3,6.6-5.1l0.8-0.8l0.4,1c1.3,3.2,0.7,9.9,0.1,11.4C120,373.3,119.8,373.8,119.1,373.8z M113.1,367.9
						c1.3,1.4,4.6,4,5.7,4.4c0.4-1.6,0.7-6,0.1-8.8C117.3,365,114.8,367.1,113.1,367.9z M112,368.1C112,368.1,112,368.1,112,368.1
						C112,368.1,112,368.1,112,368.1z"/>
					<path class="st9" d="M108,377.6c-0.1,0-0.1,0-0.2,0c-3.1-0.3-5.1-6.3-5.4-7.9c-0.2-1-0.3-1.8,0.3-2.1c0.3-0.2,0.7-0.2,1.1,0.1
						c0.6,0.4,4.1,0.1,7.7-0.7l0.4-0.1l0.3,0.3c1.2,1.3-0.3,5.5-1.3,7.5C110,376.7,109,377.6,108,377.6z M103.8,369.3
						c0.3,1.4,1.3,4,2.6,5.7c0.5,0.7,1.1,1.1,1.5,1.1c0.1,0,0.5-0.2,1.2-1.1c1.3-2,2.1-5.1,2-6.3
						C109.1,369.1,105.7,369.6,103.8,369.3z M102.8,368.9C102.8,368.9,102.8,368.9,102.8,368.9C102.8,368.9,102.8,368.9,102.8,368.9
						z"/>
				</g>
			</g>
		</g>
		<g id="head_1_">
			<g id="headFur_1_">
				<g id="head-mainColor_1_">
					<g id="head-mainColor02-8">
						<path id="_head02_-clip-4" class="st18" d="M109.5,95c-15.9-5.8-48.8-8.7-50.3-5.1c-1.5,3.6,8.7,25.7,19.6,32.5
							c-0.9,1.4-12.6,28.9-16.8,59.2s-0.8,63.5,6.8,71.7c16.4,17.9,56.1,30.3,62.8,31.8c7.1,1.6,12.5,1.5,15.6,1.9s20,17.3,47.3,1.6
							c0,0,39.2-7.6,55.7-19c16.4-11.3,20.7-16,26-27.3c2.8-6,3.4-38.9-1.6-68.5c-4.5-26.7-14.5-50.6-14.5-50.6
							c4.9-4.4,9.3-9.2,13.4-14.5c7.1-9.1,8.1-17.3,6.2-18.7s-12.3-2.1-24.5-0.6c-11.7,1.4-23.4,6.4-24.4,6.5
							c-1,0.1-27.2-7.9-57.3-9.1C143.5,85.6,109,93.9,109.5,95z"/>
						<g>
							<g>
								<defs>
									<path id="SVGID_17_" d="M109.5,95c-15.9-5.8-48.8-8.7-50.3-5.1c-1.5,3.6,8.7,25.7,19.6,32.5c-0.9,1.4-12.6,28.9-16.8,59.2
										s-0.8,63.5,6.8,71.7c16.4,17.9,56.1,30.3,62.8,31.8c7.1,1.6,12.5,1.5,15.6,1.9s20,17.3,47.3,1.6c0,0,39.2-7.6,55.7-19
										c16.4-11.3,20.7-16,26-27.3c2.8-6,3.4-38.9-1.6-68.5c-4.5-26.7-14.5-50.6-14.5-50.6c4.9-4.4,9.3-9.2,13.4-14.5
										c7.1-9.1,8.1-17.3,6.2-18.7s-12.3-2.1-24.5-0.6c-11.7,1.4-23.4,6.4-24.4,6.5c-1,0.1-27.2-7.9-57.3-9.1
										C143.5,85.6,109,93.9,109.5,95z"/>
								</defs>
								<clipPath id="SVGID_18_">
									<use xlink:href="#SVGID_17_"  style="overflow:visible;"/>
								</clipPath>
								<g class="st19">
									<rect id="rectangles-4" x="54.6" y="53.9" class="st18" width="228.8" height="243.9"/>
								</g>
							</g>
						</g>
					</g>
					<g id="head-mainColor02-8-2">
						<path id="_head02_-clip-5" class="st18" d="M109.5,95c-15.9-5.8-48.8-8.7-50.3-5.1c-1.5,3.6,8.7,25.7,19.6,32.5
							c-0.9,1.4-12.6,28.9-16.8,59.2s-0.8,63.5,6.8,71.7c16.4,17.9,56.1,30.3,62.8,31.8c7.1,1.6,12.5,1.5,15.6,1.9s20,17.3,47.3,1.6
							c0,0,39.2-7.6,55.7-19c16.4-11.3,20.7-16,26-27.3c2.8-6,3.4-38.9-1.6-68.5c-4.5-26.7-14.5-50.6-14.5-50.6
							c4.9-4.4,9.3-9.2,13.4-14.5c7.1-9.1,8.1-17.3,6.2-18.7s-12.3-2.1-24.5-0.6c-11.7,1.4-23.4,6.4-24.4,6.5
							c-1,0.1-27.2-7.9-57.3-9.1C143.5,85.6,109,93.9,109.5,95z"/>
						<g>
							<g>
								<defs>
									<path id="SVGID_19_" d="M109.5,95c-15.9-5.8-48.8-8.7-50.3-5.1c-1.5,3.6,8.7,25.7,19.6,32.5c-0.9,1.4-12.6,28.9-16.8,59.2
										s-0.8,63.5,6.8,71.7c16.4,17.9,56.1,30.3,62.8,31.8c7.1,1.6,12.5,1.5,15.6,1.9s20,17.3,47.3,1.6c0,0,39.2-7.6,55.7-19
										c16.4-11.3,20.7-16,26-27.3c2.8-6,3.4-38.9-1.6-68.5c-4.5-26.7-14.5-50.6-14.5-50.6c4.9-4.4,9.3-9.2,13.4-14.5
										c7.1-9.1,8.1-17.3,6.2-18.7s-12.3-2.1-24.5-0.6c-11.7,1.4-23.4,6.4-24.4,6.5c-1,0.1-27.2-7.9-57.3-9.1
										C143.5,85.6,109,93.9,109.5,95z"/>
								</defs>
								<clipPath id="SVGID_20_">
									<use xlink:href="#SVGID_19_"  style="overflow:visible;"/>
								</clipPath>
								<g class="st20">
									<g id="rectangles-5">
										<rect x="54.6" y="53.9" class="st3" width="228.8" height="243.9"/>
									</g>
								</g>
							</g>
						</g>
					</g>
				</g>
			</g>
			<g id="headShadow_1_">
				<g id="headShadow02">
					<g id="headShadow-2_1_">
						<g>
							<g>
								<defs>
									<path id="SVGID_21_" d="M109.5,95c-15.9-5.8-48.8-8.7-50.3-5.1c-1.5,3.6,8.7,25.7,19.6,32.5c-0.9,1.4-12.6,28.9-16.8,59.2
										s-0.8,63.5,6.8,71.7c16.4,17.9,56.1,30.3,62.8,31.8c7.1,1.6,12.5,1.5,15.6,1.9s20,17.3,47.3,1.6c0,0,39.2-7.6,55.7-19
										c16.4-11.3,20.7-16,26-27.3c2.8-6,3.4-38.9-1.6-68.5c-4.5-26.7-14.5-50.6-14.5-50.6c4.9-4.4,9.3-9.2,13.4-14.5
										c7.1-9.1,8.1-17.3,6.2-18.7s-12.3-2.1-24.5-0.6c-11.7,1.4-23.4,6.4-24.4,6.5c-1,0.1-27.2-7.9-57.3-9.1
										C143.5,85.6,109,93.9,109.5,95z"/>
								</defs>
								<clipPath id="SVGID_22_">
									<use xlink:href="#SVGID_21_"  style="overflow:visible;"/>
								</clipPath>
								<g class="st21">
									<path id="path-0-11" class="st6" d="M92.5,84C59.6,86.9,48.1,83,69,99.2c6.8,5.3,11.7,11.9,15.1,20.7
										c1.8,4.6-2.1,4.6-1.2,14.9s-0.2,13.8-3.2,19.2c-6.4,11.5-8.8,24-7.5,30.8c7.1,35.2-14.5,34.7,4,61.8
										c23.7,34.7,80.7,46.4,80.7,46.4L97.7,279l-25.6-9.8l-23.2-40.3L41.5,187l5.6-57.3c0,0,3.2-44,13.9-45.7S92.5,84,92.5,84z"
										/>
									<path id="path-0-12_1_" class="st8" d="M291.1,82.5c-1.6-7.2-11.8,3.2-21.1,15.2c-7.5,9.7-14.3,20.4-15.9,24.3
										c-1.8,4.6,26.3,99.5,7.8,126.7c-23.7,34.7-80.7,46.4-80.7,46.4l59.2-14.1l25.6-9.8l23.2-40.3l7.5-41.8l-5.6-57.3
										C291.1,131.9,292.5,88.8,291.1,82.5z"/>
								</g>
							</g>
						</g>
					</g>
				</g>
			</g>
			<g id="head02">
				<g id="layer-3_1_">
					<path class="st9" d="M192.7,229.8c-9.1-6.4-19.5-6.8-26.6-6c-8.2,0.9-14.2,3.6-14.7,4.2l-1.1-1.1c1.1-1.1,7.6-3.8,15.7-4.7
						c7.4-0.8,18.2-0.4,27.7,6.3L192.7,229.8z"/>
					<g id="path-2-10">
						<path class="st9" d="M109.8,93.9c-7-2.5-14.4-4-21.7-5c-6.9-1-13.9-1.8-20.9-1.7c-2.4,0.1-8.3-0.4-9.1,2.8
							c-0.5,1.8,0.4,4.1,1,5.8c1.1,3,2.3,5.8,3.8,8.6c3.7,7.1,8.6,14.5,15.4,19l-0.4-1.6c-2.4,4-3.8,9-5.3,13.4
							c-3.6,10.1-6.6,20.4-8.8,30.9c-4.8,22.3-6.4,45.9-2.6,68.5c1.1,6.5,2.4,14.2,6.8,19.4c5.2,6.1,12.7,10.8,19.6,14.7
							c13,7.3,26.9,13,41.3,17c3,0.8,6.1,1.4,9.2,1.8c2.3,0.3,4.6,0.4,6.9,0.6c1,0,1.9,0.2,2.8,0.5c1.7,0.7,3.4,2,5,2.9
							c2.6,1.4,5.3,2.6,8.2,3.5c8.2,2.5,16.9,2,25-0.8c2.6-0.9,5.2-2,7.6-3.4c0.7-0.4,1.4-0.8,2.1-1c1.8-0.5,3.6-0.8,5.4-1.2
							c15-3.4,30.6-7.4,44.4-14.5c4.1-2.1,7.8-4.8,11.5-7.5c3.7-2.6,7.1-5.4,10.4-8.5c4.5-4.4,8.9-10.5,10.6-16.6
							c1.9-6.6,1.7-14.1,1.7-20.9c0.1-11.3-0.6-22.6-1.9-33.8c-2.4-20.5-7.5-40.6-14.9-59.9c-0.5-1.2-1-2.5-1.5-3.7l-0.3,1.1
							c4.9-4.3,9.3-9.3,13.4-14.5c2.7-3.5,5-7.3,6.4-11.6c0.7-2.2,1.5-5.2,0.7-7.5c-0.7-1.8-2.6-2.2-4.4-2.5
							c-3.8-0.7-7.7-0.6-11.5-0.5c-10,0.4-19.9,2.2-29.4,5.5c-1.3,0.5-2.6,0.9-4,1.4c-0.4,0.2-0.8,0.3-1.2,0.4
							c-0.6,0.2,0,0.1-0.1,0.1c-1.5-0.1-3.1-0.7-4.5-1.1c-6.9-1.7-13.7-3.2-20.7-4.4c-20.1-3.6-40.2-4.7-60.5-2.5
							c-9.1,0.9-18.1,2.4-27,4.3c-2.5,0.5-4.9,1.1-7.4,1.9c-1.1,0.4-2.6,0.8-2.4,2.2c0.2,1.4,2.4,0.8,2.2-0.6
							c0.3,1.7-0.8,0.9,0.4,0.8c0.7-0.2,1.4-0.4,2.1-0.7c2.3-0.7,4.7-1.2,7-1.7c7.5-1.6,15-2.8,22.6-3.7c19-2.2,38.3-1.7,57.2,1.3
							c7.4,1.2,14.6,2.6,21.8,4.3c2.1,0.5,4.3,1,6.4,1.6c0.9,0.2,1.8,0.6,2.7,0.6c1.9-0.1,4.1-1.3,5.8-1.9c4.1-1.4,8.2-2.6,12.4-3.6
							c8.5-1.8,18.3-2.8,27-1.5c0.8,0.1,2.4,0.2,2.9,0.8c0.7,0.8,0.3,2.5,0.2,3.4c-0.7,4.5-3,8.7-5.6,12.3
							c-4.2,5.8-8.9,11.1-14.3,15.8c-0.3,0.3-0.4,0.7-0.3,1.1c5.8,14.1,10.2,28.7,13.2,43.6c4.3,20.9,6.1,43,4.6,64.3
							c-0.1,2.9-0.5,5.8-1.1,8.6c-0.7,2.9-2.3,5.6-3.9,8.1c-4.3,7.2-10.9,12.3-17.6,17.2c-6.9,4.9-14.3,8.9-22.3,11.7
							c-7.4,2.7-14.9,5-22.6,6.9c-4.8,1.2-9.6,2.2-14.4,3.3c-2.9,0.7-5.5,2.7-8.2,3.8c-4.7,1.9-9.8,2.9-14.8,3c-6.7,0-13-2-18.8-5.3
							c-1.5-0.9-3-1.9-4.6-2.6c-2.4-1.1-5.7-0.8-8.3-1c-13.3-1.3-26.4-6.7-38.4-12c-7.9-3.6-15.6-7.6-22.8-12.6
							c-3.3-2.2-6.2-4.8-9-7.7c-2-2.2-3.3-5-4.2-7.8c-2.9-8.6-3.8-18-4.3-27.1c-0.6-11.6-0.2-23.2,1.3-34.7
							c2.6-19.5,7.7-38.5,15.1-56.7c0.5-1.3,1-2.6,1.7-3.8c0.3-0.6,0.1-1.2-0.4-1.6c-5.6-3.7-9.8-9.6-13.1-15.3
							c-1.6-2.7-3-5.6-4.3-8.6c-0.8-1.8-1.9-4.3-1.8-6.3c0.1-2.3,6.4-1.7,8.2-1.7c6.5,0.1,13,0.7,19.4,1.7c7.2,1.1,14.5,2.5,21.4,5
							C110.5,96.6,111.1,94.4,109.8,93.9z"/>
					</g>
					<path d="M184.8,263.3l-1.4-0.7c2.3-4.6,5.1-7.2,8.3-7.9c3.5-0.7,6.4,1.3,7.4,2.1l-1,1.2c-0.9-0.7-3.3-2.4-6.2-1.8
						C189.4,256.8,186.9,259.2,184.8,263.3z"/>
					<path d="M154.3,262.3c-2.1-4.1-4.5-6.5-7.3-7.1c-2.9-0.6-5.3,1.1-6.2,1.8l-1-1.2c1.1-0.9,3.9-2.9,7.4-2.1
						c3.2,0.7,6,3.3,8.3,7.9L154.3,262.3z"/>
				</g>
			</g>
		</g>
		<g id="eye_1_">
			<g id="eye05">
				<g id="eye-2">
					<path id="path-11-2" class="st9" d="M101.8,156.2c-3.4-5-25.7-3.6-26.2-2.6c-0.6,1,2.3,5.7,6.3,10.4c4.1,4.8-3.9,0.6-9.2-0.6
						c-4.6-1.1,15,41.8,23.3,24.7C97.7,184.7,106.7,163.4,101.8,156.2z"/>
					<path id="path-10-2" class="st22" d="M97.2,153.8c7.3,0.4,23.5,1.8,40.3,11.8c13.5,8,18.3,45.3,11.2,50.6
						c-7.2,5.3-44.9,2.8-51.8-4.2C82.9,197.9,89.9,153.4,97.2,153.8z"/>
					<circle id="eyeColor05-left" class="st23" cx="127" cy="197.2" r="21.5"/>
					<circle id="path-8-2_1_" class="st9" cx="128.6" cy="198.7" r="16.5"/>
					<ellipse id="path-7-2_1_" class="st24" cx="134.6" cy="187.2" rx="9.1" ry="9.1"/>
					<path class="st9" d="M131.3,219.8c-3,0-5.9-0.1-8.7-0.3c-10.2-0.8-22.4-3-26.3-6.9c-11.3-11.5-9.3-42.9-3.9-54.8
						c1.5-3.2,3.1-4.8,4.8-4.8h0c5.6,0.3,22.7,1.3,40.6,11.9c8.7,5.2,14.1,22,14.8,35.8c0.4,8.2-0.9,14-3.5,16
						C146.1,219.1,138.8,219.8,131.3,219.8z M97.1,154.5c-1,0-2.2,1.4-3.3,3.9c-5.2,11.6-7.3,42.1,3.6,53.1c3,3,12.9,5.6,25.3,6.5
						c12.1,0.9,22.4-0.1,25.5-2.4c2.2-1.6,3.3-7.3,2.9-14.7c-0.7-13.1-5.8-29.7-14-34.6C119.5,155.8,102.7,154.8,97.1,154.5
						C97.2,154.5,97.1,154.5,97.1,154.5z"/>
					<path id="path-5-2" class="st9" d="M238.6,157.6c3.4-5,25.7-3.6,26.2-2.6c0.6,1-2.3,5.7-6.3,10.4c-4.1,4.8,3.9,0.6,9.2-0.6
						c4.6-1.1-15,41.8-23.3,24.7C242.7,186,233.7,164.7,238.6,157.6z"/>
					<path id="path-4-3" class="st22" d="M243.2,155.1c-7.3,0.4-23.5,1.8-40.3,11.8c-13.6,8-18.3,45.3-11.2,50.6
						c7.2,5.3,44.9,2.8,51.8-4.2C257.5,199.2,250.5,154.7,243.2,155.1z"/>
					<circle id="eyeColor05-right" class="st23" cx="213.4" cy="198.6" r="21.5"/>
					<circle id="path-2-11" class="st9" cx="211.8" cy="200.1" r="16.5"/>
					<circle id="path-1-13_1_" class="st24" cx="220" cy="188.6" r="9.1"/>
					<path class="st9" d="M209.1,221.2c-7.5,0-14.8-0.8-17.8-3c-2.7-2-4-7.9-3.5-16.1c0.7-13.8,6-30.6,14.8-35.7
						c17.9-10.7,35-11.6,40.6-11.9c1.7-0.1,3.4,1.5,4.8,4.8c5.4,11.9,7.5,43.3-3.9,54.8c-3.9,4-16.2,6.2-26.3,6.9
						C215.1,221.1,212.1,221.2,209.1,221.2z M243.3,155.9C243.3,155.9,243.3,155.9,243.3,155.9c-5.6,0.3-22.4,1.2-40,11.7
						c-8.2,4.8-13.3,21.4-14,34.5c-0.4,7.5,0.7,13.2,2.9,14.8c3.1,2.3,13.4,3.3,25.5,2.4c12.4-0.9,22.4-3.5,25.3-6.5
						c10.9-11.1,8.8-41.5,3.6-53.1C245.5,157.3,244.3,155.9,243.3,155.9z"/>
				</g>
			</g>
		</g>
		<g id="mouth_1_">
			<g id="mouth01_1_">
				<path class="st9" d="M204.7,287.7c-5.7,0-12.5-2.4-18.7-4.5c-4.8-1.7-9.3-3.3-12.6-3.5c-6-0.4-18.5,2.8-27.7,5.1
					c-4.3,1.1-8,2.1-10.3,2.5l-0.2,0l-0.2,0c-0.7-0.2-18.4-4.8-23.4-14.4c-1.5-3-1.7-6.1-0.5-9.3l1.4,0.5c-1,2.8-0.9,5.5,0.5,8
					c4.4,8.5,20.5,13.1,22.2,13.6c2.2-0.4,5.9-1.3,10-2.4c9.8-2.5,21.9-5.7,28.2-5.2c3.5,0.3,8.1,1.9,13,3.6c7.5,2.6,16,5.6,21.8,4
					c8.8-2.4,16.6-5.5,21.5-19.4l1.4,0.5c-5.2,14.7-13.3,17.9-22.5,20.4C207.5,287.5,206.1,287.7,204.7,287.7z"/>
				<g>
					<path id="layer-3-2_2_" class="st22" d="M122.2,283c0.2,4.1,5.2,12.6,6.8,13.9s10.2-11.5,6.3-10.5
						C133.1,287,122.2,283,122.2,283z"/>
					<path class="st9" d="M129.2,297.8c-0.3,0-0.5-0.1-0.8-0.3c-1.7-1.4-6.9-10.1-7-14.5l0-1.1l1.1,0.4c4.4,1.6,11.3,3.8,12.6,3.4
						c1.2-0.3,1.6,0.3,1.8,0.6c1.1,2.1-4,9.1-6.1,10.8C130.2,297.6,129.7,297.8,129.2,297.8z M123.1,284.2c0.8,4,4.7,10.7,6.2,12.1
						c0.6-0.3,2.3-1.9,4.1-4.7c1.5-2.3,2-3.8,2.1-4.3c0,0,0,0,0,0C133.5,287.7,126.3,285.3,123.1,284.2z"/>
				</g>
				<g>
					<path id="layer-2-2_2_" class="st22" d="M217.7,283.8c-0.2,4.1-5.2,12.6-6.8,13.9c-1.6,1.3-10.2-11.5-6.3-10.5
						C206.8,287.8,217.7,283.8,217.7,283.8z"/>
					<path class="st9" d="M210.7,298.6c-0.4,0-1-0.2-1.5-0.7c-2.1-1.7-7.1-8.7-6.1-10.8c0.1-0.3,0.6-0.9,1.8-0.6
						c1.3,0.3,8.1-1.8,12.6-3.4l1.1-0.4l0,1.1c-0.2,4.4-5.3,13-7,14.5C211.2,298.5,210.9,298.6,210.7,298.6z M204.4,288
						c0.1,0.5,0.6,2,2.1,4.3c1.8,2.8,3.5,4.5,4.1,4.7c1.5-1.4,5.4-8.1,6.2-12.1C213.6,286.1,206.4,288.5,204.4,288
						C204.4,288,204.4,288,204.4,288z"/>
				</g>
				<g id="layer-1_1_">
					<g id="path-0-15_1_">
						<path class="st9" d="M23.3,215.5c-2,16.2,1.8,36.7,19.4,42.8c8.9,3,18.8,1.4,27.8,0c10.1-1.6,20-4.1,29.7-7.3
							c5.2-1.7,10.3-3.8,15.4-5.8c2.4-1,9.4-4,11.1-0.7c0.2,0.3,0.5,0.3,0.8,0.2c0.2-0.1,0.3-0.4,0.3-0.6
							c-1.6-4.8-10.1-1.4-13.1-0.1c-9.5,4-19.3,7.2-29.3,9.7c-9.8,2.4-20,4.4-30.1,4.7c-9.9,0.3-18.9-3.2-24.7-11.3
							c-6.6-9.1-7.4-20.7-6.2-31.5C24.5,214.8,23.4,214.8,23.3,215.5L23.3,215.5z"/>
					</g>
				</g>
				<g id="layer-4-2_1_">
					<g id="path-0-16_1_">
						<path class="st9" d="M315,215.5c1.1,9.8,0.6,20.2-4.6,29c-4.9,8.4-13.1,13.3-22.8,13.8c-10,0.5-20.4-1.6-30-3.8
							c-9.8-2.2-19.4-5.1-28.8-8.8c-3.3-1.3-15.2-7.6-17.3-1.6c-0.1,0.3,0.1,0.6,0.4,0.7c0.2,0.1,0.5-0.1,0.6-0.3
							c1.6-3,7.6-0.6,9.9,0.3c4.2,1.5,8.3,3.4,12.6,4.9c9.6,3.4,19.5,6,29.5,7.9c9.1,1.7,19,3.5,28.1,1.7c8-1.5,14.4-6.6,18.5-13.5
							c5.4-9.1,5.9-20.1,4.7-30.3c-0.1-0.6-1.1-0.7-1,0H315z"/>
					</g>
				</g>
			</g>
		</g>
		<g id="path-2_37_">
			<g>
				<path class="st25" d="M283.7,242.4c7.8,0,7.8-12.1,0-12.1C275.9,230.3,275.9,242.4,283.7,242.4L283.7,242.4z"/>
			</g>
		</g>
		<g id="path-1_56_">
			<g>
				<path class="st25" d="M260.2,242.9c7.8,0,7.8-12.1,0-12.1C252.4,230.8,252.4,242.9,260.2,242.9L260.2,242.9z"/>
			</g>
		</g>
		<g id="path-0_72_">
			<g>
				<path class="st25" d="M237.4,243.4c7.8,0,7.8-12.1,0-12.1S229.6,243.4,237.4,243.4L237.4,243.4z"/>
			</g>
		</g>
		<g id="path-2_38_">
			<g>
				<path class="st25" d="M60.8,241.4c7.8,0,7.8-12.1,0-12.1S53,241.4,60.8,241.4L60.8,241.4z"/>
			</g>
		</g>
		<g id="path-1_55_">
			<g>
				<path class="st25" d="M83.4,243.1c7.8,0,7.8-12.1,0-12.1S75.6,243.1,83.4,243.1L83.4,243.1z"/>
			</g>
		</g>
		<g id="path-0_73_">
			<g>
				<path class="st25" d="M111.2,243.9c7.8,0,7.8-12.1,0-12.1S103.4,243.9,111.2,243.9L111.2,243.9z"/>
			</g>
		</g>
	</g>
</g>
</svg>
