<?xml version="1.0" encoding="utf-8"?>
<!-- Generator: Adobe Illustrator 22.0.1, SVG Export Plug-In . SVG Version: 6.00 Build 0)  -->
<svg version="1.1" id="图层_1" xmlns="http://www.w3.org/2000/svg" xmlns:xlink="http://www.w3.org/1999/xlink" x="0px" y="0px"
	 viewBox="0 0 128 128" style="enable-background:new 0 0 128 128;" xml:space="preserve">
<style type="text/css">
	.st0{fill:#D1EEEB;}
	.st1{fill:none;}
	.st2{clip-path:url(#SVGID_2_);}
	.st3{clip-path:url(#SVGID_4_);}
	.st4{fill:#FBBB5A;}
	.st5{clip-path:url(#SVGID_6_);}
	.st6{fill:#CC7E3C;}
	.st7{clip-path:url(#SVGID_8_);}
	.st8{opacity:0.2;enable-background:new    ;}
	.st9{fill:#000002;}
	.st10{opacity:0.2;fill:#FFFFFF;enable-background:new    ;}
	.st11{fill:#30323C;}
	.st12{clip-path:url(#SVGID_10_);}
	.st13{clip-path:url(#SVGID_12_);}
	.st14{clip-path:url(#SVGID_14_);}
	.st15{fill:#FF83E5;}
	.st16{clip-path:url(#SVGID_16_);}
	.st17{fill:#F5E4B9;}
	.st18{opacity:0.2;fill:url(#path-1-3_1_);enable-background:new    ;}
	.st19{clip-path:url(#SVGID_18_);}
	.st20{opacity:0.2;fill:url(#path-1-4_1_);enable-background:new    ;}
	.st21{fill:none;stroke:#30323C;stroke-width:0.5;}
	.st22{fill:#65708C;}
	.st23{clip-path:url(#SVGID_20_);}
	.st24{clip-path:url(#SVGID_22_);}
	.st25{clip-path:url(#SVGID_24_);}
	.st26{fill:#FFFFFF;}
	.st27{fill:#D3718F;}
	.st28{fill:#FF9797;}
	.st29{fill:#DD7C7C;}
</style>
<g id="图层_2_1_">
</g>
<g>
	<title>8</title>
	<circle class="st0" cx="64" cy="64" r="64"/>
	<path class="st1" d="M36.4,94.8c-5.4,7.7-6.7,16.3-7,25.6c-0.3,9.4,6.7,20.5,15.9,22.7c0.6,1.6,0.8,1.9,2.2,3
		c1.4,1.1,4.3,0.9,5.9,0c1.9-1.1,3.2-2.9,3.4-5.1c0.1-2.4-2.2-5.6-2.4-6.2c-0.1-0.2,3.7,1.8,6,2c9.3,0.8,12.6-1,13.9-2.2
		c-0.6,3-2.5,5.1-1.6,7.9c0.8,2.6,5,5.6,8.8,4.9s4.3-4.2,4.4-4.4c2.9-3.5,8.4-6.6,11.1-20.3c2.7-13.5-6.5-28.6-8.3-30.1
		c-1.8-1.5-21.1,2-29.1,1.1c-5.8-0.6-11.5-1-17.3-0.9C40.1,92.9,36.4,94.8,36.4,94.8z"/>
	<circle class="st1" cx="47.7" cy="94.3" r="64.8"/>
	<g>
		<defs>
			<circle id="SVGID_1_" cx="64" cy="64" r="64"/>
		</defs>
		<clipPath id="SVGID_2_">
			<use xlink:href="#SVGID_1_"  style="overflow:visible;"/>
		</clipPath>
		<g class="st2">
			<g>
				<g>
					<g id="tail-mainColor">
						<g id="tail-mainColor01">
							<g>
								<g>
									<g>
										<g>
											<defs>
												<path id="SVGID_3_" d="M102.9,152.9c0,0,5.8,39.5,36.6,35.7c29.5-3.7,29.9-3.6,5.3,3.6c0,0-42.4,18.9-55.3-17.8
													S102.9,152.9,102.9,152.9z"/>
											</defs>
											<clipPath id="SVGID_4_">
												<use xlink:href="#SVGID_3_"  style="overflow:visible;"/>
											</clipPath>
											<g class="st3">
												
													<rect id="rectangles" x="103.2" y="150.8" transform="matrix(0.368 -0.9298 0.9298 0.368 -95.6262 233.6306)" class="st4" width="41.7" height="72.8"/>
											</g>
										</g>
									</g>
								</g>
							</g>
						</g>
					</g>
					<g>
						<g id="tailFur">
							<g id="color1">
								<g id="layer01">
									<g>
										<g>
											<g>
												<g>
													<defs>
														<path id="SVGID_5_" d="M102.9,152.9c0,0,5.8,39.5,36.6,35.7c29.5-3.7,29.9-3.6,5.3,3.6c0,0-42.4,18.9-55.3-17.8
															S102.9,152.9,102.9,152.9z"/>
													</defs>
													<clipPath id="SVGID_6_">
														<use xlink:href="#SVGID_5_"  style="overflow:visible;"/>
													</clipPath>
													<g class="st5">
														<path class="st6" d="M105.3,194.4c-1.8,1.1-3.4,5.6-2.8,7s4.2,3.9,5.2,4.2c1.1,0.3,7.5-1,8.7-1.9
															c1.2-0.9,4.6-9.3,2.7-10.2C117.3,192.4,107.1,193.3,105.3,194.4z"/>
														<path class="st6" d="M127.6,185c-2.6,0.4-6.8,5-6.6,7c0.1,1.9,3.1,6.6,4.2,7.5c1.2,0.9,9.3,2.4,11.2,1.9
															c1.9-0.5,9.9-8.7,8.1-10.8C142.6,188.5,130.2,184.6,127.6,185z"/>
														<path class="st6" d="M102.3,164.7c-2.6,0.4-6.8,5-6.6,7c0.1,1.9,3.1,6.6,4.2,7.5c1.1,0.9,9.3,2.4,11.2,1.9
															c1.9-0.5,9.9-8.7,8.1-10.8C117.3,168.1,104.9,164.2,102.3,164.7z"/>
														<path class="st6" d="M115,186.6c-0.7,0.1-1.9,1.4-1.9,1.9c0,0.5,0.8,1.8,1.2,2c0.3,0.2,2.5,0.6,3.1,0.6
															c0.6-0.1,1.2-1.8,0.7-2.4C117.7,188.2,115.7,186.5,115,186.6z"/>
														<path class="st6" d="M146.5,185.3c-0.7,0.1-1.9,1.4-1.9,1.9c0,0.5,0.8,1.8,1.2,2c0.3,0.2,2.5,0.6,3.1,0.6
															c0.6-0.1,1.2-1.8,0.7-2.4C149.1,186.8,147.1,185.2,146.5,185.3z"/>
													</g>
												</g>
											</g>
										</g>
									</g>
								</g>
							</g>
							<g id="tailFur01-10">
								<g id="tailShadow01">
									<g>
										<g>
											<g>
												<g>
													<defs>
														<path id="SVGID_7_" d="M102.9,152.9c0,0,5.8,39.5,36.6,35.7c29.5-3.7,29.9-3.6,5.3,3.6c0,0-42.4,18.9-55.3-17.8
															S102.9,152.9,102.9,152.9z"/>
													</defs>
													<clipPath id="SVGID_8_">
														<use xlink:href="#SVGID_7_"  style="overflow:visible;"/>
													</clipPath>
													<g class="st7">
														<g class="st8">
															<path id="path-1_1_" d="M148.3,197.4c-28.2,6.5-43.8-10.2-47.1-14.7c-3.3-4.5-3.3-3.4-3.3-3.4l-7.1,4.7l4.4,8.6
																l25,11.9l16.9,0.5L148.3,197.4z"/>
															<path class="st9" d="M137.1,205L137.1,205l-16.9-0.5l0,0l-25-12l0,0l-4.5-8.6l0,0l7.1-4.6c0,0,0-0.1,0.1-0.1h0
																c0.4,0,1.5,1.2,3.3,3.6c1.7,2.2,17.1,21.6,47.1,14.7l0,0.1L137.1,205z M120.1,204.4l16.9,0.5l11-7.3
																c-29.9,6.7-45.2-12.6-46.9-14.8c-2.5-3.4-3.1-3.5-3.2-3.5c0,0,0,0,0,0v0h0l-7.1,4.6l4.4,8.5L120.1,204.4z"/>
														</g>
														<path id="path-0" class="st10" d="M156,184.7c0,0,15.8-1.2,7.1,1.2c-34.9,9.3-43.2,1-45.4-0.2
															c-4.4-2.5-11.1-12.7-11.1-12.7l-7.3-17.7l13.1,10.6l7.8,2.5l25.7,12.8l9.5,3.6L156,184.7z"/>
													</g>
												</g>
											</g>
										</g>
									</g>
								</g>
							</g>
						</g>
						<g id="tail">
							<path class="st11" d="M121.5,197.5c-4.9,0-10-0.7-14.9-2.8c-8.2-3.5-14.1-10.3-17.5-20.2c-4.4-12.6-4.7-20.6-0.9-23.8
								c4.9-4.1,14.6,1.5,15,1.7l0.2,0.1l0,0.2c0,0.1,1.5,9.9,6.7,19.2c6.2,10.9,14.6,16.4,25.2,16.4c1.3,0,2.7-0.1,4.1-0.3
								c22.7-2.8,23.4-2.7,23.6-1.8c0.1,0.6-0.2,1-4.7,2.4c-2.8,0.9-7,2.1-13.3,4c-0.5,0.2-5.7,2.4-12.7,3.8
								C129.1,197,125.4,197.5,121.5,197.5z M92.8,150.2c-1.5,0-2.9,0.3-4,1.2c-3.4,2.8-3,10.7,1.2,22.7c3.3,9.6,9.1,16.2,16.9,19.6
								c16.5,7.2,37.4-1.9,37.7-2h0c6.8-2,13.7-4,16.3-5c-3.1,0.1-11.8,1.2-21.5,2.4c-7.1,0.9-13.5-0.5-19-4
								c-4.4-2.8-8.2-7.1-11.3-12.6c-4.8-8.6-6.5-17.6-6.8-19.2C101.4,152.6,96.7,150.2,92.8,150.2z"/>
						</g>
						<g>
							<g>
								<g id="wingsFur">
									<g id="wingsFur01">
										<path id="_wings01-left_-clip-2" class="st6" d="M28.3,141.2c0,0-15.6-9-17.6-15.8C9.1,120,0.2,123.6-7,128.1
											c-4,2.5-13.3,10.1-17.4,19c-4.5,9.5-5,18.4-3.2,20.3c1.9,1.9,5-11.2,12.4-19.3c9-9.8,20.9-15.5,20.3-10.7
											c-1.5,12.2-0.7,25,0.6,26.4c1.3,1.4,2.7-16.7,7.9-20.1c4.7-3.1,13.6,1.3,13.6,1.3L28.3,141.2z"/>
										<g id="wingsColor01-left">
											<g>
												<g>
													<g>
														<g>
															<defs>
																<path id="SVGID_9_" d="M28.3,141.2c0,0-15.6-9-17.6-15.8C9.1,120,0.2,123.6-7,128.1c-4,2.5-13.3,10.1-17.4,19
																	c-4.5,9.5-5,18.4-3.2,20.3c1.9,1.9,5-11.2,12.4-19.3c9-9.8,20.9-15.5,20.3-10.7c-1.5,12.2-0.7,25,0.6,26.4
																	c1.3,1.4,2.7-16.7,7.9-20.1c4.7-3.1,13.6,1.3,13.6,1.3L28.3,141.2z"/>
															</defs>
															<clipPath id="SVGID_10_">
																<use xlink:href="#SVGID_9_"  style="overflow:visible;"/>
															</clipPath>
															<g class="st12">
																<g id="wingsColor01-left01">
																	<rect x="-37.2" y="102.4" class="st6" width="83.5" height="70.7"/>
																</g>
															</g>
														</g>
													</g>
												</g>
											</g>
										</g>
										<g id="layer">
											<path id="_wings01-right_-clip-2" class="st6" d="M100.2,142.4c0,0,15.6-9,17.6-15.8c1.6-5.4,10.5-1.8,17.7,2.7
												c4,2.5,13.3,10.1,17.4,19c4.5,9.5,5,18.4,3.2,20.3c-1.9,1.9-5-11.2-12.4-19.3c-9-9.8-20.9-15.5-20.3-10.7
												c1.5,12.2,0.7,25-0.6,26.4s-2.7-16.7-7.9-20.1c-4.7-3.1-13.6,1.3-13.6,1.3L100.2,142.4z"/>
											<g id="wingsColor01-right">
												<g>
													<g>
														<g>
															<g>
																<defs>
																	<path id="SVGID_11_" d="M100.2,142.4c0,0,15.6-9,17.6-15.8c1.6-5.4,10.5-1.8,17.7,2.7c4,2.5,13.3,10.1,17.4,19
																		c4.5,9.5,5,18.4,3.2,20.3c-1.9,1.9-5-11.2-12.4-19.3c-9-9.8-20.9-15.5-20.3-10.7c1.5,12.2,0.7,25-0.6,26.4
																		s-2.7-16.7-7.9-20.1c-4.7-3.1-13.6,1.3-13.6,1.3L100.2,142.4z"/>
																</defs>
																<clipPath id="SVGID_12_">
																	<use xlink:href="#SVGID_11_"  style="overflow:visible;"/>
																</clipPath>
																<g class="st13">
																	<g id="wingsColor01-right01">
																		<rect x="82.3" y="103.6" class="st6" width="83.5" height="70.7"/>
																	</g>
																</g>
															</g>
														</g>
													</g>
												</g>
											</g>
										</g>
									</g>
								</g>
								<g id="wings">
									<g id="wings01">
										<path class="st11" d="M-27.2,168c-0.2,0-0.5-0.1-0.7-0.3c-2.1-2.2-1.2-11.6,3.1-20.9c4-8.5,13-16.3,17.6-19.2
											c3.3-2.1,11.6-6.7,16-5.1c1.2,0.5,2,1.4,2.5,2.7c2,6.6,17.3,15.4,17.4,15.5l0.3,0.2l-1.5,4.7l-0.5-0.2
											c-0.1,0-8.7-4.2-13.1-1.3c-3,2-4.7,9.7-5.9,14.8c-0.9,4-1.2,5.3-1.9,5.5c-0.2,0-0.5,0-0.7-0.2c-1.6-1.7-2.3-14.9-0.7-26.8
											c0.1-0.8-0.2-1-0.4-1c-2.2-1-11.3,3.7-19,12.1c-3.9,4.3-6.7,10-8.6,14.1c-1.8,3.7-2.6,5.4-3.6,5.6
											C-27.1,168-27.2,168-27.2,168z M6.6,123.1c-3.1,0-7.8,1.9-13.3,5.3c-4.6,2.9-13.3,10.5-17.3,18.8
											c-4.4,9.4-4.9,18.1-3.3,19.8l0,0c0.6-0.1,1.8-2.7,2.9-5c2-4.2,4.8-10,8.8-14.3c7.1-7.7,17.1-13.8,20.2-12.4
											c0.4,0.2,1.1,0.7,0.9,2c-1.4,11.6-0.7,23.2,0.3,25.6c0.3-0.8,0.7-2.7,1.2-4.4c1.2-5.6,3-13.2,6.3-15.4
											c4.2-2.8,11.6,0.1,13.6,1l0.9-2.9c-2.4-1.4-15.6-9.4-17.5-15.9c-0.3-1-0.9-1.7-1.9-2.1C7.9,123.2,7.3,123.1,6.6,123.1z"/>
										<path class="st11" d="M155.8,169.2c0,0-0.1,0-0.1,0c-1-0.2-1.9-1.8-3.6-5.6c-2-4.2-4.7-9.9-8.7-14.1
											c-7.7-8.4-16.9-13.1-19-12.1c-0.1,0-0.5,0.2-0.4,1c1.5,11.8,0.8,25.2-0.7,26.8c-0.2,0.2-0.4,0.3-0.7,0.2
											c-0.7-0.2-1-1.5-1.9-5.5c-1.2-5.1-2.9-12.8-5.9-14.8c-4.4-2.9-13.1,1.3-13.1,1.3l-0.5,0.2l-1.4-4.7l0.3-0.2
											c0.1-0.1,15.4-8.9,17.4-15.5c0.4-1.3,1.2-2.2,2.5-2.7c4.4-1.6,12.6,3,16,5.1c4.7,2.9,13.7,10.7,17.6,19.2
											c4.4,9.3,5.3,18.7,3.1,20.9C156.2,169.2,156,169.2,155.8,169.2z M125,136.3c3.9,0,12.7,5.6,19.1,12.6
											c4.1,4.4,6.8,10.1,8.8,14.3c1.1,2.3,2.3,4.9,2.9,5c0,0,0,0,0,0c1.6-1.7,1.1-10.4-3.3-19.8c-3.9-8.3-12.6-15.9-17.3-18.8
											c-6.7-4.2-12.4-6-15.1-5c-0.9,0.4-1.5,1-1.9,2.1c-1.9,6.4-15.1,14.5-17.5,15.9l0.9,2.9c2-0.9,9.3-3.8,13.6-1
											c3.3,2.2,5,9.8,6.3,15.4c0.4,1.7,0.8,3.6,1.2,4.4c1-2.4,1.7-14.1,0.3-25.6c-0.2-1.3,0.5-1.9,0.9-2
											C124.2,136.4,124.6,136.3,125,136.3z"/>
									</g>
								</g>
								<g>
									<g>
										<g id="bodyFur-2">
											<g id="body-mainColor">
												<g id="body-mainColor011">
													<path id="_body01_-clip-4" class="st4" d="M29.8,136c-6.8,9.8-8.4,20.6-8.8,32.3c-0.4,11.9,8.5,25.8,20,28.6
														c0.8,2.1,1,2.5,2.9,3.8c1.8,1.3,5.5,1.1,7.4,0c2.5-1.4,4.1-3.6,4.2-6.5c0.1-3.1-2.7-7.1-3.1-7.8
														c-0.1-0.3,4.7,2.3,7.5,2.5c11.7,1,15.9-1.3,17.5-2.7c-0.8,3.8-3.1,6.4-2,10c1,3.3,6.3,7.1,11.2,6.2
														c4.9-0.9,5.4-5.3,5.6-5.6c3.7-4.4,10.6-8.4,14-25.6c3.3-17-8.2-36.1-10.5-38c-2.2-1.9-26.7,2.5-36.7,1.4
														c-7.3-0.8-14.6-1.2-21.9-1.1C34.5,133.6,29.8,136,29.8,136z"/>
													<g id="clipping_Path">
														<g>
															<g>
																<g>
																	<g>
																		<defs>
																			<path id="SVGID_13_" d="M29.8,136c-6.8,9.8-8.4,20.6-8.8,32.3c-0.4,11.9,8.5,25.8,20,28.6c0.8,2.1,1,2.5,2.9,3.8
																				c1.8,1.3,5.5,1.1,7.4,0c2.5-1.4,4.1-3.6,4.2-6.5c0.1-3.1-2.7-7.1-3.1-7.8c-0.1-0.3,4.7,2.3,7.5,2.5
																				c11.7,1,15.9-1.3,17.5-2.7c-0.8,3.8-3.1,6.4-2,10c1,3.3,6.3,7.1,11.2,6.2c4.9-0.9,5.4-5.3,5.6-5.6
																				c3.7-4.4,10.6-8.4,14-25.6c3.3-17-8.2-36.1-10.5-38c-2.2-1.9-26.7,2.5-36.7,1.4c-7.3-0.8-14.6-1.2-21.9-1.1
																				C34.5,133.6,29.8,136,29.8,136z"/>
																		</defs>
																		<clipPath id="SVGID_14_">
																			<use xlink:href="#SVGID_13_"  style="overflow:visible;"/>
																		</clipPath>
																		<g class="st14">
																			<g id="rectangles-2">
																				<rect x="-11.8" y="113.4" class="st15" width="145.6" height="97.3"/>
																			</g>
																		</g>
																	</g>
																</g>
															</g>
														</g>
													</g>
												</g>
											</g>
										</g>
										<g>
											<g id="bodyFur">
												<g id="bodyShadow010-1">
													<g id="bodyShadow-2">
														<g>
															<g>
																<g>
																	<g>
																		<defs>
																			<path id="SVGID_15_" d="M29.8,136c-6.8,9.8-8.4,20.6-8.8,32.3c-0.4,11.9,8.5,25.8,20,28.6c0.8,2.1,1,2.5,2.9,3.8
																				c1.8,1.3,5.5,1.1,7.4,0c2.5-1.4,4.1-3.6,4.2-6.5c0.1-3.1-2.7-7.1-3.1-7.8c-0.1-0.3,4.7,2.3,7.5,2.5
																				c11.7,1,15.9-1.3,17.5-2.7c-0.8,3.8-3.1,6.4-2,10c1,3.3,6.3,7.1,11.2,6.2c4.9-0.9,5.4-5.3,5.6-5.6
																				c3.7-4.4,10.6-8.4,14-25.6c3.3-17-8.2-36.1-10.5-38c-2.2-1.9-26.7,2.5-36.7,1.4c-7.3-0.8-14.6-1.2-21.9-1.1
																				C34.5,133.6,29.8,136,29.8,136z"/>
																		</defs>
																		<clipPath id="SVGID_16_">
																			<use xlink:href="#SVGID_15_"  style="overflow:visible;"/>
																		</clipPath>
																		<g class="st16">
																			<rect x="8.9" y="126" class="st4" width="110.3" height="81.3"/>
																			<path class="st6" d="M37.4,138.1c-1.6,1.3-2.5,6.1-1.6,7.4c0.9,1.2,4.7,3.1,5.9,3.3c1.2,0.1,7.2-2.2,8.3-3.3
																				c1.1-1.1,3.1-9.9,1-10.5C48.8,134.3,38.9,136.8,37.4,138.1z"/>
																			<path class="st6" d="M36.6,196c-1.6,1.3-2.5,6.1-1.6,7.4c0.8,1.2,4.7,3.1,5.9,3.3c1.2,0.1,7.2-2.2,8.3-3.3
																				s3.1-9.9,1-10.6C48.1,192.2,38.2,194.7,36.6,196z"/>
																			<path class="st6" d="M76.4,200.5c-1.6,1.3-2.5,6.1-1.6,7.4c0.9,1.2,4.7,3.1,5.9,3.3c1.2,0.2,7.2-2.2,8.3-3.3
																				c1.1-1.1,3.1-9.9,1-10.6C87.9,196.7,78,199.1,76.4,200.5z"/>
																			<path class="st6" d="M89.1,135c-1.7,0.6-4,4.1-3.7,5.4c0.3,1.3,2.7,4.1,3.6,4.5c0.8,0.5,6.5,0.6,7.7,0.1
																				c1.2-0.5,5.6-6.8,4.2-8.1C99.4,135.8,90.8,134.5,89.1,135z"/>
																			<path class="st6" d="M20.6,159.9c-1.7,0.6-4,4.1-3.7,5.4c0.3,1.3,2.7,4.1,3.6,4.5c0.8,0.5,6.5,0.6,7.7,0.1
																				c1.2-0.6,5.6-6.8,4.2-8.1C31,160.7,22.3,159.4,20.6,159.9z"/>
																			<path class="st6" d="M20.5,175.2c-1.7,0.6-4,4.1-3.7,5.4c0.3,1.3,2.7,4.1,3.6,4.5c0.8,0.5,6.5,0.6,7.7,0.1
																				c1.2-0.5,5.6-6.8,4.2-8.1C30.9,175.9,22.2,174.6,20.5,175.2z"/>
																			<path class="st6" d="M100.5,145.5c-2.5,0.8-5.9,6.1-5.5,8c0.4,1.9,4.1,6,5.3,6.8c1.2,0.7,9.6,0.9,11.4,0.1
																				c1.8-0.8,8.4-10.1,6.2-11.9C115.9,146.6,103,144.7,100.5,145.5z"/>
																			<path class="st6" d="M100.7,166.4c-2.5,0.8-5.9,6.1-5.5,8c0.4,1.9,4.1,6,5.3,6.8c1.2,0.7,9.6,0.9,11.4,0.1
																				c1.8-0.8,8.4-10.1,6.2-11.9C116,167.4,103.2,165.5,100.7,166.4z"/>
																			<path class="st6" d="M96.9,187.6c-2.5,0.8-5.9,6.1-5.5,8c0.4,1.9,4.1,6,5.3,6.8c1.2,0.7,9.6,0.9,11.4,0.1
																				c1.8-0.8,8.4-10.1,6.2-11.9C112.2,188.7,99.4,186.8,96.9,187.6z"/>
																			<path class="st6" d="M29.7,137.1c2.5,0.8,5.9,6.1,5.5,8c-0.4,1.9-4.1,6-5.3,6.8c-1.2,0.7-9.6,0.9-11.4,0.1
																				c-1.8-0.8-8.4-10.1-6.2-11.9C14.3,138.2,27.2,136.3,29.7,137.1z"/>
																			<path class="st6" d="M95.5,161c-0.7,0.2-1.6,1.7-1.5,2.2s1.1,1.7,1.5,1.9c0.3,0.2,2.6,0.2,3.1,0
																				c0.5-0.2,0.9-2,0.3-2.5C98.3,162.1,96.1,160.8,95.5,161z"/>
																			<path class="st6" d="M91.3,176.9c-0.7,0.2-1.6,1.7-1.5,2.2s1.1,1.7,1.5,1.9c0.3,0.2,2.6,0.2,3.1,0
																				c0.5-0.2,0.9-2,0.3-2.5C94.1,177.9,91.9,176.7,91.3,176.9z"/>
																			<path class="st6" d="M35.3,151.1c-0.7,0.2-1.6,1.7-1.5,2.2c0.1,0.5,1.1,1.7,1.5,1.9c0.3,0.2,2.6,0.2,3.1,0
																				c0.5-0.2,0.9-2,0.3-2.5C38.2,152.2,36,150.9,35.3,151.1z"/>
																			<path class="st6" d="M40.1,187.5c-0.7,0.2-1.6,1.7-1.5,2.2c0.1,0.5,1.1,1.7,1.5,1.9c0.3,0.2,2.6,0.2,3.1,0
																				c0.5-0.2,0.9-2,0.3-2.5C43,188.6,40.8,187.3,40.1,187.5z"/>
																			<path class="st6" d="M84.7,191.3c-0.7,0.2-1.6,1.7-1.5,2.2c0.1,0.5,1.1,1.7,1.5,1.9c0.3,0.2,2.6,0.2,3.1,0
																				c0.5-0.2,0.9-2,0.3-2.5C87.6,192.4,85.4,191.1,84.7,191.3z"/>
																			<path class="st6" d="M31.9,170.1c-0.7,0.2-1.6,1.7-1.5,2.2c0.1,0.5,1.1,1.7,1.5,1.9c0.3,0.2,2.6,0.2,3.1,0
																				c0.5-0.2,0.9-2,0.3-2.5C34.8,171.1,32.6,169.8,31.9,170.1z"/>
																			<path id="color3" class="st17" d="M84.6,174.5c0,8.3-8.8,15.1-19.7,15.1s-19.7-6.8-19.7-15.1
																				c0-1.7-1.8-12.9,3.6-18.9c3.1-3.5,8.4,4.8,16.2,4.9c7.9,0.1,13.4-8.1,16.9-3.7C86.3,162.3,84.6,172.2,84.6,174.5
																				z"/>
																			
																				<linearGradient id="path-1-3_1_" gradientUnits="userSpaceOnUse" x1="409.6465" y1="1272.4078" x2="373.9835" y2="1338.5999" gradientTransform="matrix(1 0 0 -1 -359.8 1474.75)">
																				<stop  offset="0" style="stop-color:#232323"/>
																				<stop  offset="0.32" style="stop-color:#1E1E1E"/>
																				<stop  offset="0.68" style="stop-color:#111111"/>
																				<stop  offset="0.98" style="stop-color:#000000"/>
																			</linearGradient>
																			<path id="path-1-3" class="st18" d="M29,128.1c-0.2,4.9,7.5-2.7,4.8,5c-2.7,7.7-6.6,22.9-5.5,37.3
																				c1.1,14.3,5.4,18.7,8.6,20.1c3.7,1.6,4.7,3.7,6.1,4.7c0.6,0.5,2.8,3,5.8,2.6c3-0.4,6.2-2.5,6.6-7.5
																				c0.3-2.9,3.1,5.9,2.2,7c-1.4,1.6-13.4,8.8-17.6,7.3c-4.2-1.5-4.4-0.3-9.4-7.3s-11.9-3.4-12.9-13.3
																				c-0.9-9.9-4.1-17.1-0.7-26.6C20.4,148.1,29,128.1,29,128.1z"/>
																			<path id="path-0-3" class="st8" d="M47.6,181.4c-2.4-3.8,1.1,0.6,8.4,3c6.5,2.1,16.5,2.2,21.9-1.7
																				c11.5-8.3-3.7,7.9,2.8,15c6.5,7.1,10,1.5,10,1.5l-2.2,13L65,191C65.1,191,51.6,187.9,47.6,181.4z"/>
																			<path id="path-0-4" class="st10" d="M89.8,119.9c6.3,11.4,21.6,42.7,11.1,62S97,202.5,97,202.5l13.1-4.4l7.5-46
																				l-17.1-27.4L89.8,119.9z"/>
																		</g>
																	</g>
																</g>
															</g>
														</g>
													</g>
												</g>
												<g id="bodyShadow">
													<g id="bodyShadow01">
														<g id="bodyShadow-3">
															<g>
																<g>
																	<g>
																		<g>
																			<defs>
																				<path id="SVGID_17_" d="M29.8,136c-6.8,9.8-8.4,20.6-8.8,32.3c-0.4,11.9,8.5,25.8,20,28.6
																					c0.8,2.1,1,2.5,2.9,3.8c1.8,1.3,5.5,1.1,7.4,0c2.5-1.4,4.1-3.6,4.2-6.5c0.1-3.1-2.7-7.1-3.1-7.8
																					c-0.1-0.3,4.7,2.3,7.5,2.5c11.7,1,15.9-1.3,17.5-2.7c-0.8,3.8-3.1,6.4-2,10c1,3.3,6.3,7.1,11.2,6.2
																					c4.9-0.9,5.4-5.3,5.6-5.6c3.7-4.4,10.6-8.4,14-25.6c3.3-17-8.2-36.1-10.5-38c-2.2-1.9-26.7,2.5-36.7,1.4
																					c-7.3-0.8-14.6-1.2-21.9-1.1C34.5,133.6,29.8,136,29.8,136z"/>
																			</defs>
																			<clipPath id="SVGID_18_">
																				<use xlink:href="#SVGID_17_"  style="overflow:visible;"/>
																			</clipPath>
																			<g class="st19">
																				
																					<linearGradient id="path-1-4_1_" gradientUnits="userSpaceOnUse" x1="409.6465" y1="1272.4078" x2="373.9835" y2="1338.5999" gradientTransform="matrix(1 0 0 -1 -359.8 1474.75)">
																					<stop  offset="0" style="stop-color:#232323"/>
																					<stop  offset="0.32" style="stop-color:#1E1E1E"/>
																					<stop  offset="0.68" style="stop-color:#111111"/>
																					<stop  offset="0.98" style="stop-color:#000000"/>
																				</linearGradient>
																				<path id="path-1-4" class="st20" d="M29,128.1c-0.2,4.9,7.5-2.7,4.8,5c-2.7,7.7-6.6,22.9-5.5,37.3
																					c1.1,14.3,5.4,18.7,8.6,20.1c3.7,1.6,4.7,3.7,6.1,4.7c0.6,0.5,2.8,3,5.8,2.6c3-0.4,6.2-2.5,6.6-7.5
																					c0.3-2.9,3.1,5.9,2.2,7c-1.4,1.6-13.4,8.8-17.6,7.3c-4.2-1.5-4.4-0.3-9.4-7.3s-11.9-3.4-12.9-13.3
																					c-0.9-9.9-4.1-17.1-0.7-26.6C20.4,148.1,29,128.1,29,128.1z"/>
																				<path id="path-0-5" class="st8" d="M47.6,181.4c-2.4-3.8,1.1,0.6,8.4,3c6.5,2.1,16.5,2.2,21.9-1.7
																					c11.5-8.3-3.7,7.9,2.8,15c6.5,7.1,10,1.5,10,1.5l-2.2,13L65,191C65.1,191,51.6,187.9,47.6,181.4z"/>
																				<path id="path-0-6" class="st10" d="M89.8,119.9c6.3,11.4,21.6,42.7,11.1,62S97,202.5,97,202.5l13.1-4.4l7.5-46
																					l-17.1-27.4L89.8,119.9z"/>
																			</g>
																		</g>
																	</g>
																</g>
															</g>
														</g>
													</g>
												</g>
											</g>
											<g id="body">
												<g id="body01">
													<g id="path-3">
														<path class="st11" d="M29.4,135.7c-6.1,8.8-8.2,19.1-8.7,29.6c-0.2,4.6,0.1,9,1.6,13.3c1.5,4.2,3.8,8,6.7,11.3
															c3.2,3.5,7.3,6.3,11.9,7.5l-0.4-0.4c0.9,2.3,2.3,4.3,4.9,4.9c2.7,0.6,5.6-0.1,7.8-1.9c2.2-1.9,3.3-4.7,2.7-7.5
															c-0.3-1.3-0.8-2.6-1.5-3.8c-0.3-0.6-0.6-1.1-0.9-1.7c-0.1-0.2-0.2-0.3-0.3-0.5c-0.1-0.1-0.1-0.5-0.2-0.2l-0.4,0.6
															c-0.4,0.1,0.3,0.2,0.6,0.3c0.5,0.2,1,0.5,1.5,0.6c1.2,0.6,2.5,1,3.8,1.3c3.1,0.8,6.8,0.6,10,0.4
															c3.2-0.2,6.8-0.8,9.4-3l-0.9-0.6c-0.8,3.4-3.2,6.8-2,10.5c0.9,2.8,3.7,4.9,6.4,5.9c2.9,1.1,6.4,1,8.8-1.1
															c0.8-0.7,1.5-1.6,1.9-2.6c0.2-0.5,0.4-1.2,0.6-1.5c0.4-0.6,1.1-1.2,1.7-1.8c0.6-0.6,1.2-1.2,1.8-1.9
															c1.5-1.5,2.8-3.1,4-4.9c3.7-5.5,5.9-12.3,6.8-18.8c1-7.1-0.2-14.4-2.6-21.2c-1.7-5-3.9-10-6.9-14.3
															c-0.6-0.9-1.2-1.8-2.3-2c-1.5-0.4-3.2-0.2-4.8-0.1c-5.6,0.3-11.2,1-16.8,1.4c-3,0.2-5.9,0.5-8.9,0.6
															c-2.9,0.1-5.6-0.2-8.4-0.5c-4.8-0.5-9.5-0.7-14.3-0.8c-1.9,0-4-0.2-6,0.1c-1.5,0.3-3,0.8-4.4,1.4
															c-0.7,0.3-1.5,0.6-2.2,1c-0.6,0.3-0.1,1.3,0.6,1c1.9-1,4.2-2,6.3-2.3c2-0.3,4.1-0.1,6.1,0c2.3,0,4.5,0.1,6.8,0.2
															c3.8,0.2,7.5,0.7,11.3,0.9c2.4,0.1,4.8,0.1,7.3-0.1c5.6-0.3,11.2-0.9,16.7-1.4c2.3-0.2,4.5-0.4,6.8-0.5
															c1.1,0,2.8-0.3,3.8,0.2c0.8,0.4,1.5,1.8,2,2.6c1.2,1.9,2.4,4,3.3,6.1c2.8,5.9,4.9,12.4,5.5,18.9
															c0.6,7.2-0.9,14.5-3.7,21.1c-1.8,4.1-4.4,7.8-7.5,11c-1,1-2.4,2.1-3.1,3.3c-0.2,0.4-0.3,0.9-0.5,1.3
															c-0.4,1-1,1.9-1.8,2.6c-2.8,2.4-7,1.6-9.9-0.3c-1.3-0.8-2.5-2-3.3-3.4c-0.9-1.7-0.6-3.7,0-5.4
															c0.6-1.7,1.3-3.3,1.7-5.1c0.1-0.3-0.1-0.6-0.4-0.6c-0.2,0-0.4,0-0.5,0.1c-2.5,2.2-6.5,2.6-9.8,2.8s-6.7,0.2-9.8-0.8
															c-1.2-0.4-2.5-0.9-3.7-1.4c-0.5-0.2-1.1-0.6-1.6-0.5c-0.2,0.1-0.4,0.3-0.4,0.6c0,0.6,0.8,1.5,1.1,2
															c0.7,1.3,1.4,2.7,1.8,4.1c0.8,3.4-1.3,6.9-4.5,8.1c-2.9,1-6.5,0.5-8-2.4c-0.2-0.5-0.4-1.3-0.8-1.7
															c-0.4-0.3-1.3-0.4-1.8-0.6c-1.4-0.5-2.7-1.1-4-1.9c-5.5-3.3-9.6-8.8-11.9-14.7c-1.2-2.9-1.9-5.9-2-8.9
															c-0.2-3.5,0.1-7.1,0.5-10.6c0.9-8.4,3.3-16.5,8.2-23.5C30.7,135.6,29.8,135.1,29.4,135.7z"/>
													</g>
													<g id="path-2">
														<path class="st11" d="M77.5,187.1c1-1,2-1.9,2.9-3.1c0.4-0.6-0.6-1.2-1-0.6c-0.7,1.1-1.8,1.9-2.7,2.8
															C76.2,186.8,77,187.6,77.5,187.1L77.5,187.1z"/>
													</g>
													<g id="path-1-5">
														<path class="st11" d="M49.8,184.1c0.4,0.8,1,1.5,1.7,2c0.5,0.4,1,0.8,1.5,1.1c0.6,0.3,1.2-0.6,0.6-1
															c-1.2-0.6-2.2-1.5-2.8-2.7C50.5,182.9,49.5,183.5,49.8,184.1L49.8,184.1z"/>
													</g>
													<g id="path-0-7">
														<g id="path-0-3-2">
															<path class="st11" d="M26.3,145c-1.9,4.6-2.1,9.9-2,14.8c0,3.4,0.5,6.8,0.6,10.3c0.1,1.4-0.3,2.7-0.2,4.1
																c0.1,2.6,0.3,5.6,2.1,7.6c1.9,2.2,4.9,2.5,7.6,2.4c2.9-0.1,4.6-1.6,5.7-4.2c0.7-1.6,0.5-3.5,0.5-5.2
																c0-2.2-0.2-4.4-0.5-6.6c-0.6-4.4-1.4-8.7-2-13.1c-0.1-0.7-1.2-0.4-1.1,0.3c1,7,2.6,14.1,2.5,21.2
																c0,1.6-0.2,2.9-1.1,4.3c-0.9,1.4-2,2-3.8,2.2c-2.9,0.2-6.2-0.2-7.7-3c-0.7-1.3-0.8-3-1-4.4c-0.1-1-0.1-2-0.1-3
																c0-0.9,0.2-1.9,0.2-2.8c-0.2-3.1-0.6-6.3-0.6-9.4c-0.1-5,0-10.5,2-15.1C27.6,144.6,26.5,144.3,26.3,145L26.3,145z"/>
														</g>
														<g id="path-0-2-2">
															<path class="st11" d="M100.5,145.3c1.8,4.2,2,9.1,2,13.6c0,3.5-0.2,7-0.6,10.5c-0.1,0.8,0,1.7,0,2.5c0.2,2,0,4-0.3,6
																c-0.3,1.5-0.7,2.7-1.9,3.7c-1.3,1.2-2.9,1.4-4.6,1.5c-1.3,0.1-2.8,0.1-4-0.5s-2.3-2.3-2.6-3.6
																c-0.5-1.7-0.2-3.9-0.1-5.6c0.1-1.9,0.3-3.7,0.5-5.6c0.6-4.1,1.3-8.2,1.9-12.4c0.1-0.7-1-1-1.1-0.3
																c-1.1,7.6-3,15.2-2.5,23c0.1,2.5,1.8,5.2,4.4,5.9c1.2,0.3,2.4,0.3,3.5,0.2c1.5-0.1,3.1-0.2,4.4-1.1
																c4-2.6,3.7-8.1,3.4-12.3c-0.1-1,0.1-1.9,0.2-2.9c0.2-2.1,0.3-4.2,0.4-6.2c0.2-5.5,0.2-11.5-2-16.7
																C101.3,144.3,100.2,144.6,100.5,145.3L100.5,145.3z"/>
														</g>
														<path id="path-0-1" class="st21" d="M26.3,169.4"/>
													</g>
												</g>
											</g>
											<g id="paw">
												<g id="paw01">
													<g id="layer-2">
														<g id="claw-4">
															<g id="path-2-2">
																<path class="st17" d="M36.6,51.2c3.5-1.2,11.6-2.2,11.5-4c0-0.6-10.9-10.2-14.5-11S33.1,52.4,36.6,51.2z"/>
															</g>
															<g id="path-1-6">
																<path class="st17" d="M25.2,74c-0.3-3.7,0.6-11.8-1.2-12.2c-0.6-0.1-12.5,8.1-14.2,11.5C8.2,76.6,25.5,77.6,25.2,74
																	z"/>
															</g>
															<g id="path-0-8">
																<path class="st17" d="M19.2,89.1c0-3.7,1.6-11.8-0.1-12.2c-0.6-0.1-13.2,7-15,10.2C2.2,90.3,19.2,92.8,19.2,89.1z"
																	/>
															</g>
														</g>
														<g id="claw-3">
															<g id="path-2-3">
																<path class="st17" d="M90.7,51.9c-3.5-1.2-11.6-2.2-11.5-4c0-0.6,10.9-10.2,14.5-11C97.3,36.1,94.2,53.1,90.7,51.9z
																	"/>
															</g>
															<g id="path-1-7">
																<path class="st17" d="M102.5,74.6c0.3-3.7-0.6-11.8,1.2-12.2c0.6-0.1,12.5,8.1,14.2,11.5
																	C119.5,77.3,102.2,78.3,102.5,74.6z"/>
															</g>
															<g id="path-0-9">
																<path class="st17" d="M107.9,89.8c0-3.7-1.6-11.8,0.1-12.2c0.6-0.1,13.1,7,15,10.2C125,91,107.9,93.5,107.9,89.8z"
																	/>
															</g>
														</g>
														<g id="claw-2">
															<path id="path-2-4" class="st22" d="M87.2,202.4c-0.4,1.5-2.6,3.8-3.3,4.2c-0.7,0.3-2-4.9-1.5-4.4
																C83,202.8,87.2,202.4,87.2,202.4z"/>
															<path id="path-1-8" class="st22" d="M75.3,196.5c-1,1.2-1.8,4.2-1.7,5c0.1,0.8,5-1.2,4.3-1.4
																C77,199.9,75.3,196.5,75.3,196.5z"/>
															<path id="path-0-10" class="st22" d="M78.1,200.6c-0.7,0.4-0.7,4.5,0.3,4.8c1.5,0.3,4.2-3.5,3.5-3.2
																C81.2,202.4,78.1,200.6,78.1,200.6z"/>
															<g id="claw">
																<path class="st22" d="M43,200.5c0,1.6,1.6,4.4,2.2,4.9c0.6,0.5,3.1-4.3,2.5-3.9C46.9,201.9,43,200.5,43,200.5z"/>
																<path class="st22" d="M55.2,197.4c0.8,1.3,1.1,4.4,0.9,5.2c-0.2,0.7-4.7-2-4-2C52.9,200.5,55.2,197.4,55.2,197.4z"
																	/>
																<path class="st22" d="M52,200.7c0.6,0.5,0,4.5-1.1,4.6c-1.5,0.1-3.5-4.1-2.9-3.7C48.7,202,52,200.7,52,200.7z"/>
															</g>
														</g>
														<g id="claw-1">
															<path id="path-2-5" class="st22" d="M88.9,182.2c-0.2,1.5,0.9,4.5,1.4,5.2c0.5,0.6,3.8-3.7,3.1-3.4
																C92.6,184.2,88.9,182.2,88.9,182.2z"/>
															<path id="path-1-9" class="st22" d="M101.2,180.8c0.6,1.4,0.3,4.6,0,5.3c-0.3,0.6-4.4-2.8-3.6-2.7
																C98.5,183.5,101.2,180.8,101.2,180.8z"/>
															<path id="path-0-11" class="st22" d="M97.7,183.5c0.5,0.6-0.8,4.5-1.9,4.4c-1.5-0.1-2.8-4.6-2.3-4.2
																C94.2,184.2,97.7,183.5,97.7,183.5z"/>
														</g>
														<g id="claw-0">
															<path id="path-2-6" class="st22" d="M27.2,181.7c-0.2,1.5,0.9,4.5,1.4,5.2c0.5,0.6,3.8-3.7,3.1-3.4
																C30.8,183.7,27.2,181.7,27.2,181.7z"/>
															<path id="path-1-10" class="st22" d="M39.6,180.6c0.6,1.4,0.3,4.6,0,5.3s-4.3-2.8-3.6-2.7
																C36.9,183.3,39.6,180.6,39.6,180.6z"/>
															<path id="path-0-12" class="st22" d="M35.9,183.5c0.5,0.6-0.8,4.5-1.9,4.4c-1.5-0.1-2.8-4.6-2.3-4.2
																C32.4,184.2,35.9,183.5,35.9,183.5z"/>
														</g>
													</g>
												</g>
												<g id="jiao01">
													<g id="layer-3">
														<path class="st11" d="M45.4,205.8c-0.1,0-0.3,0-0.3-0.1c-0.6-0.6-2.3-3.4-2.4-5.1V200l0.5,0.2c1.8,0.6,4,1.2,4.4,1
															c0.2-0.1,0.5,0,0.6,0.1c0.4,0.6-1.5,3.7-2.1,4.2C45.7,205.8,45.5,205.8,45.4,205.8z M43.5,201.1
															c0.3,1.4,1.4,3.4,1.9,4c0.5-0.3,1.6-2.2,1.9-3.1C46.3,202,44.6,201.5,43.5,201.1z M47.9,201.9L47.9,201.9L47.9,201.9z
															"/>
														<path class="st11" d="M55.9,203.1c0,0-0.1,0-0.2,0c-0.7-0.1-2-0.8-2.4-1.1c-1.7-1-1.6-1.2-1.6-1.4
															c0-0.2,0.1-0.4,0.4-0.4c0.4,0,1.8-1.6,2.8-3l0.3-0.5l0.3,0.5c0.8,1.3,1.2,4.6,1,5.5C56.4,202.8,56.3,203.1,55.9,203.1
															z M52.6,200.7c0.7,0.6,2.5,1.5,3.1,1.6c0.1-0.8-0.1-3-0.6-4.3C54.4,199,53.4,200.3,52.6,200.7z M52.1,200.9
															L52.1,200.9L52.1,200.9z"/>
														<path class="st11" d="M50.9,205.7c-1.5,0-2.9-2.7-3.2-3.4c-0.1-0.4-0.3-0.8,0-1c0.1-0.1,0.3-0.1,0.5,0
															c0.3,0.1,2-0.3,3.7-0.9l0.2-0.1l0.2,0.1c0.6,0.5,0.3,2.6,0,3.7C51.9,205.1,51.5,205.7,50.9,205.7
															C50.9,205.7,50.9,205.7,50.9,205.7z M48.4,202c0.3,0.6,1,1.9,1.7,2.5c0.3,0.3,0.6,0.4,0.8,0.4c0,0,0.2-0.1,0.5-0.6
															c0.5-1.1,0.6-2.6,0.5-3.1C50.9,201.5,49.4,202,48.4,202C48.4,202,48.4,202,48.4,202z M47.8,201.9L47.8,201.9
															L47.8,201.9z"/>
														<g id="path-14">
															<path class="st11" d="M36.7,51.8c2.4-0.8,4.9-1.2,7.3-1.8c1.3-0.3,4.1-0.8,4.6-2.3c0.3-0.9-0.9-1.8-1.5-2.4
																c-1.6-1.5-3.2-2.9-4.9-4.3c-1.7-1.4-3.6-2.8-5.5-4c-0.9-0.6-2.6-1.8-3.8-1.3c-1.1,0.4-1.2,1.9-1.3,2.9
																c-0.2,1.8,0.1,3.7,0.4,5.5C32.2,45.9,33.6,52.7,36.7,51.8c0.7-0.2,0.4-1.3-0.3-1.1c-0.9,0.2-1.6-1.2-1.9-1.8
																c-0.6-1.3-1.1-2.8-1.4-4.3c-0.4-1.6-0.6-3.2-0.6-4.9c0-0.6-0.1-2.5,0.6-3c0.7-0.5,2.4,0.8,3,1.2
																c1.6,1,3.1,2.1,4.6,3.3c1.5,1.2,3,2.5,4.4,3.7c0.5,0.5,1,0.9,1.5,1.3c0.2,0.2,0.8,0.6,0.9,1c0,0.1,0.1-0.1-0.1,0.1
																c-0.3,0.2-0.6,0.4-0.9,0.6c-1,0.4-2,0.7-3.1,1c-2.3,0.6-4.7,1-6.9,1.7C35.7,50.9,36,52,36.7,51.8z"/>
														</g>
														<g id="path-13">
															<path class="st11" d="M25.7,74c-0.2-2.5,0-5.1,0-7.6c0-1.3,0.2-4.2-1.2-5c-0.9-0.5-2.1,0.6-2.7,1
																c-1.8,1.2-3.5,2.4-5.2,3.7c-1.9,1.3-3.6,2.9-5.2,4.4c-0.8,0.8-2.3,2.1-2,3.3c0.2,1.1,1.6,1.6,2.5,1.9
																c1.7,0.6,3.6,0.8,5.4,0.9C19,76.9,25.9,77.2,25.7,74c0-0.7-1.2-0.7-1.1,0c0,0.9-1.4,1.2-2.1,1.3
																c-1.5,0.3-3.1,0.5-4.6,0.4c-1.6,0-3.1-0.2-4.7-0.5c-0.7-0.2-2.5-0.5-2.9-1.2c-0.3-0.8,1.2-2,1.6-2.5
																c1.3-1.3,2.7-2.5,4.2-3.7c1.5-1.2,3.1-2.4,4.7-3.5c0.6-0.4,1.2-0.8,1.9-1.2c0.3-0.2,0.8-0.6,1.2-0.7
																c0.1,0-0.1-0.1,0,0.1c0.1,0.3,0.3,0.6,0.3,1c0.2,1.1,0.2,2.2,0.2,3.3c0,2.4-0.2,4.8,0,7.2
																C24.7,74.7,25.8,74.7,25.7,74z"/>
														</g>
														<g id="path-12">
															<path class="st11" d="M19.8,89.1c0-2.5,0.4-5.1,0.6-7.6c0.1-1.3,0.5-4-0.8-5c-0.8-0.6-2.1,0.4-2.8,0.8
																c-1.9,1-3.8,2.2-5.6,3.3c-1.9,1.2-3.7,2.5-5.5,4c-0.8,0.7-2.5,1.9-2.4,3.1C3.4,89,4.7,89.6,5.7,90
																c1.7,0.7,3.5,1.1,5.3,1.3C12.9,91.5,19.6,92.5,19.8,89.1c0-0.7-1.1-0.7-1.1,0c0,0.9-1.6,1.1-2.3,1.2
																c-1.5,0.2-3.1,0.2-4.6,0c-1.6-0.1-3.1-0.5-4.7-0.9c-0.6-0.2-2.5-0.7-2.7-1.5c-0.2-0.8,1.4-1.9,1.9-2.3
																c1.5-1.2,3.1-2.4,4.8-3.5c1.6-1,3.2-2,4.9-3c0.6-0.3,1.2-0.7,1.9-1c0.3-0.2,0.8-0.6,1.2-0.6c0.1,0,0-0.1,0.1,0.2
																c0.1,0.4,0.2,0.7,0.2,1.1c0.1,1.1,0,2.1-0.1,3.2c-0.2,2.4-0.6,4.8-0.6,7.2C18.7,89.8,19.8,89.8,19.8,89.1z"/>
														</g>
														<g id="path-11">
															<path class="st11" d="M90.8,51.4c-2-0.6-4-1-6.1-1.5c-1.6-0.4-3.7-0.6-4.9-1.7c-0.2-0.2-0.2,0-0.1-0.1
																c0-0.1,0.2-0.3,0.3-0.4c0.4-0.5,0.8-0.8,1.3-1.2c1.2-1.2,2.6-2.3,3.9-3.4c1.6-1.3,3.2-2.5,4.9-3.7
																c0.6-0.4,1.3-0.8,1.9-1.2c0.4-0.2,1.2-0.8,1.7-0.7c1.7,0.2,0.7,5.6,0.6,6.5c-0.3,1.8-0.8,3.5-1.5,5.1
																C92.6,49.7,91.8,51.7,90.8,51.4c-0.7-0.2-1,0.9-0.3,1.1c2.8,0.8,4.1-4.5,4.5-6.3c0.5-1.9,0.7-3.7,0.8-5.6
																c0-1.2,0-2.9-0.9-3.7c-0.9-0.9-2.2-0.3-3.1,0.2c-1.9,1-3.7,2.3-5.4,3.7c-1.8,1.4-3.5,2.9-5.2,4.4
																c-0.7,0.6-2.2,1.6-2.5,2.6c-0.6,1.7,2.5,2.5,3.5,2.7c2.7,0.8,5.6,1.2,8.4,2.1C91.2,52.7,91.5,51.6,90.8,51.4z"/>
														</g>
														<g id="path-10">
															<path class="st11" d="M103,74.6c0.2-2.1,0-4.2,0-6.2c0-1,0-2,0.1-3c0-0.6,0-1.7,0.5-2.3c0.1-0.1-0.2-0.1,0,0
																c0.1,0,0.3,0.1,0.5,0.2c0.6,0.3,1.1,0.6,1.6,1c1.5,1,3,2,4.4,3.1c1.6,1.2,3.2,2.5,4.7,3.9c0.6,0.5,1.1,1,1.6,1.6
																c0.3,0.3,1,1,1,1.4c0,0.7-1.4,1.1-1.9,1.3c-1.5,0.4-3,0.6-4.5,0.7c-1.7,0.1-3.5,0-5.2-0.2
																C104.9,76,103,75.7,103,74.6c0-0.7-1.1-0.7-1.1,0c-0.1,2.9,5.4,2.9,7.1,2.9c1.9,0,3.8-0.2,5.6-0.6
																c1.2-0.2,2.7-0.6,3.4-1.6c0.8-1,0-2.1-0.7-2.9c-1.4-1.7-3.1-3.1-4.8-4.4c-1.8-1.4-3.7-2.8-5.6-4.1
																c-0.9-0.6-2.1-1.8-3.2-1.9c-1.8-0.2-1.8,3.1-1.9,4.1c-0.1,2.9,0.2,5.8-0.1,8.6C101.9,75.3,103,75.3,103,74.6z"/>
														</g>
														<g id="path-9">
															<path class="st11" d="M108.5,89.8c0-2.1-0.3-4.2-0.5-6.2c-0.1-1.5-0.6-3.8,0.1-5.3c0.1-0.2-0.1-0.1,0-0.1
																c0.1,0,0.3,0.1,0.4,0.2c0.6,0.2,1.1,0.6,1.6,0.8c1.6,0.9,3.1,1.8,4.7,2.8c1.6,1,3.2,2.1,4.8,3.3
																c0.7,0.5,1.3,1.1,2,1.7c0.3,0.3,1.1,0.9,1.2,1.3c0.1,0.7-1.2,1.2-1.7,1.4c-1.4,0.6-2.9,0.9-4.4,1.1
																c-1.8,0.3-3.5,0.4-5.3,0.2C110.6,90.9,108.5,90.8,108.5,89.8c0-0.7-1.2-0.7-1.1,0c0.1,2.9,5.5,2.5,7.3,2.3
																c1.9-0.1,3.8-0.5,5.6-1c1.1-0.3,2.7-0.9,3.3-1.9c0.6-1.1-0.3-2.1-1-2.9c-1.5-1.5-3.3-2.7-5-3.9
																c-1.9-1.3-3.8-2.5-5.9-3.7c-0.9-0.5-2.3-1.6-3.4-1.7c-1.8-0.1-1.5,3.1-1.5,4.2c0.1,2.9,0.6,5.7,0.6,8.6
																C107.4,90.5,108.5,90.5,108.5,89.8z"/>
														</g>
														<path class="st11" d="M83.8,207c-0.2,0-0.4-0.1-0.6-0.5c-0.5-0.7-1.7-4.1-1.1-4.6c0.1-0.1,0.4-0.1,0.6,0
															c0.3,0.3,2.6,0.2,4.5,0l0.5,0l-0.1,0.5c-0.4,1.6-2.7,4.1-3.5,4.4C84,207,84,207,83.8,207z M82.7,202.8
															c0.1,0.9,0.8,3,1.2,3.4c0.6-0.4,2.2-2.1,2.8-3.4C85.5,202.9,83.7,203,82.7,202.8z"/>
														<path class="st11" d="M73.9,202.1L73.9,202.1c-0.6,0-0.7-0.4-0.7-0.5c-0.1-0.9,0.7-4,1.8-5.3l0.4-0.4l0.2,0.5
															c0.9,1.7,1.9,3.3,2.3,3.4c0.3,0,0.4,0.3,0.4,0.5C78.2,200.9,74.7,202.1,73.9,202.1z M73.9,201.3L73.9,201.3
															c0.6,0,2.5-0.7,3.3-1.1c-0.7-0.6-1.5-2-2-3C74.5,198.4,73.9,200.5,73.9,201.3z"/>
														<path class="st11" d="M78.7,205.7c-0.1,0-0.2,0-0.3,0c-0.5-0.1-0.9-0.7-1-1.8c-0.1-1.1-0.1-3.2,0.6-3.6l0.2-0.1
															l0.2,0.1c1.6,0.9,3.1,1.6,3.5,1.5c0.2-0.1,0.4,0,0.5,0.1c0.2,0.2,0.1,0.6-0.2,1C81.8,203.5,80.1,205.7,78.7,205.7z
															 M78.2,201c-0.2,0.5-0.3,2,0,3.2c0.1,0.6,0.3,0.7,0.4,0.7c0.2,0,0.5,0,0.9-0.3c0.9-0.6,1.7-1.6,2.1-2.2
															C80.6,202.3,79.1,201.6,78.2,201z M82.1,202.4L82.1,202.4L82.1,202.4z"/>
														<path class="st11" d="M90.5,187.8c-0.2,0-0.4-0.1-0.4-0.2c-0.6-0.7-1.8-3.8-1.5-5.5l0.1-0.5l0.5,0.2
															c1.7,0.9,3.7,1.9,4.2,1.7c0.3-0.1,0.5,0,0.6,0.2c0.3,0.6-2.1,3.3-2.8,3.8C90.8,187.8,90.6,187.8,90.5,187.8z
															 M89.3,182.8c0,1.4,0.9,3.6,1.3,4.2c0.5-0.3,1.9-1.9,2.4-2.7C91.9,184.2,90.3,183.4,89.3,182.8z M93.5,184.3
															C93.5,184.3,93.5,184.3,93.5,184.3C93.5,184.3,93.5,184.3,93.5,184.3z"/>
														<path class="st11" d="M101.1,186.5c-0.1,0-0.2,0-0.3,0c-0.7-0.2-3.7-2.4-3.6-3.1c0-0.2,0.2-0.4,0.5-0.3l0,0
															c0.4,0,1.9-1.1,3.2-2.5l0.4-0.4l0.2,0.5c0.6,1.6,0.4,4.8,0,5.6C101.6,186.3,101.5,186.5,101.1,186.5z M98.2,183.6
															c0.6,0.6,2.2,1.9,2.8,2.1c0.2-0.7,0.4-2.9,0-4.3C100.3,182.2,99,183.3,98.2,183.6z M97.6,183.7L97.6,183.7L97.6,183.7
															z"/>
														<path class="st11" d="M95.9,188.2C95.9,188.2,95.9,188.2,95.9,188.2c-1.6-0.1-2.5-3.1-2.7-3.8c-0.1-0.5-0.1-0.9,0.1-1
															c0.1-0.1,0.3-0.1,0.5,0c0.3,0.2,2,0,3.8-0.3l0.2,0l0.1,0.2c0.6,0.6-0.1,2.7-0.6,3.7C96.9,187.8,96.4,188.2,95.9,188.2
															z M93.9,184.2c0.1,0.6,0.6,2,1.2,2.8c0.3,0.3,0.5,0.5,0.7,0.6c0,0,0.3-0.1,0.6-0.6c0.6-1,1-2.5,1-3.1
															C96.5,184.1,94.8,184.3,93.9,184.2z M93.4,184L93.4,184L93.4,184z"/>
														<path class="st11" d="M28.7,187.3c-0.2,0-0.3-0.1-0.4-0.2c-0.6-0.7-1.8-3.8-1.5-5.5l0.1-0.5l0.5,0.2
															c1.7,0.9,3.7,1.9,4.2,1.7c0.2-0.1,0.5,0,0.6,0.2c0.3,0.6-2.1,3.3-2.8,3.8C29,187.2,28.9,187.3,28.7,187.3z
															 M27.5,182.3c0,1.4,0.9,3.6,1.3,4.2c0.5-0.3,1.9-1.9,2.4-2.7C30.2,183.7,28.6,182.9,27.5,182.3z M31.8,183.8
															C31.7,183.8,31.7,183.8,31.8,183.8C31.7,183.8,31.7,183.8,31.8,183.8z"/>
														<path class="st11" d="M39.5,186.4c-0.1,0-0.2,0-0.3,0c-0.7-0.2-3.7-2.5-3.6-3.1c0-0.2,0.2-0.4,0.5-0.3l0,0
															c0.4,0,1.9-1.1,3.2-2.5l0.4-0.4l0.2,0.5c0.6,1.6,0.4,4.8,0,5.6C40,186.1,39.9,186.4,39.5,186.4z M36.6,183.5
															c0.6,0.6,2.2,1.9,2.8,2.1c0.2-0.7,0.4-2.9,0-4.3C38.7,182.1,37.5,183.1,36.6,183.5z M36.1,183.6L36.1,183.6
															L36.1,183.6z"/>
														<path class="st11" d="M34.1,188.2C34.1,188.2,34.1,188.2,34.1,188.2c-1.6-0.1-2.5-3.1-2.7-3.8c-0.1-0.5-0.1-0.9,0.1-1
															c0.1-0.1,0.3-0.1,0.5,0c0.3,0.2,2,0,3.8-0.3l0.2,0l0.1,0.2c0.6,0.6-0.1,2.7-0.6,3.7C35.1,187.8,34.6,188.2,34.1,188.2
															z M32.1,184.2c0.1,0.6,0.6,1.9,1.2,2.8c0.3,0.3,0.5,0.5,0.7,0.6c0,0,0.3-0.1,0.6-0.6c0.6-1,1-2.5,1-3.1
															C34.7,184.1,33,184.3,32.1,184.2z M31.6,184L31.6,184L31.6,184z"/>
													</g>
												</g>
											</g>
											<g id="图层_1_1_">
												<g>
													<g>
														<g id="head-mainColor">
															<path id="_head02_-clip-4" class="st4" d="M34.8,50.5c-7.7-2.9-23.7-4.3-24.5-2.5c-0.7,1.8,4.3,12.5,9.5,15.8
																c-0.5,0.7-6.2,14.1-8.2,28.9s-0.4,30.9,3.3,34.9c8,8.7,27.4,14.8,30.6,15.5c3.5,0.8,6.1,0.7,7.6,0.9
																c1.5,0.2,9.7,8.4,23,0.8c0,0,19.1-3.7,27.1-9.3c8-5.5,10.1-7.8,12.7-13.3c1.3-2.9,1.7-19-0.8-33.4
																c-2.2-13-7.1-24.7-7.1-24.7c2.4-2.2,4.5-4.5,6.5-7c3.5-4.4,3.9-8.4,3.1-9.1c-0.9-0.7-6-1-11.9-0.3
																c-5.7,0.7-11.4,3.1-11.9,3.1c-0.5,0-13.3-3.8-27.9-4.4C51.4,46,34.6,50,34.8,50.5z"/>
															<g id="head-mainColor02-10">
																<g>
																	<g>
																		<g>
																			<g>
																				<defs>
																					<path id="SVGID_19_" d="M34.8,50.5c-7.7-2.9-23.7-4.3-24.5-2.5c-0.7,1.8,4.3,12.5,9.5,15.8
																						c-0.5,0.7-6.2,14.1-8.2,28.9s-0.4,30.9,3.3,34.9c8,8.7,27.4,14.8,30.6,15.5c3.5,0.8,6.1,0.7,7.6,0.9
																						c1.5,0.2,9.7,8.4,23,0.8c0,0,19.1-3.7,27.1-9.3c8-5.5,10.1-7.8,12.7-13.3c1.3-2.9,1.7-19-0.8-33.4
																						c-2.2-13-7.1-24.7-7.1-24.7c2.4-2.2,4.5-4.5,6.5-7c3.5-4.4,3.9-8.4,3.1-9.1c-0.9-0.7-6-1-11.9-0.3
																						c-5.7,0.7-11.4,3.1-11.9,3.1c-0.5,0-13.3-3.8-27.9-4.4C51.4,46,34.6,50,34.8,50.5z"/>
																				</defs>
																				<clipPath id="SVGID_20_">
																					<use xlink:href="#SVGID_19_"  style="overflow:visible;"/>
																				</clipPath>
																				<g class="st23">
																					<g id="rectangles-3">
																						<rect x="8.2" y="30.5" class="st4" width="111.5" height="118.8"/>
																					</g>
																				</g>
																			</g>
																		</g>
																	</g>
																</g>
															</g>
														</g>
														<g id="headFur">
															<g id="headFur010-2">
																<g id="color2_复制_2">
																	<g id="color2">
																		<g>
																			<g>
																				<g>
																					<g>
																						<defs>
																							<path id="SVGID_21_" d="M34.8,50.5c-7.7-2.9-23.7-4.3-24.5-2.5c-0.7,1.8,4.3,12.5,9.5,15.8
																								c-0.5,0.7-6.2,14.1-8.2,28.9s-0.4,30.9,3.3,34.9c8,8.7,27.4,14.8,30.6,15.5c3.5,0.8,6.1,0.7,7.6,0.9
																								c1.5,0.2,9.7,8.4,23,0.8c0,0,19.1-3.7,27.1-9.3c8-5.5,10.1-7.8,12.7-13.3c1.3-2.9,1.7-19-0.8-33.4
																								c-2.2-13-7.1-24.7-7.1-24.7c2.4-2.2,4.5-4.5,6.5-7c3.5-4.4,3.9-8.4,3.1-9.1c-0.9-0.7-6-1-11.9-0.3
																								c-5.7,0.7-11.4,3.1-11.9,3.1c-0.5,0-13.3-3.8-27.9-4.4C51.4,46,34.6,50,34.8,50.5z"/>
																						</defs>
																						<clipPath id="SVGID_22_">
																							<use xlink:href="#SVGID_21_"  style="overflow:visible;"/>
																						</clipPath>
																						<g class="st24">
																							<path class="st6" d="M36.2,38c-2.5,2.1-4,9.8-2.5,11.8c1.4,2,7.5,5,9.3,5.3s11.5-3.4,13.2-5.2
																								c1.7-1.8,4.9-15.7,1.6-16.8C54.4,32,38.7,35.9,36.2,38z"/>
																							<path class="st6" d="M65.7,43c-2.7,0.9-6.3,6.5-5.8,8.6c0.5,2,4.4,6.5,5.7,7.3c1.3,0.8,10.3,1,12.2,0.1
																								c1.9-0.9,9-10.9,6.7-12.9C82.2,44.1,68.4,42.1,65.7,43z"/>
																							<path class="st6" d="M2.8,85.8c-2.7,0.9-6.3,6.5-5.8,8.6c0.5,2,4.4,6.5,5.7,7.3c1.3,0.8,10.3,1,12.2,0.1
																								c1.9-0.9,9-10.9,6.7-12.9C19.4,87,5.5,85,2.8,85.8z"/>
																							<path class="st6" d="M7.4,106.5c-2.7,0.9-6.3,6.5-5.8,8.6c0.5,2,4.4,6.5,5.7,7.3s10.3,1,12.2,0.1
																								c1.9-0.9,9-10.9,6.7-12.9C23.9,107.6,10.1,105.6,7.4,106.5z"/>
																							<path class="st6" d="M94.9,44.4c-4,1.3-9.3,9.6-8.7,12.6c0.7,3,6.5,9.6,8.5,10.7c2,1.2,15.3,1.5,18.1,0.2
																								c2.9-1.3,13.3-16.2,9.9-19.1C119.4,46,99,43.1,94.9,44.4z"/>
																							<path class="st6" d="M110.1,82.2c-4,1.3-9.3,9.6-8.7,12.6c0.7,3.1,6.5,9.6,8.5,10.7c2,1.2,15.3,1.5,18.1,0.2
																								c2.9-1.2,13.3-16.2,10-19.1C134.6,83.9,114.1,80.9,110.1,82.2z"/>
																							<path class="st6" d="M111.7,108.2c-4,1.3-9.3,9.6-8.7,12.6c0.7,3.1,6.5,9.6,8.5,10.7s15.3,1.5,18.1,0.2
																								c2.9-1.2,13.3-16.2,10-19.1C136.1,109.9,115.6,107,111.7,108.2z"/>
																							<path class="st6" d="M24.7,44c4,1.3,9.3,9.6,8.7,12.6c-0.7,3.1-6.5,9.6-8.5,10.7c-2,1.2-15.2,1.5-18.1,0.2
																								s-13.3-16.1-9.9-19S20.7,42.7,24.7,44z"/>
																							<path class="st6" d="M80.1,60.7c-1.1,0.4-2.6,2.6-2.4,3.5c0.2,0.8,1.8,2.6,2.3,3c0.6,0.3,4.2,0.4,5,0
																								c0.8-0.3,1.5-3.1,0.6-3.9C84.7,62.4,81.2,60.3,80.1,60.7z"/>
																							<path class="st6" d="M98,104.5c-1.1,0.4-2.6,2.6-2.4,3.5c0.2,0.8,1.8,2.6,2.3,3c0.6,0.3,4.2,0.4,5,0
																								c0.8-0.4,1.5-3.1,0.6-3.9C102.5,106.3,99.1,104.1,98,104.5z"/>
																							<path class="st6" d="M37.6,55.2c-1.1,0.4-2.6,2.6-2.4,3.5c0.2,0.8,1.8,2.6,2.3,3c0.6,0.3,4.2,0.4,5,0
																								c0.8-0.4,1.5-3.1,0.6-3.9C42.2,57,38.8,54.8,37.6,55.2z"/>
																							<path class="st6" d="M21.6,98.8c-1.1,0.4-2.6,2.6-2.4,3.5c0.2,0.8,1.8,2.6,2.3,3c0.6,0.3,4.2,0.4,5,0
																								c0.8-0.4,1.5-3.1,0.6-3.9C26.1,100.5,22.7,98.4,21.6,98.8z"/>
																						</g>
																					</g>
																				</g>
																			</g>
																		</g>
																	</g>
																</g>
															</g>
														</g>
														<g id="head">
															<g id="headShadow">
																<g id="headShadow02">
																	<g id="headShadow-2">
																		<g>
																			<g>
																				<g>
																					<g>
																						<defs>
																							<path id="SVGID_23_" d="M34.8,50.5c-7.7-2.9-23.7-4.3-24.5-2.5c-0.7,1.8,4.3,12.5,9.5,15.8
																								c-0.5,0.7-6.2,14.1-8.2,28.9s-0.4,30.9,3.3,34.9c8,8.7,27.4,14.8,30.6,15.5c3.5,0.8,6.1,0.7,7.6,0.9
																								c1.5,0.2,9.7,8.4,23,0.8c0,0,19.1-3.7,27.1-9.3c8-5.5,10.1-7.8,12.7-13.3c1.3-2.9,1.7-19-0.8-33.4
																								c-2.2-13-7.1-24.7-7.1-24.7c2.4-2.2,4.5-4.5,6.5-7c3.5-4.4,3.9-8.4,3.1-9.1c-0.9-0.7-6-1-11.9-0.3
																								c-5.7,0.7-11.4,3.1-11.9,3.1c-0.5,0-13.3-3.8-27.9-4.4C51.4,46,34.6,50,34.8,50.5z"/>
																						</defs>
																						<clipPath id="SVGID_24_">
																							<use xlink:href="#SVGID_23_"  style="overflow:visible;"/>
																						</clipPath>
																						<g class="st25">
																							<path id="path-0-14" class="st8" d="M26.6,45.2C10.5,46.6,5,44.7,15.1,52.6c3.3,2.6,5.7,5.8,7.4,10.1
																								c0.9,2.3-1,2.2-0.6,7.3c0.5,5-0.1,6.7-1.6,9.3c-3.1,5.6-4.3,11.7-3.7,15c3.4,17.2-7,16.9,1.9,30.1
																								c11.5,16.9,39.3,22.6,39.3,22.6l-28.8-6.9l-12.4-4.8L5.3,115.7L1.7,95.4l2.7-27.9c0,0,1.6-21.4,6.8-22.3
																								C16.4,44.3,26.6,45.2,26.6,45.2z"/>
																							<path id="path-0-15" class="st10" d="M123.4,44.4c-0.8-3.5-5.7,1.5-10.3,7.4c-3.7,4.7-7,10-7.7,11.8
																								c-0.9,2.3,12.8,48.5,3.8,61.7C97.6,142.3,69.8,148,69.8,148l28.8-6.9l12.4-4.8l11.3-19.6l3.7-20.4l-2.7-27.9
																								C123.3,68.5,124,47.5,123.4,44.4z"/>
																						</g>
																					</g>
																				</g>
																			</g>
																		</g>
																	</g>
																</g>
															</g>
															<g id="head02">
																<g id="layer-4">
																	<path class="st11" d="M75.4,116.2c-4.4-3.1-9.5-3.3-13-2.9c-4,0.5-6.9,1.8-7.2,2.1l-0.6-0.5
																		c0.5-0.6,3.7-1.9,7.6-2.3c3.6-0.4,8.8-0.2,13.5,3.1L75.4,116.2z"/>
																	<g id="path-2-8">
																		<path class="st11" d="M35,50c-3.4-1.2-7-1.9-10.6-2.5c-3.4-0.5-6.8-0.9-10.2-0.8c-1.2,0-4-0.2-4.4,1.3
																			c-0.2,0.9,0.2,2,0.5,2.8c0.5,1.5,1.2,2.9,1.9,4.2c1.8,3.4,4.2,7.1,7.5,9.3l-0.2-0.8c-1.2,1.9-1.9,4.4-2.6,6.5
																			c-1.8,4.9-3.2,10-4.3,15c-2.4,10.8-3.1,22.4-1.3,33.4c0.5,3.1,1.2,6.9,3.3,9.4c2.5,3,6.2,5.2,9.5,7.2
																			c6.3,3.5,13.1,6.3,20.1,8.3c1.5,0.4,3,0.7,4.5,0.9c1.1,0.1,2.3,0.2,3.4,0.3c0.5,0,0.9,0.1,1.4,0.2
																			c0.8,0.3,1.6,1,2.4,1.4c1.2,0.7,2.6,1.3,4,1.7c4,1.2,8.2,1,12.2-0.4c1.3-0.5,2.5-1,3.7-1.7c0.3-0.2,0.6-0.4,1-0.5
																			c0.9-0.2,1.8-0.4,2.6-0.6c7.3-1.7,14.9-3.6,21.6-7c2-1,3.8-2.4,5.6-3.7c1.8-1.2,3.5-2.6,5-4.2
																			c2.2-2.2,4.4-5.1,5.2-8.1c0.9-3.2,0.8-6.9,0.8-10.2c0-5.5-0.3-11-0.9-16.5c-1.2-10-3.7-19.8-7.3-29.2
																			c-0.2-0.6-0.5-1.2-0.7-1.8l-0.1,0.6c2.4-2.1,4.5-4.5,6.5-7c1.3-1.7,2.5-3.6,3.1-5.6c0.3-1.1,0.7-2.5,0.3-3.7
																			c-0.3-0.9-1.2-1.1-2.1-1.2c-1.9-0.3-3.7-0.3-5.6-0.2c-4.9,0.2-9.7,1.1-14.3,2.7c-0.6,0.2-1.3,0.5-1.9,0.6
																			c-0.2,0.1-0.4,0.1-0.6,0.2c-0.3,0.1,0,0,0,0c-0.7,0-1.5-0.3-2.2-0.5c-3.3-0.8-6.7-1.6-10.1-2.2
																			c-9.8-1.7-19.6-2.3-29.5-1.2c-4.4,0.5-8.8,1.2-13.1,2.1c-1.2,0.2-2.4,0.6-3.6,0.9c-0.5,0.2-1.2,0.4-1.2,1.1
																			c0.1,0.7,1.2,0.4,1.1-0.3c0.1,0.8-0.4,0.5,0.2,0.4c0.3-0.1,0.7-0.2,1-0.3c1.1-0.3,2.3-0.6,3.4-0.8
																			c3.7-0.8,7.3-1.3,11-1.8c9.3-1.1,18.7-0.8,27.9,0.6c3.6,0.6,7.1,1.3,10.6,2.1c1,0.2,2.1,0.5,3.1,0.8
																			c0.4,0.1,0.9,0.3,1.3,0.3c0.9,0,2-0.6,2.9-0.9c2-0.7,4-1.2,6.1-1.7c4.2-0.9,8.9-1.4,13.2-0.7
																			c0.4,0,1.2,0.1,1.4,0.4c0.3,0.4,0.1,1.2,0.1,1.6c-0.3,2.2-1.5,4.2-2.7,6c-2,2.8-4.4,5.4-7,7.7
																			c-0.1,0.1-0.2,0.3-0.1,0.6c2.8,6.8,5,14,6.4,21.2c2.1,10.2,3,21,2.3,31.3c0,1.4-0.2,2.8-0.6,4.2
																			c-0.3,1.4-1.2,2.7-1.9,4c-2.1,3.5-5.3,6-8.6,8.4c-3.3,2.4-7,4.4-10.8,5.7c-3.6,1.3-7.3,2.4-11,3.3
																			c-2.3,0.6-4.7,1.1-7,1.6c-1.4,0.3-2.7,1.3-4,1.9c-2.3,0.9-4.8,1.4-7.2,1.5c-3.2,0-6.3-1-9.2-2.6
																			c-0.7-0.4-1.5-0.9-2.2-1.3c-1.2-0.6-2.8-0.4-4.1-0.5c-6.5-0.6-12.9-3.2-18.7-5.9c-3.8-1.7-7.6-3.7-11.1-6.2
																			c-1.6-1.1-3.1-2.4-4.4-3.7c-1-1.1-1.6-2.4-2-3.8c-1.4-4.2-1.9-8.8-2.1-13.2c-0.3-5.6-0.1-11.3,0.6-16.9
																			c1.2-9.5,3.7-18.7,7.4-27.6c0.2-0.6,0.5-1.2,0.8-1.9c0.1-0.3,0-0.6-0.2-0.8c-2.7-1.8-4.8-4.7-6.3-7.5
																			c-0.8-1.3-1.5-2.7-2.1-4.2c-0.4-0.9-0.9-2.1-0.9-3.1c0-1.1,3.1-0.8,4-0.8c3.1,0,6.3,0.3,9.4,0.8
																			c3.5,0.5,7.1,1.2,10.4,2.4C35.4,51.3,35.7,50.2,35,50z"/>
																	</g>
																	<path class="st11" d="M71.6,132.5l-0.6-0.3c1.2-2.2,2.5-3.5,4-3.8c1.7-0.4,3.1,0.6,3.6,1.1l-0.5,0.6
																		c-0.4-0.4-1.6-1.2-3-0.9C73.8,129.4,72.6,130.5,71.6,132.5z"/>
																	<path class="st11" d="M56.7,132c-1-2-2.2-3.2-3.5-3.4c-1.4-0.3-2.6,0.5-3,0.9l-0.5-0.6c0.5-0.4,1.9-1.4,3.6-1.1
																		c1.6,0.3,2.9,1.6,4,3.8L56.7,132z"/>
																</g>
															</g>
														</g>
														<g id="eye">
															<g id="eye08">
																<circle id="path-14-2" class="st26" cx="38" cy="96.7" r="15.5"/>
																<circle id="eyeColor08-left" class="st27" cx="37.9" cy="95.7" r="11.7"/>
																<circle id="path-12-2" class="st11" cx="37.9" cy="95.6" r="7.3"/>
																<circle id="path-11-2" class="st26" cx="45.4" cy="94.9" r="4.7"/>
																<path id="path-10-2" class="st4" d="M53.4,95.9c0,0.1-8.8-0.2-17.1-0.2c-7.2,0-13.8,0.6-13.8,0.4
																	c0-8.1,6.8-15,15.4-15S53.2,87,53.4,95.9z"/>
																<path class="st11" d="M38,112.6c-8.7,0-15.9-7.1-15.9-15.9S29.3,80.8,38,80.8S53.9,88,53.9,96.7
																	S46.8,112.6,38,112.6z M38,81.6c-8.3,0-15.1,6.8-15.1,15.1s6.8,15.1,15.1,15.1s15.1-6.8,15.1-15.1
																	S46.3,81.6,38,81.6z"/>
																<rect x="22.5" y="95.4" class="st11" width="31.1" height="0.7"/>
																<circle id="path-6-2" class="st26" cx="90.2" cy="96.1" r="15.5"/>
																<circle id="eyeColor08-right" class="st27" cx="90.2" cy="95.1" r="11.7"/>
																<circle id="path-4-2" class="st11" cx="90.2" cy="94.9" r="7.3"/>
																<circle id="path-3-4" class="st26" cx="97.7" cy="94.2" r="4.7"/>
																<path id="path-2-9" class="st4" d="M105.6,95.3c0,0.1-8.8-0.2-17.1-0.2c-7.2,0-13.8,0.6-13.8,0.4
																	c0-8.1,6.8-15,15.4-15S105.4,86.4,105.6,95.3z"/>
																<path class="st11" d="M90.2,111.9c-8.7,0-15.9-7.1-15.9-15.9s7.1-15.9,15.9-15.9s15.9,7.1,15.9,15.9
																	S99,111.9,90.2,111.9z M90.2,81c-8.3,0-15.1,6.8-15.1,15.1s6.8,15.1,15.1,15.1s15.1-6.8,15.1-15.1S98.6,81,90.2,81z
																	"/>
																<rect x="74.7" y="94.8" class="st11" width="31.1" height="0.7"/>
															</g>
														</g>
														<g id="blush">
															<g id="blush01">
																<ellipse id="path-1-14" class="st28" cx="22.8" cy="120.7" rx="15" ry="5.4"/>
																<ellipse id="path-0-18" class="st28" cx="105.1" cy="120.7" rx="15" ry="5.4"/>
															</g>
														</g>
														<g id="mouth">
															<g id="mouth04">
																<g id="path-4-3">
																	<path class="st11" d="M-6,122.6c2.7-0.3,5.4,0,8.1,0.2c3.6,0.3,7.2,0.7,10.8,1.1c6.9,0.6,14.1,1.7,21,0.8
																		c1.2-0.1,2.5-0.4,3.7-0.8c1.3-0.5,4.8-2.2,5.7-0.5c0.1,0.1,0.2,0.1,0.4,0.1c0.1,0,0.1-0.2,0.1-0.3
																		c-0.9-2.7-5.8-0.1-7.5,0.3c-2.9,0.8-6.2,0.7-9.1,0.6c-7.8-0.2-15.6-1.3-23.3-1.9c-3.2-0.2-6.6-0.6-9.8-0.1
																		C-6.3,122.1-6.3,122.6-6,122.6z"/>
																</g>
																<g id="path-3-5">
																	<path class="st11" d="M133.6,123c-2.8-0.3-5.6-0.2-8.4,0c-3.7,0.2-7.5,0.5-11.2,0.7c-3.9,0.3-7.8,0.6-11.8,0.6
																		c-3.1,0-6.3,0-9.3-0.6c-1.8-0.4-7.3-3.4-8.2-0.5c0,0.1,0,0.3,0.2,0.3c0.1,0,0.2,0,0.3-0.1c0.8-1.5,4-0.2,5.2,0.2
																		c1,0.4,2.1,0.7,3.2,0.9c3,0.5,6,0.6,9,0.5c7.4-0.1,14.7-0.9,22-1.4c3-0.2,6.1-0.5,9.1-0.1
																		C133.9,123.4,133.9,123,133.6,123L133.6,123z"/>
																</g>
																<path class="st11" d="M81.2,144.4c-2.8,0-6.1-1.2-9.1-2.2c-2.4-0.8-4.6-1.6-6.2-1.7c-2.9-0.2-8.7,1.3-13.3,2.5
																	c-2.2,0.6-4.1,1.1-5.2,1.2h-0.1h-0.1c-0.4-0.1-8.9-2.4-11.4-7c-0.7-1.4-0.8-3-0.3-4.5l0.7,0.3
																	c-0.5,1.3-0.4,2.7,0.2,3.9c2.2,4.2,10,6.4,10.8,6.6c1.1-0.2,3-0.6,5.1-1.2c4.7-1.2,10.6-2.7,13.5-2.5
																	c1.7,0.1,4,0.9,6.4,1.8c3.7,1.2,7.8,2.7,10.6,1.9c4.3-1.2,8.1-2.7,10.5-9.5l0.7,0.2c-2.5,7.1-6.5,8.7-11,10
																	C82.6,144.3,81.9,144.4,81.2,144.4z"/>
																<g>
																	<path id="path-5-2_1_" class="st29" d="M74.8,142.7c0.8,0,0.5,4.9-1.1,7.5c-4,6.6-14.1,5.2-16.7-1.4
																		c-1.2-3-2.3-6.7,0.8-7.4c1.4-0.3,4.7-1.3,8.2-1.2C70.4,140.3,74,142.7,74.8,142.7z"/>
																	<path class="st11" d="M65.9,154.8c-0.3,0-0.6,0-1,0c-3.8-0.3-6.9-2.6-8.2-5.9c-0.9-2.3-1.7-4.9-0.9-6.5
																		c0.4-0.7,1-1.2,1.9-1.4c0.2,0,0.4-0.1,0.7-0.2c1.6-0.4,4.5-1.2,7.6-1c3.1,0.1,5.8,1.3,7.5,2.1
																		c0.6,0.2,1.1,0.5,1.2,0.5s0.4,0,0.6,0.4c0.6,1.1,0.1,5.3-1.3,7.6C72.3,153.2,69.3,154.8,65.9,154.8z M65.4,140.5
																		c-2.8,0-5.3,0.6-6.8,1c-0.3,0-0.5,0.1-0.7,0.2c-0.7,0.2-1.2,0.5-1.4,1c-0.7,1.4,0.1,3.9,0.9,5.9
																		c1.2,3,4.1,5.1,7.6,5.4c3.5,0.3,6.6-1.2,8.4-4.1c1.4-2.4,1.6-6.3,1.3-6.9c-0.3,0-0.7-0.2-1.4-0.6
																		c-1.6-0.7-4.2-1.9-7.2-2C65.8,140.5,65.6,140.5,65.4,140.5z"/>
																</g>
																<path class="st11" d="M67.5,150.2l-0.5-0.1c0,0,0.6-3.5,0.3-5.6c-0.3-1.7-1.1-3.3-1.4-4c-0.2-0.4-0.2-0.5-0.1-0.6
																	l0.1-0.1l0.1,0l-0.1,0.2l0.2,0c0,0,0,0.1,0.1,0.3c0.3,0.7,1.1,2.4,1.4,4.1C68.2,146.6,67.5,150,67.5,150.2z"/>
															</g>
														</g>
													</g>
												</g>
											</g>
										</g>
									</g>
								</g>
							</g>
						</g>
					</g>
				</g>
			</g>
		</g>
	</g>
</g>
</svg>
