<?xml version="1.0" encoding="utf-8"?>
<!-- Generator: Adobe Illustrator 22.0.1, SVG Export Plug-In . SVG Version: 6.00 Build 0)  -->
<svg version="1.1" xmlns="http://www.w3.org/2000/svg" xmlns:xlink="http://www.w3.org/1999/xlink" x="0px" y="0px"
	 viewBox="0 0 330 120" style="enable-background:new 0 0 330 120;" xml:space="preserve">
<style type="text/css">
	.st0{fill:#FFE4C0;}
	.st1{fill:#DDB483;}
	.st2{opacity:0.4;fill:#DDB483;}
	.st3{fill:#FFFFFF;}
	.st4{clip-path:url(#SVGID_2_);fill:#D6E6ED;}
	.st5{clip-path:url(#SVGID_4_);fill:#67B4D6;}
	.st6{clip-path:url(#SVGID_6_);}
	.st7{fill:#3E88BA;}
	.st8{clip-path:url(#SVGID_8_);fill:#D6E6ED;}
	.st9{clip-path:url(#SVGID_10_);fill:#67B4D6;}
	.st10{clip-path:url(#SVGID_12_);}
	.st11{fill:#01B0A1;}
	.st12{clip-path:url(#SVGID_14_);}
	.st13{fill:#049599;}
	.st14{fill:#CC333B;}
	.st15{fill:#EE2326;}
	.st16{fill:#FFDBB7;}
	.st17{clip-path:url(#SVGID_16_);fill:#FF9C9C;}
	.st18{clip-path:url(#SVGID_18_);}
	.st19{fill:#FF9C9C;}
	.st20{clip-path:url(#SVGID_20_);fill:#FFFFFF;}
	.st21{clip-path:url(#SVGID_22_);fill:#FFFFFF;}
	.st22{fill:#E55A5A;}
	.st23{fill:#8D4E22;}
	.st24{clip-path:url(#SVGID_24_);}
	.st25{fill:#6D3A17;}
	.st26{fill:#FFF797;}
	.st27{clip-path:url(#SVGID_26_);}
	.st28{fill:#FFD56C;}
	.st29{fill:#DD7C5E;}
	.st30{fill:none;}
	.st31{fill:#6D2C0B;}
	.st32{fill:#127266;}
	.st33{fill:#FFFDBD;}
	.st34{fill:#FCE170;}
</style>
<g id="图层_2">
	<path class="st0" d="M199.9,52.6c-4.2-0.2-8.4,0-12.5,0.3c1.3-1.1,2.4-2.5,3.2-4.3c1.9-4.4-0.2-8.3-4.1-9.4
		c4.1-3.1,2.7-10-1.6-11.5c-1.2-0.9-2.8-1.4-4.6-1.2c0-0.7,0-1.3-0.3-1.9c-3.2-9.3-13-5.8-19.9-3.7c-3.4,1-6.7,2.2-10,3.4
		c-1.8-1.3-4.2-1.6-6.7-0.2c-3.9,2.3-7.6,5-11,8c-2.8,2.5-2.6,5.5-0.9,7.8c-0.7,0.5-1.4,1-2.1,1.5c-3.6,2.7-4.3,8.7-0.4,11.1
		c-2.9,2.3-5.7,4.8-8.3,7.5c-3.3,3.5-2,7.6,0.9,9.6c-0.3,0.2-0.6,0.4-0.9,0.6c-5.3,3.9-3,12.4,3.4,12.1c-1.8,3.4-0.5,7.7,3.8,9.2
		c1.7,0.6,3.5,0.8,5.3,0.7c-0.3,3.7,2.3,7.9,6.4,7.4c2.8-0.3,5.6-0.7,8.4-1.1c-1.3,4.2,2.8,9.1,8,8.3c7-1.1,13.8-3,20.4-5.6
		c2.5-1,3.8-2.9,4.2-5c5.8-2.4,4.7-10.6-0.1-12.3c0.8-0.4,1.6-0.9,2.4-1.4c4-2.5,3.9-8.9,0.3-11.2c6.3-1.7,12.5-3.6,18.5-6
		C208.2,62.7,207.6,52.9,199.9,52.6z"/>
	<path class="st1" d="M172.4,102.7c-2.8-0.4-5.6-0.2-8.4,0.2c-0.4,0.1-0.7,0.2-0.9,0.5c-0.6-0.5-1.3-0.7-2.2-0.5
		c-1.4,0.4-2.7,0.7-4.1,1.1c-0.6-1-1.7-1.7-3-1.3c-0.4-0.3-0.9-0.5-1.5-0.5c-1.6,0-2.4,1.2-2.4,2.4c-0.7,0.3-1.4,0.7-2.1,1
		c-2,1-1.3,4,0.6,4.6c1.7,0.5,3.5,0.4,5.4,0c0.6,0.5,1.3,0.8,2.2,0.6l4-0.9c0.6,0.9,1.6,1.4,2.8,1.2c2.3-0.5,4.3-1.4,6.2-2.6
		c0.3,0.2,0.8,0.4,1.3,0.4c1.8,0.1,3.3-0.8,4.2-2.3C175.6,104.7,174.1,103,172.4,102.7z"/>
	<path class="st2" d="M172.8,104.3c-0.4-1.1-1.4-1.9-2.9-1.5l-0.2,0c0-1.4-0.9-2.5-2.5-2.6c-4.7-0.2-9.7,1.2-14.5,2.8
		c-0.7-0.9-1.9-1.3-3.1-0.6c-2,1.2-4,2.4-6,3.6c-2.4,1.4-0.8,5.4,1.9,4.6c2.6-0.8,5.3-1.8,8.2-2.7c-1.1,1.7,0.7,4.3,2.8,3.7
		c1.7-0.5,3.4-0.9,5.1-1.4c0.2,1.3,1.3,2.5,3,2c2.9-0.8,5.7-1.8,8.5-3C175.9,108.2,175.1,104.2,172.8,104.3z"/>
</g>
<g id="图层_1">
	<g>
		<path class="st3" d="M156.5,103.6c-0.7,0.1-2.1,0-2.8,0.8c-1,1-0.8,1.5-0.5,2.7c0.1,0.5,1.9,0.9,3.7,0.8c2-0.1,3.4-0.2,3.7-0.7
			s0.3-1.8,0-2.6c-0.2-0.6-0.5-0.7-0.5-0.7L156.5,103.6z"/>
		<g>
			<g>
				<defs>
					<path id="SVGID_1_" d="M156.5,103.6c-0.7,0.1-2.1,0-2.8,0.8c-1,1-0.8,1.5-0.5,2.7c0.1,0.5,1.9,0.9,3.7,0.8
						c2-0.1,3.4-0.2,3.7-0.7s0.3-1.8,0-2.6c-0.2-0.6-0.5-0.7-0.5-0.7L156.5,103.6z"/>
				</defs>
				<clipPath id="SVGID_2_">
					<use xlink:href="#SVGID_1_"  style="overflow:visible;"/>
				</clipPath>
				<path class="st4" d="M161.8,105.7c0,0-3.6,1.5-6.1,1.4c-1,0-2.2-0.2-2.6-0.6c-0.6-0.5-0.4-1.2-0.3-0.4c0.1,1.3,0.4,2,1,2.9
					l7-0.1L161.8,105.7z"/>
			</g>
			<g>
				<defs>
					<path id="SVGID_3_" d="M156.5,103.6c-0.7,0.1-2.1,0-2.8,0.8c-1,1-0.8,1.5-0.5,2.7c0.1,0.5,1.9,0.9,3.7,0.8
						c2-0.1,3.4-0.2,3.7-0.7s0.3-1.8,0-2.6c-0.2-0.6-0.5-0.7-0.5-0.7L156.5,103.6z"/>
				</defs>
				<clipPath id="SVGID_4_">
					<use xlink:href="#SVGID_3_"  style="overflow:visible;"/>
				</clipPath>
				<path class="st5" d="M153.9,102.3c1.8,0.7,1.9,4.7,1.9,4.9c0,0.1,3.9,0.5,5.7-0.6l-0.4-5L153.9,102.3z"/>
			</g>
			<g>
				<defs>
					<path id="SVGID_5_" d="M156.5,103.6c-0.7,0.1-2.1,0-2.8,0.8c-1,1-0.8,1.5-0.5,2.7c0.1,0.5,1.9,0.9,3.7,0.8
						c2-0.1,3.4-0.2,3.7-0.7s0.3-1.8,0-2.6c-0.2-0.6-0.5-0.7-0.5-0.7L156.5,103.6z"/>
				</defs>
				<clipPath id="SVGID_6_">
					<use xlink:href="#SVGID_5_"  style="overflow:visible;"/>
				</clipPath>
				<g class="st6">
					<g>
						<g>
							<path class="st7" d="M156.7,104.7c1.3,0.7,4.2,0.2,5.9-0.8l-0.4-5c0,0-4.8,0.3-6.6,2C154.4,102.1,156.2,104.4,156.7,104.7z"
								/>
						</g>
					</g>
				</g>
			</g>
		</g>
		<path class="st3" d="M165.2,103.6c0.7,0.1,2.1,0,2.8,0.8c1,1,0.8,1.5,0.5,2.7c-0.1,0.5-1.9,0.9-3.7,0.8c-2-0.1-3.4-0.2-3.7-0.7
			s-0.3-1.8,0-2.6c0.2-0.6,0.5-0.7,0.5-0.7L165.2,103.6z"/>
		<g>
			<g>
				<defs>
					<path id="SVGID_7_" d="M165.2,103.6c0.7,0.1,2.1,0,2.8,0.8c1,1,0.8,1.5,0.5,2.7c-0.1,0.5-1.9,0.9-3.7,0.8
						c-2-0.1-3.4-0.2-3.7-0.7s-0.3-1.8,0-2.6c0.2-0.6,0.5-0.7,0.5-0.7L165.2,103.6z"/>
				</defs>
				<clipPath id="SVGID_8_">
					<use xlink:href="#SVGID_7_"  style="overflow:visible;"/>
				</clipPath>
				<path class="st8" d="M159.9,105.7c0,0,3.6,1.5,6.1,1.4c1,0,2.2-0.2,2.6-0.6c0.6-0.5,0.4-1.2,0.3-0.4c-0.1,1.3-0.4,2-1,2.9
					l-7-0.1L159.9,105.7z"/>
			</g>
			<g>
				<defs>
					<path id="SVGID_9_" d="M165.2,103.6c0.7,0.1,2.1,0,2.8,0.8c1,1,0.8,1.5,0.5,2.7c-0.1,0.5-1.9,0.9-3.7,0.8
						c-2-0.1-3.4-0.2-3.7-0.7s-0.3-1.8,0-2.6c0.2-0.6,0.5-0.7,0.5-0.7L165.2,103.6z"/>
				</defs>
				<clipPath id="SVGID_10_">
					<use xlink:href="#SVGID_9_"  style="overflow:visible;"/>
				</clipPath>
				<path class="st9" d="M167.9,102.3c-1.8,0.7-1.9,4.7-1.9,4.9c0,0.1-3.9,0.5-5.7-0.6l0.4-5L167.9,102.3z"/>
			</g>
			<g>
				<defs>
					<path id="SVGID_11_" d="M165.2,103.6c0.7,0.1,2.1,0,2.8,0.8c1,1,0.8,1.5,0.5,2.7c-0.1,0.5-1.9,0.9-3.7,0.8
						c-2-0.1-3.4-0.2-3.7-0.7s-0.3-1.8,0-2.6c0.2-0.6,0.5-0.7,0.5-0.7L165.2,103.6z"/>
				</defs>
				<clipPath id="SVGID_12_">
					<use xlink:href="#SVGID_11_"  style="overflow:visible;"/>
				</clipPath>
				<g class="st10">
					<g>
						<g>
							<path class="st7" d="M165,104.7c-1.3,0.7-4.2,0.2-5.9-0.8l0.4-5c0,0,4.8,0.3,6.6,2C167.3,102.1,165.5,104.4,165,104.7z"/>
						</g>
					</g>
				</g>
			</g>
		</g>
		<path class="st11" d="M168.7,79.9L151,78.2c-1,1.7-0.5,8.4,1.3,14.5c1.1,3.8,2.8,8.6,5.1,11.1c1,1.1,2.4,1.5,3.3,1.6
			c0.4,0.1,2.9-0.4,4-1.8c0.7-0.9,2.2-6.1,3.2-12.2C168.4,87.5,168.8,83,168.7,79.9z M157.4,85.8c1.2-1.7,4.8-1.9,5.9,0.5
			c0.6,1.3,0.4,5.3-0.4,8.6c-0.7,3-1.9,6.9-2.1,6.9c-0.3,0-2.8-6-3.7-9.9C156.5,89,156.9,86.5,157.4,85.8z"/>
		<g>
			<g>
				<defs>
					<path id="SVGID_13_" d="M168.7,79.9L151,78.2c-1,1.7-0.5,8.4,1.3,14.5c1.1,3.8,2.8,8.6,5.1,11.1c1,1.1,2.4,1.5,3.3,1.6
						c0.4,0.1,2.9-0.4,4-1.8c0.7-0.9,2.2-6.1,3.2-12.2C168.4,87.5,168.8,83,168.7,79.9z M157.4,85.8c1.2-1.7,4.8-1.9,5.9,0.5
						c0.6,1.3,0.4,5.3-0.4,8.6c-0.7,3-1.9,6.9-2.1,6.9c-0.3,0-2.8-6-3.7-9.9C156.5,89,156.9,86.5,157.4,85.8z"/>
				</defs>
				<clipPath id="SVGID_14_">
					<use xlink:href="#SVGID_13_"  style="overflow:visible;"/>
				</clipPath>
				<g class="st12">
					<g>
						<g>
							<path class="st13" d="M171.3,80.6c0,3.6-20.7,3.1-22.8,1.2s0.4-4.4,0.4-4.4l23.3,0.3L171.3,80.6z"/>
						</g>
					</g>
				</g>
			</g>
		</g>
		<path class="st14" d="M160.6,57.1c1.1,0.7,33.6,0.7,33.6,0.7c2.3-2.2-1.2-5.5-2.5-5.7s-28.3,0.1-30.6,1.1S159.5,56.4,160.6,57.1z"
			/>
		<path class="st15" d="M151.6,53.5c-3.1,8.1-4.4,24.6-2.3,26.3c0.8,0.7,4,2,7.9,2.3c5.7,0.5,12.6-1.5,13-2.4
			c0.8-1.5-4.1-17.9-7.8-26.2C162.4,53.5,151.6,53.5,151.6,53.5z"/>
		<g>
			<g>
				<path class="st14" d="M158.8,55.6c-0.3-0.1-0.9,1.8-0.9,1.8s5.2,0.4,6.5,0.4s4.1-2.8,4.1-2.8L158.8,55.6z"/>
			</g>
		</g>
		<path class="st16" d="M144.8,31.4c0,0-3.5,8.3-4.7,14.4c-1.2,6.2,8.2,9.6,11.3,10.1c1.1,0.2,4,0.7,7.2,0.7
			c5.7-0.1,12.6-1.5,12.6-1.5l2.5-20.3L144.8,31.4z"/>
		<g>
			<g>
				<g>
					<g>
						<defs>
							<path id="SVGID_15_" d="M144.8,31.4c0,0-3.5,8.3-4.7,14.4c-1.2,6.2,8.2,9.6,11.3,10.1c1.1,0.2,4,0.7,7.2,0.7
								c5.7-0.1,12.6-1.5,12.6-1.5l2.5-20.3L144.8,31.4z"/>
						</defs>
						<clipPath id="SVGID_16_">
							<use xlink:href="#SVGID_15_"  style="overflow:visible;"/>
						</clipPath>
						<path class="st17" d="M170.9,51.7c-8.5,3.3-18.1,3.8-28.8,1.9l22.7,9.4l15.7-8L170.9,51.7z"/>
					</g>
					<g>
						<defs>
							<path id="SVGID_17_" d="M144.8,31.4c0,0-3.5,8.3-4.7,14.4c-1.2,6.2,8.2,9.6,11.3,10.1c1.1,0.2,4,0.7,7.2,0.7
								c5.7-0.1,12.6-1.5,12.6-1.5l2.5-20.3L144.8,31.4z"/>
						</defs>
						<clipPath id="SVGID_18_">
							<use xlink:href="#SVGID_17_"  style="overflow:visible;"/>
						</clipPath>
						<g class="st18">
							<g>
								<polygon class="st19" points="170.7,35.8 153.2,36.5 152.9,34.7 147.3,36 143.5,32.1 162.7,28.6 								"/>
							</g>
						</g>
					</g>
				</g>
			</g>
		</g>
		<g>
			<g>
				<defs>
					<path id="SVGID_19_" d="M151.6,53.5c-3.1,8.1-4.4,24.6-2.3,26.3c0.8,0.7,4,2,7.9,2.3c5.7,0.5,12.6-1.5,13-2.4
						c0.8-1.5-4.1-17.9-7.8-26.2C162.4,53.5,151.6,53.5,151.6,53.5z"/>
				</defs>
				<clipPath id="SVGID_20_">
					<use xlink:href="#SVGID_19_"  style="overflow:visible;"/>
				</clipPath>
				<path class="st20" d="M146,63c7.8,2.4,16.2,2.3,24.3,0v3.8c-8.5,2.4-18.5,2.2-29.3,0.7L146,63z"/>
			</g>
			<g>
				<defs>
					<path id="SVGID_21_" d="M151.6,53.5c-3.1,8.1-4.4,24.6-2.3,26.3c0.8,0.7,4,2,7.9,2.3c5.7,0.5,12.6-1.5,13-2.4
						c0.8-1.5-4.1-17.9-7.8-26.2C162.4,53.5,151.6,53.5,151.6,53.5z"/>
				</defs>
				<clipPath id="SVGID_22_">
					<use xlink:href="#SVGID_21_"  style="overflow:visible;"/>
				</clipPath>
				<path class="st21" d="M146.8,71.1c7.3,3.1,16.1,2.5,24.6-0.3v3.6c-7.9,3-17.9,2.8-29.3,0.8L146.8,71.1z"/>
			</g>
		</g>
		<path class="st22" d="M155.7,45.1c0,0-2.4,0.4-4-0.3c-1.7-0.7-2.4-2.2-2.4-1.8c0,0.7,0.6,1,0.7,1.4c0.1,0.4-1.2,1.3-1,2.7
			c0.2,1.3,5.5,2.5,6.8,1.6C157,47.8,155.7,45.1,155.7,45.1z"/>
		<g>
			<g>
				<path class="st19" d="M162.8,38.5c-6.8,2.8-8.9,6.7-6.1,11.8"/>
			</g>
		</g>
		<g>
			<g>
				<ellipse class="st19" cx="160.8" cy="45.9" rx="5.3" ry="6.2"/>
			</g>
		</g>
		<g>
			<g>
				<ellipse class="st16" cx="162.9" cy="47.4" rx="5.3" ry="6.2"/>
			</g>
		</g>
		<path class="st23" d="M176.4,33.1c0-2.6-3.9-9.3-4.6-9.2s-1.2,2.7-1.6,3.1c-0.7,0.7-2.6-2.4-6.4-4.6c-3.9-2.3-9.6-4.1-10.2-3.9
			c-1.1,0.5-2,3.6-2,3.6s-10.1-3.6-10.8-3.6s-1.8,6.2,0,10.3c0,0-0.2,1.5-2,2.7c-2.1,1.4-6,2-6,2.7c0,0.6,1.5,3.4,3.5,5.4
			c2.2,2.2,4.4,3.4,4.4,3.4s0.8-2.7,1.7-4.7c0.2-0.4,2.7-4.1,2.7-4.1s-0.6,2.8,1.5,1.7c1.1-1.1,9.2-2.7,9.2-2.7s-5.3,1.9-4.1,2.8
			c1.2,0.9,12.4,0,13.1-0.5c0.8-0.5,9.2,3.8,9.2,3.8S176.4,35.6,176.4,33.1z"/>
		<g>
			<g>
				<defs>
					<path id="SVGID_23_" d="M176.4,33.1c0-2.6-3.9-9.3-4.6-9.2s-1.2,2.7-1.6,3.1c-0.7,0.7-2.6-2.4-6.4-4.6
						c-3.9-2.3-9.6-4.1-10.2-3.9c-1.1,0.5-2,3.6-2,3.6s-11.6-4.9-12.3-4.9s-0.3,7.5,1.5,11.7c0,0-0.2,1.5-2,2.7c-2.1,1.4-6,2-6,2.7
						c0,0.6,1.5,3.4,3.5,5.4c2.2,2.2,4.4,3.4,4.4,3.4s0.8-2.7,1.7-4.7c0.2-0.4,2.7-4.1,2.7-4.1s-0.6,2.8,1.5,1.7
						c1.1-1.1,9.2-2.7,9.2-2.7s-5.3,1.9-4.1,2.8c1.2,0.9,12.4,0,13.1-0.5c0.8-0.5,9.2,3.8,9.2,3.8S176.4,35.6,176.4,33.1z"/>
				</defs>
				<clipPath id="SVGID_24_">
					<use xlink:href="#SVGID_23_"  style="overflow:visible;"/>
				</clipPath>
				<g class="st24">
					<g>
						<g>
							<path class="st25" d="M170.4,20.5c4.9,5.7-0.3,10.9-14.6,15.6l7.5,1.7L195,25.1L170.4,20.5z"/>
						</g>
					</g>
				</g>
			</g>
		</g>
		<path class="st26" d="M171.6,62.8c-3.8-2.4-6.3-6.5-7.3-11.8c-1.1-5.7-0.4-12.2,1.8-17.6c2.3-5.5,5.9-9,9.9-9.8s8.7,1.2,12.8,5.4
			c4.1,4.1,7.2,10,8.3,15.6c1,5.3,0.2,10-2.3,13.7c-2.3,3.3-6.4,5.8-11,6.8C179.2,65.9,175,65,171.6,62.8z"/>
		<g>
			<g>
				<defs>
					<path id="SVGID_25_" d="M171.6,62.8c-3.8-2.4-6.3-6.5-7.3-11.8c-1.1-5.7-0.4-12.2,1.8-17.6c2.3-5.5,5.9-9,9.9-9.8
						s8.7,1.2,12.8,5.4c4.1,4.1,7.2,10,8.3,15.6c1,5.3,0.2,10-2.3,13.7c-2.3,3.3-6.4,5.8-11,6.8C179.2,65.9,175,65,171.6,62.8z"/>
				</defs>
				<clipPath id="SVGID_26_">
					<use xlink:href="#SVGID_25_"  style="overflow:visible;"/>
				</clipPath>
				<g class="st27">
					<g>
						<path class="st28" d="M173.8,63.1c-3.8-2.4-8.2-6.2-9.3-11.5c-1.1-5.7-0.4-12.9,1.8-18.3c2.3-5.5,7.3-8.7,7.3-8.7
							s-3.3,3.6-4.9,8.8c-2.2,7.2-2.7,17.2-0.2,21.5c5,8.9,12.9,11.1,12.9,11.1S177.3,65.3,173.8,63.1z"/>
					</g>
				</g>
			</g>
		</g>
		<path class="st3" d="M179.3,26.1c-1.1,0.2,1,4.8,2.1,4.8C182.5,30.9,180.4,25.9,179.3,26.1z"/>
		<path class="st15" d="M154.6,60.2"/>
		<g>
			<g>
				<path class="st14" d="M158.5,61.2c-0.3-0.1-0.9,1.8-0.9,1.8s5.2,0.4,6.5,0.4s4.1-2.8,4.1-2.8L158.5,61.2z"/>
			</g>
		</g>
		<path class="st15" d="M158.8,62.7c1.4,0.5,10.2-0.8,19.7-3.2c8.7-2.2,17.6-5.8,18.5-6.6c2-1.6,1.3-6.1,0.4-6.5
			c-0.4-0.2-8.2,4.3-17.2,6.9c-11.4,3.3-24.4,4.9-24.4,4.9C155.2,60.3,157.4,62.2,158.8,62.7z"/>
		<path class="st15" d="M163.8,42.8c1.1,0.7,33.6,0.7,33.6,0.7c2.3-2.2-1.2-5.5-2.5-5.7s-28.3,0.1-30.6,1.1S162.7,42,163.8,42.8z"/>
		<path class="st15" d="M189.8,28.5c-1,0-2.7,0.2-2.7,0.7s1.8,2.6,2.5,2.9c0.7,0.3,2.3,0,2.3-0.8C191.9,30.7,190.7,28.5,189.8,28.5z
			"/>
		<path class="st15" d="M164.2,46.9c0.8-0.6,2.3-1.4,2.6-1s0,3.2-0.4,3.8s-1.9,1.3-2.3,0.7C163.7,49.9,163.4,47.5,164.2,46.9z"/>
		<path class="st16" d="M188.5,28.9c-1.2-0.4-3.3,0.2-3.6,0.4c-0.3,0.2-2.2-0.3-2.3,0.4c-0.1,0.6,1.9,0.7,1.6,1.5
			c-0.2,0.6-2.8,2-2.2,2.5s2.6-1.3,2.9-0.9c0.3,0.4-2,2.3-1.6,2.8c0.5,0.6,2.5-1.7,2.8-1.5c0.3,0.1-1.1,1.8-0.6,2.1
			c0.6,0.3,2-2.3,2.6-2.5C190.7,32.6,189.7,29.2,188.5,28.9z"/>
		<path class="st16" d="M164.5,46.9c0.6-1,2.6-2,3-2.1c0.4,0,1.4-1.6,1.9-1.2c0.5,0.4-1,1.7-0.3,2.2c0.5,0.3,3.4-0.4,3.3,0.4
			s-2.8,0.8-2.8,1.2c0,0.5,3,0.5,3,1.1c0,0.7-3,0.4-3.1,0.7c-0.2,0.3,2,0.6,1.8,1.2c-0.2,0.6-3-0.4-3.7-0.2
			C165.3,51.1,163.8,47.9,164.5,46.9z"/>
		<g>
			<g>
				
					<ellipse transform="matrix(0.1531 -0.9882 0.9882 0.1531 82.0599 175.3659)" class="st19" cx="143.3" cy="39.8" rx="2.1" ry="4"/>
			</g>
		</g>
		<path class="st29" d="M153.9,40c-0.1-0.7-0.4-1.1-0.6-1.1c-0.3-0.1-0.8,0.3-1.3,1l-0.2-0.1c0.6-0.8,1.1-1.1,1.5-1.1
			c0.4,0.1,0.6,0.5,0.8,1.3L153.9,40z"/>
		<g>
			<line class="st30" x1="158.7" y1="38" x2="161.3" y2="37.8"/>
			
				<rect x="158.7" y="37.6" transform="matrix(0.9967 -8.086511e-02 8.086511e-02 0.9967 -2.5366 13.0618)" class="st31" width="2.6" height="0.5"/>
		</g>
		<g>
			<line class="st30" x1="148.1" y1="36.4" x2="150.4" y2="37.2"/>
			
				<rect x="149" y="35.6" transform="matrix(0.3208 -0.9471 0.9471 0.3208 66.496 166.3768)" class="st31" width="0.5" height="2.4"/>
		</g>
		<path class="st3" d="M150.7,44.3c0,0-1.5,0.4-1.5,1c0,0.5,2.3,1.4,2.6,1.2c0.2-0.2,0.4-1.5,0.4-1.5
			C151.6,44.8,151.1,44.6,150.7,44.3z"/>
		<g>
			<g>
				<polygon class="st32" points="160.9,102 160.9,105.1 161.7,105.1 				"/>
			</g>
		</g>
		
			<rect x="155.1" y="86.7" transform="matrix(0.2773 -0.9608 0.9608 0.2773 29.167 212.3151)" class="st33" width="1.3" height="0.2"/>
		
			<rect x="155.3" y="89.3" transform="matrix(0.9919 -0.1269 0.1269 0.9919 -10.1592 20.4467)" class="st33" width="0.2" height="1.3"/>
		
			<rect x="156" y="92.7" transform="matrix(0.9453 -0.3262 0.3262 0.9453 -21.9223 56.0243)" class="st33" width="0.2" height="1.3"/>
		
			<rect x="157.3" y="96.3" transform="matrix(0.9079 -0.4191 0.4191 0.9079 -26.1444 74.8995)" class="st33" width="0.2" height="1.3"/>
		
			<rect x="159" y="99.8" transform="matrix(0.8268 -0.5624 0.5624 0.8268 -28.9408 106.8827)" class="st33" width="0.2" height="1.3"/>
		
			<rect x="165.3" y="86.3" transform="matrix(0.9607 -0.2775 0.2775 0.9607 -17.6336 49.3173)" class="st33" width="0.2" height="1.3"/>
		<rect x="165.1" y="90" transform="matrix(0.127 -0.9919 0.9919 0.127 55.273 243.0452)" class="st33" width="1.3" height="0.2"/>
		
			<rect x="164.3" y="93.4" transform="matrix(0.3262 -0.9453 0.9453 0.3262 22.7904 218.9527)" class="st33" width="1.3" height="0.2"/>
		
			<rect x="163.1" y="96.8" transform="matrix(0.4191 -0.908 0.908 0.4191 7.0908 204.9798)" class="st33" width="1.3" height="0.2"/>
		
			<rect x="161.4" y="100.4" transform="matrix(0.5626 -0.8268 0.8268 0.5626 -12.173 177.9243)" class="st33" width="1.3" height="0.2"/>
		<g>
			<polygon class="st34" points="141.2,56.8 140.8,57.2 141.2,57.6 142,57.2 			"/>
			<polygon class="st34" points="140.6,57 141.1,56.6 140.6,55.8 140.2,56.6 			"/>
			<polygon class="st34" points="140.5,57.2 140,56.8 139.2,57.2 140,57.6 			"/>
			<polygon class="st34" points="140.6,57.3 140.2,57.7 140.6,58.5 141.1,57.7 			"/>
		</g>
		<g>
			<polygon class="st34" points="188.6,73.5 188.2,73.9 188.6,74.4 189.4,73.9 			"/>
			<polygon class="st34" points="188,73.7 188.5,73.3 188,72.5 187.6,73.3 			"/>
			<polygon class="st34" points="187.9,73.9 187.4,73.5 186.6,73.9 187.4,74.4 			"/>
			<polygon class="st34" points="188,74 187.6,74.5 188,75.2 188.5,74.5 			"/>
		</g>
		<g>
			<polygon class="st34" points="201.9,35 201.5,35.4 201.9,35.8 202.7,35.4 			"/>
			<polygon class="st34" points="201.3,35.2 201.8,34.8 201.3,34 200.9,34.8 			"/>
			<polygon class="st34" points="201.2,35.4 200.7,35 199.9,35.4 200.7,35.8 			"/>
			<polygon class="st34" points="201.3,35.5 200.9,35.9 201.3,36.7 201.8,35.9 			"/>
		</g>
		<g>
			<polygon class="st34" points="166.7,16.2 166.2,16.7 166.7,17.1 167.5,16.7 			"/>
			<polygon class="st34" points="166.1,16.5 166.5,16.1 166.1,15.3 165.7,16.1 			"/>
			<polygon class="st34" points="165.9,16.7 165.5,16.2 164.7,16.7 165.5,17.1 			"/>
			<polygon class="st34" points="166.1,16.8 165.7,17.2 166.1,18 166.5,17.2 			"/>
		</g>
	</g>
</g>
</svg>
