<?xml version="1.0" encoding="utf-8"?>
<!-- Generator: Adobe Illustrator 22.0.1, SVG Export Plug-In . SVG Version: 6.00 Build 0)  -->
<svg version="1.1" xmlns="http://www.w3.org/2000/svg" xmlns:xlink="http://www.w3.org/1999/xlink" x="0px" y="0px"
	 viewBox="0 0 330 120" style="enable-background:new 0 0 330 120;" xml:space="preserve">
<style type="text/css">
	.st0{fill:#C3E3F4;}
	.st1{fill:#8EA8CE;}
	.st2{fill:#FFFFFF;}
	.st3{clip-path:url(#SVGID_2_);fill:#D6E6ED;}
	.st4{clip-path:url(#SVGID_4_);fill:#67B4D6;}
	.st5{clip-path:url(#SVGID_6_);}
	.st6{fill:#3E88BA;}
	.st7{clip-path:url(#SVGID_8_);fill:#D6E6ED;}
	.st8{clip-path:url(#SVGID_10_);fill:#67B4D6;}
	.st9{clip-path:url(#SVGID_12_);}
	.st10{fill:#EE2326;}
	.st11{fill:#F8F9FF;}
	.st12{fill:url(#SVGID_13_);}
	.st13{fill:#01B0A1;}
	.st14{clip-path:url(#SVGID_15_);fill:#FFFFFF;}
	.st15{clip-path:url(#SVGID_17_);fill:#FFFFFF;}
	.st16{fill:url(#SVGID_18_);}
	.st17{fill:#FFDBB7;}
	.st18{fill:#FFFDBD;}
	.st19{fill:#8D4E22;}
	.st20{clip-path:url(#SVGID_20_);fill:#6D3A17;}
	.st21{clip-path:url(#SVGID_22_);}
	.st22{fill:#FF9C9C;}
	.st23{clip-path:url(#SVGID_24_);}
	.st24{fill:#E55A5A;}
	.st25{clip-path:url(#SVGID_26_);}
	.st26{fill:#6D3A17;}
	.st27{fill:#DD7C5E;}
	.st28{fill:#6D2C0B;}
	.st29{fill:#F7A6A6;}
	.st30{fill:#F2F0B3;}
</style>
<g id="图层_2">
	<path class="st0" d="M197.3,63.4c0.5-2.8-1.3-5.9-4.8-6c-1.6,0-3.1,0-4.7,0.1c1.1-0.6,2.2-1.4,3.2-2.2c2.8-2.3,1.2-7.4-2-8.4
		c2.1-2.6,1.4-6.5-2.4-7.9c-2.4-0.9-4.8-0.9-7.2-0.6c0.8-0.5,1.6-0.9,2.4-1.4c4.9-3,1.7-10.3-3.9-9.1c-2.3,0.5-4.6,1.1-6.9,1.6
		c5-2.2,10-4.4,14.9-6.5c5.4-2.3,1.4-10.3-3.9-9.1c-5.7,1.3-11.2,2.9-16.6,4.9c0.6-0.4,1.2-0.8,1.8-1.3c4.5-3.1,1.9-10.7-3.9-9.1
		c-7,1.9-13.5,5-19.9,8.5c-1.7-1.3-4.1-1.5-5.9,0.7c-1.6,1.9-2.7,3.7-3.2,6.1c-0.4,1.6,0.1,3.1,0.9,4.3c-3,2.4-5.7,5.1-7.6,8.7
		c-1.7,3.2,0.1,6.3,2.9,7.2c-0.1,0.6-0.2,1.2-0.1,1.8c-0.6,0-1.3,0.2-2,0.7c-2.1,1.5-4.1,3.2-5.9,5.1c-1.7,1.7-1.6,5.1,0.8,6.3
		c0.7,0.3,1.3,0.5,1.9,0.6c-1.5,1.3-3,2.7-4.4,4.1c-2.4,2.5-0.7,6.8,2.8,6.8c3.4,0,6.3-1.2,9.5-2.4c0.2-0.1,0.5-0.1,0.7-0.2
		c-5,2-10,4.2-14.9,6.5c-5.3,2.6-1.4,10.2,3.9,9.1c2.4-0.5,4.8-1.1,7.2-1.7c-0.4,3,2,6.1,5.5,5.7c-2.7,2.4-1.8,7.8,2,8.5
		c4.1,0.8,8.2,0.3,12.2-0.6c-0.6,1.7-0.3,3.6,0.8,5c-0.7,0.4-1.3,0.7-2,1.1c-3.3,2-3.3,8.5,1.2,9.1c2.9,0.4,5.9,0.4,8.9,0.1
		c0.9,1.3,2.3,2.3,4,2.2c3-0.1,5.6-0.7,8.3-2c1.3-0.6,2-1.5,2.4-2.5c1.6-0.7,3.2-1.5,4.7-2.2c2.8-1.3,3-4.1,1.9-6.3
		c2-0.7,3.9-1.6,5.8-2.5c3.2-1.6,3-5.7,0.8-7.9c1.6-0.7,3.2-1.4,4.7-2.2c3.2-1.7,3.4-7,0-8.6c-0.5-0.3-1.1-0.5-1.7-0.7
		c3.7-1.2,7.3-2.5,10.3-5.1C203.4,68.9,200.9,64.2,197.3,63.4z"/>
</g>
<g id="图层_3">
	<path class="st1" d="M175.6,106.1c-0.3,0.2-0.7,0.4-1,0.5c0.3-0.3,0.6-0.6,0.8-1c0.2-0.4-0.4-0.7-0.7-0.6c-0.5,0.3-1,0.5-1.5,0.8
		c0.1-0.1,0.2-0.2,0.3-0.3c0.4-0.4-0.1-1.1-0.6-0.8c-0.7,0.4-1.5,0.8-2.2,1.2c0.3-0.2,0.5-0.3,0.8-0.5c0.5-0.3,0.2-1.1-0.4-0.9
		c-0.6,0.2-1.2,0.4-1.8,0.6c-0.4-0.5-1.1-0.8-1.9-0.4c-0.5-0.5-1.2-0.7-1.9-0.4c-0.8,0.4-1.7,0.8-2.5,1.1c-0.4,0.1-0.7,0.2-1.1,0.3
		c0,0,0,0,0,0c0.4-0.2,0.8-0.3,1.2-0.4c0.6-0.2,0.4-1.1-0.3-1c-0.5,0.2-1.1,0.3-1.6,0.5c-0.2-0.1-0.4-0.2-0.7-0.2
		c0.2-0.1,0.5-0.1,0.7-0.2c0.6-0.2,0.4-1.1-0.3-1c-0.6,0.1-1.2,0.3-1.8,0.4c0.4-1-0.4-2.5-1.7-2c-3.4,1.2-6.4,2.9-9.3,5.1
		c-1,0.8-0.2,2.7,1.1,2.6c1.2-0.1,2.5-0.2,3.7-0.4c0.1,0.7,0.7,1.3,1.5,1.4c0.6,0.1,1.2,0.1,1.7,0c0.3,0.2,0.7,0.2,1,0.1
		c1.7-0.5,3.4-1.1,5.1-1.7c0,0.2,0.1,0.4,0.3,0.5c-0.4,1.2,1.1,2.2,2.2,1.7c0.7-0.3,1.3-0.7,2-1c0.2,0.2,0.6,0.4,1,0.4
		c1.6-0.2,2-0.3,3.4-0.9c0.3-0.1,0.5-0.3,0.6-0.5c1.4-0.3,2.4-0.8,3.5-1.7c0,0,0.1-0.1,0.1-0.1c0.2-0.1,0.4-0.2,0.6-0.3
		C176.6,106.6,176.1,105.8,175.6,106.1z"/>
</g>
<g id="图层_1">
	<g>
		<path class="st2" d="M158.1,104.1c-0.7,0.1-1.9,0-2.5,0.7c-0.9,0.9-0.8,1.4-0.4,2.5c0.1,0.4,1.7,0.8,3.4,0.8
			c1.8-0.1,3.1-0.1,3.4-0.7s0.2-1.7,0-2.4c-0.2-0.6-0.4-0.7-0.4-0.7L158.1,104.1z"/>
		<g>
			<g>
				<defs>
					<path id="SVGID_1_" d="M158.1,104.1c-0.7,0.1-1.9,0-2.5,0.7c-0.9,0.9-0.8,1.4-0.4,2.5c0.1,0.4,1.7,0.8,3.4,0.8
						c1.8-0.1,3.1-0.1,3.4-0.7s0.2-1.7,0-2.4c-0.2-0.6-0.4-0.7-0.4-0.7L158.1,104.1z"/>
				</defs>
				<clipPath id="SVGID_2_">
					<use xlink:href="#SVGID_1_"  style="overflow:visible;"/>
				</clipPath>
				<path class="st3" d="M162.9,106c0,0-3.3,1.3-5.5,1.3c-0.9,0-2-0.2-2.4-0.6c-0.6-0.4-0.3-1.1-0.3-0.3c0.1,1.2,0.3,1.8,0.9,2.6
					l6.4-0.1L162.9,106z"/>
			</g>
			<g>
				<defs>
					<path id="SVGID_3_" d="M158.1,104.1c-0.7,0.1-1.9,0-2.5,0.7c-0.9,0.9-0.8,1.4-0.4,2.5c0.1,0.4,1.7,0.8,3.4,0.8
						c1.8-0.1,3.1-0.1,3.4-0.7s0.2-1.7,0-2.4c-0.2-0.6-0.4-0.7-0.4-0.7L158.1,104.1z"/>
				</defs>
				<clipPath id="SVGID_4_">
					<use xlink:href="#SVGID_3_"  style="overflow:visible;"/>
				</clipPath>
				<path class="st4" d="M155.7,103c1.7,0.7,1.7,4.3,1.8,4.4c0,0.1,3.5,0.4,5.2-0.6l-0.3-4.5L155.7,103z"/>
			</g>
			<g>
				<defs>
					<path id="SVGID_5_" d="M158.1,104.1c-0.7,0.1-1.9,0-2.5,0.7c-0.9,0.9-0.8,1.4-0.4,2.5c0.1,0.4,1.7,0.8,3.4,0.8
						c1.8-0.1,3.1-0.1,3.4-0.7s0.2-1.7,0-2.4c-0.2-0.6-0.4-0.7-0.4-0.7L158.1,104.1z"/>
				</defs>
				<clipPath id="SVGID_6_">
					<use xlink:href="#SVGID_5_"  style="overflow:visible;"/>
				</clipPath>
				<g class="st5">
					<g>
						<g>
							<path class="st6" d="M158.3,105.1c1.1,0.7,3.7,0.2,5.4-0.8l-0.3-4.5c0,0-4.3,0.3-5.9,1.8
								C156.2,102.7,157.8,104.8,158.3,105.1z"/>
						</g>
					</g>
				</g>
			</g>
		</g>
		<path class="st2" d="M169.2,104.1c0.7,0.1,1.9,0,2.5,0.7c0.9,0.9,0.8,1.4,0.4,2.5c-0.1,0.4-1.7,0.8-3.4,0.8
			c-1.8-0.1-3.1-0.1-3.4-0.7s-0.2-1.7,0-2.4c0.2-0.6,0.4-0.7,0.4-0.7L169.2,104.1z"/>
		<g>
			<g>
				<defs>
					<path id="SVGID_7_" d="M169.2,104.1c0.7,0.1,1.9,0,2.5,0.7c0.9,0.9,0.8,1.4,0.4,2.5c-0.1,0.4-1.7,0.8-3.4,0.8
						c-1.8-0.1-3.1-0.1-3.4-0.7s-0.2-1.7,0-2.4c0.2-0.6,0.4-0.7,0.4-0.7L169.2,104.1z"/>
				</defs>
				<clipPath id="SVGID_8_">
					<use xlink:href="#SVGID_7_"  style="overflow:visible;"/>
				</clipPath>
				<path class="st7" d="M164.4,106c0,0,3.3,1.3,5.5,1.3c0.9,0,2-0.2,2.4-0.6c0.6-0.4,0.3-1.1,0.3-0.3c-0.1,1.2-0.3,1.8-0.9,2.6
					l-6.4-0.1L164.4,106z"/>
			</g>
			<g>
				<defs>
					<path id="SVGID_9_" d="M169.2,104.1c0.7,0.1,1.9,0,2.5,0.7c0.9,0.9,0.8,1.4,0.4,2.5c-0.1,0.4-1.7,0.8-3.4,0.8
						c-1.8-0.1-3.1-0.1-3.4-0.7s-0.2-1.7,0-2.4c0.2-0.6,0.4-0.7,0.4-0.7L169.2,104.1z"/>
				</defs>
				<clipPath id="SVGID_10_">
					<use xlink:href="#SVGID_9_"  style="overflow:visible;"/>
				</clipPath>
				<path class="st8" d="M171.6,103c-1.7,0.7-1.7,4.3-1.8,4.4c0,0.1-3.5,0.4-5.2-0.6l0.3-4.5L171.6,103z"/>
			</g>
			<g>
				<defs>
					<path id="SVGID_11_" d="M169.2,104.1c0.7,0.1,1.9,0,2.5,0.7c0.9,0.9,0.8,1.4,0.4,2.5c-0.1,0.4-1.7,0.8-3.4,0.8
						c-1.8-0.1-3.1-0.1-3.4-0.7s-0.2-1.7,0-2.4c0.2-0.6,0.4-0.7,0.4-0.7L169.2,104.1z"/>
				</defs>
				<clipPath id="SVGID_12_">
					<use xlink:href="#SVGID_11_"  style="overflow:visible;"/>
				</clipPath>
				<g class="st9">
					<g>
						<g>
							<path class="st6" d="M168.8,105.3c-1.1,0.7-3.7,0.2-5.4-0.8l0.3-4.5c0,0,4.3,0.3,5.9,1.8
								C170.9,102.9,169.3,104.9,168.8,105.3z"/>
						</g>
					</g>
				</g>
			</g>
		</g>
		<path class="st10" d="M166.8,53.9c4.4,1.1,10.2,3.7,14.9,6.5l-7.3,1l-6.1-1.5"/>
		<path class="st11" d="M164.8,58.8c3-1.7,6.6-1.8,10.6-0.6c4.2,1.3,8.4,4.2,11.1,7.7c2.9,3.5,3.9,7.3,2.9,10.2c-1,3-4,5.4-8.4,6.6
			c-4.3,1.2-9.4,1.1-13.5-0.2c-4-1.3-6.8-3.5-8.3-6.6c-1.3-2.8-1.5-6.5-0.4-9.9C160,62.8,162.2,60.4,164.8,58.8z"/>
		
			<linearGradient id="SVGID_13_" gradientUnits="userSpaceOnUse" x1="168.9212" y1="281.0208" x2="154.6651" y2="256.3284" gradientTransform="matrix(4.629697e-02 0.9989 -0.9989 4.629697e-02 433.9407 -102.8746)">
			<stop  offset="0.1059" style="stop-color:#5BEAD5"/>
			<stop  offset="0.547" style="stop-color:#868BDA"/>
			<stop  offset="0.8188" style="stop-color:#BF7BDD"/>
			<stop  offset="1" style="stop-color:#E171DE"/>
		</linearGradient>
		<path class="st12" d="M164.8,58.8c3-1.7,6.6-1.8,10.6-0.6c4.2,1.3,8.4,4.2,11.1,7.7c2.9,3.5,3.9,7.3,2.9,10.2c-1,3-4,5.4-8.4,6.6
			c-4.3,1.2-9.4,1.1-13.5-0.2c-4-1.3-6.8-3.5-8.3-6.6c-1.3-2.8-1.5-6.5-0.4-9.9C160,62.8,162.2,60.4,164.8,58.8z"/>
		<path class="st2" d="M181.4,82.8c4.3-1.2,7.4-3.6,8.4-6.6c0.2-0.6,0.3-1.2,0.3-1.9c0,0,0,0-0.1,0c-0.6,0-1,0.3-1.1-0.3
			c0-0.6,0.4-1.1,1-1.1c0,0,0,0,0.1,0c-0.2-2.2-1.3-4.6-3.2-6.9c-2.8-3.5-6.9-6.4-11.1-7.7c-2.9-0.9-5.5-1.1-7.8-0.6
			c0.6,0,1,0,1.2,0.2c0.8,0.7,1.8,0.7,1.9,1.7c0.1,1-1.5,0.8-2.5,0.8c-1,0-5.2,2.4-6.4,0.7c-1.2,1.3-2.2,3-2.9,5
			c-1.1,3.4-1,7,0.4,9.9c0.1,0.3,0.3,0.6,0.4,0.8c0-1-0.2-3.3,0.7-3.4c1,0,2.8,2.6,3.3,3.4c0.9,1.2,0.2,3.5-0.8,3.5
			c1.3,0.9,2.8,1.7,4.5,2.2C172.1,84,177.1,84,181.4,82.8z M184.7,73.2c0,0.6-2,0.3-3.4,0.1c-1-0.1-2.8,0.2-2.9-0.4
			c0-0.6,1-2.2,2.6-2.3C183.6,70.6,184.7,72.7,184.7,73.2z M186.9,67.6c0,0.6-0.4,1.1-1,1.1s-1.1-0.4-1.1-1s0.4-1.1,1-1.1
			C186.5,66.6,186.9,67.1,186.9,67.6z M181.2,69.3c-0.4,0-0.8-0.2-0.8-0.6c0-0.3,0.3-0.6,0.8-0.6c0.4,0,0.8,0.2,0.8,0.6
			C181.9,68.9,181.5,69.2,181.2,69.3z M162.7,67.7c0-0.2,0.2-0.3,0.3-0.4c0.3-0.1,0.6,0.2,0.6,0.4c0,0.2-0.2,0.3-0.3,0.4
			C162.9,68.3,162.7,68.1,162.7,67.7z M162.8,68.9c0-0.2,0.2-0.3,0.3-0.4c0.3-0.1,0.6,0.2,0.6,0.4c0,0.2-0.2,0.3-0.3,0.4
			C163,69.5,162.7,69.3,162.8,68.9z M162.4,70.1c0-0.2,0.2-0.3,0.3-0.4c0.3-0.1,0.6,0.2,0.6,0.4s-0.2,0.3-0.3,0.4
			C162.6,70.6,162.4,70.4,162.4,70.1z M171.5,77.3c-4.4-1.8-6.2-5.9-6.3-6.9c-0.1-2.9,2.8-3.5,3.7-3.3c2.6,0.6,7.3,7,7.2,8
			C175.8,77.6,172.5,77.8,171.5,77.3z M181.4,78.9c0.2-0.4,0.9-0.6,1.4-0.2c0.6,0.3,0.8,0.9,0.6,1.3c-0.2,0.4-0.9,0.6-1.4,0.2
			S181.2,79.3,181.4,78.9z M174.8,80.2c0.9-0.8,2.1,0.2,1.3,1.2C175.3,82.2,174.2,81.2,174.8,80.2z"/>
		<path class="st13" d="M170.6,78.5h-13.4c-0.6,9.1,0.8,25.5,1.1,25.9c0.3,0.3,2.9,0.8,3.2,0.2c0.4-0.6,1-19.9,1.2-20.1
			c0.2-0.2,3.2-0.4,3.4,0c0.2,0.4-0.6,19.8-0.1,20.3c0.4,0.4,2.2,0.6,2.5,0s3.6-17.4,2.8-26.1h-0.7V78.5z"/>
		<path class="st10" d="M164.9,53.3c-2.3-0.6-4.4-0.7-5.9-0.4c-0.4,0.1-0.8,0.2-1.1,0.3c-1.8,0.7-3,25.8-0.9,26.5
			c2.1,0.8,13.3,0.8,14.6,0.4c0.9-0.1,0.4-8.1-0.4-15.7c-0.4-4.1-2.8-9.6-3.1-9.8C167.2,54.2,168.2,54.1,164.9,53.3z"/>
		<g>
			<g>
				<defs>
					<path id="SVGID_14_" d="M164.9,53.3c-2.3-0.6-4.4-0.7-5.9-0.4c-0.4,0.1-0.8,0.2-1.1,0.3c-1.8,0.7-3,25.8-0.9,26.5
						c2.1,0.8,13.3,0.8,14.6,0.4c0.9-0.1,0.4-8.1-0.4-15.7c-0.4-4.1-2.8-9.6-3.1-9.8C167.2,54.2,168.2,54.1,164.9,53.3z"/>
				</defs>
				<clipPath id="SVGID_15_">
					<use xlink:href="#SVGID_14_"  style="overflow:visible;"/>
				</clipPath>
				<polygon class="st14" points="172,62.5 151.2,63 151.4,67.3 172.8,66.6 				"/>
			</g>
			<g>
				<defs>
					<path id="SVGID_16_" d="M164.9,53.3c-2.3-0.6-4.4-0.7-5.9-0.4c-0.4,0.1-0.8,0.2-1.1,0.3c-1.8,0.7-3,25.8-0.9,26.5
						c2.1,0.8,13.3,0.8,14.6,0.4c0.9-0.1,0.4-8.1-0.4-15.7c-0.4-4.1-2.8-9.6-3.1-9.8C167.2,54.2,168.2,54.1,164.9,53.3z"/>
				</defs>
				<clipPath id="SVGID_17_">
					<use xlink:href="#SVGID_16_"  style="overflow:visible;"/>
				</clipPath>
				<polygon class="st15" points="172.8,71.4 151.9,71.9 152.3,76.3 173.7,75.6 				"/>
			</g>
		</g>
		<path class="st11" d="M135.2,67.8c0.6-3.5,2.9-6.7,6.5-9.1c3.9-2.6,8.9-4.2,13.6-4.3c4.7,0,8.6,1.5,10.5,4.2
			c1.9,2.8,1.9,6.8,0.1,11.2c-1.8,4.4-5.2,8.6-9,11.1c-3.6,2.4-7.4,3.4-10.9,2.6c-3.2-0.7-6.4-2.9-8.6-6.1
			C135.3,74.5,134.6,71,135.2,67.8z"/>
		
			<linearGradient id="SVGID_18_" gradientUnits="userSpaceOnUse" x1="145.2058" y1="66.6029" x2="130.1099" y2="40.4559" gradientTransform="matrix(0.8163 0.5777 -0.5777 0.8163 69.4629 -54.1928)">
			<stop  offset="0.1059" style="stop-color:#5BEAD5"/>
			<stop  offset="0.547" style="stop-color:#868BDA"/>
			<stop  offset="0.8188" style="stop-color:#BF7BDD"/>
			<stop  offset="1" style="stop-color:#E171DE"/>
		</linearGradient>
		<path class="st16" d="M135.2,67.8c0.6-3.5,2.9-6.7,6.5-9.1c3.9-2.6,8.9-4.2,13.6-4.3c4.7,0,8.6,1.5,10.5,4.2
			c1.9,2.8,1.9,6.8,0.1,11.2c-1.8,4.4-5.2,8.6-9,11.1c-3.6,2.4-7.4,3.4-10.9,2.6c-3.2-0.7-6.4-2.9-8.6-6.1
			C135.3,74.5,134.6,71,135.2,67.8z"/>
		<path class="st2" d="M166,69.6c1.8-4.4,1.8-8.5-0.1-11.2c-0.3-0.6-0.8-1-1.3-1.4c0,0,0,0,0,0.1c-0.3,0.6-0.4,1.1-1,0.7
			c-0.6-0.3-0.7-1.1-0.2-1.5c0,0,0,0,0-0.1c-2-1.2-4.7-1.9-7.9-1.9c-4.7,0-9.8,1.7-13.6,4.3c-2.5,1.8-4.5,3.9-5.5,6.3
			c0.3-0.4,0.7-0.8,1-0.9c1-0.2,1.8-1.1,2.6-0.4c0.9,0.6-0.4,1.8-1,2.6c-0.6,0.9-1.3,5.9-3.6,5.7c0.3,1.9,1,3.9,2.3,5.6
			c2.1,3.2,5.3,5.4,8.6,6.1c0.3,0.1,0.7,0.1,1,0.1c-0.9-0.7-3-2-2.4-2.8c0.6-0.9,4-0.7,5-0.6c1.5,0,3.1,2.1,2.5,3
			c1.7-0.4,3.2-1.2,4.8-2.3C160.8,78.2,164.3,74,166,69.6z M160.2,60.6c0.6,0.3-1,1.9-2.1,3c-0.8,0.8-1.7,2.4-2.2,2.1
			c-0.6-0.3-1.1-2.3-0.1-3.7C157.3,59.8,159.7,60.3,160.2,60.6z M157,55.1c0.6,0.3,0.7,1.1,0.2,1.5c-0.3,0.6-1.1,0.7-1.5,0.2
			c-0.6-0.3-0.7-1.1-0.2-1.5C155.8,54.9,156.4,54.7,157,55.1z M154.5,61c-0.2,0.3-0.7,0.6-1,0.3c-0.2-0.2-0.2-0.7,0-1
			c0.2-0.3,0.7-0.6,1-0.3C154.7,60.1,154.8,60.6,154.5,61z M141.2,75.3c-0.1-0.1-0.2-0.3-0.1-0.6c0.1-0.3,0.6-0.3,0.8-0.1
			c0.1,0.1,0.2,0.3,0.1,0.6C141.9,75.6,141.5,75.7,141.2,75.3z M142.3,76.1c-0.1-0.1-0.2-0.3-0.1-0.6c0.1-0.3,0.6-0.3,0.8-0.1
			c0.1,0.1,0.2,0.3,0.1,0.6C142.9,76.3,142.6,76.4,142.3,76.1z M142.9,77.2c-0.1-0.1-0.2-0.3-0.1-0.6c0.1-0.3,0.6-0.3,0.8-0.1
			c0.1,0.1,0.2,0.3,0.1,0.6C143.6,77.3,143.1,77.4,142.9,77.2z M155,74.2c-4.4,2.5-9,1.3-9.9,0.7c-2.5-1.8-1.2-4.6-0.3-5.3
			c2.2-1.9,10.6-1.4,11.3-0.8C158.1,70.9,155.9,73.8,155,74.2z M162.7,67.1c-0.2-0.4,0.1-1.1,0.8-1.3c0.6-0.2,1.2-0.1,1.4,0.4
			c0.2,0.4-0.1,1.1-0.8,1.3C163.5,67.7,162.9,67.5,162.7,67.1z M159.4,73.4c0-1.3,1.5-1.5,2-0.3C161.4,74.2,159.9,74.6,159.4,73.4z"
			/>
		<path class="st10" d="M160.6,52.8c0,0-8.4-0.4-16.2,2.9c-7.8,3.3-11,7.8-8.6,15.2c2.6,7.9,14.2,12.2,16.8,12.3
			c3.1,0.1,5.8-2.1,5.5-3.2c-0.3-1.1-6.4-0.9-11.3-3.4c-5.1-2.5-7.3-7.7-7.7-10.5c-0.4-2.9,1.2-6.6,5.1-9.1c3.2-2.1,12.2-3.1,13-2.8
			L160.6,52.8z"/>
		<path class="st10" d="M149.3,54.9c-10.8,4.7-4.1,15.4-1.2,15.7c1.2,0.1,4.3-1.4,4.3-1.9c0-0.2-2.2-2.8-3.1-5.6
			c-0.8-2.6,0.6-7.8,3.4-8.8C151.5,54.3,150.3,54.4,149.3,54.9z"/>
		<path class="st10" d="M185.3,64.3c-3.3,1.5-5.5,1.5-7.3,6.5c-2.4,6.7,3,11.4,3.3,12.2c0.7,1.3-3.3,2.4-5.3,0.4
			c-1.9-1.7-4-6.9-3.9-10.6c0.1-4.6,2.5-8.3,8.4-12.4c0,0,2.4-0.7,4.3,1.3C186.4,63.4,185.3,64.3,185.3,64.3z"/>
		<path class="st10" d="M186.8,65.2c-1.1,0.7-3.7,3.3-4.2,4.3c-0.4,1,1.3,2.9,2.2,3.3c1.1,0.6,2.4-0.1,3.5-2.3
			C189.6,68,187.9,64.5,186.8,65.2z"/>
		<path class="st17" d="M150.6,67.1c1.3,0.1,3.3,1.7,3.5,2.1c0.2,0.3,2.3,0.7,2.1,1.3c-0.2,0.7-2.2-0.1-2.3,0.8
			c-0.1,0.7,2,3.3,1.1,3.5c-0.9,0.2-2.1-2.4-2.5-2.2c-0.4,0.2,1,3.3,0.3,3.5c-0.8,0.3-1.8-2.8-2.2-2.9c-0.4,0,0.4,2.3-0.3,2.4
			c-0.8,0.1-1-3.2-1.5-3.7C146.8,69.9,149.3,67,150.6,67.1z"/>
		<path class="st17" d="M185.2,68.1c-1.3,0.1-3.3,1.7-3.5,2.1c-0.2,0.3-2.3,0.7-2.1,1.3s2.2-0.1,2.3,0.8c0.1,0.7-2,3.3-1.1,3.5
			c0.9,0.2,2.1-2.4,2.5-2.2c0.4,0.2-1,3.3-0.3,3.5c0.8,0.3,1.8-2.8,2.2-2.9c0.4,0-0.4,2.3,0.3,2.4s1-3.2,1.5-3.7
			C189,70.8,186.5,67.8,185.2,68.1z"/>
		<rect x="161.2" y="85.2" class="st18" width="0.2" height="1.3"/>
		<rect x="161.2" y="88.3" class="st18" width="0.2" height="1.3"/>
		<rect x="161.2" y="91.3" class="st18" width="0.2" height="1.3"/>
		<rect x="161.2" y="94.4" class="st18" width="0.2" height="1.3"/>
		<rect x="161.2" y="96.9" class="st18" width="0.2" height="1.3"/>
		<rect x="161.2" y="99.7" class="st18" width="0.2" height="1.3"/>
		<rect x="166.8" y="85.2" class="st18" width="0.2" height="1.3"/>
		<rect x="166.8" y="88.3" class="st18" width="0.2" height="1.3"/>
		<rect x="166.8" y="91.3" class="st18" width="0.2" height="1.3"/>
		<rect x="166.8" y="94.4" class="st18" width="0.2" height="1.3"/>
		<rect x="166.8" y="96.9" class="st18" width="0.2" height="1.3"/>
		<rect x="166.8" y="99.7" class="st18" width="0.2" height="1.3"/>
		<path class="st19" d="M173.7,22.6c0.9,0,9,6.6,9,7.8s-3.5,0.7-3.6,1.5c0,0.4,1,1.5,1.2,2.3c0.4,1.3,0.4,1.9,0,2.6
			c-0.4,0.8-2.1-0.9-2.1-0.9S172.8,22.6,173.7,22.6z"/>
		<g>
			<g>
				<g>
					<g>
						<g>
							<g>
								<g>
									<defs>
										<path id="SVGID_19_" d="M173.7,22.6c0.9,0,9,6.6,9,7.8s-3.5,0.7-3.6,1.5c0,0.4,1,1.5,1.2,2.3c0.4,1.3,0.4,1.9,0,2.6
											c-0.4,0.8-2.1-0.9-2.1-0.9S172.8,22.6,173.7,22.6z"/>
									</defs>
									<clipPath id="SVGID_20_">
										<use xlink:href="#SVGID_19_"  style="overflow:visible;"/>
									</clipPath>
									<path class="st20" d="M171.2,16.7c0.9,0,9.9,8.7,9,7.8c-1.9-2.1-5.5,2.2-2.9,8.7c0.3,0.9-1.7-3-1.7-3
										S170.3,16.7,171.2,16.7z"/>
								</g>
							</g>
						</g>
					</g>
				</g>
			</g>
		</g>
		<path class="st19" d="M173.9,19c0,0,4.4,3.4,5,4.7s-8,3.1-8,3.1l-3.9-5.7L173.9,19z"/>
		<path class="st19" d="M157,44.8c0,0-2.2,5.1-3.4,5.9c-1.2,0.9-4.8-7-4.8-7l4.6-5.1L157,44.8z"/>
		<path class="st17" d="M161.3,50.6v3.2c1.5,1.2,3.3,1.3,5.3,0.8l0.2-5.3L161.3,50.6z"/>
		<g>
			<g>
				<defs>
					<path id="SVGID_21_" d="M161.3,50.6v3.2c1.5,1.2,3.3,1.3,5.3,0.8l0.2-5.3L161.3,50.6z"/>
				</defs>
				<clipPath id="SVGID_22_">
					<use xlink:href="#SVGID_21_"  style="overflow:visible;"/>
				</clipPath>
				<g class="st21">
					<g>
						<g>
							<path class="st22" d="M157.3,51.1v3.2c1.5,1.2,3.3,1.3,5.3,0.8l0.2-5.3L157.3,51.1z"/>
						</g>
					</g>
				</g>
			</g>
		</g>
		<path class="st17" d="M171.9,19.3c0,0,4.8,13.2,7.9,18.9c3.1,5.7-0.1,9.9-7.9,13.3c-7.9,3.5-17.4-2.5-19.8-2.9s-3-0.8-4.2-1.3
			c-1.4-0.7-4.1-5.4-4.1-5.4l2.1-3.5c0.4-8.3,5.3-13.9,11.9-18.7L171.9,19.3z"/>
		<g>
			<g>
				<defs>
					<path id="SVGID_23_" d="M171.9,19.3c0,0,4.8,13.2,7.9,18.9c3.1,5.7-0.1,9.9-7.9,13.3c-7.9,3.5-17.4-2.5-19.8-2.9
						s-3-0.8-4.2-1.3c-1.4-0.7-4.1-5.4-4.1-5.4l2.1-3.5c0.4-8.3,5.3-13.9,11.9-18.7L171.9,19.3z"/>
				</defs>
				<clipPath id="SVGID_24_">
					<use xlink:href="#SVGID_23_"  style="overflow:visible;"/>
				</clipPath>
				<g class="st23">
					<g>
						<g>
							<path class="st22" d="M151.9,40.1c0,0-2.1,5,7,9.2c9.1,4.3,19.2,5.1,19.2,5.1h-7.5l-24.1-3.3l-12.7-8.5l8.6-3.6L151.9,40.1z"
								/>
						</g>
					</g>
				</g>
			</g>
		</g>
		<g>
			<g>
				<path class="st24" d="M148.1,42.6c0.8-0.2,1.2,0,1.8,0.2s1.4,2.2,1.2,2.4c-0.2,0.2-1-1.9-2.2-2c-1.2-0.1-1.8,0.6-2.2,0.4
					C146.2,43.6,147.3,42.9,148.1,42.6z"/>
			</g>
		</g>
		<path class="st19" d="M144.2,26.6c0,0,2.1-8.5,4.2-9.1c2.1-0.7,1.1,1.5,2.3,1.8c0.8,0.1,4.6-3.1,7.9-4.7c1.8-0.9,3.6-1.1,4.4-0.9
			c2.2,0.7-0.1,2.3,1,2.2c1.2-0.1,16.5,2,16.3,4c-0.1,1-3.9,1.4-5.8,1.9c-0.8,0.2-1.3,0.3-1.3,0.6c0.1,0.8,1.3,2.9,1,3.7
			c-0.3,1-10.1-3-11.1-2.4c-0.2,0.1,2.5,1.5,2.2,2.4c-0.8,1.9-13,1.9-13.3,2.3c-0.2,0.2,0.6,1,1.1,2.3c0.3,0.7,2.2,3.3,1.8,4.5
			c-0.6,1.3-3.4,1.2-3.6,1.8c-0.4,1.1,2.4,4.2,1.8,5.3c-0.8,1.1-4.7-1.8-6.5,0.2c-1.8,2,1.3,3.6,0.1,4.2c-2,0.9-7.3-1.9-7.6-2.4
			c-1-1.4,2.9-10.9,2.9-10.9s-2.4-1-2-2.1C140.3,30,144.2,26.6,144.2,26.6z"/>
		<g>
			<g>
				<defs>
					<path id="SVGID_25_" d="M144.2,26.6c0,0,2.1-8.5,4.2-9.1c2.1-0.7,1.1,1.5,2.3,1.8c0.8,0.1,4.6-3.1,7.9-4.7
						c1.8-0.9,3.6-1.1,4.4-0.9c2.2,0.7-0.1,2.3,1,2.2c1.2-0.1,16.5,2,16.3,4c-0.1,1-3.9,1.4-5.8,1.9c-0.8,0.2-1.3,0.3-1.3,0.6
						c0.1,0.8,1.3,2.9,1,3.7c-0.3,1-10.1-3-11.1-2.4c-0.2,0.1,2.5,1.5,2.2,2.4c-0.8,1.9-13,1.9-13.3,2.3c-0.2,0.2,0.6,1,1.1,2.3
						c0.3,0.7,2.2,3.3,1.8,4.5c-0.6,1.3-3.4,1.2-3.6,1.8c-0.4,1.1,2.4,4.2,1.8,5.3c-0.8,1.1-4.7-1.8-6.5,0.2c-1.8,2,1.3,3.6,0.1,4.2
						c-2,0.9-7.3-1.9-7.6-2.4c-1-1.4,2.9-10.9,2.9-10.9s-2.4-1-2-2.1C140.3,30,144.2,26.6,144.2,26.6z"/>
				</defs>
				<clipPath id="SVGID_26_">
					<use xlink:href="#SVGID_25_"  style="overflow:visible;"/>
				</clipPath>
				<g class="st25">
					<g>
						<g>
							<path class="st26" d="M143.9,18.3c0,0-0.1,12.4,1.1,17.1c1.2,4.6,9.7,11.3,9.7,11.3l-13.1,4.2l-6.9-12.7l6.4-10L143.9,18.3z"
								/>
						</g>
					</g>
				</g>
			</g>
		</g>
		<g>
			<g>
				<g>
					<g>
						
							<ellipse transform="matrix(0.9976 -6.947905e-02 6.947905e-02 0.9976 -2.1231 11.2552)" class="st22" cx="160.7" cy="36.1" rx="3.6" ry="1"/>
					</g>
				</g>
			</g>
		</g>
		
			<rect x="161.5" y="28.2" transform="matrix(0.9486 -0.3165 0.3165 0.9486 -0.5343 53.2482)" class="st27" width="4.3" height="0.1"/>
		<rect x="173.7" y="27" transform="matrix(0.5623 -0.8269 0.8269 0.5623 52.18 156.3248)" class="st27" width="0.1" height="3.7"/>
		
			<rect x="174.2" y="30.4" transform="matrix(0.1293 -0.9916 0.9916 0.1293 120.2185 200.4978)" class="st28" width="0.2" height="2.9"/>
		
			<rect x="174.1" y="30.6" transform="matrix(0.1293 -0.9916 0.9916 0.1293 119.9585 200.6839)" class="st28" width="0.2" height="2.9"/>
		
			<rect x="174.2" y="30.1" transform="matrix(0.1293 -0.9916 0.9916 0.1293 120.4786 200.3115)" class="st28" width="0.2" height="2.9"/>
		
			<rect x="161.6" y="31.4" transform="matrix(0.9934 -0.1147 0.1147 0.9934 -2.5386 18.9274)" class="st28" width="3.2" height="0.2"/>
		
			<rect x="161.6" y="32" transform="matrix(0.9934 -0.1147 0.1147 0.9934 -2.6017 18.9319)" class="st28" width="3.2" height="0.2"/>
		
			<rect x="161.6" y="31.7" transform="matrix(0.9934 -0.1147 0.1147 0.9934 -2.5764 18.9307)" class="st28" width="3.2" height="0.2"/>
		<path class="st27" d="M173.3,34.7h-0.1c0-0.7-0.1-1.1-0.3-1.2c-0.3-0.2-1,0.2-1.7,0.6c-0.2,0.1-0.4,0.2-0.6,0.3l-0.1-0.1
			c0.2-0.1,0.3-0.2,0.6-0.3c0.7-0.4,1.3-0.8,1.8-0.6C173.2,33.5,173.3,33.9,173.3,34.7z"/>
		<g>
			<g>
				<ellipse class="st29" cx="177.8" cy="36.5" rx="2.4" ry="1"/>
			</g>
		</g>
		<path class="st24" d="M163.8,37.8c0.3-0.2,1.3,1.1,3.1,2.2c0.3,0.1,0.6,0.3,0.9,0.4c1.2,0.6,3,0.6,4.3,0.6c0.7,0,1.2-0.6,1.4-0.1
			c0.2,0.4-0.2,0-2.3,1c-1.5,0.7-1.7,3-3.3,3.1C163.5,45.3,163.3,38.1,163.8,37.8z"/>
		<path class="st2" d="M167.8,40.4c0,0,0,1-0.2,1.2s-3.1-0.6-3.3-0.9s0.3-2.4,0.3-2.4C165.7,39.2,166.8,40,167.8,40.4z"/>
		<g>
			<polygon class="st30" points="185.2,49.1 184.7,49.7 185.2,50.1 186.2,49.7 			"/>
			<polygon class="st30" points="184.7,49.7 185.2,49.1 184.7,48.3 184.3,49.1 			"/>
			<polygon class="st30" points="184.7,49.7 184.3,49.1 183.4,49.7 184.3,50.1 			"/>
			<polygon class="st30" points="184.7,49.7 184.3,50.1 184.7,51 185.2,50.1 			"/>
		</g>
	</g>
</g>
</svg>
