<?xml version="1.0" encoding="utf-8"?>
<!-- Generator: Adobe Illustrator 22.0.1, SVG Export Plug-In . SVG Version: 6.00 Build 0)  -->
<svg version="1.1" id="_1" xmlns="http://www.w3.org/2000/svg" xmlns:xlink="http://www.w3.org/1999/xlink" x="0px" y="0px"
	 viewBox="0 0 1000 1000" style="enable-background:new 0 0 1000 1000;" xml:space="preserve">
<style type="text/css">
	.st0{fill:#F6FFEC;}
	.st1{clip-path:url(#SVGID_2_);}
	.st2{clip-path:url(#SVGID_4_);}
	.st3{fill:#CCE8D2;}
	.st4{clip-path:url(#SVGID_6_);}
	.st5{fill:#00E592;}
	.st6{clip-path:url(#SVGID_8_);}
	.st7{opacity:0.2;stroke:#000002;stroke-width:0.5;enable-background:new    ;}
	.st8{opacity:0.2;fill:#FFFFFF;enable-background:new    ;}
	.st9{fill:none;stroke:#30323C;stroke-width:4;}
	.st10{clip-path:url(#SVGID_10_);}
	.st11{clip-path:url(#SVGID_12_);}
	.st12{clip-path:url(#SVGID_14_);}
	.st13{clip-path:url(#SVGID_16_);}
	.st14{clip-path:url(#SVGID_18_);}
	.st15{clip-path:url(#SVGID_20_);}
	.st16{fill:#FFFFFF;}
	.st17{clip-path:url(#SVGID_22_);}
	.st18{opacity:0.2;fill:url(#path-1-6_1_);enable-background:new    ;}
	.st19{opacity:0.2;enable-background:new    ;}
	.st20{fill:#30323C;}
	.st21{fill:#F5E4B9;}
	.st22{fill:none;stroke:#30323C;stroke-width:3;stroke-miterlimit:10;}
	.st23{clip-path:url(#SVGID_24_);}
	.st24{clip-path:url(#SVGID_26_);}
	.st25{clip-path:url(#SVGID_28_);}
	.st26{clip-path:url(#SVGID_30_);}
	.st27{fill:none;stroke:#30323C;stroke-width:5;stroke-linecap:round;stroke-linejoin:round;stroke-miterlimit:10;}
	.st28{fill:#D66B6B;}
	.st29{fill:#FFFFFF;stroke:#30323C;stroke-width:4;stroke-linecap:round;stroke-linejoin:round;stroke-miterlimit:10;}
	.st30{fill:none;stroke:#30323C;stroke-width:4;stroke-linecap:round;stroke-linejoin:round;stroke-miterlimit:10;}
	.st31{fill:none;stroke:#30323C;stroke-width:16;stroke-linecap:round;stroke-linejoin:round;stroke-miterlimit:10;}
	.st32{fill:#494949;}
</style>
<title>long02</title>
<g id="tailFur">
	<g id="tail-mainColor">
		<g id="tail-mainColor02">
			<path id="_tail02_-clip-5" class="st0" d="M652.2,738.6c0,0,26.3,9.2,30.7,13.1c5.3,4.7-5.4,23.9-5.4,23.9l13.8,14.3
				c0,0,31.3-2.9,35.8,0.2s4.7,21.5,4.7,21.5s12.7,6.6,17.6,5.3s14-15.5,20.7-15.8s16.5,12.7,20.2,13s33.6-5.8,34.2-2.5
				s-31.1,30.7-100.1,33.7s-108.3-27-108.3-27l5.3-89.7l23.9-2.9l0,0L652.2,738.6z"/>
			<g>
				<g>
					<g>
						<g>
							<defs>
								<path id="SVGID_1_" d="M652.2,738.6c0,0,26.3,9.2,30.7,13.1c5.3,4.7-5.4,23.9-5.4,23.9l13.8,14.3c0,0,31.3-2.9,35.8,0.2
									s4.7,21.5,4.7,21.5s12.7,6.6,17.6,5.3s14-15.5,20.7-15.8s16.5,12.7,20.2,13s33.6-5.8,34.2-2.5s-31.1,30.7-100.1,33.7
									s-108.3-27-108.3-27l5.3-89.7l23.9-2.9l0,0L652.2,738.6z"/>
							</defs>
							<clipPath id="SVGID_2_">
								<use xlink:href="#SVGID_1_"  style="overflow:visible;"/>
							</clipPath>
							<g class="st1">
								<rect id="rectangles" x="593.3" y="641.7" class="st0" width="292.9" height="292.9"/>
							</g>
						</g>
					</g>
				</g>
			</g>
		</g>
	</g>
	<g id="tailFur02">
		<g id="color2">
			<g>
				<g>
					<g>
						<g>
							<defs>
								<path id="SVGID_3_" d="M630.5,687.1c4.9,17.1,11.6,33.6,20,49.3c3.8,7.3,29.4,8.4,34.6,15.8c4,5.8-10.6,20.4-5.7,25.9
									c3.2,3.6,6.6,6.9,10.3,10c5.5,4.9,31.1-2,37.4,1.8c3.9,2.3,4.9,9.2,4.3,14.7c-0.5,4.6-2.9,8.2,0.9,9.4
									c4.6,1.4,12.4,4.8,17,2.7c8-3.7,13.3-15,23.2-16c5.9-0.6,14,15.3,20.4,13.8c121.9-28.7-139.3,106.5-206.6-35.3
									S630.5,687.1,630.5,687.1z"/>
							</defs>
							<clipPath id="SVGID_4_">
								<use xlink:href="#SVGID_3_"  style="overflow:visible;"/>
							</clipPath>
							<g class="st2">
								<path id="path-3" class="st3" d="M919.9,714.6c-64.1,14.1-24.5-38.6-90.5,32s-108.3,70.7-66,93.3s103.3,66.9,137.4,12.2
									s51-58.4,35-98L919.9,714.6z"/>
								<path id="path-2" class="st3" d="M590.5,667.3c92.3,42.9,110.2,8.1,122.5,49.5s-21.4,21.7-36.8,61.2
									c-20,51.5-44,32.2-69.7-18.8c-9.8-19.3-18.6-39.2-26.3-59.5L590.5,667.3z"/>
							</g>
						</g>
					</g>
				</g>
			</g>
		</g>
		<g id="color1">
			<g id="layer01">
				<g>
					<g>
						<g>
							<g>
								<defs>
									<path id="SVGID_5_" d="M630.5,687.1c4.9,17.1,11.6,33.6,20,49.3c3.8,7.3,29.4,8.4,34.6,15.8c4,5.8-10.6,20.4-5.7,25.9
										c3.2,3.6,6.6,6.9,10.3,10c5.5,4.9,31.1-2,37.4,1.8c3.9,2.3,4.9,9.2,4.3,14.7c-0.5,4.6-2.9,8.2,0.9,9.4
										c4.6,1.4,12.4,4.8,17,2.7c8-3.7,13.3-15,23.2-16c5.9-0.6,14,15.3,20.4,13.8c121.9-28.7-139.3,106.5-206.6-35.3
										S630.5,687.1,630.5,687.1z"/>
								</defs>
								<clipPath id="SVGID_6_">
									<use xlink:href="#SVGID_5_"  style="overflow:visible;"/>
								</clipPath>
								<g class="st4">
									<path id="path-0" class="st5" d="M579.3,848.4c97-9.4,113.1-34.9,125.3-26.5s19.8,54.7,18.8,74.5s73.5,26.4-6.6,34.9
										s-82.9,34.8-103.7,9.5S579.3,848.4,579.3,848.4z"/>
								</g>
							</g>
						</g>
					</g>
				</g>
			</g>
		</g>
		<g id="tailShadow02">
			<g>
				<g>
					<g>
						<g>
							<defs>
								<path id="SVGID_7_" d="M630.5,687.1c4.9,17.1,11.6,33.6,20,49.3c3.8,7.3,29.4,8.4,34.6,15.8c4,5.8-10.6,20.4-5.7,25.9
									c3.2,3.6,6.6,6.9,10.3,10c5.5,4.9,31.1-2,37.4,1.8c3.9,2.3,4.9,9.2,4.3,14.7c-0.5,4.6-2.9,8.2,0.9,9.4
									c4.6,1.4,12.4,4.8,17,2.7c8-3.7,13.3-15,23.2-16c5.9-0.6,14,15.3,20.4,13.8c121.9-28.7-139.3,106.5-206.6-35.3
									S630.5,687.1,630.5,687.1z"/>
							</defs>
							<clipPath id="SVGID_8_">
								<use xlink:href="#SVGID_7_"  style="overflow:visible;"/>
							</clipPath>
							<g class="st6">
								<path id="path-1" class="st7" d="M810.1,865.4c-115.8,16-172.6-56.6-184.5-75.8s-12.3-14.9-12.3-14.9L583,790.9l14.9,36
									l96.3,56.9l67.8,7.8L810.1,865.4z"/>
								<path id="path-0-2" class="st8" d="M843.6,803.8c0,0,63.9-4.5,28.8,4.9c-140.8,37.7-174.5,4.1-183.5-1
									c-17.9-10.3-44.6-51.2-44.6-51.2l23.3-28.9l31.5,10.2l103.7,51.8l38.3,14.6L843.6,803.8z"/>
							</g>
						</g>
					</g>
				</g>
			</g>
		</g>
	</g>
</g>
<g id="tail">
	<g id="tail02">
		<g id="layer">
			<g id="path-3-2">
				<path id="path-0-3" class="st9" d="M790,815.2c1.6-0.3-13.4-16.5-20-14.3s-21.7,13.2-19.9,16.3c5.7,0.6,9.8,1.6,21.2,0.6
					C777.7,817.4,783.9,816.6,790,815.2z"/>
			</g>
			<g id="path-2-2">
				<path id="path-0-4" class="st9" d="M731.8,811.4c0.6-1.5,1.8-19-4.7-21.5s-17.5-2.9-34-1.1c5.3,5.2,11.1,9.8,17.4,13.8
					C720,808.4,731.5,812.2,731.8,811.4z"/>
			</g>
			<g id="path-1-2">
				<path id="path-0-5" class="st9" d="M677.6,775.6c1.2-1.1,11-20.1,6.1-25.2s-15.8-6.3-31.5-11.8
					C652.2,738.6,676.4,776.7,677.6,775.6z"/>
			</g>
			<path id="path-0-6" class="st9" d="M630.5,687.1c0,0,40.6,156.2,162.4,127.5S653.6,921,586.2,779.2S630.5,687.1,630.5,687.1z"/>
		</g>
	</g>
</g>
<g id="wingsFur">
	<g id="wingsFur02">
		<g id="wingsColor02-left">
			<path id="_wings02-left_-clip-2" class="st5" d="M341.2,645.3c0,0-21.9-8.5-38.5-19.6c-15.7-10.5-19.1-28.5-23.7-24.8
				c-9.4,7.5-20.3,25.2-27.7,31.7c-7.4,6.5-21.5,23.2-21.9,38.6c-0.3,14.4,3.8,36.2,8.2,32.4c4.4-3.8,9.3-25.3,25.8-25
				s32.2,11.2,32.2,11.2s18.7-27.2,32.8-18.8C340.7,678.3,341.2,645.3,341.2,645.3z"/>
			<g>
				<g>
					<g>
						<g>
							<defs>
								<path id="SVGID_9_" d="M341.2,645.3c0,0-21.9-8.5-38.5-19.6c-15.7-10.5-19.1-28.5-23.7-24.8c-9.4,7.5-20.3,25.2-27.7,31.7
									c-7.4,6.5-21.5,23.2-21.9,38.6c-0.3,14.4,3.8,36.2,8.2,32.4c4.4-3.8,9.3-25.3,25.8-25s32.2,11.2,32.2,11.2
									s18.7-27.2,32.8-18.8C340.7,678.3,341.2,645.3,341.2,645.3z"/>
							</defs>
							<clipPath id="SVGID_10_">
								<use xlink:href="#SVGID_9_"  style="overflow:visible;"/>
							</clipPath>
							<g class="st10">
								<g id="wingsColor02-left02">
									<rect x="2.4" y="477.9" class="st5" width="426.9" height="332.3"/>
								</g>
							</g>
						</g>
					</g>
				</g>
			</g>
		</g>
		<g id="wingsColor02-right">
			<path id="_wings02-right_-clip-2" class="st5" d="M636.5,645.3c0,0,21.9-8.5,38.5-19.6c15.7-10.5,19.1-28.5,23.7-24.8
				c9.4,7.5,20.3,25.2,27.7,31.7s21.5,23.2,21.9,38.6c0.3,14.4-3.8,36.2-8.2,32.4s-9.3-25.3-25.8-25s-32.2,11.2-32.2,11.2
				s-18.7-27.2-32.8-18.8C637.1,678.3,636.5,645.3,636.5,645.3z"/>
			<g>
				<g>
					<g>
						<g>
							<defs>
								<path id="SVGID_11_" d="M636.5,645.3c0,0,21.9-8.5,38.5-19.6c15.7-10.5,19.1-28.5,23.7-24.8c9.4,7.5,20.3,25.2,27.7,31.7
									s21.5,23.2,21.9,38.6c0.3,14.4-3.8,36.2-8.2,32.4s-9.3-25.3-25.8-25s-32.2,11.2-32.2,11.2s-18.7-27.2-32.8-18.8
									C637.1,678.3,636.5,645.3,636.5,645.3z"/>
							</defs>
							<clipPath id="SVGID_12_">
								<use xlink:href="#SVGID_11_"  style="overflow:visible;"/>
							</clipPath>
							<g class="st11">
								<g id="wingsColor02-right02">
									<rect x="560.1" y="488.1" class="st5" width="421.7" height="328.3"/>
								</g>
							</g>
						</g>
					</g>
				</g>
			</g>
		</g>
	</g>
</g>
<g id="wings">
	<g id="wings02">
		<g id="layer-2">
			<path id="path-1-3" class="st9" d="M342,645.3c0,0-47.3-22.4-51.4-32.6c-9.3-23.1-12.2-11.6-22.8,2.8s-26.6,23.6-35.3,42
				c-9.3,19.8,0.2,45,4,48.9s-0.4-30.1,15.1-46.8c18.7-20.3,35.9-16.6,34.7-6.8c-3.1,25.2,5.9,36.5,8.6,39.4s1.8-36.2,12.4-43.2
				c9.6-6.4,32.2,4.3,32.2,4.3L342,645.3z"/>
			<path id="path-0-7" class="st9" d="M342,645.3l5.4,5.4c0,0,8.8,35.1-14,22.2s-35.3,19.2-38.4,19.2c-1.7,0-18.3-16.2-34.5-12.6
				s-20.8,24.8-23.9,26.9"/>
		</g>
		<g id="layer-1">
			<path id="path-1-4" class="st9" d="M635.8,645.3c0,0,47.3-22.5,51.4-32.6c9.3-23.1,12.2-11.6,22.8,2.8s26.6,23.7,35.3,42
				c9.3,19.8-0.2,45-4,48.9s0.4-30.1-15.1-46.8c-18.7-20.3-35.9-16.6-34.7-6.8c3.2,25.3-5.9,36.5-8.6,39.4s-1.8-36.2-12.3-43.2
				c-9.6-6.4-32.2,4.3-32.2,4.3L635.8,645.3z"/>
			<path id="path-0-8" class="st9" d="M635.8,645.3l-5.4,5.5c0,0-8.8,35.1,14,22.1s35.2,19.2,38.3,19.2c1.7,0,18.3-16.2,34.5-12.6
				s20.8,24.8,23.9,26.9"/>
		</g>
	</g>
</g>
<g id="bodyFur">
	<g id="bodyFur-2">
		<g id="body-mainColor">
			<g id="body-mainColor02">
				<g id="clipping_Path">
					<path id="_body02_-clip-6" class="st0" d="M337.1,577.6c-28.7,37.6-37.6,105.8-36.1,157.6c1.5,48,45.7,106.7,92.4,118
						c3.3,8.4,4.2,10,11.5,15.5s22.1,4.5,30,0c10-5.7,16.4-14.6,17-26.1c0.6-12.3-9.7-25.9-11-28.7c-0.3-0.6,16.6,11.3,41.8,13.3
						c24.1,1.9,56.3-6.1,59.5-8.9c-3.3,15.3-14,18-9.6,32.5c4,13.3,25.4,28.6,45.1,24.8s21.7-21.4,22.5-22.4
						c15-17.7,56.1-37.1,69.9-106.8c13.5-68.6-11.8-164.9-20.8-172.5s-142.5,32.6-183.1,28c-29.4-3.3-58.9-4.8-88.5-4.5
						C367,597.4,337.1,577.6,337.1,577.6z"/>
					<g>
						<g>
							<g>
								<g>
									<defs>
										<path id="SVGID_13_" d="M337.1,577.6c-28.7,37.6-37.6,105.8-36.1,157.6c1.5,48,45.7,106.7,92.4,118
											c3.3,8.4,4.2,10,11.5,15.5s22.1,4.5,30,0c10-5.7,16.4-14.6,17-26.1c0.6-12.3-9.7-25.9-11-28.7
											c-0.3-0.6,16.6,11.3,41.8,13.3c24.1,1.9,56.3-6.1,59.5-8.9c-3.3,15.3-14,18-9.6,32.5c4,13.3,25.4,28.6,45.1,24.8
											s21.7-21.4,22.5-22.4c15-17.7,56.1-37.1,69.9-106.8c13.5-68.6-11.8-164.9-20.8-172.5s-142.5,32.6-183.1,28
											c-29.4-3.3-58.9-4.8-88.5-4.5C367,597.4,337.1,577.6,337.1,577.6z"/>
									</defs>
									<clipPath id="SVGID_14_">
										<use xlink:href="#SVGID_13_"  style="overflow:visible;"/>
									</clipPath>
									<g class="st12">
										<rect id="rectangles-2" x="280.2" y="478.4" class="st0" width="474.3" height="474.3"/>
									</g>
								</g>
							</g>
						</g>
					</g>
				</g>
			</g>
		</g>
		<g id="bodyFur02">
			<g id="color2-2">
				<g id="color2-3">
					<g>
						<g>
							<g>
								<g>
									<defs>
										<path id="SVGID_15_" d="M337.1,577.6c-28.7,37.6-37.6,105.8-36.1,157.6c1.5,48,45.7,106.7,92.4,118
											c3.3,8.4,4.2,10,11.5,15.5s22.1,4.5,30,0c10-5.7,16.4-14.6,17-26.1c0.6-12.3-9.7-25.9-11-28.7
											c-0.3-0.6,16.6,11.3,41.8,13.3c24.1,1.9,56.3-6.1,59.5-8.9c-3.3,15.3-14,18-9.6,32.5c4,13.3,25.4,28.6,45.1,24.8
											s21.7-21.4,22.5-22.4c15-17.7,56.1-37.1,69.9-106.8c13.5-68.6-11.8-164.9-20.8-172.5s-142.5,32.6-183.1,28
											c-29.4-3.3-58.9-4.8-88.5-4.5C367,597.4,337.1,577.6,337.1,577.6z"/>
									</defs>
									<clipPath id="SVGID_16_">
										<use xlink:href="#SVGID_15_"  style="overflow:visible;"/>
									</clipPath>
									<g class="st13">
										<rect id="path-2-3" x="225.4" y="549" class="st0" width="647.9" height="557.2"/>
									</g>
								</g>
							</g>
						</g>
					</g>
				</g>
			</g>
			<g id="color1-2">
				<g>
					<g>
						<g>
							<g>
								<defs>
									<path id="SVGID_17_" d="M337.1,577.6c-28.7,37.6-37.6,105.8-36.1,157.6c1.5,48,45.7,106.7,92.4,118
										c3.3,8.4,4.2,10,11.5,15.5s22.1,4.5,30,0c10-5.7,16.4-14.6,17-26.1c0.6-12.3-9.7-25.9-11-28.7
										c-0.3-0.6,16.6,11.3,41.8,13.3c24.1,1.9,56.3-6.1,59.5-8.9c-3.3,15.3-14,18-9.6,32.5c4,13.3,25.4,28.6,45.1,24.8
										s21.7-21.4,22.5-22.4c15-17.7,56.1-37.1,69.9-106.8c13.5-68.6-11.8-164.9-20.8-172.5s-142.5,32.6-183.1,28
										c-29.4-3.3-58.9-4.8-88.5-4.5C367,597.4,337.1,577.6,337.1,577.6z"/>
								</defs>
								<clipPath id="SVGID_18_">
									<use xlink:href="#SVGID_17_"  style="overflow:visible;"/>
								</clipPath>
								<g class="st14">
									<path id="path-3-3" class="st5" d="M313.4,562c23.9-5.4,79.7,16,58.2,69.1c-21.5,53.1,9.6,78,8.9,114.5
										s-54.3,86.8-108.5,5.9S289.5,567.5,313.4,562z"/>
									<path id="path-2-4" class="st5" d="M671.3,571c-24-5.4-79.7,16-58.2,69.1s-9.6,78-8.9,114.5s54.3,86.8,108.5,5.9
										S695.2,576.5,671.3,571z"/>
									<path id="path-1-5" class="st5" d="M360.2,876.4c42.4-63.8,79-47,103-13c13.4,19,88,61,41,99s-96,9-116-3
										S328.2,924.4,360.2,876.4z"/>
								</g>
							</g>
						</g>
					</g>
				</g>
			</g>
		</g>
	</g>
	<g id="paunchFur">
		<g id="paunchFur02">
			<g>
				<g>
					<g>
						<g>
							<defs>
								<path id="SVGID_19_" d="M337.1,577.6c-28.7,37.6-37.6,105.8-36.1,157.6c1.5,48,45.7,106.7,92.4,118
									c3.3,8.4,4.2,10,11.5,15.5s22.1,4.5,30,0c10-5.7,16.4-14.6,17-26.1c0.6-12.3-9.7-25.9-11-28.7c-0.3-0.6,16.6,11.3,41.8,13.3
									c24.1,1.9,56.3-6.1,59.5-8.9c-3.3,15.3-14,18-9.6,32.5c4,13.3,25.4,28.6,45.1,24.8s21.7-21.4,22.5-22.4
									c15-17.7,56.1-37.1,69.9-106.8c13.5-68.6-11.8-164.9-20.8-172.5s-142.5,32.6-183.1,28c-29.4-3.3-58.9-4.8-88.5-4.5
									C367,597.4,337.1,577.6,337.1,577.6z"/>
							</defs>
							<clipPath id="SVGID_20_">
								<use xlink:href="#SVGID_19_"  style="overflow:visible;"/>
							</clipPath>
							<g class="st15">
								<path id="color3" class="st16" d="M569.2,762.9c0,33.7-35.6,61-79.4,61s-79.5-27.3-79.5-61c0-6.8-7.3-52,14.4-76.2
									c12.7-14.1,34.1,19.3,65.3,19.6c32,0.3,54.3-32.6,68.4-15C576.1,713.4,569.2,753.4,569.2,762.9z"/>
							</g>
						</g>
					</g>
				</g>
			</g>
		</g>
	</g>
	<g id="bodyShadow">
		<g id="bodyShadow02">
			<g id="bodyShadow-2">
				<g>
					<g>
						<g>
							<g>
								<defs>
									<path id="SVGID_21_" d="M337.1,577.6c-28.7,37.6-37.6,105.8-36.1,157.6c1.5,48,45.7,106.7,92.4,118
										c3.3,8.4,4.2,10,11.5,15.5s22.1,4.5,30,0c10-5.7,16.4-14.6,17-26.1c0.6-12.3-9.7-25.9-11-28.7
										c-0.3-0.6,16.6,11.3,41.8,13.3c24.1,1.9,56.3-6.1,59.5-8.9c-3.3,15.3-14,18-9.6,32.5c4,13.3,25.4,28.6,45.1,24.8
										s21.7-21.4,22.5-22.4c15-17.7,56.1-37.1,69.9-106.8c13.5-68.6-11.8-164.9-20.8-172.5s-142.5,32.6-183.1,28
										c-29.4-3.3-58.9-4.8-88.5-4.5C367,597.4,337.1,577.6,337.1,577.6z"/>
								</defs>
								<clipPath id="SVGID_22_">
									<use xlink:href="#SVGID_21_"  style="overflow:visible;"/>
								</clipPath>
								<g class="st17">
									
										<linearGradient id="path-1-6_1_" gradientUnits="userSpaceOnUse" x1="445.8254" y1="784.7081" x2="298.9843" y2="1057.2344" gradientTransform="matrix(1 0 0 -1 -17.12 1659.86)">
										<stop  offset="0" style="stop-color:#232323"/>
										<stop  offset="0.32" style="stop-color:#1E1E1E"/>
										<stop  offset="0.68" style="stop-color:#111111"/>
										<stop  offset="0.98" style="stop-color:#000000"/>
									</linearGradient>
									<path id="path-1-6" class="st18" d="M344.8,575.6c-0.8,19.8,30.5-11,19.4,20.3s-26.6,92.5-22.3,150.5s21.7,75.8,34.7,81.4
										c15.2,6.5,18.9,15,24.6,19c2.7,1.9,11.4,12.1,23.4,10.5s24.8-10.1,26.8-30.3c1.2-11.8,12.8,23.8,9,28.3
										c-5.7,6.6-54.3,35.6-71.3,29.6s-18-1.1-38-29.6s-48.3-13.7-52-53.7c-1.2-13.5-22.2-24.1-21.5-35.7c1.5-23,10-46.9,3-73
										C251.4,583.7,344.8,575.6,344.8,575.6z"/>
									<path id="path-0-9" class="st19" d="M419.6,790.4c-9.6-15.4,4.4,2.5,33.9,12c26.4,8.5,66.7,9,88.7-6.9
										c46.5-33.6-15,31.7,11.3,60.5s40.4,6.1,40.4,6.1l-9,52.6l-94.4-85.5c0,0-18.9,3.1-39.5-7.8
										C439.9,815.4,425.3,799.7,419.6,790.4z"/>
									<path id="path-0-10" class="st8" d="M590.3,542c25.7,45.9,87.1,172.6,44.8,250.5s-15.8,83.3-15.8,83.3l52.7-17.7
										l30.5-185.8l-69.2-110.7L590.3,542z"/>
								</g>
							</g>
						</g>
					</g>
				</g>
			</g>
		</g>
	</g>
</g>
<g id="body">
	<g id="body02">
		<g id="path-3-4">
			<path class="st20" d="M335.1,576.4c-12.6,16.7-20.3,36.8-25.6,56.9c-5.9,22.3-9,45.3-10.3,68.3c-1.1,20.7-1.8,41.7,4.6,61.7
				c6.5,20.3,17.8,39,31.9,54.8c15.2,17,34.6,31.6,57.1,37.3l-1.5-1.6c3.5,8.8,8.8,16.7,18.5,19.6c10.5,2.9,21.8,0.9,30.6-5.7
				c8.7-6.5,14.6-17,13.8-28.1c-0.8-10.3-6.8-18.1-11.2-27v2.3l-2.5,1c-0.8-0.2,0.8,0.5,1.1,0.7c1.1,0.7,2.3,1.3,3.5,1.9
				c3.7,1.9,7.4,3.6,11.3,5c11.1,4.1,22.8,6.2,34.7,6.2c11.4-0.1,22.8-1.4,34-3.8c5.9-1.2,14-2.2,18.9-6l-3.8-2.2
				c-1.8,7.5-6.6,12.9-9.4,19.9c-2.3,5.9-1.4,12.4,1.5,17.9c6.7,13,22.4,21.9,36.7,22.9c12.9,0.9,25.4-5.2,30.9-17.2
				c1.2-2.6,1.8-5.9,3.2-7.7c2.5-2.8,5.2-5.4,8.1-7.8c17.1-15.1,33.2-30.3,44.3-50.6c16.1-29.5,21.3-63.5,20.9-96.8
				c-0.5-31.3-4.7-62.4-12.5-92.7c-2.4-9.3-5-18.8-9.1-27.6c-2-4.3-4-7.1-8.9-7.4c-6.6-0.4-13.6,1-20.1,2.1c-10.5,1.8-21,4-31.5,6.3
				c-25.7,5.5-51.3,11.3-77.2,15.9c-11.2,2.1-22.6,3.6-34,4.6c-12.9,0.9-25.5-1-38.4-2.1c-11.1-0.9-22.3-1.6-33.4-2
				c-11.2-0.4-22.6,0.3-33.8-0.4c-5.5-0.3-11-3.3-15.9-5.7c-5.5-2.8-10.8-5.8-16-9c-2.5-1.5-4.9-3-7.4-4.7s-4.7,2.3-2.3,3.9
				c7.2,4.8,14.7,9.2,22.3,13.1c4.7,2.4,9.6,4.8,14.7,6.2c7.7,2,16.6,0.7,24.5,0.8c21.3,0.3,42.6,1.6,63.9,3.9c9.1,1,18.3,1,27.3,0
				c46.3-4.7,91.2-18.2,137-26.2c6.3-1.1,13.1-2.6,19.5-2.2c1.8,0.1,2.5,0.2,3.1,0.9c1.7,1.9,2.7,4.8,3.7,7.1
				c9.3,22.9,13.6,48.6,16.7,72.9c4.1,32.4,5.2,66.1-2.6,98c-6.6,27.4-19.8,52-39.9,71.9c-6.5,6.4-13.5,12.2-20.2,18.2
				c-2.5,2.2-5.5,4.6-7.4,7.4c-1.4,2-1.7,4.7-2.6,6.9c-6.2,14.4-22.8,18-36.8,13.3c-13.2-4.5-31.6-19.2-23.3-34.9
				c3.2-6,6.8-11.2,8.5-18c0.6-2.4-2.1-3.5-3.8-2.2s-4.7,1.8-6.7,2.4c-4.2,1.2-8.5,2.2-12.8,3c-10.9,2.2-22.1,3.3-33.2,3.1
				c-11.3-0.3-22.4-2.6-32.8-6.9c-4.5-1.8-8.9-5.3-13.5-6.6c-1-0.3-2,0.1-2.5,1c-1.3,2.7,3.1,7.4,4.3,9.6c3.7,6.6,7,14,6.2,21.7
				c-1.6,16-16.6,26.7-32,26.1c-6.8-0.2-13.2-3.3-17.5-8.5c-1.7-2.3-3.1-4.8-4-7.5c-1.3-3.2-2.6-3-5.9-4
				c-13.4-4-25.6-11.5-36.2-20.4c-22.2-18.7-39.9-44.7-47.5-72.8c-3.6-13.5-3.7-27.1-3.4-41c0.3-15.3,1.5-30.6,3.6-45.8
				c4.5-31.7,12.7-65.3,32.3-91.3C340.8,576.4,336.9,574.2,335.1,576.4z"/>
		</g>
		<g id="path-2-5">
			<path class="st20" d="M543.5,820.4c4.1-3.9,8.3-7.6,11.6-12.3c1.7-2.4-2.2-4.6-3.9-2.3c-3,4.3-7.1,7.7-10.9,11.3
				C538.3,819.3,541.5,822.4,543.5,820.4L543.5,820.4z"/>
		</g>
		<g id="path-1-7">
			<path class="st20" d="M428.7,801.7c1.6,3.2,3.6,6.2,5.9,9c1.4,1.8,3.1,4,5.2,5.1c2.6,1.3,4.9-2.6,2.3-3.9
				c-1.7-0.9-3.1-2.9-4.3-4.4c-2-2.5-3.7-5.2-5.1-8.1C431.3,796.8,427.5,799.1,428.7,801.7L428.7,801.7z"/>
		</g>
		<g id="path-0_">
			<g id="path-0-3-2">
				<path class="st20" d="M325.4,632.4c-7.6,18.1-6.3,40-4.7,59.2c1.3,16.8,4,33.3,6.7,49.9c0.7,4,0.2,7.7-0.1,11.8
					c-0.9,9.9,0,22.2,3.7,31.4c5,12.2,16.3,16.3,28.6,17c5.6,0.3,11.5,0.4,16.8-1.7c5-2,8.1-5.9,10.8-10.4
					c4.1-6.8,4.4-13.4,4.4-21.2c0-9.1-0.6-18.3-1.7-27.4c-2.2-19.1-5.9-37.9-8.7-56.9c-0.4-2.9-4.8-1.6-4.3,1.2
					c4.5,30,12.5,61,10,91.5c-0.5,5.8-3.7,12.8-8.3,16.7c-4.9,4.2-12.3,3.9-18.3,3.7c-7.2-0.3-13.9-1.1-19.4-6.1
					c-5.3-4.8-6.9-10.9-8-17.8c-1.3-7.7-1.6-15.6-0.8-23.4c0.3-3.4,0.2-6.8-0.5-10.1c-2.5-15-4.9-30-6.2-45.1
					c-1.8-19.7-3.5-42.4,4.3-61.1C330.8,630.9,326.5,629.9,325.4,632.4L325.4,632.4z"/>
			</g>
			<g id="path-0-2-2">
				<path class="st20" d="M641.6,638.1c7,16.8,6.1,36.7,4.7,54.4c-1.2,15.6-3.7,31-6.4,46.3c-1.7,9.7,0.5,19.2-0.7,29
					c-0.7,6.1-1.3,13-4.7,18.4c-4,6.6-10.5,9.9-18,10.7c-5.4,0.6-11.3,1-16.6-0.1c-6.8-1.4-10.5-6.2-13.5-12.2
					c-3.4-6.7-2.3-15.4-2.1-22.7c0.3-8.2,1-16.4,2-24.6c2.2-17.3,5.5-34.5,8.1-51.8c0.4-2.8-3.9-4-4.3-1.2
					c-2.4,16.3-5.5,32.5-7.7,48.8c-1,7.7-1.9,15.4-2.3,23.1s-1.1,16.2,0.1,24c1.6,10.3,9.8,19.7,20.2,21.3c11,1.7,24.7,0.8,33.2-7.1
					s9.9-20.5,10.6-31.7c0.3-5.9-1.2-11.8-0.8-17.6c0.3-4.5,1.6-9.5,2.3-14c1.5-8.9,2.8-17.8,3.8-26.8c2.5-21.6,4.9-46.9-3.7-67.5
					C644.8,634.3,640.5,635.4,641.6,638.1L641.6,638.1z"/>
			</g>
		</g>
	</g>
</g>
<g id="paw">
	<g id="paw01">
		<g id="layer-2-2">
			<g id="claw-4">
				<g id="path-2-6">
					<path class="st21" d="M375.2,264.9c14-4.8,47-8.9,46.6-16.3c-0.1-2.5-43.9-41.4-58.6-44.5S361.2,269.7,375.2,264.9z"/>
				</g>
				<g id="path-1-8">
					<path class="st21" d="M329.2,356.6c-1.4-14.8,2.6-47.8-4.7-49.1c-2.4-0.4-50.6,32.8-57.2,46.3S330.6,371.4,329.2,356.6z"/>
				</g>
				<g id="path-0-11">
					<path class="st21" d="M305.1,417.8c-0.1-14.8,6.5-47.4-0.6-49.3c-2.4-0.6-53.1,28.5-60.8,41.4
						C236,422.8,305.3,432.6,305.1,417.8z"/>
				</g>
			</g>
			<g id="claw-3">
				<g id="path-2-7">
					<path class="st21" d="M593.8,267.6c-14-4.8-47-8.9-46.6-16.3c0.1-2.5,43.9-41.4,58.6-44.5S607.8,272.5,593.8,267.6z"/>
				</g>
				<g id="path-1-9">
					<path class="st21" d="M641.5,359.4c1.4-14.8-2.6-47.8,4.7-49.1c2.4-0.4,50.6,32.8,57.2,46.3S640.2,374.1,641.5,359.4z"/>
				</g>
				<g id="path-0-12">
					<path class="st21" d="M663.5,420.6c0.1-14.8-6.5-47.4,0.6-49.3c2.4-0.6,53.1,28.5,60.8,41.4S663.4,435.4,663.5,420.6z"/>
				</g>
			</g>
			<g id="claw-2">
				<path id="path-2-8" class="st21" d="M579.8,875.4c-1.5,6.1-10.5,15.6-13.3,17s-8.3-19.7-6-17.5
					C563,877.2,579.8,875.4,579.8,875.4z"/>
				<path id="path-1-10" class="st21" d="M531.7,851.7c-4.2,4.7-7.3,17.1-7,20.1s20.1-5.1,17.2-5.7
					C538.8,865.4,531.7,851.7,531.7,851.7z"/>
				<path id="path-0-13" class="st21" d="M543.3,867.9c-2.8,1.6-2.9,18.2,1.3,19.2c6,1.4,16.8-14.1,14-13
					C555.7,875.3,543.3,867.9,543.3,867.9z"/>
				<g id="claw">
					<path class="st21" d="M401.3,867.9c0.1,6.3,6.6,17.6,9,19.7s12.7-17.2,9.9-15.7C417.2,873.4,401.3,867.9,401.3,867.9z"/>
					<path class="st21" d="M450.4,855.3c3.4,5.3,4.5,18,3.7,21s-19-8.3-16.1-8.3C441.2,867.9,450.4,855.3,450.4,855.3z"/>
					<path class="st21" d="M437.6,868.4c2.5,2-0.1,18.4-4.4,18.7c-6.1,0.4-14.3-16.6-11.8-15.1C424.2,873.7,437.6,868.4,437.6,868.4
						z"/>
				</g>
			</g>
			<g id="claw-1">
				<path id="path-2-9" class="st21" d="M586.6,793.9c-1,6.2,3.7,18.5,5.7,20.9s15.3-14.9,12.3-13.8
					C601.4,802.1,586.6,793.9,586.6,793.9z"/>
				<path id="path-1-11" class="st21" d="M636.4,788.1c2.4,5.8,1.4,18.5,0.2,21.3s-17.4-11.2-14.4-10.8S636.4,788.1,636.4,788.1z"/>
				<path id="path-0-14" class="st21" d="M622.1,798.9c2.1,2.4-3.1,18.2-7.4,17.8c-6.1-0.6-11.4-18.7-9.1-16.8
					C608,801.9,622.1,798.9,622.1,798.9z"/>
			</g>
			<g id="claw-0">
				<path id="path-2-10" class="st21" d="M337.2,791.9c-1,6.2,3.6,18.5,5.7,20.9s15.3-14.9,12.3-13.8
					C352,800.1,337.2,791.9,337.2,791.9z"/>
				<path id="path-1-12" class="st21" d="M387.7,787.4c2.4,5.8,1.4,18.5,0.2,21.3s-17.4-11.3-14.5-10.9
					C376.6,798.3,387.7,787.4,387.7,787.4z"/>
				<path id="path-0-15" class="st21" d="M372.5,798.9c2.1,2.4-3.1,18.2-7.4,17.8c-6.1-0.6-11.4-18.7-9.1-16.8
					C358.4,801.9,372.5,798.9,372.5,798.9z"/>
			</g>
		</g>
	</g>
	<g id="jiao01">
		<g id="layer-3">
			<path id="path-17" class="st22" d="M401.3,867.9c0.1,6.3,6.6,17.6,9,19.7s12.7-17.2,9.9-15.7
				C417.2,873.4,401.3,867.9,401.3,867.9z"/>
			<path id="path-16" class="st22" d="M450.4,855.3c3.4,5.3,4.5,18,3.7,21s-19-8.3-16.1-8.3C441.2,867.9,450.4,855.3,450.4,855.3z"
				/>
			<path id="path-15" class="st22" d="M437.6,868.4c2.5,2-0.1,18.4-4.4,18.7c-6.1,0.4-14.3-16.6-11.8-15.1
				C424.2,873.7,437.6,868.4,437.6,868.4z"/>
			<g id="path-14">
				<path class="st20" d="M375.8,267c9.5-3.2,19.6-4.8,29.3-7.3c5.2-1.4,16.7-3.2,18.7-9.4c1.2-3.8-3.8-7.2-6.1-9.5
					c-6.4-6-13-11.7-19.9-17.2c-7.1-5.8-14.5-11.2-22.2-16.1c-3.9-2.4-10.6-7.2-15.5-5.3c-4.3,1.7-5.1,7.5-5.5,11.4
					c-0.7,7.3,0.3,14.9,1.7,22.1C357.7,243.3,363,270.8,375.8,267c2.8-0.8,1.6-5.2-1.2-4.3c-3.5,1-6.3-4.8-7.5-7.2
					c-2.6-5.5-4.5-11.3-5.8-17.3c-1.5-6.5-2.4-13.1-2.5-19.7c0-2.7-0.5-10.1,2.4-11.9c2.9-1.8,9.6,3.3,12,4.8
					c6.5,4.1,12.7,8.5,18.6,13.3c6.1,4.8,12.1,9.9,17.9,15.1c2,1.8,4,3.6,5.9,5.5c1,1,3.3,2.6,3.8,4c0.1,0.3,0.3-0.3-0.5,0.3
					c-1.1,0.9-2.4,1.6-3.7,2.2c-4.1,1.7-8.3,3-12.6,4c-9.3,2.4-19,3.9-28.1,7C371.9,263.6,373,268,375.8,267z"/>
			</g>
			<g id="path-13">
				<path class="st20" d="M331.5,356.6c-0.9-10.2,0-20.5-0.1-30.8c-0.1-5.2,0.8-16.8-4.9-20c-3.5-2-8.4,2.4-11.1,4.2
					c-7.3,4.7-14.3,9.8-21.2,15.1c-7.4,5.5-14.5,11.5-21.2,18c-3.1,3.1-9.2,8.5-8.1,13.5c0.9,4.5,6.5,6.6,10.3,7.9
					c6.9,2.3,14.4,3.1,21.7,3.5C304.4,368.4,332.1,369.7,331.5,356.6c-0.1-2.9-4.6-3-4.5-0.1c0.2,3.6-5.7,4.9-8.4,5.5
					c-6.1,1.3-12.4,1.8-18.6,1.6c-6.4-0.1-12.8-0.8-19-2.1c-2.9-0.7-10.1-1.9-11.5-5.1s4.7-8.1,6.6-10.1
					c5.4-5.3,11.1-10.3,17.1-14.9c6.2-4.9,12.5-9.5,19-14c2.5-1.7,5-3.4,7.5-4.9c1.3-0.8,3.3-2.6,4.8-2.8c0.5-0.1-0.4-0.5,0.1,0.5
					c0.6,1.3,1.1,2.7,1.3,4.1c0.7,4.4,1,8.8,0.8,13.2c0.1,9.6-0.7,19.3,0.1,29C327.2,359.5,331.7,359.5,331.5,356.6z"/>
			</g>
			<g id="path-12">
				<path class="st20" d="M307.4,417.8c0-10.3,1.7-20.5,2.4-30.7c0.4-5.2,2.1-16.4-3.1-20c-3.3-2.4-8.4,1.5-11.3,3.1
					c-7.8,4.1-15.4,8.7-22.8,13.5c-7.7,4.8-15.2,10.2-22.2,16c-3.4,2.9-9.9,7.7-9.5,12.8c0.4,4.7,5.7,7.3,9.5,8.9
					c6.8,2.9,14.1,4.3,21.4,5.3C279.5,427.6,306.9,431.2,307.4,417.8c0.1-2.9-4.4-2.9-4.5,0c-0.1,3.5-6.6,4.3-9.1,4.7
					c-6.2,0.7-12.4,0.7-18.5-0.1c-6.4-0.6-12.8-1.9-18.9-3.8c-2.6-0.9-10.1-2.8-10.9-6.2c-0.7-3.1,5.8-7.7,7.7-9.4
					c6.1-5.1,12.6-9.7,19.3-14c6.4-4.2,12.9-8.2,19.6-12c2.5-1.4,5-2.8,7.5-4.1c1.3-0.7,3.3-2.2,4.7-2.2c0.3,0-0.1-0.5,0.3,0.7
					c0.5,1.5,0.8,3,0.9,4.5c0.3,4.3,0.2,8.6-0.3,12.9c-0.7,9.6-2.3,19.2-2.3,28.9C302.9,420.7,307.4,420.7,307.4,417.8z"/>
			</g>
			<g id="path-11">
				<path class="st20" d="M594.4,265.5c-8-2.7-16.3-4.2-24.5-6.1c-6.3-1.5-14.8-2.7-19.9-7c-0.9-0.8-0.7,0.1-0.5-0.3s1-1.1,1.3-1.5
					c1.7-1.8,3.4-3.4,5.2-5.1c5.1-4.8,10.4-9.3,15.8-13.7c6.4-5.3,12.9-10.3,19.8-14.9c2.6-1.7,5.2-3.4,7.9-4.8
					c1.7-0.9,4.9-3.1,6.9-2.9c6.9,0.7,3,22.5,2.3,26.4c-1.1,7.1-3.1,14.1-5.9,20.8C601.7,258.9,598.5,266.7,594.4,265.5
					c-2.8-0.8-4,3.6-1.2,4.4c11.2,3.3,16.5-18.4,18.3-25.4c1.9-7.4,3-15.1,3.2-22.8c0.1-4.7,0.1-11.5-3.5-15.2s-8.7-1.1-12.5,0.8
					c-7.8,4-14.9,9.4-21.8,14.7c-7.3,5.6-14.3,11.5-21.2,17.6c-3,2.7-8.7,6.5-10.3,10.5c-2.7,6.7,10.1,9.9,14.1,11.1
					c11.1,3.2,22.8,4.8,33.8,8.5C596,270.7,597.1,266.4,594.4,265.5z"/>
			</g>
			<g id="path-10">
				<path class="st20" d="M643.8,359.4c0.7-8.4,0.2-16.9,0.1-25.3c0-4.1,0-8.2,0.3-12.2c0.2-2.6,0.2-7,2.1-9.1
					c0.5-0.6-0.8-0.3-0.1-0.2c0.6,0.2,1.2,0.5,1.8,0.9c2.2,1.3,4.4,2.7,6.5,4.1c6,4,11.9,8.2,17.7,12.5c6.6,4.9,13,10.2,19.1,15.8
					c2.2,2.1,4.4,4.2,6.4,6.4c1.1,1.3,3.9,4,4,5.8c0.1,3-5.7,4.5-7.8,5.2c-6,1.7-12.2,2.7-18.4,3c-7,0.6-14.1,0.2-21-0.9
					C651.5,364.8,643.7,363.6,643.8,359.4c0.2-2.9-4.3-2.9-4.4,0C638.8,371,661,371,668.2,371c7.7,0.1,15.4-0.7,22.9-2.3
					c4.6-1,10.8-2.5,13.8-6.6s-0.2-8.5-3-11.8c-5.6-6.7-12.6-12.4-19.3-17.8c-7.3-5.8-14.8-11.4-22.5-16.6c-3.5-2.4-8.6-7.1-13-7.8
					c-7.1-1-7.3,12.3-7.4,16.4c-0.5,11.6,0.7,23.3-0.3,34.8C639,362.3,643.5,362.2,643.8,359.4z"/>
			</g>
			<g id="path-9">
				<path class="st20" d="M665.7,420.6c0-8.4-1.2-16.8-2-25.2c-0.5-6.2-2.4-15.4,0.4-21.3c0.5-1-0.5-0.5,0.2-0.4
					c0.6,0.1,1.1,0.4,1.6,0.7c2.2,1,4.3,2.2,6.5,3.3c6.5,3.5,12.8,7.3,19,11.2c6.5,4.1,13,8.4,19.2,13.2c2.8,2.1,5.5,4.4,8,6.8
					c1.3,1.3,4.3,3.5,4.6,5.4c0.5,3-4.9,5-6.9,5.9c-5.6,2.2-11.5,3.7-17.5,4.5c-7.1,1.2-14.3,1.5-21.4,1
					C674.4,425.3,665.8,424.7,665.7,420.6c-0.2-2.9-4.7-2.9-4.6,0c0.4,11.7,22.1,10,29.4,9.4c7.8-0.5,15.4-1.9,22.9-4.2
					c4.5-1.4,10.8-3.5,13.4-7.9s-1.2-8.4-4.2-11.5c-6-6.1-13.3-11.1-20.4-15.9c-7.7-5.2-15.6-10.1-23.8-14.7
					c-3.7-2.1-9.3-6.5-13.8-6.8c-7.1-0.4-6.2,12.7-6,16.8c0.4,11.6,2.6,23.1,2.6,34.7C661.2,423.5,665.7,423.5,665.7,420.6z"/>
			</g>
			<path id="path-8" class="st22" d="M579.8,875.4c-1.5,6.1-10.5,15.6-13.3,17s-8.3-19.7-6-17.5C563,877.2,579.8,875.4,579.8,875.4z
				"/>
			<path id="path-7" class="st22" d="M531.7,851.7c-4.2,4.7-7.3,17.1-7,20.1s20.1-5.1,17.2-5.7C538.8,865.4,531.7,851.7,531.7,851.7
				z"/>
			<path id="path-6" class="st22" d="M543.3,867.9c-2.8,1.6-2.9,18.2,1.3,19.2c6,1.4,16.8-14.1,14-13
				C555.7,875.3,543.3,867.9,543.3,867.9z"/>
			<path id="path-5" class="st22" d="M586.6,793.9c-1,6.2,3.7,18.5,5.7,20.9s15.3-14.9,12.3-13.8
				C601.4,802.1,586.6,793.9,586.6,793.9z"/>
			<path id="path-4" class="st22" d="M636.4,788.1c2.4,5.8,1.4,18.5,0.2,21.3s-17.4-11.2-14.4-10.8S636.4,788.1,636.4,788.1z"/>
			<path id="path-3-5" class="st22" d="M622.1,798.9c2.1,2.4-3.1,18.2-7.4,17.8c-6.1-0.6-11.4-18.7-9.1-16.8
				C608,801.9,622.1,798.9,622.1,798.9z"/>
			<path id="path-2-11" class="st22" d="M337.2,791.9c-1,6.2,3.6,18.5,5.7,20.9s15.3-14.9,12.3-13.8
				C352,800.1,337.2,791.9,337.2,791.9z"/>
			<path id="path-1-13" class="st22" d="M387.7,787.4c2.4,5.8,1.4,18.5,0.2,21.3s-17.4-11.3-14.5-10.9
				C376.6,798.3,387.7,787.4,387.7,787.4z"/>
			<path id="path-0-16" class="st22" d="M372.5,798.9c2.1,2.4-3.1,18.2-7.4,17.8c-6.1-0.6-11.4-18.7-9.1-16.8
				C358.4,801.9,372.5,798.9,372.5,798.9z"/>
		</g>
	</g>
</g>
<g id="head">
	<g id="headFur">
		<g id="head-mainColor">
			<g id="head-mainColor02">
				<path id="_head02_-clip-5" class="st0" d="M368.2,261.9c-31.3-11.5-96-17.1-98.9-10s17.2,50.5,38.6,63.9
					c-1.8,2.8-24.8,56.9-33,116.6s-1.6,124.9,13.4,141.2c32.3,35.3,110.5,59.7,123.5,62.6c14,3.1,24.6,2.9,30.8,3.8
					s39.3,34.1,93,3.2c0,0,77.2-14.9,109.6-37.3c32.2-22.2,40.8-31.4,51.2-53.8c5.5-11.8,6.7-76.6-3.1-134.8
					c-8.9-52.6-28.6-99.6-28.6-99.6c9.6-8.7,18.4-18.2,26.3-28.5c14-18,15.9-34,12.3-36.9s-24.2-4.1-48.3-1.1
					c-23.1,2.8-46,12.6-48,12.8c-2,0.2-53.6-15.5-112.7-18S367.2,259.9,368.2,261.9z"/>
				<g>
					<g>
						<g>
							<g>
								<defs>
									<path id="SVGID_23_" d="M368.2,261.9c-31.3-11.5-96-17.1-98.9-10s17.2,50.5,38.6,63.9c-1.8,2.8-24.8,56.9-33,116.6
										s-1.6,124.9,13.4,141.2c32.3,35.3,110.5,59.7,123.5,62.6c14,3.1,24.6,2.9,30.8,3.8s39.3,34.1,93,3.2
										c0,0,77.2-14.9,109.6-37.3c32.2-22.2,40.8-31.4,51.2-53.8c5.5-11.8,6.7-76.6-3.1-134.8c-8.9-52.6-28.6-99.6-28.6-99.6
										c9.6-8.7,18.4-18.2,26.3-28.5c14-18,15.9-34,12.3-36.9s-24.2-4.1-48.3-1.1c-23.1,2.8-46,12.6-48,12.8
										c-2,0.2-53.6-15.5-112.7-18S367.2,259.9,368.2,261.9z"/>
								</defs>
								<clipPath id="SVGID_24_">
									<use xlink:href="#SVGID_23_"  style="overflow:visible;"/>
								</clipPath>
								<g class="st23">
									<rect id="rectangles-3" x="260.4" y="181.1" class="st0" width="450.3" height="480"/>
								</g>
							</g>
						</g>
					</g>
				</g>
			</g>
		</g>
		<g id="headFur02">
			<g id="color2-4">
				<g id="color2-5">
					<g>
						<g>
							<g>
								<g>
									<defs>
										<path id="SVGID_25_" d="M368.2,261.9c-31.3-11.5-96-17.1-98.9-10s17.2,50.5,38.6,63.9c-1.8,2.8-24.8,56.9-33,116.6
											s-1.6,124.9,13.4,141.2c32.3,35.3,110.5,59.7,123.5,62.6c14,3.1,24.6,2.9,30.8,3.8s39.3,34.1,93,3.2
											c0,0,77.2-14.9,109.6-37.3c32.2-22.2,40.8-31.4,51.2-53.8c5.5-11.8,6.7-76.6-3.1-134.8c-8.9-52.6-28.6-99.6-28.6-99.6
											c9.6-8.7,18.4-18.2,26.3-28.5c14-18,15.9-34,12.3-36.9s-24.2-4.1-48.3-1.1c-23.1,2.8-46,12.6-48,12.8
											c-2,0.2-53.6-15.5-112.7-18S367.2,259.9,368.2,261.9z"/>
									</defs>
									<clipPath id="SVGID_26_">
										<use xlink:href="#SVGID_25_"  style="overflow:visible;"/>
									</clipPath>
									<g class="st24">
										<path id="path-1-14" class="st3" d="M415.6,262.6c30.3,43.8,24.1,117.9-16,182.8S290.3,559.5,208.2,563.9
											S95.8,465.7,104.4,404.6s51.9-201.9,117.4-206.2S385.4,218.7,415.6,262.6z"/>
									</g>
								</g>
							</g>
						</g>
					</g>
				</g>
			</g>
			<g id="color1-3">
				<g>
					<g>
						<g>
							<g>
								<defs>
									<path id="SVGID_27_" d="M368.2,261.9c-31.3-11.5-96-17.1-98.9-10s17.2,50.5,38.6,63.9c-1.8,2.8-24.8,56.9-33,116.6
										s-1.6,124.9,13.4,141.2c32.3,35.3,110.5,59.7,123.5,62.6c14,3.1,24.6,2.9,30.8,3.8s39.3,34.1,93,3.2
										c0,0,77.2-14.9,109.6-37.3c32.2-22.2,40.8-31.4,51.2-53.8c5.5-11.8,6.7-76.6-3.1-134.8c-8.9-52.6-28.6-99.6-28.6-99.6
										c9.6-8.7,18.4-18.2,26.3-28.5c14-18,15.9-34,12.3-36.9s-24.2-4.1-48.3-1.1c-23.1,2.8-46,12.6-48,12.8
										c-2,0.2-53.6-15.5-112.7-18S367.2,259.9,368.2,261.9z"/>
								</defs>
								<clipPath id="SVGID_28_">
									<use xlink:href="#SVGID_27_"  style="overflow:visible;"/>
								</clipPath>
								<g class="st25">
									<path id="path-1-15" class="st5" d="M487.1,262.6c-30.3,43.8-24.1,117.9,16.1,182.8s109.2,114.1,191.3,118.5
										s112.4-98.2,103.7-159.3s-51.9-201.9-117.3-206.2S517.3,218.7,487.1,262.6z"/>
								</g>
							</g>
						</g>
					</g>
				</g>
			</g>
		</g>
	</g>
	<g id="headShadow">
		<g id="headShadow02">
			<g id="headShadow-2">
				<g>
					<g>
						<g>
							<g>
								<defs>
									<path id="SVGID_29_" d="M368.2,261.9c-31.3-11.5-96-17.1-98.9-10s17.2,50.5,38.6,63.9c-1.8,2.8-24.8,56.9-33,116.6
										s-1.6,124.9,13.4,141.2c32.3,35.3,110.5,59.7,123.5,62.6c14,3.1,24.6,2.9,30.8,3.8s39.3,34.1,93,3.2
										c0,0,77.2-14.9,109.6-37.3c32.2-22.2,40.8-31.4,51.2-53.8c5.5-11.8,6.7-76.6-3.1-134.8c-8.9-52.6-28.6-99.6-28.6-99.6
										c9.6-8.7,18.4-18.2,26.3-28.5c14-18,15.9-34,12.3-36.9s-24.2-4.1-48.3-1.1c-23.1,2.8-46,12.6-48,12.8
										c-2,0.2-53.6-15.5-112.7-18S367.2,259.9,368.2,261.9z"/>
								</defs>
								<clipPath id="SVGID_30_">
									<use xlink:href="#SVGID_29_"  style="overflow:visible;"/>
								</clipPath>
								<g class="st26">
									<path id="path-0-17" class="st19" d="M296.5,238.8c-64.8,5.7,24.2,58.8,31.2,70.6c5,8.4-12.3,58.2-18.2,68.7
										c-12.5,22.6-43.2,128.9-6.7,182.3c46.6,68.3,158.9,91.4,158.9,91.4L345.2,624l-50.3-19.3l-45.7-79.3l-14.7-82.2l11-112.8
										c0,0,6.3-86.5,27.4-90S296.5,238.8,296.5,238.8z"/>
									<path id="path-0-18" class="st8" d="M712.9,229.5c-1.5-6.8-4.3,21.2-21,40.3c-18.2,20.9-29.7,28-39,45.3
										s51.8,195.9,15.4,249.3c-46.7,68.4-159,91.6-159,91.6l116.5-27.8l50.4-19.3l45.7-79.4l14.7-82.2l-11-112.8
										C725.6,334.5,715.6,242,712.9,229.5z"/>
								</g>
							</g>
						</g>
					</g>
				</g>
			</g>
		</g>
	</g>
	<g id="head02">
		<g id="layer-4">
			<path id="path-3-6" class="st27" d="M449.5,522.9c3.3-3.4,48.7-21.1,83.3,3.3"/>
			<g id="path-2-12">
				<path class="st20" d="M512.2,655.6c4.4-1.2,8.7-2.8,12.9-4.6c3.8-1.6,7.4-4.3,11.2-5.6c2.3-0.8,4.9-1,7.3-1.5
					c11.6-2.5,23.1-5.3,34.5-8.5c15.1-4,30-9.1,44.5-15c15.3-6.5,28.7-15.4,41.8-25.5c11.4-8.8,21.5-18.5,28.6-31.1
					c2.6-4.6,5.5-9.5,6.7-14.8c1.1-5.1,1.8-10.2,2.1-15.4c3.2-38.9,0-79.3-6.6-117.6c-5.7-33.8-15.3-66.9-28.5-98.6l-0.6,2.2
					c9.7-8.4,18.4-18.4,26.3-28.5c5.3-6.9,9.9-14.4,12.6-22.8c1.4-4.4,3-10.3,1.3-14.8c-1.4-3.6-5.1-4.4-8.6-4.9
					c-7.5-1.3-15.2-1.2-22.7-0.9c-19.7,0.7-39.2,4.4-57.8,10.8c-2.6,0.9-5.2,1.8-7.8,2.7c-0.7,0.3-1.5,0.6-2.3,0.8
					c-1.2,0.3,0,0.2-0.2,0.1c-2.9-0.1-6.1-1.4-8.8-2.1c-13.5-3.3-27-6.3-40.7-8.7c-39.5-7-79.2-9.2-119.1-5
					c-17.9,1.8-35.6,4.7-53.1,8.5c-4.9,1-9.7,2.2-14.5,3.7c-2.1,0.7-5.1,1.4-4.7,4.3l2.8-2.8c-13.8-5-28.3-7.8-42.8-9.9
					c-13.6-2-27.4-3.5-41.1-3.3c-4.8,0.1-16.3-0.8-18,5.5c-1,3.5,0.8,8.1,1.9,11.4c2.1,5.9,4.6,11.6,7.5,17.1
					c7.3,13.9,16.9,28.6,30.4,37.3l-0.8-3.1c-5.2,8.5-8.1,19.3-11.3,28.6c-7.3,20.9-13.2,42.2-17.7,63.8
					c-9,44.4-11.9,92.7-2.6,137.4c2.9,13.9,7.1,26.2,17.6,36c12.7,11.9,28,20.9,43.5,28.8c15.3,7.7,31.1,14.5,47.3,20.2
					c9.4,3.4,18.9,6.7,28.6,8.9c6.2,1.3,12.6,2.2,18.9,2.7c3.9,0.3,8.5,0,12.2,1.1c4.4,1.4,8.5,5,12.6,7.1
					C472.5,658.6,493,660.9,512.2,655.6c2.8-0.7,1.6-5.1-1.2-4.3c-17.7,4.9-36.6,3-53-5.4c-4.2-2.1-8-4.8-12.2-7
					c-4.7-2.4-10.6-1.8-15.8-2.3c-27.5-2.4-54.5-13.6-79.4-25c-15.9-7.2-31.5-15.4-45.5-25.8c-5.8-4.4-12.1-9.3-16.6-15.1
					c-3.8-5-5.9-11.4-7.6-17.4c-5.3-18.5-6.9-38.2-7.4-57.4c-0.7-24.1,0.9-48.3,4.7-72.1c4.2-24.8,10.3-49.2,18.4-73
					c2.7-7.8,5.5-15.6,8.5-23.3c1.4-3.4,2.6-7.3,4.5-10.4c0.6-1.1,0.2-2.4-0.8-3.1c-11.1-7.2-19.2-18.9-25.7-30.1
					c-3.2-5.4-6-11.1-8.4-16.9c-1.5-3.6-3.8-8.4-3.6-12.4c0.2-4.5,12.6-3.4,16.1-3.4c12.8,0.2,25.5,1.3,38.2,3.3
					c14.2,2.1,28.6,4.9,42.1,9.8c1.8,0.6,3-1.3,2.8-2.8c0.5,3.3-1.6,1.8,0.7,1.6c1.4-0.3,2.8-0.7,4.1-1.3c4.5-1.3,9.1-2.3,13.8-3.3
					c14.7-3.1,29.6-5.5,44.5-7.2c37.4-4.3,75.3-3.4,112.5,2.5c14.5,2.3,28.8,5.2,43,8.5c4.2,1,8.4,2,12.5,3.1
					c1.7,0.4,3.6,1.2,5.3,1.1c3.7-0.1,8-2.6,11.5-3.8c8-2.8,16.2-5.1,24.5-6.9c16.8-3.6,36.1-5.6,53.2-3c1.5,0.2,4.7,0.4,5.8,1.6
					c1.3,1.5,0.6,4.9,0.4,6.6c-1.3,8.8-6,17.1-11,24.3c-8.2,11.4-17.6,21.9-28.2,31.1c-0.6,0.6-0.8,1.4-0.6,2.2
					c26.5,63.2,37.8,133.2,35.7,201.5c-0.3,10.3,0.1,22.7-4.2,32.3c-5.5,12.4-13.6,23.4-23.8,32.3c-12.7,11.1-26.9,21.3-42.1,28.5
					c-13.7,6.4-28.3,11.3-42.7,15.6c-13.5,4-27.1,7.5-40.8,10.5c-2.9,0.7-6,1-8.9,1.9c-2.1,0.8-4.2,1.9-6.1,3.1
					c-5.8,3-12,5.4-18.3,7.3C508.3,652.1,509.5,656.4,512.2,655.6L512.2,655.6z"/>
			</g>
			<path id="path-1-16" class="st27" d="M515.2,592.5c10.8-21.2,23.8-14.9,28.7-10.8"/>
			<path id="path-0-19" class="st27" d="M457.9,590.5c-10.9-21.2-23.8-14.9-28.7-10.8"/>
		</g>
	</g>
</g>
<g id="eye">
	<g id="eye07">
		<g id="path-4-2">
			<path class="st20" d="M393.2,475.9c9.4,0,18.4-8.3,18-18s-7.9-18-18-18c-9.4,0-18.4,8.3-18,18S383.1,475.9,393.2,475.9z"/>
		</g>
		<g id="eyeColor07-left">
			<path class="st16" d="M393.2,466.9c11.6,0,11.6-18,0-18S381.6,466.9,393.2,466.9z"/>
		</g>
		<g id="path-2-13">
			<path class="st20" d="M583.2,479.9c9.4,0,18.4-8.3,18-18s-7.9-18-18-18c-9.4,0-18.4,8.3-18,18S573.1,479.9,583.2,479.9z"/>
		</g>
		<g id="eyeColor07-right">
			<path class="st16" d="M583.2,470.9c11.6,0,11.6-18,0-18S571.6,470.9,583.2,470.9z"/>
		</g>
	</g>
</g>
<g id="blush">
	<g id="blush07">
		<g id="path-3-7">
			<path class="st28" d="M669.5,529l20.2,41.7c1.1,2.3,4.5,0.3,3.4-2L673.3,528c-1.1-2.3-4.5-0.3-3.4,2l19.7,40.7l3.4-2L672.8,527
				C671.8,524.7,668.4,526.7,669.5,529L669.5,529z"/>
		</g>
		<g id="path-3-8">
			<path class="st28" d="M655.6,529l20.2,41.7l3.4-2L659.5,528c-1.1-2.3-4.5-0.3-3.4,2l19.7,40.7c1.1,2.3,4.5,0.3,3.4-2L659,527
				C657.9,524.7,654.5,526.7,655.6,529z"/>
		</g>
		<g id="path-3-9">
			<path class="st28" d="M643.2,529l20.2,41.7c1.1,2.3,4.5,0.3,3.4-2L647.1,528c-1.1-2.3-4.5-0.3-3.4,2l19.7,40.7l3.4-2L646.6,527
				C645.5,524.7,642.2,526.7,643.2,529z"/>
		</g>
		<g id="path-3-10">
			<path class="st28" d="M669.5,529l20.2,41.7c1.1,2.3,4.5,0.3,3.4-2L672.9,527C671.8,524.7,668.4,526.7,669.5,529L669.5,529z"/>
		</g>
		<g id="path-3-11">
			<path class="st28" d="M632.4,529l20.2,41.7l3.4-2L636.3,528c-1.1-2.3-4.5-0.3-3.4,2l19.7,40.7c1.1,2.3,4.5,0.3,3.4-2L635.8,527
				C634.7,524.8,631.3,526.7,632.4,529L632.4,529z"/>
		</g>
		<g id="path-3-12">
			<path class="st28" d="M620,529l20.2,41.7c1.1,2.3,4.5,0.3,3.4-2L623.9,528c-1.1-2.3-4.5-0.3-3.4,2l19.7,40.7l3.4-2L623.4,527
				C622.3,524.7,618.9,526.7,620,529L620,529z"/>
		</g>
		<g id="path-3-13">
			<path class="st28" d="M314.6,524l20.2,41.7l3.4-2L318.5,523c-1.1-2.3-4.5-0.3-3.4,2l19.7,40.7c1.1,2.3,4.5,0.3,3.4-2L318,522
				C316.8,519.7,313.5,521.7,314.6,524z"/>
		</g>
		<g id="path-3-14">
			<path class="st28" d="M302.2,524l20.2,41.7c1.1,2.3,4.5,0.3,3.4-2L306.1,523c-1.1-2.3-4.5-0.3-3.4,2l19.7,40.7l3.4-2L305.6,522
				C304.5,519.7,301.2,521.7,302.2,524L302.2,524z"/>
		</g>
		<g id="path-3-15">
			<path class="st28" d="M328.5,524l20.2,41.7c1.1,2.3,4.5,0.3,3.4-2L331.9,522C330.7,519.7,327.4,521.7,328.5,524z"/>
		</g>
		<g id="path-3-16">
			<path class="st28" d="M291.3,524l20.2,41.7l3.4-2L295.2,523c-1.1-2.3-4.5-0.3-3.4,2l19.7,40.7c1.1,2.3,4.5,0.3,3.4-2L294.7,522
				C293.7,519.7,290.3,521.7,291.3,524L291.3,524z"/>
		</g>
		<g id="path-3-17">
			<path class="st28" d="M279,524l20.2,41.7c1.1,2.3,4.5,0.3,3.4-2L282.9,523c-1.1-2.3-4.5-0.3-3.4,2l19.7,40.7l3.4-2L282.4,522
				C281.3,519.7,277.9,521.7,279,524L279,524z"/>
		</g>
	</g>
</g>
<g id="mouth">
	<g id="mouth07">
		<path id="path-2-14" class="st29" d="M425.8,631.1c-1.3-2.2,1.7-17.2,4.7-17.8s9.6,15.3,8.5,17
			C437.6,632.4,427.4,633.8,425.8,631.1z"/>
		<path id="path-1-17" class="st29" d="M535.8,633.6c-1.6-2.9,2.7-22.3,6.7-23s12,20.2,10.6,22.3
			C551.1,635.7,537.8,637.1,535.8,633.6z"/>
		<path id="path-0-20" class="st30" d="M381.8,591.2c-11,5.6,37.2,46.1,53.3,41.1c5.4-1.7,37.6-18.8,50.8-19.1
			c13.4-0.2,47.2,20.9,55,23c14.7,3.9,66.6-44.1,55.7-49"/>
	</g>
</g>
<path class="st31" d="M371.2,406.2c0,0,16.1,8,35.9-6.6"/>
<path class="st31" d="M601.1,406.2c0,0-16.1,8-35.9-6.6"/>
<circle class="st32" cx="409.2" cy="119.8" r="9.1"/>
<circle class="st32" cx="451.4" cy="119.8" r="9.1"/>
<circle class="st32" cx="489.2" cy="119.8" r="9.1"/>
<circle class="st32" cx="526.8" cy="119.8" r="9.1"/>
<circle class="st32" cx="564.4" cy="119.8" r="9.1"/>
<g>
	<path class="st32" d="M608.9,94.8h-12.3c-0.1-6,2-11,6.2-14.9c4.2-3.9,9.7-5.9,16.6-5.9c4.4,0,8.2,0.8,11.3,2.4
		c3.1,1.6,5.6,4,7.4,7c1.9,3.1,2.8,6.3,2.8,9.7c0,1.8-0.3,3.7-0.9,5.4c-0.6,1.8-1.5,3.6-2.8,5.5c-0.8,1.1-2.5,2.9-5.4,5.5
		c-2.7,2.5-4.4,4.2-5.1,5.2c-0.7,1-1.3,2.4-1.7,4.1c-0.5,1.7-0.8,4-0.9,7h-12.7l0-2.1c0-4.2,0.8-8,2.3-11.4c1.5-3.4,4-6.6,7.5-9.6
		c3.3-2.9,5.3-4.9,6-6c0.7-1.1,1-2.4,1-3.8c0-2-0.8-3.7-2.5-5.1c-1.7-1.4-3.9-2.1-6.7-2.1c-2.9,0-5.2,0.8-7.1,2.5
		C609.9,89.9,608.9,92.1,608.9,94.8z M617.8,131.3c2.3,0,4.2,0.8,5.8,2.3c1.6,1.6,2.4,3.5,2.4,5.7s-0.8,4.1-2.4,5.7
		c-1.6,1.6-3.5,2.4-5.8,2.4c-2.3,0-4.2-0.8-5.7-2.4c-1.6-1.6-2.4-3.5-2.4-5.7s0.8-4.1,2.3-5.7C613.7,132,615.6,131.3,617.8,131.3z"
		/>
</g>
</svg>
