<?xml version="1.0" encoding="utf-8"?>
<!-- Generator: Adobe Illustrator 22.0.1, SVG Export Plug-In . SVG Version: 6.00 Build 0)  -->
<svg version="1.1" id="图层_1" xmlns="http://www.w3.org/2000/svg" xmlns:xlink="http://www.w3.org/1999/xlink" x="0px" y="0px"
	 viewBox="0 0 20 20" style="enable-background:new 0 0 20 20;" xml:space="preserve">
<style type="text/css">
	.st0{opacity:0.3;}
	.st1{fill:#E3E3E3;}
	.st2{clip-path:url(#SVGID_16_);}
	.st3{display:none;}
	.st4{display:inline;}
	.st5{clip-path:url(#SVGID_18_);}
	.st6{fill:#B3CCCE;}
	.st7{clip-path:url(#SVGID_20_);}
	.st8{opacity:0.2;stroke:#000002;stroke-width:0.5;enable-background:new    ;}
	.st9{opacity:0.2;fill:#FFFFFF;enable-background:new    ;}
	.st10{clip-path:url(#SVGID_23_);}
	.st11{clip-path:url(#SVGID_25_);}
	.st12{clip-path:url(#SVGID_27_);}
	.st13{clip-path:url(#SVGID_29_);}
	.st14{fill:#373544;}
	.st15{clip-path:url(#SVGID_31_);}
	.st16{clip-path:url(#SVGID_33_);}
	.st17{fill:#FFEEDD;}
	.st18{clip-path:url(#SVGID_35_);}
	.st19{opacity:0.2;fill:url(#path-1-6_3_);enable-background:new    ;}
	.st20{opacity:0.2;enable-background:new    ;}
	.st21{fill:none;stroke:#000000;stroke-width:3;stroke-miterlimit:10;}
	.st22{clip-path:url(#SVGID_37_);}
	.st23{clip-path:url(#SVGID_39_);}
	.st24{clip-path:url(#SVGID_41_);}
	.st25{clip-path:url(#SVGID_43_);}
	.st26{opacity:0.6;}
	.st27{clip-path:url(#SVGID_45_);}
	.st28{clip-path:url(#SVGID_47_);}
	.st29{clip-path:url(#SVGID_49_);}
	.st30{clip-path:url(#SVGID_51_);}
	.st31{clip-path:url(#SVGID_53_);}
	.st32{clip-path:url(#SVGID_55_);}
	.st33{clip-path:url(#SVGID_57_);}
	.st34{clip-path:url(#SVGID_59_);}
	.st35{clip-path:url(#SVGID_61_);}
	.st36{clip-path:url(#SVGID_63_);}
	.st37{opacity:0.2;fill:url(#path-1-6_4_);enable-background:new    ;}
	.st38{clip-path:url(#SVGID_65_);}
	.st39{clip-path:url(#SVGID_67_);}
	.st40{clip-path:url(#SVGID_69_);}
	.st41{clip-path:url(#SVGID_71_);}
	.st42{clip-path:url(#SVGID_73_);}
	.st43{clip-path:url(#SVGID_75_);}
	.st44{clip-path:url(#SVGID_77_);}
	.st45{clip-path:url(#SVGID_79_);}
	.st46{fill:#AFAFAF;}
	.st47{clip-path:url(#SVGID_81_);}
	.st48{clip-path:url(#SVGID_83_);}
	.st49{clip-path:url(#SVGID_85_);}
	.st50{clip-path:url(#SVGID_87_);}
	.st51{clip-path:url(#SVGID_89_);}
	.st52{opacity:0.2;fill:url(#path-1-6_5_);enable-background:new    ;}
	.st53{clip-path:url(#SVGID_91_);}
</style>
<g class="st0">
	<g id="tailFur_2_">
		<g id="tail-mainColor_2_">
			<g id="tail-mainColor02_2_">
				<g>
					<g>
						<path id="SVGID_14_" class="st1" d="M14.6,13.1c0,0,0.5,0.1,0.6,0.2c0.1,0.1,0,0.4,0,0.4l0.3,0.2c0,0,0.6-0.1,0.6-0.1
							c0.1,0,0.1,0.4,0.1,0.4s0.2,0.1,0.3,0.1c0.1,0,0.2-0.3,0.3-0.3c0.1,0,0.3,0.2,0.4,0.2s0.6-0.2,0.6-0.1c0,0.1-0.5,0.6-1.7,0.8
							s-2-0.2-2-0.2L14,13l0.4-0.1l0,0L14.6,13.1z"/>
					</g>
					<g>
						<defs>
							<path id="SVGID_15_" d="M14.6,13.1c0,0,0.5,0.1,0.6,0.2c0.1,0.1,0,0.4,0,0.4l0.3,0.2c0,0,0.6-0.1,0.6-0.1
								c0.1,0,0.1,0.4,0.1,0.4s0.2,0.1,0.3,0.1c0.1,0,0.2-0.3,0.3-0.3c0.1,0,0.3,0.2,0.4,0.2s0.6-0.2,0.6-0.1c0,0.1-0.5,0.6-1.7,0.8
								s-2-0.2-2-0.2L14,13l0.4-0.1l0,0L14.6,13.1z"/>
						</defs>
						<clipPath id="SVGID_16_">
							<use xlink:href="#SVGID_15_"  style="overflow:visible;"/>
						</clipPath>
						<g class="st2">
							
								<rect id="rectangles_2_" x="13.6" y="11.1" transform="matrix(0.9911 -0.1333 0.1333 0.9911 -1.6876 2.2929)" class="st1" width="5.3" height="5.3"/>
						</g>
					</g>
				</g>
			</g>
		</g>
		<g id="tailFur02_2_" class="st3">
			<g id="color2_2_" class="st4">
				<g>
					<g>
						<defs>
							<path id="SVGID_17_" d="M14.6,13.1c0,0,0.5,0.1,0.6,0.2c0.1,0.1,0,0.4,0,0.4l0.3,0.2c0,0,0.6-0.1,0.6-0.1
								c0.1,0,0.1,0.4,0.1,0.4s0.2,0.1,0.3,0.1c0.1,0,0.2-0.3,0.3-0.3c0.1,0,0.3,0.2,0.4,0.2s0.6-0.2,0.6-0.1c0,0.1-0.5,0.6-1.7,0.8
								s-2-0.2-2-0.2L14,13l0.4-0.1l0,0L14.6,13.1z"/>
						</defs>
						<clipPath id="SVGID_18_">
							<use xlink:href="#SVGID_17_"  style="overflow:visible;"/>
						</clipPath>
						<g class="st5">
							<path id="path-3_2_" class="st6" d="M19.3,12c-1.1,0.4-0.5-0.6-1.5,0.8s-1.8,1.5-1,1.8c0.8,0.3,2,0.9,2.5-0.1
								c0.5-1.1,0.8-1.2,0.4-1.8L19.3,12z"/>
							<path id="path-2_2_" class="st6" d="M13.3,11.9c1.8,0.5,2-0.1,2.3,0.6c0.3,0.7-0.3,0.4-0.5,1.2c-0.2,1-0.7,0.7-1.3-0.2
								c-0.2-0.3-0.4-0.7-0.6-1L13.3,11.9z"/>
							<path id="path-1_2_" class="st6" d="M17.6,10c-1.5,1.3-1.9,1.4-1.6,1.7c0.3,0.3,0,0.5,0.8,0.3c0.7-0.2,0.9-1.5,0.9-1.5
								L17.6,10z"/>
							<path id="path-0_2_" class="st6" d="M13.6,15.2c1.7-0.4,1.9-0.9,2.2-0.8c0.2,0.1,0.5,0.9,0.5,1.3c0,0.4,1.4,0.3,0,0.6
								c-1.4,0.3-1.4,0.8-1.8,0.4C13.9,16.4,13.6,15.2,13.6,15.2z"/>
						</g>
					</g>
				</g>
			</g>
			<g id="tailShadow02_2_" class="st4">
				<g>
					<g>
						<defs>
							<path id="SVGID_19_" d="M14.6,13.1c0,0,0.5,0.1,0.6,0.2c0.1,0.1,0,0.4,0,0.4l0.3,0.2c0,0,0.6-0.1,0.6-0.1
								c0.1,0,0.1,0.4,0.1,0.4s0.2,0.1,0.3,0.1c0.1,0,0.2-0.3,0.3-0.3c0.1,0,0.3,0.2,0.4,0.2s0.6-0.2,0.6-0.1c0,0.1-0.5,0.6-1.7,0.8
								s-2-0.2-2-0.2L14,13l0.4-0.1l0,0L14.6,13.1z"/>
						</defs>
						<clipPath id="SVGID_20_">
							<use xlink:href="#SVGID_19_"  style="overflow:visible;"/>
						</clipPath>
						<g class="st7">
							<path id="path-1-2_2_" class="st8" d="M17.7,15c-2,0.6-3.2-0.6-3.5-0.9S14,13.8,14,13.8l-0.5,0.4l0.4,0.6l1.9,0.8l1.2,0
								L17.7,15z"/>
							<path id="path-0-2_2_" class="st9" d="M18.2,13.8c0,0,1.1-0.2,0.5,0c-2.4,1-3.1,0.5-3.3,0.4c-0.3-0.1-0.9-0.8-0.9-0.8
								l0.3-0.6l0.6,0.1l2,0.7L18.2,13.8L18.2,13.8z"/>
						</g>
					</g>
				</g>
			</g>
		</g>
	</g>
	<g id="wingsFur_2_">
		<g id="wingsFur01_2_">
			<g id="layer-2_2_">
				<g id="wingsColor01-left_2_">
					<g>
						<g>
							<path id="SVGID_13_" class="st1" d="M8.8,11.8c0,0-1.2-0.5-1.4-1c-0.2-0.4-0.8,0-1.2,0.4c-0.3,0.2-0.9,0.9-1.1,1.5
								c-0.2,0.7-0.2,1.4,0,1.5c0.2,0.1,0.2-0.9,0.7-1.5c0.6-0.8,1.4-1.3,1.4-1c0,0.9,0.2,1.8,0.3,1.9c0.1,0.1,0-1.2,0.4-1.5
								c0.3-0.3,1,0,1,0L8.8,11.8z"/>
						</g>
						<g>
							<defs>
								<path id="SVGID_22_" d="M8.8,11.8c0,0-1.2-0.5-1.4-1c-0.2-0.4-0.8,0-1.2,0.4c-0.3,0.2-0.9,0.9-1.1,1.5
									c-0.2,0.7-0.2,1.4,0,1.5c0.2,0.1,0.2-0.9,0.7-1.5c0.6-0.8,1.4-1.3,1.4-1c0,0.9,0.2,1.8,0.3,1.9c0.1,0.1,0-1.2,0.4-1.5
									c0.3-0.3,1,0,1,0L8.8,11.8z"/>
							</defs>
							<clipPath id="SVGID_23_">
								<use xlink:href="#SVGID_22_"  style="overflow:visible;"/>
							</clipPath>
							<g class="st10">
								
									<rect id="wingsColor01-left01_2_" x="4" y="9.3" transform="matrix(0.9911 -0.1333 0.1333 0.9911 -1.5137 1.0479)" class="st1" width="6.1" height="5.1"/>
							</g>
						</g>
					</g>
				</g>
				<g id="wingsColor01-right_2_">
					<g>
						<g>
							<path id="SVGID_12_" class="st1" d="M13.9,11.2c0,0,1-0.8,1.1-1.3c0.1-0.4,0.7-0.2,1.3,0c0.3,0.1,1.1,0.6,1.4,1.2
								c0.4,0.6,0.5,1.3,0.4,1.4c-0.1,0.2-0.5-0.8-1.1-1.3c-0.7-0.6-1.7-0.9-1.6-0.6c0.2,0.9,0.3,1.8,0.2,1.9s-0.4-1.2-0.8-1.4
								c-0.4-0.2-1,0.2-1,0.2L13.9,11.2z"/>
						</g>
						<g>
							<defs>
								<path id="SVGID_24_" d="M13.9,11.2c0,0,1-0.8,1.1-1.3c0.1-0.4,0.7-0.2,1.3,0c0.3,0.1,1.1,0.6,1.4,1.2
									c0.4,0.6,0.5,1.3,0.4,1.4c-0.1,0.2-0.5-0.8-1.1-1.3c-0.7-0.6-1.7-0.9-1.6-0.6c0.2,0.9,0.3,1.8,0.2,1.9s-0.4-1.2-0.8-1.4
									c-0.4-0.2-1,0.2-1,0.2L13.9,11.2z"/>
							</defs>
							<clipPath id="SVGID_25_">
								<use xlink:href="#SVGID_24_"  style="overflow:visible;"/>
							</clipPath>
							<g class="st11">
								
									<rect id="wingsColor01-right01_2_" x="12.6" y="8.2" transform="matrix(0.9911 -0.1333 0.1333 0.9911 -1.2954 2.1785)" class="st1" width="6.1" height="5.1"/>
							</g>
						</g>
					</g>
				</g>
			</g>
		</g>
	</g>
	<g id="bodyFur_2_">
		<g id="bodyFur-2_2_">
			<g id="body-mainColor_2_">
				<g id="body-mainColor03_2_">
					<g id="clipping_Path_2_">
						<g>
							<g>
								<path id="SVGID_10_" class="st1" d="M8.8,11.6c0,0-0.3,1.1-0.1,2c0.1,0.4,0.1,1.2,0.4,1.2c0.4,0,0.5,0.6,0.5,0.6
									c0.2,0.2,0.5,0.3,0.5,0.4c0.2,0.2,0.4,0.3,0.7,0.2c0.3-0.3,0.4-0.6,0-1c0-0.1,0.1,0,0.4,0c0.5,0,1.2-0.1,1.3-0.3
									c0.1-0.2-0.1,0.4-0.1,0.6c0.1,0.5,0.8,0.7,1.1,0.2c0.2-0.2,0.5-1.2,0.6-1.5c0.1-0.3,0-0.7,0-1.1c-0.1-0.9-0.3-1.7-0.8-2
									c-0.3-0.2-0.6,0-1,0L11,10.5L8.8,11.6"/>
							</g>
							<g>
								<defs>
									<path id="SVGID_26_" d="M8.8,11.6c0,0-0.3,1.1-0.1,2c0.1,0.4,0.1,1.2,0.4,1.2c0.4,0,0.5,0.6,0.5,0.6
										c0.2,0.2,0.5,0.3,0.5,0.4c0.2,0.2,0.4,0.3,0.7,0.2c0.3-0.3,0.4-0.6,0-1c0-0.1,0.1,0,0.4,0c0.5,0,1.2-0.1,1.3-0.3
										c0.1-0.2-0.1,0.4-0.1,0.6c0.1,0.5,0.8,0.7,1.1,0.2c0.2-0.2,0.5-1.2,0.6-1.5c0.1-0.3,0-0.7,0-1.1c-0.1-0.9-0.3-1.7-0.8-2
										c-0.3-0.2-0.6,0-1,0L11,10.5L8.8,11.6"/>
								</defs>
								<clipPath id="SVGID_27_">
									<use xlink:href="#SVGID_26_"  style="overflow:visible;"/>
								</clipPath>
								<g class="st12">
									
										<rect id="rectangles-2_2_" x="5.8" y="9.5" transform="matrix(0.9911 -0.1333 0.1333 0.9911 -1.6459 1.6034)" class="st1" width="10.6" height="7.1"/>
								</g>
							</g>
						</g>
					</g>
				</g>
			</g>
			<g id="bodyFur03_2_" class="st3">
				<g id="color2-2_2_" class="st4">
					<g id="color2-1_2_">
						<g>
							<g>
								<defs>
									<path id="SVGID_28_" d="M8.8,11.6c0,0-0.3,1.1-0.1,2c0.1,0.4,0.1,1.2,0.4,1.2c0.4,0,0.5,0.6,0.5,0.6
										c0.2,0.2,0.5,0.3,0.5,0.4c0.2,0.2,0.4,0.3,0.7,0.2c0.3-0.3,0.4-0.6,0-1c0-0.1,0.1,0,0.4,0c0.5,0,1.2-0.1,1.3-0.3
										c0.1-0.2-0.1,0.4-0.1,0.6c0.1,0.5,0.8,0.7,1.1,0.2c0.2-0.2,0.5-1.2,0.6-1.5c0.1-0.3,0-0.7,0-1.1c-0.1-0.9-0.3-1.7-0.8-2
										c-0.3-0.2-0.6,0-1,0L11,10.5L8.8,11.6"/>
								</defs>
								<clipPath id="SVGID_29_">
									<use xlink:href="#SVGID_28_"  style="overflow:visible;"/>
								</clipPath>
								<g class="st13">
									<path id="path-3-3_2_" class="st14" d="M15.4,14.8c0,0-2.5-0.5-2.8,0.1c-0.2,0.5,1.9,1.2,1.9,1.2l0.8,0L15.4,14.8z"/>
									<path id="path-2-3_2_" class="st14" d="M8.5,15.7c0,0,2.3-1.1,2.7-0.7c0.4,0.4-1.5,1.7-1.5,1.7l-0.8,0.2L8.5,15.7z"/>
								</g>
							</g>
						</g>
					</g>
				</g>
				<g id="color1-2_2_" class="st4">
					<g>
						<g>
							<defs>
								<path id="SVGID_30_" d="M8.8,11.6c0,0-0.3,1.1-0.1,2c0.1,0.4,0.1,1.2,0.4,1.2c0.4,0,0.5,0.6,0.5,0.6
									c0.2,0.2,0.5,0.3,0.5,0.4c0.2,0.2,0.4,0.3,0.7,0.2c0.3-0.3,0.4-0.6,0-1c0-0.1,0.1,0,0.4,0c0.5,0,1.2-0.1,1.3-0.3
									c0.1-0.2-0.1,0.4-0.1,0.6c0.1,0.5,0.8,0.7,1.1,0.2c0.2-0.2,0.5-1.2,0.6-1.5c0.1-0.3,0-0.7,0-1.1c-0.1-0.9-0.3-1.7-0.8-2
									c-0.3-0.2-0.6,0-1,0L11,10.5L8.8,11.6"/>
							</defs>
							<clipPath id="SVGID_31_">
								<use xlink:href="#SVGID_30_"  style="overflow:visible;"/>
							</clipPath>
							<g class="st15">
								<path id="path-3-4_2_" class="st14" d="M15.3,10.4c0,0-2.5,0.7-2.5,1.3c0,0.6,2.2,0.3,2.2,0.3l0.7-0.4L15.3,10.4z"/>
								<path id="path-2-4_2_" class="st14" d="M7.2,11.4c0,0,2.6,0,2.7,0.6c0.1,0.5-2.1,0.9-2.1,0.9L7,12.7L7.2,11.4z"/>
								<path id="path-1-5_2_" class="st14" d="M16.1,12.2c0,0-2.5,0.7-2.5,1.3c0,0.6,2.2,0.3,2.2,0.3l0.7-0.4L16.1,12.2z"/>
								<path id="path-0-8_2_" class="st14" d="M7,13.4c0,0,2.6,0,2.7,0.6c0.1,0.5-2.1,0.9-2.1,0.9l-0.8-0.2L7,13.4z"/>
							</g>
						</g>
					</g>
				</g>
			</g>
		</g>
		<g id="paunchFur_2_" class="st3">
			<g id="paunchFur02_2_" class="st4">
				<g>
					<g>
						<defs>
							<path id="SVGID_32_" d="M8.6,11c-0.4,0.7-0.4,2-0.3,2.9c0.1,0.9,1.1,1.8,1.9,1.9c0.1,0.1,0.1,0.2,0.2,0.2
								c0.1,0.1,0.4,0,0.5-0.1c0.2-0.1,0.3-0.3,0.2-0.5c0-0.2-0.2-0.4-0.3-0.5c0,0,0.3,0.2,0.8,0.1c0.4,0,1-0.2,1-0.3
								c0,0.3-0.2,0.4-0.1,0.6c0.1,0.2,0.5,0.4,0.9,0.3c0.3-0.1,0.3-0.4,0.3-0.5c0.2-0.4,0.9-0.8,1-2.1c0.1-1.3-0.6-2.9-0.8-3
								s-2.5,0.9-3.2,0.9c-0.5,0-1.1,0.1-1.6,0.1C9.2,11.2,8.6,11,8.6,11z"/>
						</defs>
						<clipPath id="SVGID_33_">
							<use xlink:href="#SVGID_32_"  style="overflow:visible;"/>
						</clipPath>
						<g class="st16">
							<path id="color3_2_" class="st17" d="M13.3,13.8c0.1,0.6-0.5,1.2-1.3,1.3c-0.8,0.1-1.5-0.3-1.6-0.9c0-0.1-0.3-0.9,0.1-1.4
								c0.2-0.3,0.7,0.3,1.2,0.2c0.6-0.1,0.9-0.7,1.2-0.4C13.3,12.9,13.2,13.7,13.3,13.8z"/>
						</g>
					</g>
				</g>
			</g>
		</g>
		<g id="bodyShadow_2_" class="st3">
			<g id="bodyShadow03_2_" class="st4">
				<g id="bodyShadow-2_2_">
					<g>
						<g>
							<defs>
								<path id="SVGID_34_" d="M8.8,11.6c0,0-0.3,1.1-0.1,2c0.1,0.4,0.1,1.2,0.4,1.2c0.4,0,0.5,0.6,0.5,0.6
									c0.2,0.2,0.5,0.3,0.5,0.4c0.2,0.2,0.4,0.3,0.7,0.2c0.3-0.3,0.4-0.6,0-1c0-0.1,0.1,0,0.4,0c0.5,0,1.2-0.1,1.3-0.3
									c0.1-0.2-0.1,0.4-0.1,0.6c0.1,0.5,0.8,0.7,1.1,0.2c0.2-0.2,0.5-1.2,0.6-1.5c0.1-0.3,0-0.7,0-1.1c-0.1-0.9-0.3-1.7-0.8-2
									c-0.3-0.2-0.6,0-1,0L11,10.5L8.8,11.6"/>
							</defs>
							<clipPath id="SVGID_35_">
								<use xlink:href="#SVGID_34_"  style="overflow:visible;"/>
							</clipPath>
							<g class="st18">
								
									<linearGradient id="path-1-6_3_" gradientUnits="userSpaceOnUse" x1="369.8834" y1="-661.1384" x2="367.2359" y2="-666.0521" gradientTransform="matrix(0.9911 -0.1333 0.1333 0.9911 -267.4996 720.6042)">
									<stop  offset="0" style="stop-color:#232323"/>
									<stop  offset="0.32" style="stop-color:#1E1E1E"/>
									<stop  offset="0.68" style="stop-color:#111111"/>
									<stop  offset="0.98" style="stop-color:#000000"/>
								</linearGradient>
								<path id="path-1-6_2_" class="st19" d="M8.7,10.9c0,0.4,0.5-0.3,0.4,0.3c-0.1,0.6-0.3,1.7,0,2.7s1.2,1.6,1.3,1.7
									c0.1,0,0.2,0.2,0.4,0.1c0.2-0.1,0.4-0.2,0.4-0.6c0-0.2,0.3,0.4,0.2,0.5c-0.1,0.1-0.9,0.8-1.2,0.7c-0.3-0.1-0.3,0-0.7-0.4
									c-0.4-0.5-0.9-0.1-1.1-0.8C8.4,14.8,8,14.7,8,14.5c0-0.4,0.1-0.9-0.1-1.3C7.1,11.3,8.7,10.9,8.7,10.9z"/>
								<path id="path-0-9_2_" class="st20" d="M10.6,14.6c-0.2-0.3,0.1,0,0.6,0.1c0.5,0.1,1.2,0,1.6-0.3c0.7-0.7-0.2,0.6,0.3,1.1
									c0.5,0.5,0.7,0,0.7,0l0,1l-1.9-1.3C11.9,15.1,10.9,15,10.6,14.6z"/>
								<path id="path-0-10_2_" class="st9" d="M13.1,10c0.3,0.5,1,1.6,1.2,2.8c0.1,0.6-0.3,3.2-0.3,3.2l0.9-0.4l0.4-3.4l-1.4-1.9
									L13.1,10z"/>
							</g>
						</g>
					</g>
				</g>
			</g>
		</g>
	</g>
	<g id="paw_2_">
		<g id="paw01_2_">
			<g id="layer-3_2_">
				<g id="claw-4_2_">
					<g id="path-2-5_2_">
						<path class="st1" d="M8.5,5.2C8.7,5,9.3,4.9,9.3,4.8c0,0-0.9-0.6-1.2-0.7C7.9,4.1,8.3,5.3,8.5,5.2z"/>
					</g>
					<g id="path-1-8_2_">
						<path class="st1" d="M7.9,6.9C7.8,6.7,7.8,6.1,7.7,6c0,0-0.8,0.7-0.9,1C6.7,7.3,8,7.2,7.9,6.9z"/>
					</g>
					<g id="path-0-11_2_">
						<path class="st1" d="M7.6,8.1c0-0.3,0-0.9-0.1-0.9c0,0-0.9,0.6-1,0.9C6.4,8.3,7.7,8.3,7.6,8.1z"/>
					</g>
				</g>
				<g id="claw-3_2_">
					<g id="path-2-6_2_">
						<path class="st1" d="M12.4,4.7c-0.3-0.1-0.9,0-0.9-0.2c0,0,0.7-0.8,0.9-0.9S12.7,4.7,12.4,4.7z"/>
					</g>
					<g id="path-1-9_2_">
						<path class="st1" d="M13.5,6.2c0-0.3-0.2-0.8,0-0.9c0,0,1,0.5,1.1,0.7S13.5,6.5,13.5,6.2z"/>
					</g>
					<g id="path-0-12_2_">
						<path class="st1" d="M14,7.3c0-0.3-0.2-0.8-0.1-0.9c0,0,1,0.4,1.2,0.6S14.1,7.5,14,7.3z"/>
					</g>
				</g>
				<g id="claw-2_2_">
					<path id="path-2-7_2_" class="st1" d="M13.6,15.6c0,0.1-0.2,0.3-0.2,0.3c0,0-0.2-0.3-0.1-0.3C13.3,15.7,13.6,15.6,13.6,15.6z"
						/>
					<path id="path-1-10_2_" class="st1" d="M12.7,15.3c-0.1,0.1-0.1,0.3-0.1,0.4s0.3-0.1,0.3-0.1C12.9,15.5,12.7,15.3,12.7,15.3z"
						/>
					<path id="path-0-13_2_" class="st1" d="M13,15.5c0,0,0,0.3,0.1,0.3c0.1,0,0.3-0.3,0.2-0.3C13.2,15.6,13,15.5,13,15.5z"/>
					<g id="claw_2_">
						<path class="st1" d="M10.4,15.9c0,0.1,0.2,0.3,0.2,0.3s0.2-0.3,0.1-0.3C10.7,15.9,10.4,15.9,10.4,15.9z"/>
						<path class="st1" d="M11.3,15.5c0.1,0.1,0.1,0.3,0.1,0.4s-0.4-0.1-0.3-0.1C11.1,15.8,11.3,15.5,11.3,15.5z"/>
						<path class="st1" d="M11.1,15.8c0,0,0,0.3,0,0.3c-0.1,0-0.3-0.3-0.2-0.2C10.8,15.9,11.1,15.8,11.1,15.8z"/>
					</g>
				</g>
				<g id="claw-1_2_">
					<path id="path-2-8_2_" class="st1" d="M13.6,14.1c0,0.1,0.1,0.3,0.2,0.4s0.2-0.3,0.2-0.3C13.8,14.2,13.6,14.1,13.6,14.1z"/>
					<path id="path-1-11_2_" class="st1" d="M14.4,13.9c0.1,0.1,0.1,0.3,0.1,0.4c0,0.1-0.3-0.2-0.3-0.2
						C14.3,14.1,14.4,13.9,14.4,13.9z"/>
					<path id="path-0-14_2_" class="st1" d="M14.2,14.1c0,0,0,0.3-0.1,0.3c-0.1,0-0.2-0.3-0.2-0.3C14,14.2,14.2,14.1,14.2,14.1z"/>
				</g>
				<g id="claw-0_2_">
					<path id="path-2-9_2_" class="st1" d="M9.1,14.7c0,0.1,0.1,0.3,0.2,0.4s0.2-0.3,0.2-0.3C9.4,14.8,9.1,14.7,9.1,14.7z"/>
					<path id="path-1-12_2_" class="st1" d="M10,14.5c0.1,0.1,0.1,0.3,0.1,0.4c0,0.1-0.3-0.2-0.3-0.2C9.8,14.7,10,14.5,10,14.5z"/>
					<path id="path-0-15_2_" class="st1" d="M9.7,14.7c0,0,0,0.3-0.1,0.3c-0.1,0-0.2-0.3-0.2-0.3C9.5,14.8,9.7,14.7,9.7,14.7z"/>
				</g>
			</g>
		</g>
		<g id="jiao01_2_" class="st3">
			<g id="layer-4_2_" class="st4">
				<path id="path-17_2_" class="st21" d="M10.4,16c0,0.1,0.2,0.3,0.2,0.3s0.2-0.3,0.1-0.3C10.7,16,10.4,16,10.4,16z"/>
				<path id="path-16_2_" class="st21" d="M11.3,15.6c0.1,0.1,0.1,0.3,0.1,0.4c0,0.1-0.4-0.1-0.3-0.1C11.1,15.9,11.3,15.6,11.3,15.6
					z"/>
				<path id="path-15_2_" class="st21" d="M11.1,15.9c0,0,0,0.3,0,0.3c-0.1,0-0.3-0.3-0.2-0.2C10.8,16,11.1,15.9,11.1,15.9z"/>
				<g id="path-2-10_2_">
					<path d="M8.5,5.3C8.7,5.2,8.9,5.2,9,5.1c0.1,0,0.3-0.1,0.3-0.2c0-0.1-0.1-0.1-0.1-0.2C9.1,4.7,8.9,4.6,8.8,4.5
						C8.7,4.4,8.5,4.3,8.4,4.3c-0.1,0-0.2-0.1-0.3-0.1C8,4.2,8,4.3,8,4.4c0,0.1,0,0.3,0.1,0.4C8.1,4.9,8.3,5.4,8.5,5.3
						C8.6,5.3,8.5,5.2,8.5,5.3c-0.1,0-0.2-0.1-0.2-0.2C8.3,5,8.2,4.9,8.2,4.8c0-0.1-0.1-0.2-0.1-0.3c0,0,0-0.2,0-0.2
						c0,0,0.2,0,0.2,0.1c0.1,0.1,0.2,0.1,0.4,0.2c0.1,0.1,0.2,0.1,0.4,0.2c0,0,0.1,0.1,0.1,0.1c0,0,0.1,0,0.1,0.1c0,0,0,0,0,0
						c0,0,0,0-0.1,0C9.1,5,9,5,9,5C8.8,5.1,8.6,5.2,8.5,5.3C8.4,5.3,8.5,5.3,8.5,5.3z"/>
				</g>
				<g id="path-1-13_2_">
					<path d="M7.9,7c0-0.2,0-0.4-0.1-0.5c0-0.1,0-0.3-0.1-0.3c-0.1,0-0.1,0.1-0.2,0.1C7.4,6.3,7.3,6.4,7.2,6.5
						C7.1,6.7,7,6.8,6.9,6.9c0,0.1-0.1,0.2-0.1,0.3c0,0.1,0.1,0.1,0.2,0.1c0.1,0,0.3,0,0.4,0C7.5,7.3,8,7.3,7.9,7C7.9,7,7.9,7,7.9,7
						C7.9,7.1,7.8,7.1,7.7,7.1c-0.1,0-0.2,0.1-0.3,0.1c-0.1,0-0.2,0-0.3,0c-0.1,0-0.2,0-0.2-0.1S6.9,7,6.9,7C7,6.9,7.1,6.8,7.2,6.7
						c0.1-0.1,0.2-0.2,0.3-0.3c0,0,0.1-0.1,0.1-0.1c0,0,0.1-0.1,0.1-0.1c0,0,0,0,0,0c0,0,0,0,0,0.1c0,0.1,0,0.2,0,0.2
						C7.8,6.7,7.8,6.9,7.9,7C7.9,7.1,8,7.1,7.9,7z"/>
				</g>
				<g id="path-0-16_2_">
					<path d="M7.7,8.2c0-0.2,0-0.4,0-0.6c0-0.1,0-0.3-0.1-0.3c-0.1,0-0.1,0-0.2,0.1C7.2,7.4,7.1,7.5,7,7.6C6.8,7.7,6.7,7.9,6.6,8
						C6.5,8,6.4,8.1,6.5,8.2c0,0.1,0.1,0.1,0.2,0.1c0.1,0,0.3,0,0.4,0C7.2,8.4,7.7,8.4,7.7,8.2C7.7,8.1,7.6,8.1,7.7,8.2
						C7.6,8.2,7.5,8.3,7.4,8.3c-0.1,0-0.2,0-0.3,0c-0.1,0-0.2,0-0.3,0c-0.1,0-0.2,0-0.2-0.1c0-0.1,0.1-0.2,0.1-0.2
						C6.8,7.9,6.9,7.8,7,7.7c0.1-0.1,0.2-0.2,0.3-0.3c0,0,0.1-0.1,0.1-0.1c0,0,0.1,0,0.1-0.1c0,0,0,0,0,0c0,0,0,0.1,0,0.1
						c0,0.1,0,0.2,0,0.2C7.6,7.8,7.6,8,7.7,8.2C7.6,8.2,7.7,8.2,7.7,8.2z"/>
				</g>
				<g id="path-2-11_2_">
					<path d="M12.4,4.8c-0.1,0-0.3,0-0.5-0.1c-0.1,0-0.3,0-0.4-0.1c0,0,0,0,0,0c0,0,0,0,0,0c0,0,0.1-0.1,0.1-0.1
						c0.1-0.1,0.2-0.2,0.2-0.3C12,4.1,12.1,4,12.3,3.9c0,0,0.1-0.1,0.1-0.1c0,0,0.1-0.1,0.1-0.1c0.1,0,0.1,0.4,0.1,0.5
						c0,0.1,0,0.3-0.1,0.4C12.5,4.6,12.5,4.8,12.4,4.8C12.4,4.8,12.4,4.8,12.4,4.8c0.2,0.1,0.2-0.3,0.3-0.4c0-0.1,0-0.3,0-0.4
						c0-0.1,0-0.2-0.1-0.3c-0.1-0.1-0.2,0-0.2,0C12.2,3.8,12.1,3.9,12,4c-0.1,0.1-0.2,0.2-0.3,0.4c0,0.1-0.1,0.1-0.2,0.2
						c0,0.1,0.2,0.2,0.3,0.2C12,4.8,12.2,4.8,12.4,4.8C12.5,4.8,12.5,4.8,12.4,4.8z"/>
				</g>
				<g id="path-1-14_2_">
					<path d="M13.5,6.3c0-0.2,0-0.3-0.1-0.5c0-0.1,0-0.1,0-0.2c0,0,0-0.1,0-0.2c0,0,0,0,0,0c0,0,0,0,0,0c0,0,0.1,0,0.1,0.1
						c0.1,0.1,0.2,0.1,0.3,0.2c0.1,0.1,0.3,0.2,0.4,0.2c0,0,0.1,0.1,0.1,0.1c0,0,0.1,0.1,0.1,0.1c0,0.1-0.1,0.1-0.1,0.1
						c-0.1,0-0.2,0.1-0.3,0.1c-0.1,0-0.3,0-0.4,0C13.7,6.4,13.5,6.4,13.5,6.3C13.5,6.3,13.4,6.3,13.5,6.3c-0.1,0.2,0.3,0.2,0.5,0.1
						c0.1,0,0.3,0,0.4-0.1c0.1,0,0.2-0.1,0.2-0.2c0-0.1,0-0.2-0.1-0.2c-0.1-0.1-0.3-0.2-0.4-0.3c-0.1-0.1-0.3-0.2-0.4-0.2
						c-0.1,0-0.2-0.1-0.3-0.1c-0.1,0-0.1,0.2-0.1,0.3C13.4,5.9,13.4,6.1,13.5,6.3C13.5,6.4,13.5,6.4,13.5,6.3z"/>
				</g>
				<g id="path-0-17_2_">
					<path d="M14.1,7.4C14,7.2,14,7.1,14,6.9c0-0.1-0.1-0.3,0-0.4c0,0,0,0,0,0c0,0,0,0,0,0c0,0,0.1,0,0.1,0c0.1,0,0.2,0.1,0.4,0.2
						c0.1,0.1,0.3,0.1,0.4,0.2C14.9,7,14.9,7,15,7c0,0,0.1,0.1,0.1,0.1c0,0.1-0.1,0.1-0.1,0.1c-0.1,0.1-0.2,0.1-0.3,0.1
						c-0.1,0-0.3,0.1-0.4,0.1C14.2,7.4,14.1,7.4,14.1,7.4C14.1,7.3,14,7.3,14.1,7.4c0,0.2,0.3,0.1,0.5,0.1c0.1,0,0.3-0.1,0.4-0.1
						c0.1,0,0.2-0.1,0.2-0.2c0-0.1,0-0.1-0.1-0.2c-0.1-0.1-0.3-0.2-0.4-0.2c-0.2-0.1-0.3-0.1-0.5-0.2c-0.1,0-0.2-0.1-0.3-0.1
						c-0.1,0-0.1,0.2-0.1,0.3C13.9,7,14,7.2,14.1,7.4C14,7.4,14.1,7.4,14.1,7.4z"/>
				</g>
				<path id="path-8_2_" class="st21" d="M13.6,15.7c0,0.1-0.2,0.3-0.2,0.3s-0.2-0.3-0.1-0.3C13.3,15.8,13.6,15.7,13.6,15.7z"/>
				<path id="path-7_2_" class="st21" d="M12.7,15.4c-0.1,0.1-0.1,0.3-0.1,0.4c0,0.1,0.3-0.1,0.3-0.1C12.9,15.6,12.7,15.4,12.7,15.4
					z"/>
				<path id="path-6_2_" class="st21" d="M13,15.6c0,0,0,0.3,0.1,0.3c0.1,0,0.3-0.3,0.2-0.3C13.2,15.7,13,15.6,13,15.6z"/>
				<path id="path-5_2_" class="st21" d="M13.6,14.2c0,0.1,0.1,0.3,0.2,0.4s0.2-0.3,0.2-0.3C13.8,14.3,13.6,14.2,13.6,14.2z"/>
				<path id="path-4_2_" class="st21" d="M14.4,14c0.1,0.1,0.1,0.3,0.1,0.4c0,0.1-0.3-0.2-0.3-0.2C14.3,14.2,14.4,14,14.4,14z"/>
				<path id="path-3-5_2_" class="st21" d="M14.2,14.2c0,0,0,0.3-0.1,0.3c-0.1,0-0.2-0.3-0.2-0.3C14,14.3,14.2,14.2,14.2,14.2z"/>
				<path id="path-2-12_2_" class="st21" d="M9.1,14.8c0,0.1,0.1,0.3,0.2,0.4s0.2-0.3,0.2-0.3C9.4,14.9,9.1,14.8,9.1,14.8z"/>
				<path id="path-1-15_2_" class="st21" d="M10,14.6c0.1,0.1,0.1,0.3,0.1,0.4c0,0.1-0.3-0.2-0.3-0.2C9.8,14.8,10,14.6,10,14.6z"/>
				<path id="path-0-18_2_" class="st21" d="M9.7,14.8c0,0,0,0.3-0.1,0.3c-0.1,0-0.2-0.3-0.2-0.3C9.5,14.9,9.7,14.8,9.7,14.8z"/>
			</g>
		</g>
	</g>
	<g id="head_2_">
		<g id="headFur_2_">
			<g id="head-mainColor_2_">
				<g id="head-mainColor02_2_">
					<g>
						<g>
							<path id="SVGID_8_" class="st1" d="M8.3,5.2c-0.2,0-0.6,0-0.9-0.1C7.2,5,6.7,4.2,6.7,4.3c0,0.1-0.2,0.7,0,1.4
								c0.1,0.2,0.5,0.6,0.7,0.7c0,0-0.1,0.4-0.2,1C7.1,7.7,7.1,8.1,7.1,8.5c0,0.3,0,0.7,0.1,1c0.1,0.7,0.3,1.3,0.5,1.5
								c0.7,0.6,2.1,0.8,2.4,0.8c0.3,0,0.4,0,0.6,0c0.1,0,0.8,0.5,1.7-0.2c0,0,1.3-0.5,1.9-0.9c0.5-0.5,0.7-0.7,0.8-1.1
								c0.1-0.2-0.1-1.4-0.4-2.4c-0.3-0.9-0.8-1.7-0.8-1.7s0.2-0.1,0.4-0.5c0.2-0.4,0.1-1.7,0.1-1.7c-0.1,0-0.5,0.9-0.9,1
								c-0.4,0.1-0.7,0.4-0.7,0.4c0,0-0.2-0.2-0.7-0.3c-0.4-0.1-0.3,0-0.7,0c-0.2,0,0.3-0.3,0-0.7c-0.4-0.6,0.2,0.3-0.6,0.5
								C9.9,4.3,9.7,4.7,9.4,4.8C8.9,4.8,8.3,5.2,8.3,5.2z"/>
						</g>
						<g>
							<defs>
								<path id="SVGID_36_" d="M8.3,5.2c-0.2,0-0.6,0-0.9-0.1C7.2,5,6.7,4.2,6.7,4.3c0,0.1-0.2,0.7,0,1.4c0.1,0.2,0.5,0.6,0.7,0.7
									c0,0-0.1,0.4-0.2,1C7.1,7.7,7.1,8.1,7.1,8.5c0,0.3,0,0.7,0.1,1c0.1,0.7,0.3,1.3,0.5,1.5c0.7,0.6,2.1,0.8,2.4,0.8
									c0.3,0,0.4,0,0.6,0c0.1,0,0.8,0.5,1.7-0.2c0,0,1.3-0.5,1.9-0.9c0.5-0.5,0.7-0.7,0.8-1.1c0.1-0.2-0.1-1.4-0.4-2.4
									c-0.3-0.9-0.8-1.7-0.8-1.7s0.2-0.1,0.4-0.5c0.2-0.4,0.1-1.7,0.1-1.7c-0.1,0-0.5,0.9-0.9,1c-0.4,0.1-0.7,0.4-0.7,0.4
									c0,0-0.2-0.2-0.7-0.3c-0.4-0.1-0.3,0-0.7,0c-0.2,0,0.3-0.3,0-0.7c-0.4-0.6,0.2,0.3-0.6,0.5C9.9,4.3,9.7,4.7,9.4,4.8
									C8.9,4.8,8.3,5.2,8.3,5.2z"/>
							</defs>
							<clipPath id="SVGID_37_">
								<use xlink:href="#SVGID_36_"  style="overflow:visible;"/>
							</clipPath>
							<g class="st22">
								
									<rect id="rectangles-3_2_" x="5.8" y="2.5" transform="matrix(0.9911 -0.1333 0.1333 0.9911 -0.8902 1.4418)" class="st1" width="9.1" height="9.7"/>
							</g>
						</g>
					</g>
				</g>
			</g>
			<g id="headFur03_2_" class="st3">
				<g id="color2-3_2_" class="st4">
					<g id="color2-4_2_">
						<g>
							<g>
								<defs>
									<path id="SVGID_38_" d="M8.3,5.2c-0.2,0-0.6,0-0.9-0.1C7.2,5,6.7,4.2,6.7,4.3c0,0.1-0.2,0.7,0,1.4c0.1,0.2,0.5,0.6,0.7,0.7
										c0,0-0.1,0.4-0.2,1C7.1,7.7,7.1,8.1,7.1,8.5c0,0.3,0,0.7,0.1,1c0.1,0.7,0.3,1.3,0.5,1.5c0.7,0.6,2.1,0.8,2.4,0.8
										c0.3,0,0.4,0,0.6,0c0.1,0,0.8,0.5,1.7-0.2c0,0,1.3-0.5,1.9-0.9c0.5-0.5,0.7-0.7,0.8-1.1c0.1-0.2-0.1-1.4-0.4-2.4
										c-0.3-0.9-0.8-1.7-0.8-1.7s0.2-0.1,0.4-0.5c0.2-0.4,0.1-1.7,0.1-1.7c-0.1,0-0.5,0.9-0.9,1c-0.4,0.1-0.7,0.4-0.7,0.4
										c0,0-0.2-0.2-0.7-0.3c-0.4-0.1-0.3,0-0.7,0c-0.2,0,0.3-0.3,0-0.7c-0.4-0.6,0.2,0.3-0.6,0.5C9.9,4.3,9.7,4.7,9.4,4.8
										C8.9,4.8,8.3,5.2,8.3,5.2z"/>
								</defs>
								<clipPath id="SVGID_39_">
									<use xlink:href="#SVGID_38_"  style="overflow:visible;"/>
								</clipPath>
								<g class="st23">
									<path id="path-3-6_2_" class="st14" d="M15.5,5.9c0,0-3.4,0.9-3.4,1.8c0,0.8,3,0.4,3,0.4l1-0.5L15.5,5.9z"/>
									<path id="path-2-13_2_" class="st14" d="M5.6,7.3c0,0,3.5,0,3.7,0.8c0.2,0.7-2.8,1.2-2.8,1.2L5.4,9L5.6,7.3z"/>
									<path id="path-1-16_2_" class="st14" d="M15.6,8.2c0,0-3.4,0.9-3.4,1.8c0,0.8,3,0.4,3,0.4l1-0.5L15.6,8.2z"/>
									<path id="path-0-19_2_" class="st14" d="M5.8,9.5c0,0,3.5,0,3.7,0.8c0.2,0.7-2.8,1.2-2.8,1.2l-1.1-0.3L5.8,9.5z"/>
								</g>
							</g>
						</g>
					</g>
				</g>
				<g id="color1-3_2_" class="st4">
					<g>
						<g>
							<defs>
								<path id="SVGID_40_" d="M8.3,5.2c-0.2,0-0.6,0-0.9-0.1C7.2,5,6.7,4.2,6.7,4.3c0,0.1-0.2,0.7,0,1.4c0.1,0.2,0.5,0.6,0.7,0.7
									c0,0-0.1,0.4-0.2,1C7.1,7.7,7.1,8.1,7.1,8.5c0,0.3,0,0.7,0.1,1c0.1,0.7,0.3,1.3,0.5,1.5c0.7,0.6,2.1,0.8,2.4,0.8
									c0.3,0,0.4,0,0.6,0c0.1,0,0.8,0.5,1.7-0.2c0,0,1.3-0.5,1.9-0.9c0.5-0.5,0.7-0.7,0.8-1.1c0.1-0.2-0.1-1.4-0.4-2.4
									c-0.3-0.9-0.8-1.7-0.8-1.7s0.2-0.1,0.4-0.5c0.2-0.4,0.1-1.7,0.1-1.7c-0.1,0-0.5,0.9-0.9,1c-0.4,0.1-0.7,0.4-0.7,0.4
									c0,0-0.2-0.2-0.7-0.3c-0.4-0.1-0.3,0-0.7,0c-0.2,0,0.3-0.3,0-0.7c-0.4-0.6,0.2,0.3-0.6,0.5C9.9,4.3,9.7,4.7,9.4,4.8
									C8.9,4.8,8.3,5.2,8.3,5.2z"/>
							</defs>
							<clipPath id="SVGID_41_">
								<use xlink:href="#SVGID_40_"  style="overflow:visible;"/>
							</clipPath>
							<g class="st24">
								<path id="path-2-14_2_" class="st14" d="M8.5,1.8c0,0,1.3,4.6,2.4,4.5s0.4-3.9-0.1-5.2C10.2-0.2,8.5,1.8,8.5,1.8z"/>
								<path id="path-1-17_2_" class="st14" d="M13.5,2.5c0,0-1.6,3.2-0.9,3.7c0.6,0.5,2.3-2,2.3-2l0.3-1.1L13.5,2.5z"/>
								<path id="path-0-20_2_" class="st14" d="M7,3.4c0,0,2.4,2.6,1.9,3.3C8.4,7.4,6.1,5.4,6.1,5.4l-0.5-1L7,3.4z"/>
							</g>
						</g>
					</g>
				</g>
			</g>
		</g>
		<g id="headShadow_2_" class="st3">
			<g id="headShadow02_2_" class="st4">
				<g id="headShadow-2_2_">
					<g>
						<g>
							<defs>
								<path id="SVGID_42_" d="M8.4,5.2C7.8,5.1,6.6,5.2,6.6,5.3s0.4,0.9,0.8,1c0,0.1-0.3,1.1-0.3,2.2s0.3,2.2,0.6,2.5
									c0.7,0.6,2.1,0.8,2.4,0.8c0.3,0,0.4,0,0.6,0c0.1,0,0.8,0.5,1.7-0.2c0,0,1.3-0.5,1.9-0.9c0.5-0.5,0.7-0.7,0.8-1.1
									c0.1-0.2-0.1-1.4-0.4-2.4c-0.3-0.9-0.8-1.7-0.8-1.7C14,5.3,14.1,5.2,14.2,5c0.2-0.4,0.2-0.6,0.1-0.7c-0.1,0-0.4,0-0.9,0.1
									c-0.4,0.1-0.8,0.3-0.8,0.3c0,0-1-0.1-2.1-0.1S8.4,5.2,8.4,5.2z"/>
							</defs>
							<clipPath id="SVGID_43_">
								<use xlink:href="#SVGID_42_"  style="overflow:visible;"/>
							</clipPath>
							<g class="st25">
								<path id="path-0-21_2_" class="st20" d="M7.7,4.9C6.6,5.2,6.2,5.1,7,5.6c0.3,0.2,0.5,0.4,0.6,0.7c0.1,0.2-0.1,0.2,0,0.5
									c0.1,0.4,0.1,0.5,0,0.7C7.4,7.9,7.4,8.3,7.5,8.6c0.4,1.2-0.3,1.3,0.4,2.2C8.9,11.8,11,12,11,12l-2.1-0.2l-0.9-0.2l-1-1.3
									L6.4,8.8l-0.1-2c0,0-0.1-1.6,0.3-1.7C7,5,7.7,4.9,7.7,4.9z"/>
								<path id="path-0-22_2_" class="st9" d="M14.7,3.9c-0.1-0.2-0.4,0.2-0.7,0.6c-0.2,0.4-0.4,0.8-0.4,0.9c0,0.2,1.4,3.4,0.9,4.4
									c-0.7,1.3-2.6,2-2.6,2l2-0.8l0.9-0.5l0.6-1.5l0.1-1.5l-0.5-2C14.9,5.7,14.8,4.2,14.7,3.9z"/>
							</g>
						</g>
					</g>
				</g>
			</g>
		</g>
		<g id="head03_2_" class="st3">
			<g id="layer-5_2_" class="st4">
				<path id="path-3-7_2_" class="st21" d="M10.5,9.7c0.1-0.1,0.8-0.5,1.5-0.1"/>
				<g id="path-2-15_2_">
					<path d="M8.3,5.2C8,5.1,7.6,5.2,7.4,5C7.1,4.8,7,4.6,6.8,4.4c0,0-0.1-0.1-0.1-0.1c0,0,0,0,0,0.1c0,0.1,0,0.1,0,0.2
						c-0.1,0.4-0.1,0.8,0,1.1C6.7,5.8,6.8,6,6.9,6.1c0.1,0.1,0.3,0.2,0.4,0.3l0-0.1c0,0.1,0,0.1-0.1,0.2c0,0.2-0.1,0.3-0.1,0.5
						C7.1,7.4,7,7.9,7,8.3c0,0.4,0,0.9,0.1,1.3c0.1,0.4,0.1,0.7,0.3,1.1c0,0.1,0.1,0.2,0.2,0.3c0.1,0.1,0.2,0.2,0.3,0.2
						c0.3,0.2,0.5,0.3,0.8,0.4c0.3,0.1,0.5,0.2,0.8,0.2c0.2,0,0.3,0.1,0.5,0.1c0.1,0,0.2,0,0.3,0c0.1,0,0.1,0,0.2,0c0,0,0.1,0,0.1,0
						c0.2,0.1,0.4,0.1,0.6,0.1c0.1,0,0.3,0,0.4-0.1c0.2-0.1,0.3-0.2,0.5-0.3c0.1-0.1,0.2-0.1,0.4-0.1c0.5-0.2,1-0.4,1.5-0.7
						c0.2-0.2,0.5-0.4,0.7-0.7c0.1-0.2,0.2-0.4,0.2-0.6c0-0.3,0-0.5-0.1-0.8c-0.1-0.4-0.1-0.8-0.2-1.2c-0.2-0.7-0.4-1.3-0.8-2
						c0,0,0-0.1-0.1-0.1l0,0c0.1-0.1,0.2-0.2,0.3-0.4c0.1-0.2,0.2-0.3,0.2-0.5c0.1-0.4,0.1-0.8,0-1.2c0-0.1,0-0.2-0.1-0.2
						c-0.1,0-0.2,0.2-0.2,0.2c-0.1,0.2-0.2,0.4-0.4,0.5c-0.1,0.1-0.2,0.2-0.2,0.2c-0.1,0.1-0.2,0.1-0.3,0.1
						c-0.1,0.1-0.2,0.1-0.3,0.2c0,0-0.1,0.1-0.1,0.1c0,0,0.1,0,0,0c0,0,0,0-0.1,0c-0.1,0-0.2-0.1-0.3-0.1c-0.2-0.1-0.5-0.2-0.7-0.1
						c-0.1,0-0.2,0-0.3,0c0,0-0.1,0-0.1,0c0,0,0,0,0-0.1c0.1-0.1,0.1-0.3,0.1-0.5c0-0.1-0.1-0.2-0.1-0.3c0,0-0.1-0.1-0.1-0.1
						c-0.1-0.1-0.1,0-0.1,0.1c0,0.1,0,0.2-0.1,0.3c-0.1,0.2-0.3,0.2-0.5,0.3c-0.2,0.1-0.4,0.2-0.6,0.4C9.5,4.7,9.2,4.7,9,4.8
						C8.8,4.9,8.6,5,8.3,5.2C8.4,5.2,8.3,5.2,8.3,5.2C8.3,5.3,8.3,5.3,8.3,5.2C8.3,5.3,8.4,5.3,8.3,5.2c0.1,0,0.1,0,0.1,0
						C8.5,5.1,8.6,5.1,8.7,5C8.8,5,9,4.9,9.1,4.9c0.1,0,0.2-0.1,0.4-0.1c0.2,0,0.4-0.2,0.5-0.3c0.1-0.1,0.2-0.1,0.3-0.2
						c0.1,0,0.2-0.1,0.3-0.1C10.9,4,11,3.8,11,3.5c0,0,0,0,0,0c0,0,0,0,0,0c0,0,0,0,0,0c0,0.1,0.1,0.1,0.1,0.2
						c0.1,0.2,0.1,0.3,0,0.5c0,0.1-0.1,0.2,0,0.2c0.1,0,0.2,0,0.3,0c0.1,0,0.2,0,0.2,0c0.3,0,0.5,0.1,0.8,0.2c0.1,0,0.2,0.1,0.2,0.1
						c0.2-0.1,0.3-0.3,0.5-0.3c0.1,0,0.2-0.1,0.3-0.1c0.1-0.1,0.1-0.1,0.2-0.2C13.8,4,13.9,3.8,14,3.6c0-0.1,0.1-0.1,0.1-0.2
						c0,0,0,0,0-0.1c0,0,0,0,0,0c0,0,0,0,0,0c0,0,0,0.1,0,0.1c0,0.1,0,0.1,0,0.2c0,0.2,0,0.4,0,0.6c0,0.2,0,0.4-0.1,0.6
						c-0.1,0.2-0.2,0.4-0.4,0.5c0,0-0.1,0.1-0.1,0.1c0,0,0,0,0,0c0.6,1.1,1,2.3,1.1,3.6c0,0.2,0,0.4,0,0.6c-0.1,0.2-0.2,0.5-0.4,0.6
						c-0.2,0.2-0.5,0.4-0.7,0.6c-0.2,0.1-0.5,0.3-0.7,0.4c-0.2,0.1-0.4,0.2-0.6,0.2c0,0-0.1,0-0.1,0c-0.1,0-0.1,0.1-0.2,0.1
						c-0.1,0.1-0.2,0.1-0.3,0.1c-0.3,0.1-0.6,0.1-0.8,0c-0.1,0-0.2-0.1-0.2-0.1c0,0-0.1,0-0.1,0c-0.1,0-0.3,0-0.4,0
						c-0.1,0-0.2,0-0.3,0c-0.2,0-0.4-0.1-0.6-0.1c-0.3-0.1-0.6-0.2-0.8-0.3c-0.3-0.1-0.5-0.2-0.7-0.4c-0.1-0.1-0.1-0.2-0.2-0.3
						c-0.1-0.2-0.1-0.3-0.2-0.5C7.2,9.8,7.1,9.4,7.1,8.9c0-0.8,0-1.6,0.2-2.4c0-0.1,0-0.1,0.1-0.2c0,0,0,0,0-0.1
						C7.3,6.2,7.2,6.2,7.1,6.1C6.9,6,6.8,5.8,6.8,5.7C6.6,5.4,6.6,5,6.7,4.6c0-0.1,0-0.1,0-0.2c0,0,0-0.1,0-0.1c0,0,0,0,0,0
						c0,0,0,0,0,0c0,0,0.1,0.1,0.1,0.1C7,4.7,7.2,4.9,7.3,5.1C7.6,5.3,8,5.2,8.3,5.2C8.4,5.3,8.4,5.2,8.3,5.2z"/>
				</g>
				<path id="path-1-18_2_" class="st21" d="M11.8,10.8c0.1-0.4,0.4-0.3,0.5-0.3"/>
				<path id="path-0-23_2_" class="st21" d="M10.8,10.9c-0.2-0.4-0.5-0.2-0.5-0.1"/>
			</g>
		</g>
	</g>
</g>
<g class="st26">
	<g id="tailFur_1_">
		<g id="tail-mainColor_1_">
			<g id="tail-mainColor02_1_">
				<g>
					<g>
						<path id="SVGID_6_" class="st1" d="M13.5,13.4c0,0,0.5,0.1,0.6,0.2c0.1,0.1,0,0.4,0,0.4l0.3,0.2c0,0,0.6-0.1,0.6-0.1
							c0.1,0,0.1,0.4,0.1,0.4s0.2,0.1,0.3,0.1c0.1,0,0.2-0.3,0.3-0.3c0.1,0,0.3,0.2,0.4,0.2c0.1,0,0.6-0.2,0.6-0.1s-0.5,0.6-1.7,0.8
							s-2-0.2-2-0.2l-0.1-1.6l0.4-0.1l0,0L13.5,13.4z"/>
					</g>
					<g>
						<defs>
							<path id="SVGID_44_" d="M13.5,13.4c0,0,0.5,0.1,0.6,0.2c0.1,0.1,0,0.4,0,0.4l0.3,0.2c0,0,0.6-0.1,0.6-0.1
								c0.1,0,0.1,0.4,0.1,0.4s0.2,0.1,0.3,0.1c0.1,0,0.2-0.3,0.3-0.3c0.1,0,0.3,0.2,0.4,0.2c0.1,0,0.6-0.2,0.6-0.1
								s-0.5,0.6-1.7,0.8s-2-0.2-2-0.2l-0.1-1.6l0.4-0.1l0,0L13.5,13.4z"/>
						</defs>
						<clipPath id="SVGID_45_">
							<use xlink:href="#SVGID_44_"  style="overflow:visible;"/>
						</clipPath>
						<g class="st27">
							
								<rect id="rectangles_1_" x="12.6" y="11.4" transform="matrix(0.9911 -0.1333 0.1333 0.9911 -1.7361 2.151)" class="st1" width="5.3" height="5.3"/>
						</g>
					</g>
				</g>
			</g>
		</g>
		<g id="tailFur02_1_" class="st3">
			<g id="color2_1_" class="st4">
				<g>
					<g>
						<defs>
							<path id="SVGID_46_" d="M13.5,13.4c0,0,0.5,0.1,0.6,0.2c0.1,0.1,0,0.4,0,0.4l0.3,0.2c0,0,0.6-0.1,0.6-0.1
								c0.1,0,0.1,0.4,0.1,0.4s0.2,0.1,0.3,0.1c0.1,0,0.2-0.3,0.3-0.3c0.1,0,0.3,0.2,0.4,0.2c0.1,0,0.6-0.2,0.6-0.1
								s-0.5,0.6-1.7,0.8s-2-0.2-2-0.2l-0.1-1.6l0.4-0.1l0,0L13.5,13.4z"/>
						</defs>
						<clipPath id="SVGID_47_">
							<use xlink:href="#SVGID_46_"  style="overflow:visible;"/>
						</clipPath>
						<g class="st28">
							<path id="path-3_1_" class="st6" d="M18.2,12.3c-1.1,0.4-0.5-0.6-1.5,0.8s-1.8,1.5-1,1.8s2,0.9,2.5-0.1
								c0.5-1.1,0.8-1.2,0.4-1.8L18.2,12.3z"/>
							<path id="path-2_1_" class="st6" d="M12.2,12.2c1.8,0.5,2-0.1,2.3,0.6c0.3,0.7-0.3,0.4-0.5,1.2c-0.2,1-0.7,0.7-1.3-0.2
								c-0.2-0.3-0.4-0.7-0.6-1L12.2,12.2z"/>
							<path id="path-1_1_" class="st6" d="M16.5,10.3c-1.5,1.3-1.9,1.4-1.6,1.7c0.3,0.3,0,0.5,0.8,0.3c0.7-0.2,0.9-1.5,0.9-1.5
								L16.5,10.3z"/>
							<path id="path-0_1_" class="st6" d="M12.5,15.5c1.7-0.4,1.9-0.9,2.2-0.8c0.2,0.1,0.5,0.9,0.5,1.3c0,0.4,1.4,0.3,0,0.6
								c-1.4,0.3-1.4,0.8-1.8,0.4S12.5,15.5,12.5,15.5z"/>
						</g>
					</g>
				</g>
			</g>
			<g id="tailShadow02_1_" class="st4">
				<g>
					<g>
						<defs>
							<path id="SVGID_48_" d="M13.5,13.4c0,0,0.5,0.1,0.6,0.2c0.1,0.1,0,0.4,0,0.4l0.3,0.2c0,0,0.6-0.1,0.6-0.1
								c0.1,0,0.1,0.4,0.1,0.4s0.2,0.1,0.3,0.1c0.1,0,0.2-0.3,0.3-0.3c0.1,0,0.3,0.2,0.4,0.2c0.1,0,0.6-0.2,0.6-0.1
								s-0.5,0.6-1.7,0.8s-2-0.2-2-0.2l-0.1-1.6l0.4-0.1l0,0L13.5,13.4z"/>
						</defs>
						<clipPath id="SVGID_49_">
							<use xlink:href="#SVGID_48_"  style="overflow:visible;"/>
						</clipPath>
						<g class="st29">
							<path id="path-1-2_1_" class="st8" d="M16.6,15.2c-2,0.6-3.2-0.6-3.5-0.9c-0.3-0.3-0.3-0.2-0.3-0.2l-0.5,0.4l0.4,0.6l1.9,0.8
								l1.2,0L16.6,15.2z"/>
							<path id="path-0-2_1_" class="st9" d="M17.1,14.1c0,0,1.1-0.2,0.5,0c-2.4,1-3.1,0.5-3.3,0.4c-0.3-0.1-0.9-0.8-0.9-0.8
								l0.3-0.6l0.6,0.1l2,0.7L17.1,14.1L17.1,14.1z"/>
						</g>
					</g>
				</g>
			</g>
		</g>
	</g>
	<g id="wingsFur_1_">
		<g id="wingsFur01_1_">
			<g id="layer-2_1_">
				<g id="wingsColor01-left_1_">
					<g>
						<g>
							<path id="SVGID_5_" class="st1" d="M7.7,12.1c0,0-1.2-0.5-1.4-1c-0.2-0.4-0.8,0-1.2,0.4c-0.3,0.2-0.9,0.9-1.1,1.5
								c-0.2,0.7-0.2,1.4,0,1.5s0.2-0.9,0.7-1.5c0.6-0.8,1.4-1.3,1.4-1C6,13,6.2,13.9,6.3,14c0.1,0.1,0-1.2,0.4-1.5c0.3-0.3,1,0,1,0
								L7.7,12.1z"/>
						</g>
						<g>
							<defs>
								<path id="SVGID_50_" d="M7.7,12.1c0,0-1.2-0.5-1.4-1c-0.2-0.4-0.8,0-1.2,0.4c-0.3,0.2-0.9,0.9-1.1,1.5
									c-0.2,0.7-0.2,1.4,0,1.5s0.2-0.9,0.7-1.5c0.6-0.8,1.4-1.3,1.4-1C6,13,6.2,13.9,6.3,14c0.1,0.1,0-1.2,0.4-1.5
									c0.3-0.3,1,0,1,0L7.7,12.1z"/>
							</defs>
							<clipPath id="SVGID_51_">
								<use xlink:href="#SVGID_50_"  style="overflow:visible;"/>
							</clipPath>
							<g class="st30">
								
									<rect id="wingsColor01-left01_1_" x="2.9" y="9.5" transform="matrix(0.9911 -0.1333 0.1333 0.9911 -1.5623 0.906)" class="st1" width="6.1" height="5.1"/>
							</g>
						</g>
					</g>
				</g>
				<g id="wingsColor01-right_1_">
					<g>
						<g>
							<path id="SVGID_4_" class="st1" d="M12.8,11.5c0,0,1-0.8,1.1-1.3c0.1-0.4,0.7-0.2,1.3,0c0.3,0.1,1.1,0.6,1.4,1.2
								c0.4,0.6,0.5,1.3,0.4,1.4c-0.1,0.2-0.5-0.8-1.1-1.3c-0.7-0.6-1.7-0.9-1.6-0.6c0.2,0.9,0.3,1.8,0.2,1.9
								c-0.1,0.1-0.4-1.2-0.8-1.4c-0.4-0.2-1,0.2-1,0.2L12.8,11.5z"/>
						</g>
						<g>
							<defs>
								<path id="SVGID_52_" d="M12.8,11.5c0,0,1-0.8,1.1-1.3c0.1-0.4,0.7-0.2,1.3,0c0.3,0.1,1.1,0.6,1.4,1.2
									c0.4,0.6,0.5,1.3,0.4,1.4c-0.1,0.2-0.5-0.8-1.1-1.3c-0.7-0.6-1.7-0.9-1.6-0.6c0.2,0.9,0.3,1.8,0.2,1.9
									c-0.1,0.1-0.4-1.2-0.8-1.4c-0.4-0.2-1,0.2-1,0.2L12.8,11.5z"/>
							</defs>
							<clipPath id="SVGID_53_">
								<use xlink:href="#SVGID_52_"  style="overflow:visible;"/>
							</clipPath>
							<g class="st31">
								
									<rect id="wingsColor01-right01_1_" x="11.5" y="8.5" transform="matrix(0.9911 -0.1333 0.1333 0.9911 -1.3439 2.0366)" class="st1" width="6.1" height="5.1"/>
							</g>
						</g>
					</g>
				</g>
			</g>
		</g>
	</g>
	<g id="bodyFur_1_">
		<g id="bodyFur-2_1_">
			<g id="body-mainColor_1_">
				<g id="body-mainColor03_1_">
					<g id="clipping_Path_1_">
						<g>
							<g>
								<path id="SVGID_3_" class="st1" d="M7.8,11.9c0,0-0.3,1.1-0.1,2c0.1,0.4,0.1,1.2,0.4,1.2c0.4,0,0.5,0.6,0.5,0.6
									c0.2,0.2,0.5,0.3,0.5,0.4c0.2,0.2,0.4,0.3,0.7,0.2c0.3-0.3,0.4-0.6,0-1c0-0.1,0.1,0,0.4,0c0.5,0,1.2-0.1,1.3-0.3
									c0.1-0.2-0.1,0.4-0.1,0.6c0.1,0.5,0.8,0.7,1.1,0.2c0.2-0.2,0.5-1.2,0.6-1.5c0.1-0.3,0-0.7,0-1.1c-0.1-0.9-0.3-1.7-0.8-2
									c-0.3-0.2-0.6,0-1,0L10,10.8L7.8,11.9"/>
							</g>
							<g>
								<defs>
									<path id="SVGID_54_" d="M7.8,11.9c0,0-0.3,1.1-0.1,2c0.1,0.4,0.1,1.2,0.4,1.2c0.4,0,0.5,0.6,0.5,0.6
										c0.2,0.2,0.5,0.3,0.5,0.4c0.2,0.2,0.4,0.3,0.7,0.2c0.3-0.3,0.4-0.6,0-1c0-0.1,0.1,0,0.4,0c0.5,0,1.2-0.1,1.3-0.3
										c0.1-0.2-0.1,0.4-0.1,0.6c0.1,0.5,0.8,0.7,1.1,0.2c0.2-0.2,0.5-1.2,0.6-1.5c0.1-0.3,0-0.7,0-1.1c-0.1-0.9-0.3-1.7-0.8-2
										c-0.3-0.2-0.6,0-1,0L10,10.8L7.8,11.9"/>
								</defs>
								<clipPath id="SVGID_55_">
									<use xlink:href="#SVGID_54_"  style="overflow:visible;"/>
								</clipPath>
								<g class="st32">
									
										<rect id="rectangles-2_1_" x="4.8" y="9.8" transform="matrix(0.9911 -0.1333 0.1333 0.9911 -1.6944 1.4615)" class="st1" width="10.6" height="7.1"/>
								</g>
							</g>
						</g>
					</g>
				</g>
			</g>
			<g id="bodyFur03_1_" class="st3">
				<g id="color2-2_1_" class="st4">
					<g id="color2-1_1_">
						<g>
							<g>
								<defs>
									<path id="SVGID_56_" d="M7.8,11.9c0,0-0.3,1.1-0.1,2c0.1,0.4,0.1,1.2,0.4,1.2c0.4,0,0.5,0.6,0.5,0.6
										c0.2,0.2,0.5,0.3,0.5,0.4c0.2,0.2,0.4,0.3,0.7,0.2c0.3-0.3,0.4-0.6,0-1c0-0.1,0.1,0,0.4,0c0.5,0,1.2-0.1,1.3-0.3
										c0.1-0.2-0.1,0.4-0.1,0.6c0.1,0.5,0.8,0.7,1.1,0.2c0.2-0.2,0.5-1.2,0.6-1.5c0.1-0.3,0-0.7,0-1.1c-0.1-0.9-0.3-1.7-0.8-2
										c-0.3-0.2-0.6,0-1,0L10,10.8L7.8,11.9"/>
								</defs>
								<clipPath id="SVGID_57_">
									<use xlink:href="#SVGID_56_"  style="overflow:visible;"/>
								</clipPath>
								<g class="st33">
									<path id="path-3-3_1_" class="st14" d="M14.3,15.1c0,0-2.5-0.5-2.8,0.1c-0.2,0.5,1.9,1.2,1.9,1.2l0.8,0L14.3,15.1z"/>
									<path id="path-2-3_1_" class="st14" d="M7.4,16c0,0,2.3-1.1,2.7-0.7c0.4,0.4-1.5,1.7-1.5,1.7l-0.8,0.2L7.4,16z"/>
								</g>
							</g>
						</g>
					</g>
				</g>
				<g id="color1-2_1_" class="st4">
					<g>
						<g>
							<defs>
								<path id="SVGID_58_" d="M7.8,11.9c0,0-0.3,1.1-0.1,2c0.1,0.4,0.1,1.2,0.4,1.2c0.4,0,0.5,0.6,0.5,0.6
									c0.2,0.2,0.5,0.3,0.5,0.4c0.2,0.2,0.4,0.3,0.7,0.2c0.3-0.3,0.4-0.6,0-1c0-0.1,0.1,0,0.4,0c0.5,0,1.2-0.1,1.3-0.3
									c0.1-0.2-0.1,0.4-0.1,0.6c0.1,0.5,0.8,0.7,1.1,0.2c0.2-0.2,0.5-1.2,0.6-1.5c0.1-0.3,0-0.7,0-1.1c-0.1-0.9-0.3-1.7-0.8-2
									c-0.3-0.2-0.6,0-1,0L10,10.8L7.8,11.9"/>
							</defs>
							<clipPath id="SVGID_59_">
								<use xlink:href="#SVGID_58_"  style="overflow:visible;"/>
							</clipPath>
							<g class="st34">
								<path id="path-3-4_1_" class="st14" d="M14.2,10.7c0,0-2.5,0.7-2.5,1.3c0,0.6,2.2,0.3,2.2,0.3l0.7-0.4L14.2,10.7z"/>
								<path id="path-2-4_1_" class="st14" d="M6.1,11.7c0,0,2.6,0,2.7,0.6c0.1,0.5-2.1,0.9-2.1,0.9L6,13L6.1,11.7z"/>
								<path id="path-1-5_1_" class="st14" d="M15,12.5c0,0-2.5,0.7-2.5,1.3c0,0.6,2.2,0.3,2.2,0.3l0.7-0.4L15,12.5z"/>
								<path id="path-0-8_1_" class="st14" d="M5.9,13.7c0,0,2.6,0,2.7,0.6c0.1,0.5-2.1,0.9-2.1,0.9L5.8,15L5.9,13.7z"/>
							</g>
						</g>
					</g>
				</g>
			</g>
		</g>
		<g id="paunchFur_1_" class="st3">
			<g id="paunchFur02_1_" class="st4">
				<g>
					<g>
						<defs>
							<path id="SVGID_60_" d="M7.5,11.2c-0.4,0.7-0.4,2-0.3,2.9C7.4,15,8.3,15.9,9.2,16c0.1,0.1,0.1,0.2,0.2,0.2
								c0.1,0.1,0.4,0,0.5-0.1c0.2-0.1,0.3-0.3,0.2-0.5c0-0.2-0.2-0.4-0.3-0.5c0,0,0.3,0.2,0.8,0.1c0.4,0,1-0.2,1-0.3
								c0,0.3-0.2,0.4-0.1,0.6c0.1,0.2,0.5,0.4,0.9,0.3s0.3-0.4,0.3-0.5c0.2-0.4,0.9-0.8,1-2.1c0.1-1.3-0.6-2.9-0.8-3
								c-0.2-0.1-2.5,0.9-3.2,0.9c-0.5,0-1.1,0.1-1.6,0.1C8.1,11.5,7.5,11.2,7.5,11.2z"/>
						</defs>
						<clipPath id="SVGID_61_">
							<use xlink:href="#SVGID_60_"  style="overflow:visible;"/>
						</clipPath>
						<g class="st35">
							<path id="color3_1_" class="st17" d="M12.2,14.1c0.1,0.6-0.5,1.2-1.3,1.3c-0.8,0.1-1.5-0.3-1.6-0.9c0-0.1-0.3-0.9,0.1-1.4
								c0.2-0.3,0.7,0.3,1.2,0.2c0.6-0.1,0.9-0.7,1.2-0.4C12.2,13.2,12.2,14,12.2,14.1z"/>
						</g>
					</g>
				</g>
			</g>
		</g>
		<g id="bodyShadow_1_" class="st3">
			<g id="bodyShadow03_1_" class="st4">
				<g id="bodyShadow-2_1_">
					<g>
						<g>
							<defs>
								<path id="SVGID_62_" d="M7.8,11.9c0,0-0.3,1.1-0.1,2c0.1,0.4,0.1,1.2,0.4,1.2c0.4,0,0.5,0.6,0.5,0.6
									c0.2,0.2,0.5,0.3,0.5,0.4c0.2,0.2,0.4,0.3,0.7,0.2c0.3-0.3,0.4-0.6,0-1c0-0.1,0.1,0,0.4,0c0.5,0,1.2-0.1,1.3-0.3
									c0.1-0.2-0.1,0.4-0.1,0.6c0.1,0.5,0.8,0.7,1.1,0.2c0.2-0.2,0.5-1.2,0.6-1.5c0.1-0.3,0-0.7,0-1.1c-0.1-0.9-0.3-1.7-0.8-2
									c-0.3-0.2-0.6,0-1,0L10,10.8L7.8,11.9"/>
							</defs>
							<clipPath id="SVGID_63_">
								<use xlink:href="#SVGID_62_"  style="overflow:visible;"/>
							</clipPath>
							<g class="st36">
								
									<linearGradient id="path-1-6_4_" gradientUnits="userSpaceOnUse" x1="368.7705" y1="-660.9941" x2="366.123" y2="-665.9079" gradientTransform="matrix(0.9911 -0.1333 0.1333 0.9911 -267.4996 720.6042)">
									<stop  offset="0" style="stop-color:#232323"/>
									<stop  offset="0.32" style="stop-color:#1E1E1E"/>
									<stop  offset="0.68" style="stop-color:#111111"/>
									<stop  offset="0.98" style="stop-color:#000000"/>
								</linearGradient>
								<path id="path-1-6_1_" class="st37" d="M7.6,11.2c0,0.4,0.5-0.3,0.4,0.3c-0.1,0.6-0.3,1.7,0,2.7c0.2,1,1.2,1.6,1.3,1.7
									c0.1,0,0.2,0.2,0.4,0.1c0.2-0.1,0.4-0.2,0.4-0.6c0-0.2,0.3,0.4,0.2,0.5c-0.1,0.1-0.9,0.8-1.2,0.7c-0.3-0.1-0.3,0-0.7-0.4
									C8,15.7,7.5,16,7.4,15.3c-0.1-0.2-0.5-0.4-0.5-0.6c0-0.4,0.1-0.9-0.1-1.3C6,11.6,7.6,11.2,7.6,11.2z"/>
								<path id="path-0-9_1_" class="st20" d="M9.5,14.9c-0.2-0.3,0.1,0,0.6,0.1c0.5,0.1,1.2,0,1.6-0.3c0.7-0.7-0.2,0.6,0.3,1.1
									c0.5,0.5,0.7,0,0.7,0l0,1l-1.9-1.3C10.8,15.4,9.8,15.3,9.5,14.9z"/>
								<path id="path-0-10_1_" class="st9" d="M12,10.3c0.3,0.5,1,1.6,1.2,2.8c0.1,0.6-0.3,3.2-0.3,3.2l0.9-0.4l0.4-3.4l-1.4-1.9
									L12,10.3z"/>
							</g>
						</g>
					</g>
				</g>
			</g>
		</g>
	</g>
	<g id="paw_1_">
		<g id="paw01_1_">
			<g id="layer-3_1_">
				<g id="claw-4_1_">
					<g id="path-2-5_1_">
						<path class="st1" d="M7.4,5.5c0.2-0.1,0.8-0.3,0.8-0.4c0,0-0.9-0.6-1.2-0.7C6.8,4.4,7.2,5.6,7.4,5.5z"/>
					</g>
					<g id="path-1-8_1_">
						<path class="st1" d="M6.8,7.2C6.8,6.9,6.8,6.3,6.6,6.3c0,0-0.8,0.7-0.9,1C5.6,7.6,6.9,7.5,6.8,7.2z"/>
					</g>
					<g id="path-0-11_1_">
						<path class="st1" d="M6.5,8.4c0-0.3,0-0.9-0.1-0.9c0,0-0.9,0.6-1,0.9C5.3,8.6,6.6,8.6,6.5,8.4z"/>
					</g>
				</g>
				<g id="claw-3_1_">
					<g id="path-2-6_1_">
						<path class="st1" d="M11.3,5c-0.3-0.1-0.9,0-0.9-0.2c0,0,0.7-0.8,0.9-0.9S11.6,5,11.3,5z"/>
					</g>
					<g id="path-1-9_1_">
						<path class="st1" d="M12.4,6.5c0-0.3-0.2-0.8,0-0.9c0,0,1,0.5,1.1,0.7C13.7,6.5,12.4,6.8,12.4,6.5z"/>
					</g>
					<g id="path-0-12_1_">
						<path class="st1" d="M13,7.5c0-0.3-0.2-0.8-0.1-0.9c0,0,1,0.4,1.2,0.6C14.2,7.5,13,7.8,13,7.5z"/>
					</g>
				</g>
				<g id="claw-2_1_">
					<path id="path-2-7_1_" class="st1" d="M12.5,15.9c0,0.1-0.2,0.3-0.2,0.3s-0.2-0.3-0.1-0.3C12.3,15.9,12.5,15.9,12.5,15.9z"/>
					<path id="path-1-10_1_" class="st1" d="M11.6,15.6c-0.1,0.1-0.1,0.3-0.1,0.4s0.3-0.1,0.3-0.1C11.8,15.8,11.6,15.6,11.6,15.6z"
						/>
					<path id="path-0-13_1_" class="st1" d="M11.9,15.8c0,0,0,0.3,0.1,0.3c0.1,0,0.3-0.3,0.2-0.3C12.1,15.9,11.9,15.8,11.9,15.8z"/>
					<g id="claw_1_">
						<path class="st1" d="M9.3,16.2c0,0.1,0.2,0.3,0.2,0.3c0,0,0.2-0.3,0.1-0.3C9.6,16.2,9.3,16.2,9.3,16.2z"/>
						<path class="st1" d="M10.2,15.8c0.1,0.1,0.1,0.3,0.1,0.4c0,0.1-0.4-0.1-0.3-0.1C10.1,16.1,10.2,15.8,10.2,15.8z"/>
						<path class="st1" d="M10,16.1c0,0,0,0.3,0,0.3c-0.1,0-0.3-0.3-0.2-0.2C9.8,16.2,10,16.1,10,16.1z"/>
					</g>
				</g>
				<g id="claw-1_1_">
					<path id="path-2-8_1_" class="st1" d="M12.5,14.4c0,0.1,0.1,0.3,0.2,0.4s0.2-0.3,0.2-0.3C12.8,14.5,12.5,14.4,12.5,14.4z"/>
					<path id="path-1-11_1_" class="st1" d="M13.3,14.2c0.1,0.1,0.1,0.3,0.1,0.4c0,0.1-0.3-0.2-0.3-0.2
						C13.2,14.4,13.3,14.2,13.3,14.2z"/>
					<path id="path-0-14_1_" class="st1" d="M13.1,14.4c0,0,0,0.3-0.1,0.3c-0.1,0-0.2-0.3-0.2-0.3C12.9,14.5,13.1,14.4,13.1,14.4z"
						/>
				</g>
				<g id="claw-0_1_">
					<path id="path-2-9_1_" class="st1" d="M8,15c0,0.1,0.1,0.3,0.2,0.4c0,0,0.2-0.3,0.2-0.3C8.3,15.1,8,15,8,15z"/>
					<path id="path-1-12_1_" class="st1" d="M8.9,14.8C9,14.9,9,15.1,9,15.1c0,0.1-0.3-0.2-0.3-0.2C8.7,15,8.9,14.8,8.9,14.8z"/>
					<path id="path-0-15_1_" class="st1" d="M8.7,15c0,0,0,0.3-0.1,0.3c-0.1,0-0.2-0.3-0.2-0.3C8.4,15.1,8.7,15,8.7,15z"/>
				</g>
			</g>
		</g>
		<g id="jiao01_1_" class="st3">
			<g id="layer-4_1_" class="st4">
				<path id="path-17_1_" class="st21" d="M9.3,16.3c0,0.1,0.2,0.3,0.2,0.3c0,0,0.2-0.3,0.1-0.3C9.6,16.3,9.3,16.3,9.3,16.3z"/>
				<path id="path-16_1_" class="st21" d="M10.2,15.9c0.1,0.1,0.1,0.3,0.1,0.4c0,0.1-0.4-0.1-0.3-0.1C10.1,16.2,10.2,15.9,10.2,15.9
					z"/>
				<path id="path-15_1_" class="st21" d="M10,16.2c0,0,0,0.3,0,0.3c-0.1,0-0.3-0.3-0.2-0.2C9.8,16.3,10,16.2,10,16.2z"/>
				<g id="path-2-10_1_">
					<path d="M7.4,5.6c0.2-0.1,0.3-0.1,0.5-0.2c0.1,0,0.3-0.1,0.3-0.2c0-0.1-0.1-0.1-0.1-0.2C8,4.9,7.9,4.9,7.7,4.8
						C7.6,4.7,7.4,4.6,7.3,4.5C7.2,4.5,7.1,4.4,7,4.5c-0.1,0-0.1,0.1-0.1,0.2C6.9,4.8,7,5,7,5.1C7.1,5.2,7.2,5.7,7.4,5.6
						C7.5,5.6,7.5,5.5,7.4,5.6c-0.1,0-0.2-0.1-0.2-0.2C7.2,5.3,7.1,5.2,7.1,5.1C7.1,5,7,4.9,7,4.8c0,0,0-0.2,0-0.2s0.2,0,0.2,0.1
						c0.1,0.1,0.2,0.1,0.4,0.2C7.7,4.9,7.9,5,8,5c0,0,0.1,0.1,0.1,0.1c0,0,0.1,0,0.1,0.1c0,0,0,0,0,0c0,0,0,0-0.1,0
						C8,5.3,8,5.3,7.9,5.3C7.7,5.4,7.6,5.5,7.4,5.6C7.4,5.6,7.4,5.6,7.4,5.6z"/>
				</g>
				<g id="path-1-13_1_">
					<path d="M6.9,7.3c0-0.2,0-0.4-0.1-0.5c0-0.1,0-0.3-0.1-0.3c-0.1,0-0.1,0.1-0.2,0.1C6.3,6.6,6.2,6.7,6.1,6.8
						C6,7,5.9,7.1,5.8,7.2c0,0.1-0.1,0.2-0.1,0.3c0,0.1,0.1,0.1,0.2,0.1c0.1,0,0.3,0,0.4,0C6.4,7.6,6.9,7.5,6.9,7.3
						C6.9,7.3,6.8,7.3,6.9,7.3C6.8,7.4,6.7,7.4,6.6,7.4c-0.1,0-0.2,0.1-0.3,0.1c-0.1,0-0.2,0-0.3,0c-0.1,0-0.2,0-0.2-0.1
						c0-0.1,0.1-0.2,0.1-0.2C5.9,7.2,6,7,6.1,7c0.1-0.1,0.2-0.2,0.3-0.3c0,0,0.1-0.1,0.1-0.1c0,0,0.1-0.1,0.1-0.1c0,0,0,0,0,0
						c0,0,0,0,0,0.1c0,0.1,0,0.2,0,0.2C6.7,7,6.7,7.1,6.9,7.3C6.8,7.4,6.9,7.4,6.9,7.3z"/>
				</g>
				<g id="path-0-16_1_">
					<path d="M6.6,8.5c0-0.2,0-0.4,0-0.6c0-0.1,0-0.3-0.1-0.3c-0.1,0-0.1,0-0.2,0.1C6.1,7.7,6,7.8,5.9,7.9C5.7,8,5.6,8.2,5.5,8.3
						C5.5,8.3,5.4,8.4,5.4,8.5c0,0.1,0.1,0.1,0.2,0.1c0.1,0,0.3,0,0.4,0C6.1,8.7,6.6,8.7,6.6,8.5C6.6,8.4,6.5,8.4,6.6,8.5
						C6.5,8.5,6.4,8.6,6.3,8.6c-0.1,0-0.2,0-0.3,0c-0.1,0-0.2,0-0.3,0c-0.1,0-0.2,0-0.2-0.1c0-0.1,0.1-0.2,0.1-0.2
						C5.7,8.2,5.8,8.1,5.9,8C6,7.9,6.1,7.9,6.2,7.8c0,0,0.1-0.1,0.1-0.1c0,0,0.1,0,0.1-0.1c0,0,0,0,0,0c0,0,0,0.1,0,0.1
						c0,0.1,0,0.2,0,0.2C6.5,8.1,6.5,8.3,6.6,8.5C6.5,8.5,6.6,8.5,6.6,8.5z"/>
				</g>
				<g id="path-2-11_1_">
					<path d="M11.3,5.1C11.2,5,11,5,10.9,5c-0.1,0-0.3,0-0.4-0.1c0,0,0,0,0,0c0,0,0,0,0,0c0,0,0.1-0.1,0.1-0.1
						c0.1-0.1,0.2-0.2,0.2-0.3c0.1-0.1,0.2-0.2,0.3-0.3c0,0,0.1-0.1,0.1-0.1c0,0,0.1-0.1,0.1-0.1c0.1,0,0.1,0.4,0.1,0.5
						c0,0.1,0,0.3-0.1,0.4C11.5,4.9,11.4,5.1,11.3,5.1C11.3,5,11.3,5.1,11.3,5.1c0.2,0.1,0.2-0.3,0.3-0.4c0-0.1,0-0.3,0-0.4
						c0-0.1,0-0.2-0.1-0.3c-0.1-0.1-0.2,0-0.2,0c-0.1,0.1-0.2,0.2-0.4,0.3c-0.1,0.1-0.2,0.2-0.3,0.4c0,0.1-0.1,0.1-0.2,0.2
						c0,0.1,0.2,0.2,0.3,0.2C10.9,5.1,11.1,5.1,11.3,5.1C11.4,5.1,11.4,5.1,11.3,5.1z"/>
				</g>
				<g id="path-1-14_1_">
					<path d="M12.4,6.6c0-0.2,0-0.3-0.1-0.5c0-0.1,0-0.1,0-0.2c0,0,0-0.1,0-0.2c0,0,0,0,0,0c0,0,0,0,0,0c0,0,0.1,0,0.1,0.1
						C12.7,5.9,12.8,6,12.9,6c0.1,0.1,0.3,0.2,0.4,0.2c0,0,0.1,0.1,0.1,0.1c0,0,0.1,0.1,0.1,0.1c0,0.1-0.1,0.1-0.1,0.1
						c-0.1,0-0.2,0.1-0.3,0.1c-0.1,0-0.3,0-0.4,0C12.6,6.7,12.5,6.7,12.4,6.6C12.4,6.6,12.4,6.6,12.4,6.6c-0.1,0.2,0.3,0.2,0.5,0.1
						c0.1,0,0.3,0,0.4-0.1c0.1,0,0.2-0.1,0.2-0.2c0-0.1,0-0.2-0.1-0.2c-0.1-0.1-0.3-0.2-0.4-0.3c-0.1-0.1-0.3-0.2-0.4-0.2
						c-0.1,0-0.2-0.1-0.3-0.1c-0.1,0-0.1,0.2-0.1,0.3C12.3,6.2,12.4,6.4,12.4,6.6C12.4,6.7,12.4,6.7,12.4,6.6z"/>
				</g>
				<g id="path-0-17_1_">
					<path d="M13,7.7c0-0.2-0.1-0.3-0.1-0.4c0-0.1-0.1-0.3,0-0.4c0,0,0,0,0,0c0,0,0,0,0,0c0,0,0.1,0,0.1,0c0.1,0,0.2,0.1,0.4,0.2
						c0.1,0.1,0.3,0.1,0.4,0.2c0.1,0,0.1,0.1,0.2,0.1c0,0,0.1,0.1,0.1,0.1c0,0.1-0.1,0.1-0.1,0.1c-0.1,0.1-0.2,0.1-0.3,0.1
						c-0.1,0-0.3,0.1-0.4,0.1C13.2,7.7,13,7.7,13,7.7C13,7.6,12.9,7.6,13,7.7c0,0.2,0.3,0.1,0.5,0.1c0.1,0,0.3-0.1,0.4-0.1
						c0.1,0,0.2-0.1,0.2-0.2s0-0.1-0.1-0.2c-0.1-0.1-0.3-0.2-0.4-0.2c-0.2-0.1-0.3-0.1-0.5-0.2c-0.1,0-0.2-0.1-0.3-0.1
						c-0.1,0-0.1,0.2-0.1,0.3C12.8,7.3,12.9,7.5,13,7.7C12.9,7.7,13,7.7,13,7.7z"/>
				</g>
				<path id="path-8_1_" class="st21" d="M12.5,16c0,0.1-0.2,0.3-0.2,0.3S12.2,16,12.2,16C12.2,16.1,12.5,16,12.5,16z"/>
				<path id="path-7_1_" class="st21" d="M11.6,15.7c-0.1,0.1-0.1,0.3-0.1,0.4c0,0.1,0.3-0.1,0.3-0.1C11.8,15.9,11.6,15.7,11.6,15.7
					z"/>
				<path id="path-6_1_" class="st21" d="M11.9,15.9c0,0,0,0.3,0.1,0.3c0.1,0,0.3-0.3,0.2-0.3C12.1,16,11.9,15.9,11.9,15.9z"/>
				<path id="path-5_1_" class="st21" d="M12.5,14.5c0,0.1,0.1,0.3,0.2,0.4s0.2-0.3,0.2-0.3C12.8,14.6,12.5,14.5,12.5,14.5z"/>
				<path id="path-4_1_" class="st21" d="M13.3,14.3c0.1,0.1,0.1,0.3,0.1,0.4c0,0.1-0.3-0.2-0.3-0.2C13.2,14.5,13.3,14.3,13.3,14.3z
					"/>
				<path id="path-3-5_1_" class="st21" d="M13.1,14.5c0,0,0,0.3-0.1,0.3c-0.1,0-0.2-0.3-0.2-0.3C12.9,14.6,13.1,14.5,13.1,14.5z"/>
				<path id="path-2-12_1_" class="st21" d="M8,15.1c0,0.1,0.1,0.3,0.2,0.4c0,0,0.2-0.3,0.2-0.3C8.3,15.2,8,15.1,8,15.1z"/>
				<path id="path-1-15_1_" class="st21" d="M8.9,14.9C9,15,9,15.2,9,15.3c0,0.1-0.3-0.2-0.3-0.2C8.7,15.1,8.9,14.9,8.9,14.9z"/>
				<path id="path-0-18_1_" class="st21" d="M8.7,15.1c0,0,0,0.3-0.1,0.3c-0.1,0-0.2-0.3-0.2-0.3C8.4,15.2,8.7,15.1,8.7,15.1z"/>
			</g>
		</g>
	</g>
	<g id="head_1_">
		<g id="headFur_1_">
			<g id="head-mainColor_1_">
				<g id="head-mainColor02_1_">
					<g>
						<g>
							<path id="SVGID_2_" class="st1" d="M7.2,5.5c-0.2,0-0.6,0-0.9-0.1C6.1,5.2,5.7,4.5,5.6,4.6c0,0.1-0.2,0.7,0,1.4
								c0.1,0.2,0.5,0.6,0.7,0.7c0,0-0.1,0.4-0.2,1C6,8,6,8.4,6,8.8c0,0.3,0,0.7,0.1,1c0.1,0.7,0.3,1.3,0.5,1.5
								c0.7,0.6,2.1,0.8,2.4,0.8c0.3,0,0.4,0,0.6,0c0.1,0,0.8,0.5,1.7-0.2c0,0,1.3-0.5,1.9-0.9c0.5-0.5,0.7-0.7,0.8-1.1
								c0.1-0.2-0.1-1.4-0.4-2.4c-0.3-0.9-0.8-1.7-0.8-1.7s0.2-0.1,0.4-0.5c0.2-0.4,0.1-1.7,0.1-1.7c-0.1,0-0.5,0.9-0.9,1
								C11.8,4.7,11.5,5,11.5,5c0,0-0.2-0.2-0.7-0.3c-0.4-0.1-0.3,0-0.7,0c-0.2,0,0.3-0.3,0-0.7c-0.4-0.6,0.2,0.3-0.6,0.5
								C8.8,4.6,8.7,5,8.3,5C7.8,5.1,7.2,5.5,7.2,5.5z"/>
						</g>
						<g>
							<defs>
								<path id="SVGID_64_" d="M7.2,5.5c-0.2,0-0.6,0-0.9-0.1C6.1,5.2,5.7,4.5,5.6,4.6c0,0.1-0.2,0.7,0,1.4
									c0.1,0.2,0.5,0.6,0.7,0.7c0,0-0.1,0.4-0.2,1C6,8,6,8.4,6,8.8c0,0.3,0,0.7,0.1,1c0.1,0.7,0.3,1.3,0.5,1.5
									c0.7,0.6,2.1,0.8,2.4,0.8c0.3,0,0.4,0,0.6,0c0.1,0,0.8,0.5,1.7-0.2c0,0,1.3-0.5,1.9-0.9c0.5-0.5,0.7-0.7,0.8-1.1
									c0.1-0.2-0.1-1.4-0.4-2.4c-0.3-0.9-0.8-1.7-0.8-1.7s0.2-0.1,0.4-0.5c0.2-0.4,0.1-1.7,0.1-1.7c-0.1,0-0.5,0.9-0.9,1
									C11.8,4.7,11.5,5,11.5,5c0,0-0.2-0.2-0.7-0.3c-0.4-0.1-0.3,0-0.7,0c-0.2,0,0.3-0.3,0-0.7c-0.4-0.6,0.2,0.3-0.6,0.5
									C8.8,4.6,8.7,5,8.3,5C7.8,5.1,7.2,5.5,7.2,5.5z"/>
							</defs>
							<clipPath id="SVGID_65_">
								<use xlink:href="#SVGID_64_"  style="overflow:visible;"/>
							</clipPath>
							<g class="st38">
								
									<rect id="rectangles-3_1_" x="4.7" y="2.8" transform="matrix(0.9911 -0.1333 0.1333 0.9911 -0.9387 1.2999)" class="st1" width="9.1" height="9.7"/>
							</g>
						</g>
					</g>
				</g>
			</g>
			<g id="headFur03_1_" class="st3">
				<g id="color2-3_1_" class="st4">
					<g id="color2-4_1_">
						<g>
							<g>
								<defs>
									<path id="SVGID_66_" d="M7.2,5.5c-0.2,0-0.6,0-0.9-0.1C6.1,5.2,5.7,4.5,5.6,4.6c0,0.1-0.2,0.7,0,1.4
										c0.1,0.2,0.5,0.6,0.7,0.7c0,0-0.1,0.4-0.2,1C6,8,6,8.4,6,8.8c0,0.3,0,0.7,0.1,1c0.1,0.7,0.3,1.3,0.5,1.5
										c0.7,0.6,2.1,0.8,2.4,0.8c0.3,0,0.4,0,0.6,0c0.1,0,0.8,0.5,1.7-0.2c0,0,1.3-0.5,1.9-0.9c0.5-0.5,0.7-0.7,0.8-1.1
										c0.1-0.2-0.1-1.4-0.4-2.4c-0.3-0.9-0.8-1.7-0.8-1.7s0.2-0.1,0.4-0.5c0.2-0.4,0.1-1.7,0.1-1.7c-0.1,0-0.5,0.9-0.9,1
										C11.8,4.7,11.5,5,11.5,5c0,0-0.2-0.2-0.7-0.3c-0.4-0.1-0.3,0-0.7,0c-0.2,0,0.3-0.3,0-0.7c-0.4-0.6,0.2,0.3-0.6,0.5
										C8.8,4.6,8.7,5,8.3,5C7.8,5.1,7.2,5.5,7.2,5.5z"/>
								</defs>
								<clipPath id="SVGID_67_">
									<use xlink:href="#SVGID_66_"  style="overflow:visible;"/>
								</clipPath>
								<g class="st39">
									<path id="path-3-6_1_" class="st14" d="M14.4,6.2c0,0-3.4,0.9-3.4,1.8c0,0.8,3,0.4,3,0.4l1-0.5L14.4,6.2z"/>
									<path id="path-2-13_1_" class="st14" d="M4.5,7.6c0,0,3.5,0,3.7,0.8c0.2,0.7-2.8,1.2-2.8,1.2L4.4,9.3L4.5,7.6z"/>
									<path id="path-1-16_1_" class="st14" d="M14.5,8.5c0,0-3.4,0.9-3.4,1.8c0,0.8,3,0.4,3,0.4l1-0.5L14.5,8.5z"/>
									<path id="path-0-19_1_" class="st14" d="M4.7,9.8c0,0,3.5,0,3.7,0.8c0.2,0.7-2.8,1.2-2.8,1.2l-1.1-0.3L4.7,9.8z"/>
								</g>
							</g>
						</g>
					</g>
				</g>
				<g id="color1-3_1_" class="st4">
					<g>
						<g>
							<defs>
								<path id="SVGID_68_" d="M7.2,5.5c-0.2,0-0.6,0-0.9-0.1C6.1,5.2,5.7,4.5,5.6,4.6c0,0.1-0.2,0.7,0,1.4
									c0.1,0.2,0.5,0.6,0.7,0.7c0,0-0.1,0.4-0.2,1C6,8,6,8.4,6,8.8c0,0.3,0,0.7,0.1,1c0.1,0.7,0.3,1.3,0.5,1.5
									c0.7,0.6,2.1,0.8,2.4,0.8c0.3,0,0.4,0,0.6,0c0.1,0,0.8,0.5,1.7-0.2c0,0,1.3-0.5,1.9-0.9c0.5-0.5,0.7-0.7,0.8-1.1
									c0.1-0.2-0.1-1.4-0.4-2.4c-0.3-0.9-0.8-1.7-0.8-1.7s0.2-0.1,0.4-0.5c0.2-0.4,0.1-1.7,0.1-1.7c-0.1,0-0.5,0.9-0.9,1
									C11.8,4.7,11.5,5,11.5,5c0,0-0.2-0.2-0.7-0.3c-0.4-0.1-0.3,0-0.7,0c-0.2,0,0.3-0.3,0-0.7c-0.4-0.6,0.2,0.3-0.6,0.5
									C8.8,4.6,8.7,5,8.3,5C7.8,5.1,7.2,5.5,7.2,5.5z"/>
							</defs>
							<clipPath id="SVGID_69_">
								<use xlink:href="#SVGID_68_"  style="overflow:visible;"/>
							</clipPath>
							<g class="st40">
								<path id="path-2-14_1_" class="st14" d="M7.4,2.1c0,0,1.3,4.6,2.4,4.5s0.4-3.9-0.1-5.2C9.1,0.1,7.4,2.1,7.4,2.1z"/>
								<path id="path-1-17_1_" class="st14" d="M12.4,2.8c0,0-1.6,3.2-0.9,3.7c0.6,0.5,2.3-2,2.3-2l0.3-1.1L12.4,2.8z"/>
								<path id="path-0-20_1_" class="st14" d="M5.9,3.7c0,0,2.4,2.6,1.9,3.3C7.4,7.7,5,5.7,5,5.7l-0.5-1L5.9,3.7z"/>
							</g>
						</g>
					</g>
				</g>
			</g>
		</g>
		<g id="headShadow_1_" class="st3">
			<g id="headShadow02_1_" class="st4">
				<g id="headShadow-2_1_">
					<g>
						<g>
							<defs>
								<path id="SVGID_70_" d="M7.3,5.5C6.7,5.4,5.5,5.5,5.5,5.6s0.4,0.9,0.8,1C6.3,6.7,6,7.7,6,8.8c0,1.1,0.3,2.2,0.6,2.5
									c0.7,0.6,2.1,0.8,2.4,0.8c0.3,0,0.4,0,0.6,0c0.1,0,0.8,0.5,1.7-0.2c0,0,1.3-0.5,1.9-0.9c0.5-0.5,0.7-0.7,0.8-1.1
									c0.1-0.2-0.1-1.4-0.4-2.4c-0.3-0.9-0.8-1.7-0.8-1.7c0.2-0.2,0.3-0.4,0.4-0.6c0.2-0.4,0.2-0.6,0.1-0.7c-0.1,0-0.4,0-0.9,0.1
									C12,4.8,11.6,5,11.6,5c0,0-1-0.1-2.1-0.1C8.4,5,7.3,5.5,7.3,5.5z"/>
							</defs>
							<clipPath id="SVGID_71_">
								<use xlink:href="#SVGID_70_"  style="overflow:visible;"/>
							</clipPath>
							<g class="st41">
								<path id="path-0-21_1_" class="st20" d="M6.6,5.2C5.5,5.5,5.1,5.4,5.9,5.9C6.1,6,6.4,6.2,6.5,6.5c0.1,0.2-0.1,0.2,0,0.5
									c0.1,0.4,0.1,0.5,0,0.7C6.4,8.2,6.3,8.6,6.4,8.9c0.4,1.2-0.3,1.3,0.4,2.2c1,1.1,3.1,1.3,3.1,1.3l-2.1-0.2l-0.9-0.2l-1-1.3
									L5.3,9.1l-0.1-2c0,0-0.1-1.6,0.3-1.7C5.9,5.3,6.6,5.2,6.6,5.2z"/>
								<path id="path-0-22_1_" class="st9" d="M13.6,4.2c-0.1-0.2-0.4,0.2-0.7,0.6c-0.2,0.4-0.4,0.8-0.4,0.9c0,0.2,1.4,3.4,0.9,4.4
									c-0.7,1.3-2.6,2-2.6,2l2-0.8l0.9-0.5l0.6-1.5L14.3,8l-0.5-2C13.8,6,13.7,4.5,13.6,4.2z"/>
							</g>
						</g>
					</g>
				</g>
			</g>
		</g>
		<g id="head03_1_" class="st3">
			<g id="layer-5_1_" class="st4">
				<path id="path-3-7_1_" class="st21" d="M9.4,10c0.1-0.1,0.8-0.5,1.5-0.1"/>
				<g id="path-2-15_1_">
					<path d="M7.2,5.5c-0.3-0.1-0.7,0-1-0.2C6.1,5.1,5.9,4.8,5.7,4.6c0,0-0.1-0.1-0.1-0.1c0,0,0,0,0,0.1c0,0.1,0,0.1,0,0.2
						c-0.1,0.4-0.1,0.8,0,1.1c0.1,0.2,0.2,0.3,0.3,0.4C6,6.5,6.1,6.6,6.3,6.7l0-0.1c0,0.1,0,0.1-0.1,0.2c0,0.2-0.1,0.3-0.1,0.5
						C6,7.7,6,8.2,5.9,8.6C5.9,9,6,9.5,6,9.9c0.1,0.4,0.1,0.7,0.3,1.1c0,0.1,0.1,0.2,0.2,0.3c0.1,0.1,0.2,0.2,0.3,0.2
						c0.3,0.2,0.5,0.3,0.8,0.4C7.9,12,8.2,12,8.5,12.1c0.2,0,0.3,0.1,0.5,0.1c0.1,0,0.2,0,0.3,0c0.1,0,0.1,0,0.2,0c0,0,0.1,0,0.1,0
						c0.2,0.1,0.4,0.1,0.6,0.1c0.1,0,0.3,0,0.4-0.1c0.2-0.1,0.3-0.2,0.5-0.3c0.1-0.1,0.2-0.1,0.4-0.1c0.5-0.2,1-0.4,1.5-0.7
						c0.2-0.2,0.5-0.4,0.7-0.7c0.1-0.2,0.2-0.4,0.2-0.6c0-0.3,0-0.5-0.1-0.8c-0.1-0.4-0.1-0.8-0.2-1.2c-0.2-0.7-0.4-1.3-0.8-2
						c0,0,0-0.1-0.1-0.1l0,0c0.1-0.1,0.2-0.2,0.3-0.4c0.1-0.2,0.2-0.3,0.2-0.5c0.1-0.4,0.1-0.8,0-1.2c0-0.1,0-0.2-0.1-0.2
						c-0.1,0-0.2,0.2-0.2,0.2c-0.1,0.2-0.2,0.4-0.4,0.5c-0.1,0.1-0.2,0.2-0.2,0.2c-0.1,0.1-0.2,0.1-0.3,0.1
						c-0.1,0.1-0.2,0.1-0.3,0.2c0,0-0.1,0.1-0.1,0.1c0,0,0.1,0,0,0c0,0,0,0-0.1,0c-0.1,0-0.2-0.1-0.3-0.1c-0.2-0.1-0.5-0.2-0.7-0.1
						c-0.1,0-0.2,0-0.3,0c0,0-0.1,0-0.1,0c0,0,0,0,0-0.1c0.1-0.1,0.1-0.3,0.1-0.5C10.1,4.1,10,4,10,3.9c0,0-0.1-0.1-0.1-0.1
						c-0.1-0.1-0.1,0-0.1,0.1c0,0.1,0,0.2-0.1,0.3C9.6,4.4,9.4,4.4,9.2,4.5C9,4.6,8.8,4.7,8.6,4.9C8.4,5,8.1,5,7.9,5.1
						C7.7,5.2,7.5,5.3,7.2,5.5C7.3,5.5,7.2,5.5,7.2,5.5C7.2,5.5,7.2,5.6,7.2,5.5C7.3,5.6,7.3,5.5,7.2,5.5c0.1,0,0.1,0,0.1,0
						c0.1-0.1,0.2-0.1,0.3-0.2C7.8,5.3,7.9,5.2,8,5.2c0.1,0,0.2-0.1,0.4-0.1c0.2,0,0.4-0.2,0.5-0.3C9,4.7,9.1,4.6,9.2,4.6
						c0.1,0,0.2-0.1,0.3-0.1c0.2-0.1,0.3-0.4,0.3-0.6c0,0,0,0,0,0c0,0,0,0,0,0c0,0,0,0,0,0C9.9,3.9,9.9,4,10,4
						c0.1,0.2,0.1,0.3,0,0.5c0,0.1-0.1,0.2,0,0.2c0.1,0,0.2,0,0.3,0c0.1,0,0.2,0,0.2,0c0.3,0,0.5,0.1,0.8,0.2c0.1,0,0.2,0.1,0.2,0.1
						c0.2-0.1,0.3-0.3,0.5-0.3c0.1,0,0.2-0.1,0.3-0.1c0.1-0.1,0.1-0.1,0.2-0.2c0.1-0.2,0.3-0.3,0.4-0.5c0-0.1,0.1-0.1,0.1-0.2
						c0,0,0,0,0-0.1c0,0,0,0,0,0c0,0,0,0,0,0c0,0,0,0.1,0,0.1c0,0.1,0,0.1,0,0.2c0,0.2,0,0.4,0,0.6c0,0.2,0,0.4-0.1,0.6
						c-0.1,0.2-0.2,0.4-0.4,0.5c0,0-0.1,0.1-0.1,0.1c0,0,0,0,0,0c0.6,1.1,1,2.3,1.1,3.6c0,0.2,0,0.4,0,0.6c-0.1,0.2-0.2,0.5-0.4,0.6
						c-0.2,0.2-0.5,0.4-0.7,0.6c-0.2,0.1-0.5,0.3-0.7,0.4c-0.2,0.1-0.4,0.2-0.6,0.2c0,0-0.1,0-0.1,0c-0.1,0-0.1,0.1-0.2,0.1
						c-0.1,0.1-0.2,0.1-0.3,0.1c-0.3,0.1-0.6,0.1-0.8,0c-0.1,0-0.2-0.1-0.2-0.1c0,0-0.1,0-0.1,0c-0.1,0-0.3,0-0.4,0
						c-0.1,0-0.2,0-0.3,0c-0.2,0-0.4-0.1-0.6-0.1c-0.3-0.1-0.6-0.2-0.8-0.3c-0.3-0.1-0.5-0.2-0.7-0.4c-0.1-0.1-0.1-0.2-0.2-0.3
						c-0.1-0.2-0.1-0.3-0.2-0.5C6.1,10.1,6.1,9.6,6,9.2c0-0.8,0-1.6,0.2-2.4c0-0.1,0-0.1,0.1-0.2c0,0,0,0,0-0.1
						C6.2,6.5,6.1,6.4,6,6.4C5.9,6.3,5.7,6.1,5.7,6C5.5,5.7,5.5,5.2,5.6,4.9c0-0.1,0-0.1,0-0.2c0,0,0-0.1,0-0.1c0,0,0,0,0,0
						c0,0,0,0,0,0c0,0,0.1,0.1,0.1,0.1C5.9,5,6.1,5.2,6.3,5.4C6.5,5.6,6.9,5.5,7.2,5.5C7.3,5.6,7.3,5.5,7.2,5.5z"/>
				</g>
				<path id="path-1-18_1_" class="st21" d="M10.7,11.1c0.1-0.4,0.4-0.3,0.5-0.3"/>
				<path id="path-0-23_1_" class="st21" d="M9.7,11.2c-0.2-0.4-0.5-0.2-0.5-0.1"/>
			</g>
		</g>
	</g>
</g>
<g>
	<g id="tailFur">
		<g id="tail-mainColor">
			<g id="tail-mainColor02">
				<g>
					<g>
						<path id="SVGID_1_" class="st1" d="M12.6,13.5c0,0,0.5,0.1,0.6,0.1c0.1,0.1,0,0.4,0,0.4l0.3,0.2c0,0,0.5-0.1,0.6-0.1
							s0.1,0.4,0.1,0.4s0.2,0.1,0.3,0c0.1,0,0.2-0.3,0.3-0.3c0.1,0,0.3,0.2,0.4,0.2c0.1,0,0.6-0.2,0.6-0.1c0,0.1-0.5,0.6-1.7,0.9
							c-1.2,0.3-2-0.2-2-0.2L12,13.4l0.4-0.1l0,0L12.6,13.5z"/>
					</g>
					<g>
						<defs>
							<path id="SVGID_72_" d="M12.6,13.5c0,0,0.5,0.1,0.6,0.1c0.1,0.1,0,0.4,0,0.4l0.3,0.2c0,0,0.5-0.1,0.6-0.1s0.1,0.4,0.1,0.4
								s0.2,0.1,0.3,0c0.1,0,0.2-0.3,0.3-0.3c0.1,0,0.3,0.2,0.4,0.2c0.1,0,0.6-0.2,0.6-0.1c0,0.1-0.5,0.6-1.7,0.9
								c-1.2,0.3-2-0.2-2-0.2L12,13.4l0.4-0.1l0,0L12.6,13.5z"/>
						</defs>
						<clipPath id="SVGID_73_">
							<use xlink:href="#SVGID_72_"  style="overflow:visible;"/>
						</clipPath>
						<g class="st42">
							
								<rect id="rectangles" x="11.4" y="12" transform="matrix(0.987 -0.1608 0.1608 0.987 -2.1522 2.4165)" class="st1" width="5" height="5"/>
						</g>
					</g>
				</g>
			</g>
		</g>
		<g id="tailFur02" class="st3">
			<g id="color2" class="st4">
				<g>
					<g>
						<defs>
							<path id="SVGID_74_" d="M12.6,13.5c0,0,0.5,0.1,0.6,0.1c0.1,0.1,0,0.4,0,0.4l0.3,0.2c0,0,0.5-0.1,0.6-0.1s0.1,0.4,0.1,0.4
								s0.2,0.1,0.3,0c0.1,0,0.2-0.3,0.3-0.3c0.1,0,0.3,0.2,0.4,0.2c0.1,0,0.6-0.2,0.6-0.1c0,0.1-0.5,0.6-1.7,0.9
								c-1.2,0.3-2-0.2-2-0.2L12,13.4l0.4-0.1l0,0L12.6,13.5z"/>
						</defs>
						<clipPath id="SVGID_75_">
							<use xlink:href="#SVGID_74_"  style="overflow:visible;"/>
						</clipPath>
						<g class="st43">
							<path id="path-3" class="st6" d="M17.3,12.3c-1.1,0.4-0.5-0.6-1.5,0.8c-1,1.4-1.7,1.6-0.9,1.9c0.8,0.3,2,0.9,2.5-0.2
								s0.7-1.2,0.3-1.8L17.3,12.3z"/>
							<path id="path-2" class="st6" d="M11.3,12.4c1.8,0.5,2-0.2,2.3,0.5c0.3,0.7-0.3,0.4-0.5,1.2c-0.2,1-0.7,0.7-1.3-0.1
								c-0.2-0.3-0.4-0.6-0.6-1L11.3,12.4z"/>
							<path id="path-1" class="st6" d="M15.5,10.4c-1.5,1.4-1.8,1.4-1.5,1.7c0.3,0.3,0.1,0.5,0.8,0.3s0.9-1.5,0.9-1.5L15.5,10.4z"
								/>
							<path id="path-0" class="st6" d="M11.6,15.7c1.7-0.4,1.9-0.9,2.2-0.8s0.5,0.9,0.6,1.3c0,0.4,1.4,0.3,0,0.6s-1.4,0.9-1.8,0.5
								S11.6,15.7,11.6,15.7z"/>
						</g>
					</g>
				</g>
			</g>
			<g id="tailShadow02" class="st4">
				<g>
					<g>
						<defs>
							<path id="SVGID_76_" d="M12.6,13.5c0,0,0.5,0.1,0.6,0.1c0.1,0.1,0,0.4,0,0.4l0.3,0.2c0,0,0.5-0.1,0.6-0.1s0.1,0.4,0.1,0.4
								s0.2,0.1,0.3,0c0.1,0,0.2-0.3,0.3-0.3c0.1,0,0.3,0.2,0.4,0.2c0.1,0,0.6-0.2,0.6-0.1c0,0.1-0.5,0.6-1.7,0.9
								c-1.2,0.3-2-0.2-2-0.2L12,13.4l0.4-0.1l0,0L12.6,13.5z"/>
						</defs>
						<clipPath id="SVGID_77_">
							<use xlink:href="#SVGID_76_"  style="overflow:visible;"/>
						</clipPath>
						<g class="st44">
							<path id="path-1-2" class="st8" d="M15.8,15.3c-2,0.6-3.2-0.5-3.5-0.8C12,14.2,12,14.2,12,14.2l-0.5,0.4l0.4,0.6l1.9,0.7
								l1.2-0.1L15.8,15.3z"/>
							<path id="path-0-2" class="st9" d="M16.2,14.1c0,0,1.1-0.3,0.5,0c-2.4,1.1-3.1,0.6-3.3,0.5c-0.3-0.1-0.9-0.8-0.9-0.8l0.3-0.6
								l0.6,0.1l2,0.6L16.2,14.1L16.2,14.1z"/>
						</g>
					</g>
				</g>
			</g>
		</g>
	</g>
	<g id="wingsFur">
		<g id="wingsFur01">
			<g id="layer-2">
				<g id="wingsColor01-left">
					<g>
						<g>
							<path id="SVGID_7_" class="st1" d="M6.8,12.4c0,0-1.2-0.5-1.5-0.9c-0.2-0.4-0.8,0-1.2,0.4c-0.3,0.2-0.8,0.9-1,1.6
								c-0.2,0.7-0.1,1.4,0,1.5s0.2-0.9,0.7-1.5c0.5-0.8,1.3-1.4,1.3-1c0,0.9,0.2,1.8,0.4,1.9s0-1.2,0.3-1.5c0.3-0.3,1-0.1,1-0.1
								L6.8,12.4z"/>
						</g>
						<g>
							<defs>
								<path id="SVGID_78_" d="M6.8,12.4c0,0-1.2-0.5-1.5-0.9c-0.2-0.4-0.8,0-1.2,0.4c-0.3,0.2-0.8,0.9-1,1.6
									c-0.2,0.7-0.1,1.4,0,1.5s0.2-0.9,0.7-1.5c0.5-0.8,1.3-1.4,1.3-1c0,0.9,0.2,1.8,0.4,1.9s0-1.2,0.3-1.5c0.3-0.3,1-0.1,1-0.1
									L6.8,12.4z"/>
							</defs>
							<clipPath id="SVGID_79_">
								<use xlink:href="#SVGID_78_"  style="overflow:visible;"/>
							</clipPath>
							<g class="st45">
								
									<rect id="wingsColor01-left01" x="2" y="10.4" transform="matrix(0.987 -0.1608 0.1608 0.987 -2.0113 0.9688)" class="st46" width="6" height="5"/>
							</g>
						</g>
					</g>
				</g>
				<g id="wingsColor01-right">
					<g>
						<g>
							<path id="SVGID_9_" class="st1" d="M11.9,11.7c0,0,1-0.8,1.1-1.3c0.1-0.4,0.7-0.3,1.3,0c0.3,0.1,1.1,0.6,1.5,1.2
								c0.4,0.6,0.6,1.3,0.5,1.4c-0.1,0.2-0.5-0.8-1.1-1.2c-0.8-0.6-1.7-0.9-1.6-0.5c0.3,0.9,0.3,1.8,0.3,1.9s-0.4-1.2-0.8-1.4
								c-0.4-0.2-1,0.3-1,0.3L11.9,11.7z"/>
						</g>
						<g>
							<defs>
								<path id="SVGID_80_" d="M11.9,11.7c0,0,1-0.8,1.1-1.3c0.1-0.4,0.7-0.3,1.3,0c0.3,0.1,1.1,0.6,1.5,1.2
									c0.4,0.6,0.6,1.3,0.5,1.4c-0.1,0.2-0.5-0.8-1.1-1.2c-0.8-0.6-1.7-0.9-1.6-0.5c0.3,0.9,0.3,1.8,0.3,1.9s-0.4-1.2-0.8-1.4
									c-0.4-0.2-1,0.3-1,0.3L11.9,11.7z"/>
							</defs>
							<clipPath id="SVGID_81_">
								<use xlink:href="#SVGID_80_"  style="overflow:visible;"/>
							</clipPath>
							<g class="st47">
								
									<rect id="wingsColor01-right01" x="10.9" y="9" transform="matrix(0.987 -0.1608 0.1608 0.987 -1.6628 2.3787)" class="st46" width="6" height="5"/>
							</g>
						</g>
					</g>
				</g>
			</g>
		</g>
	</g>
	<g id="bodyFur">
		<g id="bodyFur-2">
			<g id="body-mainColor">
				<g id="body-mainColor03">
					<g id="clipping_Path">
						<g>
							<g>
								<path id="SVGID_11_" class="st46" d="M6.8,12.2c0,0-0.3,1.2,0,2c0.1,0.4,0.1,1.2,0.5,1.2c0.4,0,0.6,0.5,0.6,0.5
									c0.2,0.2,0.5,0.3,0.5,0.4c0.2,0.2,0.4,0.3,0.7,0.2c0.3-0.3,0.4-0.6,0-1c0-0.1,0.1,0,0.4,0c0.5,0,1.2-0.1,1.3-0.4
									c0.1-0.2-0.1,0.4-0.1,0.6c0.1,0.5,0.9,0.6,1.1,0.2c0.2-0.2,0.5-1.2,0.5-1.5c0.1-0.3,0-0.7,0-1.1c-0.1-0.9-0.4-1.7-0.8-2
									c-0.3-0.2-0.6,0-1,0L9,11L6.8,12.2"/>
							</g>
						</g>
					</g>
				</g>
			</g>
			<g id="bodyFur03" class="st3">
				<g id="color2-2" class="st4">
					<g id="color2-1">
						<g>
							<g>
								<defs>
									<path id="SVGID_82_" d="M6.8,12.2c0,0-0.3,1.2,0,2c0.1,0.4,0.1,1.2,0.5,1.2c0.4,0,0.6,0.5,0.6,0.5c0.2,0.2,0.5,0.3,0.5,0.4
										c0.2,0.2,0.4,0.3,0.7,0.2c0.3-0.3,0.4-0.6,0-1c0-0.1,0.1,0,0.4,0c0.5,0,1.2-0.1,1.3-0.4c0.1-0.2-0.1,0.4-0.1,0.6
										c0.1,0.5,0.9,0.6,1.1,0.2c0.2-0.2,0.5-1.2,0.5-1.5c0.1-0.3,0-0.7,0-1.1c-0.1-0.9-0.4-1.7-0.8-2c-0.3-0.2-0.6,0-1,0L9,11
										L6.8,12.2"/>
								</defs>
								<clipPath id="SVGID_83_">
									<use xlink:href="#SVGID_82_"  style="overflow:visible;"/>
								</clipPath>
								<g class="st48">
									<path id="path-3-3" class="st14" d="M13.4,15.2c0,0-2.5-0.4-2.8,0.2c-0.2,0.5,1.9,1.2,1.9,1.2l0.8-0.1L13.4,15.2z"/>
									<path id="path-2-3" class="st14" d="M6.6,16.3c0,0,2.3-1.2,2.7-0.7c0.4,0.4-1.4,1.7-1.4,1.7L7,17.5L6.6,16.3z"/>
								</g>
							</g>
						</g>
					</g>
				</g>
				<g id="color1-2" class="st4">
					<g>
						<g>
							<defs>
								<path id="SVGID_84_" d="M6.8,12.2c0,0-0.3,1.2,0,2c0.1,0.4,0.1,1.2,0.5,1.2c0.4,0,0.6,0.5,0.6,0.5c0.2,0.2,0.5,0.3,0.5,0.4
									c0.2,0.2,0.4,0.3,0.7,0.2c0.3-0.3,0.4-0.6,0-1c0-0.1,0.1,0,0.4,0c0.5,0,1.2-0.1,1.3-0.4c0.1-0.2-0.1,0.4-0.1,0.6
									c0.1,0.5,0.9,0.6,1.1,0.2c0.2-0.2,0.5-1.2,0.5-1.5c0.1-0.3,0-0.7,0-1.1c-0.1-0.9-0.4-1.7-0.8-2c-0.3-0.2-0.6,0-1,0L9,11
									L6.8,12.2"/>
							</defs>
							<clipPath id="SVGID_85_">
								<use xlink:href="#SVGID_84_"  style="overflow:visible;"/>
							</clipPath>
							<g class="st49">
								<path id="path-3-4" class="st14" d="M13.2,10.8c0,0-2.5,0.8-2.4,1.4c0,0.6,2.2,0.2,2.2,0.2l0.7-0.4L13.2,10.8z"/>
								<path id="path-2-4" class="st14" d="M5.1,12.1c0,0,2.6-0.1,2.7,0.5c0.1,0.5-2,0.9-2,0.9L5,13.4L5.1,12.1z"/>
								<path id="path-1-5" class="st14" d="M14.1,12.6c0,0-2.5,0.8-2.4,1.4c0,0.6,2.2,0.2,2.2,0.2l0.7-0.4L14.1,12.6z"/>
								<path id="path-0-8" class="st14" d="M5,14c0,0,2.6-0.1,2.7,0.5c0.1,0.5-2,0.9-2,0.9l-0.8-0.2L5,14z"/>
							</g>
						</g>
					</g>
				</g>
			</g>
		</g>
		<g id="paunchFur" class="st3">
			<g id="paunchFur02" class="st4">
				<g>
					<g>
						<defs>
							<path id="SVGID_86_" d="M6.5,11.5c-0.4,0.8-0.4,2-0.2,2.9c0.2,0.8,1.1,1.8,2,1.8c0.1,0.1,0.1,0.2,0.2,0.2
								c0.1,0.1,0.4,0,0.5-0.1c0.2-0.1,0.2-0.3,0.2-0.5c0-0.2-0.2-0.4-0.3-0.5c0,0,0.3,0.2,0.8,0.1c0.4,0,1-0.3,1-0.3
								c0,0.3-0.2,0.4-0.1,0.6c0.1,0.2,0.5,0.4,0.9,0.3C12,16,12,15.7,12,15.7c0.2-0.4,0.9-0.8,0.9-2.1c0-1.3-0.7-2.9-0.9-3
								c-0.2-0.1-2.4,1-3.2,1c-0.5,0-1.1,0.1-1.6,0.2C7.1,11.8,6.5,11.5,6.5,11.5z"/>
						</defs>
						<clipPath id="SVGID_87_">
							<use xlink:href="#SVGID_86_"  style="overflow:visible;"/>
						</clipPath>
						<g class="st50">
							<path id="color3" class="st17" d="M11.3,14.3c0.1,0.6-0.5,1.2-1.2,1.3s-1.5-0.3-1.6-0.9c0-0.1-0.3-0.9,0-1.4
								c0.2-0.3,0.7,0.2,1.2,0.2c0.6-0.1,0.9-0.7,1.2-0.5C11.3,13.4,11.3,14.1,11.3,14.3z"/>
						</g>
					</g>
				</g>
			</g>
		</g>
		<g id="bodyShadow" class="st3">
			<g id="bodyShadow03" class="st4">
				<g id="bodyShadow-2">
					<g>
						<g>
							<defs>
								<path id="SVGID_88_" d="M6.8,12.2c0,0-0.3,1.2,0,2c0.1,0.4,0.1,1.2,0.5,1.2c0.4,0,0.6,0.5,0.6,0.5c0.2,0.2,0.5,0.3,0.5,0.4
									c0.2,0.2,0.4,0.3,0.7,0.2c0.3-0.3,0.4-0.6,0-1c0-0.1,0.1,0,0.4,0c0.5,0,1.2-0.1,1.3-0.4c0.1-0.2-0.1,0.4-0.1,0.6
									c0.1,0.5,0.9,0.6,1.1,0.2c0.2-0.2,0.5-1.2,0.5-1.5c0.1-0.3,0-0.7,0-1.1c-0.1-0.9-0.4-1.7-0.8-2c-0.3-0.2-0.6,0-1,0L9,11
									L6.8,12.2"/>
							</defs>
							<clipPath id="SVGID_89_">
								<use xlink:href="#SVGID_88_"  style="overflow:visible;"/>
							</clipPath>
							<g class="st51">
								
									<linearGradient id="path-1-6_5_" gradientUnits="userSpaceOnUse" x1="367.7107" y1="-660.6687" x2="365.0631" y2="-665.5825" gradientTransform="matrix(0.987 -0.1608 0.1608 0.987 -247.646 727.7796)">
									<stop  offset="0" style="stop-color:#232323"/>
									<stop  offset="0.32" style="stop-color:#1E1E1E"/>
									<stop  offset="0.68" style="stop-color:#111111"/>
									<stop  offset="0.98" style="stop-color:#000000"/>
								</linearGradient>
								<path id="path-1-6" class="st52" d="M6.7,11.5c0,0.4,0.5-0.3,0.4,0.3c-0.1,0.6-0.2,1.7,0,2.7c0.2,1,1.2,1.6,1.3,1.6
									c0.1,0,0.2,0.2,0.4,0.1c0.2-0.1,0.4-0.3,0.4-0.6c0-0.2,0.3,0.4,0.2,0.5c-0.1,0.1-0.9,0.8-1.2,0.7c-0.3-0.1-0.3,0-0.8-0.4
									c-0.4-0.4-0.9-0.1-1.1-0.8C6.4,15.4,6,15.3,6,15.1c0-0.4,0-0.9-0.2-1.3C5,11.9,6.7,11.5,6.7,11.5z"/>
								<path id="path-0-9" class="st20" d="M8.6,15.1c-0.2-0.2,0.1,0,0.6,0.1c0.5,0.1,1.2,0,1.6-0.4c0.7-0.7-0.2,0.6,0.4,1
									c0.6,0.4,0.7,0,0.7,0l0,1L10,15.6C10,15.6,9,15.5,8.6,15.1z"/>
								<path id="path-0-10" class="st9" d="M11,10.4c0.4,0.5,1.1,1.6,1.3,2.8c0.1,0.6-0.2,3.2-0.2,3.2l0.9-0.4l0.3-3.4l-1.4-1.9
									L11,10.4z"/>
							</g>
						</g>
					</g>
				</g>
			</g>
		</g>
	</g>
	<g id="paw">
		<g id="paw01">
			<g id="layer-3">
				<g id="claw-4">
					<g id="path-2-5">
						<path class="st1" d="M6.3,5.8c0.2-0.1,0.8-0.3,0.8-0.4c0,0-0.9-0.6-1.2-0.6C5.6,4.7,6.1,5.9,6.3,5.8z"/>
					</g>
					<g id="path-1-8">
						<path class="st1" d="M5.7,7.5C5.7,7.3,5.6,6.7,5.5,6.7c0,0-0.8,0.7-0.9,1C4.6,7.9,5.8,7.8,5.7,7.5z"/>
					</g>
					<g id="path-0-11">
						<path class="st1" d="M5.5,8.7c0-0.3,0-0.9-0.2-0.9c0,0-0.9,0.7-1,0.9S5.5,8.9,5.5,8.7z"/>
					</g>
				</g>
				<g id="claw-3">
					<g id="path-2-6">
						<path class="st1" d="M10.2,5.2c-0.3,0-0.9,0-0.9-0.2c0,0,0.7-0.9,0.9-1C10.5,4,10.5,5.2,10.2,5.2z"/>
					</g>
					<g id="path-1-9">
						<path class="st1" d="M11.3,6.7c0-0.3-0.2-0.8-0.1-0.9c0,0,1,0.4,1.2,0.7C12.6,6.7,11.3,6.9,11.3,6.7z"/>
					</g>
					<g id="path-0-12">
						<path class="st1" d="M11.9,7.7c0-0.3-0.3-0.8-0.1-0.9c0,0,1,0.4,1.2,0.6S11.9,8,11.9,7.7z"/>
					</g>
				</g>
				<g id="claw-2">
					<path id="path-2-7" class="st1" d="M11.7,16c0,0.1-0.1,0.3-0.2,0.3c0,0-0.2-0.3-0.2-0.3C11.4,16.1,11.7,16,11.7,16z"/>
					<path id="path-1-10" class="st1" d="M10.8,15.7c-0.1,0.1-0.1,0.3-0.1,0.4c0,0.1,0.3-0.1,0.3-0.2C10.9,16,10.8,15.7,10.8,15.7z"
						/>
					<path id="path-0-13" class="st1" d="M11,16c0,0,0,0.3,0.1,0.3c0.1,0,0.3-0.3,0.2-0.3C11.3,16.1,11,16,11,16z"/>
					<g id="claw">
						<path class="st1" d="M8.5,16.4c0,0.1,0.2,0.3,0.2,0.3c0,0,0.2-0.3,0.1-0.3C8.8,16.5,8.5,16.4,8.5,16.4z"/>
						<path class="st1" d="M9.3,16c0.1,0.1,0.1,0.3,0.1,0.4c0,0.1-0.4-0.1-0.3-0.1C9.2,16.3,9.3,16,9.3,16z"/>
						<path class="st1" d="M9.2,16.3c0.1,0,0.1,0.3,0,0.3c-0.1,0-0.3-0.3-0.3-0.2C8.9,16.4,9.2,16.3,9.2,16.3z"/>
					</g>
				</g>
				<g id="claw-1">
					<path id="path-2-8" class="st1" d="M11.6,14.6c0,0.1,0.1,0.3,0.2,0.4s0.2-0.3,0.2-0.3C11.9,14.7,11.6,14.6,11.6,14.6z"/>
					<path id="path-1-11" class="st1" d="M12.5,14.3c0.1,0.1,0.1,0.3,0.1,0.4s-0.3-0.2-0.3-0.2C12.3,14.5,12.5,14.3,12.5,14.3z"/>
					<path id="path-0-14" class="st1" d="M12.2,14.5c0,0,0,0.3-0.1,0.3c-0.1,0-0.3-0.3-0.2-0.3C12,14.6,12.2,14.5,12.2,14.5z"/>
				</g>
				<g id="claw-0">
					<path id="path-2-9" class="st1" d="M7.1,15.2c0,0.1,0.1,0.3,0.2,0.4s0.2-0.3,0.2-0.3C7.4,15.3,7.1,15.2,7.1,15.2z"/>
					<path id="path-1-12" class="st1" d="M8,15c0.1,0.1,0.1,0.3,0.1,0.4s-0.3-0.2-0.3-0.2C7.9,15.2,8,15,8,15z"/>
					<path id="path-0-15" class="st1" d="M7.8,15.3c0,0,0,0.3-0.1,0.3c-0.1,0-0.3-0.3-0.2-0.3C7.5,15.4,7.8,15.3,7.8,15.3z"/>
				</g>
			</g>
		</g>
		<g id="jiao01" class="st3">
			<g id="layer-4" class="st4">
				<path id="path-17" class="st21" d="M8.5,16.5c0,0.1,0.2,0.3,0.2,0.3s0.2-0.3,0.1-0.3C8.8,16.6,8.5,16.5,8.5,16.5z"/>
				<path id="path-16" class="st21" d="M9.3,16.2c0.1,0.1,0.1,0.3,0.1,0.4c0,0.1-0.4-0.1-0.3-0.1C9.2,16.4,9.3,16.2,9.3,16.2z"/>
				<path id="path-15" class="st21" d="M9.2,16.4c0.1,0,0.1,0.3,0,0.3c-0.1,0-0.3-0.3-0.3-0.2C8.9,16.6,9.2,16.4,9.2,16.4z"/>
				<g id="path-2-10">
					<path d="M6.3,5.9c0.2-0.1,0.3-0.1,0.5-0.2c0.1,0,0.3-0.1,0.3-0.2C7.1,5.4,7,5.3,7,5.3C6.8,5.2,6.7,5.1,6.6,5.1
						C6.4,5,6.3,4.9,6.1,4.8c-0.1,0-0.2-0.1-0.3,0C5.8,4.8,5.8,4.9,5.8,5c0,0.1,0,0.3,0.1,0.4C5.9,5.5,6.1,6,6.3,5.9
						C6.4,5.9,6.3,5.8,6.3,5.9c-0.1,0-0.2-0.1-0.2-0.2C6.1,5.6,6,5.5,6,5.4c0-0.1-0.1-0.2-0.1-0.3c0,0,0-0.2,0-0.2
						c0,0,0.2,0,0.2,0.1C6.2,5,6.4,5,6.5,5.1c0.1,0.1,0.2,0.1,0.4,0.2c0,0,0.1,0.1,0.1,0.1c0,0,0.1,0,0.1,0.1c0,0,0,0,0,0
						c0,0,0,0-0.1,0c-0.1,0-0.1,0.1-0.2,0.1C6.6,5.7,6.4,5.8,6.3,5.9C6.2,5.9,6.3,5.9,6.3,5.9z"/>
				</g>
				<g id="path-1-13">
					<path d="M5.8,7.6c0-0.2-0.1-0.4-0.1-0.5c0-0.1,0-0.3-0.1-0.3c-0.1,0-0.1,0.1-0.2,0.1C5.2,6.9,5.1,7.1,5,7.2
						C4.9,7.3,4.8,7.4,4.7,7.6c0,0.1-0.1,0.2-0.1,0.3c0,0.1,0.1,0.1,0.2,0.1c0.1,0,0.3,0,0.4,0C5.3,7.9,5.8,7.9,5.8,7.6
						C5.8,7.6,5.7,7.6,5.8,7.6C5.7,7.7,5.6,7.7,5.6,7.8c-0.1,0-0.2,0.1-0.3,0.1c-0.1,0-0.2,0-0.3,0c-0.1,0-0.2,0-0.2-0.1
						c0-0.1,0.1-0.2,0.1-0.2C4.8,7.5,4.9,7.4,5,7.3C5.1,7.2,5.2,7.1,5.3,7c0,0,0.1-0.1,0.1-0.1c0,0,0.1-0.1,0.1-0.1c0,0,0,0,0,0
						c0,0,0,0,0,0.1c0,0.1,0,0.2,0.1,0.2C5.6,7.3,5.7,7.5,5.8,7.6C5.7,7.7,5.8,7.7,5.8,7.6z"/>
				</g>
				<g id="path-0-16">
					<path d="M5.5,8.8c0-0.2,0-0.4,0-0.6c0-0.1,0-0.3-0.1-0.3C5.3,7.9,5.2,7.9,5.2,8C5.1,8.1,4.9,8.2,4.8,8.3
						C4.7,8.4,4.6,8.5,4.5,8.6C4.4,8.7,4.3,8.8,4.3,8.9C4.4,9,4.5,9,4.5,9c0.1,0,0.3,0,0.4,0C5.1,9,5.6,9,5.5,8.8
						C5.5,8.7,5.4,8.7,5.5,8.8C5.5,8.9,5.3,8.9,5.3,8.9C5.2,8.9,5.1,9,5,9c-0.1,0-0.2,0-0.3,0c-0.1,0-0.2,0-0.2-0.1
						c0-0.1,0.1-0.2,0.1-0.2c0.1-0.1,0.2-0.2,0.3-0.3C4.9,8.3,5,8.2,5.1,8.1c0,0,0.1-0.1,0.1-0.1c0,0,0.1,0,0.1-0.1c0,0,0,0,0,0
						c0,0,0,0.1,0,0.1c0,0.1,0,0.2,0,0.2C5.4,8.4,5.4,8.6,5.5,8.8C5.5,8.8,5.5,8.8,5.5,8.8z"/>
				</g>
				<g id="path-2-11">
					<path d="M10.2,5.2c-0.2,0-0.3,0-0.5,0c-0.1,0-0.3,0-0.4-0.1c0,0,0,0,0,0c0,0,0,0,0,0c0,0,0.1-0.1,0.1-0.1
						c0.1-0.1,0.2-0.2,0.2-0.3C9.8,4.6,9.9,4.5,10,4.4c0,0,0.1-0.1,0.1-0.1c0,0,0.1-0.1,0.1-0.1c0.1,0,0.1,0.4,0.1,0.5
						c0,0.1,0,0.3,0,0.4C10.3,5.1,10.3,5.3,10.2,5.2C10.1,5.2,10.1,5.3,10.2,5.2c0.2,0.1,0.2-0.3,0.2-0.4c0-0.1,0-0.3,0-0.4
						c0-0.1,0-0.2-0.1-0.3c-0.1-0.1-0.2,0-0.2,0.1C10,4.3,9.9,4.4,9.8,4.5C9.6,4.6,9.5,4.8,9.4,4.9c0,0.1-0.1,0.1-0.2,0.2
						c0,0.1,0.2,0.1,0.3,0.2C9.8,5.3,10,5.3,10.2,5.2C10.2,5.3,10.2,5.2,10.2,5.2z"/>
				</g>
				<g id="path-1-14">
					<path d="M11.3,6.8c0-0.2,0-0.3-0.1-0.5c0-0.1,0-0.1,0-0.2c0,0,0-0.1,0-0.2c0,0,0,0,0,0c0,0,0,0,0,0c0,0,0.1,0,0.1,0.1
						c0.1,0.1,0.2,0.1,0.4,0.2c0.1,0.1,0.3,0.1,0.4,0.2c0,0,0.1,0.1,0.1,0.1c0,0,0.1,0.1,0.1,0.1c0,0.1-0.1,0.1-0.1,0.1
						c-0.1,0-0.2,0.1-0.3,0.1c-0.1,0-0.3,0-0.4,0C11.5,6.8,11.4,6.8,11.3,6.8C11.3,6.7,11.3,6.7,11.3,6.8c-0.1,0.2,0.3,0.2,0.5,0.1
						c0.1,0,0.3-0.1,0.4-0.1c0.1,0,0.2-0.1,0.2-0.2c0-0.1,0-0.2-0.1-0.2c-0.1-0.1-0.3-0.2-0.4-0.3c-0.1-0.1-0.3-0.2-0.4-0.2
						c-0.1,0-0.2-0.1-0.3-0.1c-0.1,0-0.1,0.2-0.1,0.3C11.2,6.4,11.2,6.6,11.3,6.8C11.3,6.8,11.3,6.8,11.3,6.8z"/>
				</g>
				<g id="path-0-17">
					<path d="M11.9,7.8c0-0.1-0.1-0.3-0.1-0.4c0-0.1-0.1-0.3-0.1-0.4c0,0,0,0,0,0c0,0,0,0,0,0c0,0,0.1,0,0.1,0
						c0.1,0,0.2,0.1,0.4,0.1c0.1,0.1,0.3,0.1,0.4,0.2c0.1,0,0.1,0.1,0.2,0.1c0,0,0.1,0,0.1,0.1c0,0.1-0.1,0.1-0.1,0.1
						c-0.1,0.1-0.2,0.1-0.3,0.1c-0.1,0-0.3,0.1-0.4,0.1C12.1,7.9,11.9,7.9,11.9,7.8C11.9,7.7,11.8,7.8,11.9,7.8
						c0,0.2,0.3,0.1,0.5,0.1c0.1,0,0.3-0.1,0.4-0.1c0.1,0,0.2-0.1,0.2-0.2c0-0.1,0-0.1-0.1-0.2c-0.1-0.1-0.3-0.2-0.4-0.2
						C12.3,7.1,12.2,7,12,7c-0.1,0-0.2-0.1-0.3-0.1c-0.1,0-0.1,0.2-0.1,0.3C11.7,7.4,11.8,7.6,11.9,7.8C11.8,7.9,11.9,7.8,11.9,7.8z
						"/>
				</g>
				<path id="path-8" class="st21" d="M11.7,16.1c0,0.1-0.1,0.3-0.2,0.3c0,0-0.2-0.3-0.2-0.3C11.4,16.2,11.7,16.1,11.7,16.1z"/>
				<path id="path-7" class="st21" d="M10.8,15.9c-0.1,0.1-0.1,0.3-0.1,0.4c0,0.1,0.3-0.1,0.3-0.2C10.9,16.1,10.8,15.9,10.8,15.9z"
					/>
				<path id="path-6" class="st21" d="M11,16.1c0,0,0,0.3,0.1,0.3c0.1,0,0.3-0.3,0.2-0.3C11.3,16.2,11,16.1,11,16.1z"/>
				<path id="path-5" class="st21" d="M11.6,14.7c0,0.1,0.1,0.3,0.2,0.4c0,0,0.2-0.3,0.2-0.3C11.9,14.8,11.6,14.7,11.6,14.7z"/>
				<path id="path-4" class="st21" d="M12.5,14.4c0.1,0.1,0.1,0.3,0.1,0.4s-0.3-0.2-0.3-0.2C12.3,14.6,12.5,14.4,12.5,14.4z"/>
				<path id="path-3-5" class="st21" d="M12.2,14.7c0,0,0,0.3-0.1,0.3c-0.1,0-0.3-0.3-0.2-0.3C12,14.7,12.2,14.7,12.2,14.7z"/>
				<path id="path-2-12" class="st21" d="M7.1,15.4c0,0.1,0.1,0.3,0.2,0.4c0,0,0.2-0.3,0.2-0.3C7.4,15.5,7.1,15.4,7.1,15.4z"/>
				<path id="path-1-15" class="st21" d="M8,15.1c0.1,0.1,0.1,0.3,0.1,0.4c0,0.1-0.3-0.2-0.3-0.2C7.9,15.4,8,15.1,8,15.1z"/>
				<path id="path-0-18" class="st21" d="M7.8,15.4c0,0,0,0.3-0.1,0.3c-0.1,0-0.3-0.3-0.2-0.3C7.5,15.5,7.8,15.4,7.8,15.4z"/>
			</g>
		</g>
	</g>
	<g id="head">
		<g id="headFur">
			<g id="head-mainColor">
				<g id="head-mainColor02">
					<g>
						<g>
							<path id="SVGID_21_" class="st1" d="M6.1,5.8c-0.2,0-0.6,0-0.9-0.1C5,5.6,4.5,4.9,4.5,5c0,0.1-0.2,0.7,0,1.4
								C4.6,6.6,5,6.9,5.2,7c0,0-0.1,0.4-0.2,1c0,0.4-0.1,0.8-0.1,1.2c0,0.3,0,0.7,0.1,1c0.1,0.7,0.3,1.3,0.5,1.5
								c0.7,0.5,2.1,0.7,2.4,0.8c0.3,0,0.4,0,0.6,0c0.1,0,0.8,0.5,1.7-0.2c0,0,1.3-0.5,1.8-1c0.5-0.5,0.6-0.7,0.8-1.1
								c0.1-0.2-0.1-1.4-0.4-2.4C12,6.8,11.5,6,11.5,6s0.2-0.2,0.4-0.5c0.2-0.4,0.1-1.7,0-1.7c-0.1,0-0.5,0.9-0.9,1
								c-0.4,0.1-0.6,0.4-0.7,0.4c0,0-0.2-0.1-0.7-0.2c-0.4-0.1-0.3,0-0.7,0c-0.2,0,0.3-0.3,0-0.7C8.4,3.7,9,4.5,8.2,4.7
								C7.7,4.9,7.5,5.3,7.1,5.3C6.7,5.4,6.1,5.8,6.1,5.8z"/>
						</g>
						<g>
							<defs>
								<path id="SVGID_90_" d="M6.1,5.8c-0.2,0-0.6,0-0.9-0.1C5,5.6,4.5,4.9,4.5,5c0,0.1-0.2,0.7,0,1.4C4.6,6.6,5,6.9,5.2,7
									c0,0-0.1,0.4-0.2,1c0,0.4-0.1,0.8-0.1,1.2c0,0.3,0,0.7,0.1,1c0.1,0.7,0.3,1.3,0.5,1.5c0.7,0.5,2.1,0.7,2.4,0.8
									c0.3,0,0.4,0,0.6,0c0.1,0,0.8,0.5,1.7-0.2c0,0,1.3-0.5,1.8-1c0.5-0.5,0.6-0.7,0.8-1.1c0.1-0.2-0.1-1.4-0.4-2.4
									C12,6.8,11.5,6,11.5,6s0.2-0.2,0.4-0.5c0.2-0.4,0.1-1.7,0-1.7c-0.1,0-0.5,0.9-0.9,1c-0.4,0.1-0.6,0.4-0.7,0.4
									c0,0-0.2-0.1-0.7-0.2c-0.4-0.1-0.3,0-0.7,0c-0.2,0,0.3-0.3,0-0.7C8.4,3.7,9,4.5,8.2,4.7C7.7,4.9,7.5,5.3,7.1,5.3
									C6.7,5.4,6.1,5.8,6.1,5.8z"/>
							</defs>
							<clipPath id="SVGID_91_">
								<use xlink:href="#SVGID_90_"  style="overflow:visible;"/>
							</clipPath>
							<g class="st53">
								
									<rect id="rectangles-3" x="3.2" y="2.9" transform="matrix(0.987 -0.1608 0.1608 0.987 -1.1708 1.3429)" class="st46" width="9" height="10"/>
							</g>
						</g>
					</g>
				</g>
			</g>
		</g>
	</g>
</g>
</svg>
