<?xml version="1.0" encoding="utf-8"?>
<!-- Generator: Adobe Illustrator 22.0.1, SVG Export Plug-In . SVG Version: 6.00 Build 0)  -->
<svg version="1.1" id="_" xmlns="http://www.w3.org/2000/svg" xmlns:xlink="http://www.w3.org/1999/xlink" x="0px" y="0px"
	 viewBox="0 0 538.3 578.1" style="enable-background:new 0 0 538.3 578.1;" xml:space="preserve">
<style type="text/css">
	.st0{fill:#FFD086;}
	.st1{fill:url(#形状_101_1_);}
	.st2{fill:#CD8AF5;}
	.st3{fill:url(#形状_102_拷贝_1_);}
	.st4{fill:url(#形状_102_拷贝_2_1_);}
	.st5{fill:#6CBDDB;}
	.st6{fill:#67CADC;}
	.st7{fill:url(#形状_102_拷贝_5_1_);}
	.st8{fill:#83B0DF;}
	.st9{fill:url(#形状_102_拷贝_7_1_);}
	.st10{fill:url(#形状_102_拷贝_8_1_);}
	.st11{fill:#D47CF3;}
	.st12{fill:#E976FB;}
	.st13{fill:#DC72F2;}
	.st14{fill:none;stroke:#3A3738;stroke-width:2;}
	.st15{fill:#FECBFF;}
	.st16{fill:#C4D8F5;}
	.st17{fill:#DDE6FC;}
	.st18{fill:#D5B3FB;}
	.st19{fill:#FFFFFF;}
	.st20{fill:#D67EFB;}
	.st21{fill:#EFC9FF;}
	.st22{clip-path:url(#SVGID_2_);}
	.st23{clip-path:url(#SVGID_4_);}
	.st24{fill:#D6D3CB;}
	.st25{clip-path:url(#SVGID_6_);}
	.st26{opacity:0.2;stroke:#000002;stroke-width:0.5;enable-background:new    ;}
	.st27{opacity:0.2;fill:#FFFFFF;enable-background:new    ;}
	.st28{fill:none;stroke:#000000;stroke-width:4;}
	.st29{fill:url(#_wings02-left_-clip-2_1_);}
	.st30{fill:url(#SVGID_7_);}
	.st31{clip-path:url(#SVGID_9_);}
	.st32{fill:url(#wingsColor02-left02_1_);}
	.st33{fill:#90D8CD;}
	.st34{clip-path:url(#SVGID_11_);}
	.st35{fill:url(#wingsColor02-right02_1_);}
	.st36{clip-path:url(#SVGID_13_);}
	.st37{fill:#FCF5FA;}
	.st38{clip-path:url(#SVGID_15_);}
	.st39{fill:#FFD6F7;}
	.st40{clip-path:url(#SVGID_17_);}
	.st41{opacity:0.2;fill:url(#path-1-4_1_);enable-background:new    ;}
	.st42{opacity:0.2;enable-background:new    ;}
	.st43{fill:#000002;}
	.st44{fill:none;stroke:#000002;stroke-width:0.5;}
	.st45{fill:url(#SVGID_18_);}
	.st46{fill:url(#SVGID_19_);}
	.st47{fill:url(#SVGID_20_);}
	.st48{fill:url(#SVGID_21_);}
	.st49{fill:url(#SVGID_22_);}
	.st50{fill:url(#SVGID_23_);}
	.st51{fill:#967C70;}
	.st52{fill:none;stroke:#000000;stroke-width:3;stroke-miterlimit:10;}
	.st53{clip-path:url(#SVGID_25_);}
	.st54{clip-path:url(#SVGID_27_);}
	.st55{opacity:0.2;fill:#595259;enable-background:new    ;}
	.st56{fill:none;stroke:#000000;stroke-width:3;stroke-linecap:round;stroke-linejoin:round;}
	.st57{fill:#F7DD92;}
	.st58{fill:#FCFCFC;}
	.st59{fill:none;}
	.st60{fill:url(#layer-3-2_1_);stroke:#303030;stroke-width:3;stroke-miterlimit:10;}
	.st61{fill:url(#layer-2-3_1_);stroke:#303030;stroke-width:3;stroke-miterlimit:10;}
	.st62{fill:#020000;}
</style>
<title>img_home-dragon0-01</title>
<circle id="椭圆_1-2" class="st0" cx="281" cy="298" r="200"/>
<g id="Mixmarvel_logo1">
	
		<linearGradient id="形状_101_1_" gradientUnits="userSpaceOnUse" x1="206.3315" y1="5925.916" x2="243.2316" y2="5876.936" gradientTransform="matrix(1 0 0 1 52.94 -5805.1499)">
		<stop  offset="0" style="stop-color:#79AAD3"/>
		<stop  offset="1" style="stop-color:#B85FE1"/>
	</linearGradient>
	<path id="形状_101" class="st1" d="M286.4,70l-25.2,16.1l1.6,19.3l10.9,20l24.5-24.2L286.4,70z"/>
	<path id="形状_102" class="st2" d="M286.4,70l10.9,30.6l21.2-33.9L286.4,70z"/>
	
		<linearGradient id="形状_102_拷贝_1_" gradientUnits="userSpaceOnUse" x1="254.46" y1="5934.5498" x2="254.46" y2="5871.1499" gradientTransform="matrix(1 0 0 1 52.94 -5805.1499)">
		<stop  offset="0" style="stop-color:#89B8E7"/>
		<stop  offset="1" style="stop-color:#BC8DED"/>
	</linearGradient>
	<path id="形状_102_拷贝" class="st3" d="M316.2,129.4l-1.5-0.7l-18.3-28.1l22-34.6L316.2,129.4z"/>
	
		<linearGradient id="形状_102_拷贝_2_1_" gradientUnits="userSpaceOnUse" x1="241.61" y1="5935.21" x2="241.61" y2="5905.7397" gradientTransform="matrix(1 0 0 1 52.94 -5805.1499)">
		<stop  offset="0" style="stop-color:#7BBEE2"/>
		<stop  offset="1" style="stop-color:#9E92E5"/>
	</linearGradient>
	<path id="形状_102_拷贝_2" class="st4" d="M316.2,130.1l-19.7-29.5l-23.6,24.2L316.2,130.1z"/>
	<path id="形状_102_拷贝_3" class="st5" d="M316.2,130.1l-30.7,19.6l-12.6-25.8L314,128L316.2,130.1z"/>
	<path id="形状_102_拷贝_4" class="st6" d="M268.7,146.9l16.8,2.8l0.7-0.7l-12.5-25.1l-5.6,21.6L268.7,146.9z"/>
	
		<linearGradient id="形状_102_拷贝_5_1_" gradientUnits="userSpaceOnUse" x1="205.21" y1="5951.6499" x2="205.21" y2="5925.8799" gradientTransform="matrix(1 0 0 1 52.94 -5805.1499)">
		<stop  offset="0" style="stop-color:#6FC8E1"/>
		<stop  offset="1" style="stop-color:#7CBEE2"/>
	</linearGradient>
	<path id="形状_102_拷贝_5" class="st7" d="M268.7,146.5l-27-25.8l32.9,3L268.7,146.5z"/>
	<path id="形状_102_拷贝_6" class="st8" d="M263.5,104.6l-21.8,16.1c0.4,0.4,0.9,0.8,1.5,0.9c4.9,0.7,23.4,2.1,29.2,2.8
		c1.1,0.1,1.2-0.4,1.2-0.4s0.6,0.3,0.2-0.3L263.5,104.6z"/>
	
		<linearGradient id="形状_102_拷贝_7_1_" gradientUnits="userSpaceOnUse" x1="188.7928" y1="5900.8433" x2="210.7228" y2="5882.4434" gradientTransform="matrix(1 0 0 1 52.94 -5805.1499)">
		<stop  offset="0" style="stop-color:#84A6DC"/>
		<stop  offset="1" style="stop-color:#B27FE2"/>
	</linearGradient>
	<path id="形状_102_拷贝_7" class="st9" d="M263.6,105.4l-21.9,15.3l17.6-67.8l1.5-0.7L263.6,105.4z"/>
	
		<linearGradient id="形状_102_拷贝_8_1_" gradientUnits="userSpaceOnUse" x1="227.7161" y1="5894.2632" x2="204.4462" y2="5859.7632" gradientTransform="matrix(1 0 0 1 52.94 -5805.1499)">
		<stop  offset="0" style="stop-color:#AF91E9"/>
		<stop  offset="1" style="stop-color:#CA7AEC"/>
	</linearGradient>
	<path id="形状_102_拷贝_8" class="st10" d="M261.9,86.8l23.6-16l-26.1-18.5L261.9,86.8z"/>
	<path id="形状_102_拷贝_9" class="st11" d="M284.6,35.4l1.7,35.8c0,0-0.7,0.5-1.9-0.3c-5.3-3.9-20.7-15-24.8-17.8
		c-0.6-0.4,0.3-0.8,0.3-0.8L284.6,35.4z"/>
	<path id="形状_102_拷贝_10" class="st12" d="M283.9,35.4l1.7,35.4l32.9-4c0,0-27-25.4-32.9-30.7
		C285.1,35.7,284.5,35.4,283.9,35.4z"/>
	<path id="形状_102_拷贝_11" class="st13" d="M284.8,36.1L259.4,53l9.3-15.2c0,0,11.1-2,15.4-2.4
		C285.2,35.3,284.8,36.1,284.8,36.1z"/>
	<g id="组_12">
		<path id="形状_1" class="st14" d="M268.4,38.9l15.4-3.6L318,67l-2.1,63.4l-29.5,19.2l-18.3-2.1L240.9,120l18-67.9L268.4,38.9z"
			/>
		<path id="形状_103" class="st15" d="M286.3,71.1l11,28.8l18.3-29.5L298,95.7L286.3,71.1z"/>
		<path id="形状_104" class="st16" d="M292.1,106.2l-13.9,17.5l8,22.4l-12.4-21.8L292.1,106.2z"/>
		<path id="形状_105" class="st17" d="M298.7,102.7l13.9,22.4C309.9,116.6,305.2,108.9,298.7,102.7z"/>
	</g>
	<g id="shin">
		<path id="形状_108_拷贝" class="st18" d="M235.4,36.4c2,2.1,3.6,4.4,4.9,7c1.5,3.3,2.7,6.8,3.5,10.4c0.7-3.5,1.9-6.9,3.3-10.1
			c1.3-2.7,3-5.1,5-7.3c-2-2.4-3.6-5.1-5-7.9c-1.4-3.1-2.5-6.2-3.3-9.5c-0.8,3.3-1.9,6.5-3.3,9.5C239.1,31.3,237.4,34,235.4,36.4"/>
		<path id="形状_108_拷贝_4" class="st19" d="M286.9,98.3c0,0,6.9,1.2,8.1,2.8c1.4,1.9,2.2,12,2.2,12s0.7-10,2-11.8s8.3-3,8.3-3
			s-7-1.4-8.3-3.2s-2-10.3-2-10.3s-0.7,8.6-2,10.3S286.9,98.3,286.9,98.3"/>
		<path id="形状_108_拷贝_2" class="st20" d="M339.7,131.1c1.2,1.2,2.2,2.6,3,4.1c0.9,2,1.6,4,2.2,6.2c0.5-2.1,1.1-4.1,2-6
			c0.8-1.6,1.9-3,3.1-4.3c-1.2-1.4-2.3-3-3.2-4.7c-0.8-1.8-1.5-3.7-2-5.6c-0.5,1.9-1.1,3.8-2,5.6C342,128.1,340.9,129.7,339.7,131.1
			"/>
		<path id="形状_108_拷贝_3" class="st21" d="M216,83.4c0.9,0.9,1.7,2,2.2,3.1c0.7,1.5,1.2,3,1.6,4.6c0.4-1.5,0.9-3.1,1.5-4.5
			c0.6-1.2,1.4-2.3,2.3-3.2c-0.9-1.1-1.7-2.3-2.4-3.5c-0.6-1.4-1.1-2.8-1.5-4.2c-0.3,1.5-0.9,2.9-1.5,4.2
			C217.8,81.2,217,82.4,216,83.4"/>
	</g>
</g>
<g>
	<g>
		<defs>
			<circle id="SVGID_1_" cx="281" cy="298" r="200"/>
		</defs>
		<clipPath id="SVGID_2_">
			<use xlink:href="#SVGID_1_"  style="overflow:visible;"/>
		</clipPath>
		<g class="st22">
			<g>
				<g>
					<g>
						<g id="tail-mainColor">
							<g id="tail-mainColor01">
								<defs>
									<path id="SVGID_3_" d="M386,471.4c0,0,16.2,109.4,101.3,98.8c81.6-10.1,82.9-9.9,14.7,10c0,0-117.5,52.2-153-49.3
										S386,471.4,386,471.4z"/>
								</defs>
								<clipPath id="SVGID_4_">
									<use xlink:href="#SVGID_3_"  style="overflow:visible;"/>
								</clipPath>
								<g class="st23">
									
										<rect id="rectangles" x="387.1" y="465.6" transform="matrix(0.368 -0.9298 0.9298 0.368 -245.4175 771.5381)" class="st24" width="115.5" height="201.5"/>
								</g>
							</g>
						</g>
						<g>
							<g id="tailFur">
								<g id="tailFur01">
									<g id="tailShadow01">
										<defs>
											<path id="SVGID_5_" d="M386,471.4c0,0,16.2,109.4,101.3,98.8c81.6-10.1,82.9-9.9,14.7,10c0,0-117.5,52.2-153-49.3
												S386,471.4,386,471.4z"/>
										</defs>
										<clipPath id="SVGID_6_">
											<use xlink:href="#SVGID_5_"  style="overflow:visible;"/>
										</clipPath>
										<g class="st25">
											<path id="path-1" class="st26" d="M510.2,601.6c-79.4,11-118.3-38.8-126.4-52s-8.4-10.3-8.4-10.3l-20.8,11.1l10.2,24.7
												l66,39l46.5,5.3L510.2,601.6z"/>
											<path id="path-0" class="st27" d="M533.1,559.4c0,0,43.8-3.1,19.7,3.3c-96.5,25.8-119.6,2.8-125.8-0.7
												c-12.3-7-30.6-35.1-30.6-35.1l16-19.8l21.6,7l71.1,35.5l26.2,10L533.1,559.4z"/>
										</g>
									</g>
								</g>
							</g>
							<g id="tail">
								<path id="tail01" class="st28" d="M386,471.4c0,0,16.2,109.4,101.3,98.8c81.6-10.1,82.9-9.9,14.7,10
									c0,0-117.5,52.2-153-49.3S386,471.4,386,471.4z"/>
							</g>
							<g>
								<g>
									<g>
										
											<linearGradient id="_wings02-left_-clip-2_1_" gradientUnits="userSpaceOnUse" x1="49.7499" y1="37.6849" x2="126.36" y2="37.6849" gradientTransform="matrix(1 0 0 1 52.94 418)">
											<stop  offset="0" style="stop-color:#FF7C99"/>
											<stop  offset="1" style="stop-color:#8000E9"/>
										</linearGradient>
										<path id="_wings02-left_-clip-2" class="st29" d="M179.3,450.9c0,0-15-5.8-26.4-13.4c-10.8-7.2-13.2-19.5-16.2-17
											c-6.4,5.1-13.9,17.3-19,21.7s-14.7,15.9-15,26.5c-0.2,9.9,2.6,24.8,5.6,22.2s6.4-17.3,17.7-17.1s22,7.7,22,7.7
											s12.8-18.6,22.5-12.9C179,473.4,179.3,450.9,179.3,450.9z"/>
										
											<linearGradient id="SVGID_7_" gradientUnits="userSpaceOnUse" x1="49.7499" y1="37.6849" x2="126.36" y2="37.6849" gradientTransform="matrix(1 0 0 1 52.94 418)">
											<stop  offset="0" style="stop-color:#FF7C99"/>
											<stop  offset="1" style="stop-color:#8000E9"/>
										</linearGradient>
										<path id="SVGID" class="st30" d="M179.3,450.9c0,0-15-5.8-26.4-13.4c-10.8-7.2-13.2-19.5-16.2-17
											c-6.4,5.1-13.9,17.3-19,21.7s-14.7,15.9-15,26.5c-0.2,9.9,2.6,24.8,5.6,22.2s6.4-17.3,17.7-17.1s22,7.7,22,7.7
											s12.8-18.6,22.5-12.9C179,473.4,179.3,450.9,179.3,450.9z"/>
										<g>
											<g id="wingsColor02-left">
												<defs>
													<path id="SVGID_8_" d="M179.3,450.9c0,0-15-5.8-26.4-13.4c-10.8-7.2-13.2-19.5-16.2-17c-6.4,5.1-13.9,17.3-19,21.7
														s-14.7,15.9-15,26.5c-0.2,9.9,2.6,24.8,5.6,22.2s6.4-17.3,17.7-17.1s22,7.7,22,7.7s12.8-18.6,22.5-12.9
														C179,473.4,179.3,450.9,179.3,450.9z"/>
												</defs>
												<clipPath id="SVGID_9_">
													<use xlink:href="#SVGID_8_"  style="overflow:visible;"/>
												</clipPath>
												<g class="st31">
													
														<linearGradient id="wingsColor02-left02_1_" gradientUnits="userSpaceOnUse" x1="93.35" y1="145.8" x2="93.35" y2="-81.9" gradientTransform="matrix(1 0 0 1 0 418)">
														<stop  offset="0" style="stop-color:#FF7C99"/>
														<stop  offset="1" style="stop-color:#8000E9"/>
													</linearGradient>
													<rect id="wingsColor02-left02" x="-52.9" y="336.1" class="st32" width="292.5" height="227.7"/>
												</g>
											</g>
											<g id="wingsFur">
												<path id="_wings02-right_-clip-2" class="st33" d="M381.7,450.9c0,0,15-5.8,26.4-13.4c10.8-7.2,13.1-19.5,16.3-17
													c6.4,5.1,13.9,17.3,19,21.7s14.7,15.9,15,26.5c0.2,9.9-2.6,24.8-5.6,22.2s-6.4-17.3-17.7-17.1s-22.1,7.7-22.1,7.7
													s-12.8-18.6-22.5-12.9C382.1,473.4,381.7,450.9,381.7,450.9z"/>
												<path id="SVGID-2" class="st33" d="M381.7,450.9c0,0,15-5.8,26.4-13.4c10.8-7.2,13.1-19.5,16.3-17
													c6.4,5.1,13.9,17.3,19,21.7s14.7,15.9,15,26.5c0.2,9.9-2.6,24.8-5.6,22.2s-6.4-17.3-17.7-17.1s-22.1,7.7-22.1,7.7
													s-12.8-18.6-22.5-12.9C382.1,473.4,381.7,450.9,381.7,450.9z"/>
												<g id="wingsFur02">
													<g id="wingsColor02-right">
														<defs>
															<path id="SVGID_10_" d="M381.7,450.9c0,0,15-5.8,26.4-13.4c10.8-7.2,13.1-19.5,16.3-17c6.4,5.1,13.9,17.3,19,21.7
																s14.7,15.9,15,26.5c0.2,9.9-2.6,24.8-5.6,22.2s-6.4-17.3-17.7-17.1s-22.1,7.7-22.1,7.7s-12.8-18.6-22.5-12.9
																C382.1,473.4,381.7,450.9,381.7,450.9z"/>
														</defs>
														<clipPath id="SVGID_11_">
															<use xlink:href="#SVGID_10_"  style="overflow:visible;"/>
														</clipPath>
														<g class="st34">
															
																<linearGradient id="wingsColor02-right02_1_" gradientUnits="userSpaceOnUse" x1="329.3" y1="37.6" x2="618.3" y2="37.6" gradientTransform="matrix(1 0 0 1 0 418)">
																<stop  offset="0" style="stop-color:#FF7C99"/>
																<stop  offset="1" style="stop-color:#8000E9"/>
															</linearGradient>
															<rect id="wingsColor02-right02" x="329.3" y="343.1" class="st35" width="289" height="225"/>
														</g>
													</g>
												</g>
											</g>
											<g id="wings">
												<g id="wings02">
													<g id="layer-2">
														<path id="path-1-2" class="st28" d="M179.8,450.8c0,0-32.4-15.4-35.2-22.3c-6.4-15.8-8.4-8-15.6,1.9
															c-7.2,9.9-18.2,16.2-24.2,28.8c-6.4,13.6,0.1,30.8,2.7,33.5s-0.3-20.6,10.3-32.1c12.8-13.9,24.6-11.4,23.8-4.7
															c-2.2,17.3,4,25,5.9,27s1.3-24.9,8.6-29.7c6.6-4.4,22.1,2.9,22.1,2.9L179.8,450.8z"/>
														<path id="path-0-2" class="st28" d="M179.8,450.8l3.7,3.7c0,0,6,24-9.6,15.2s-24.2,13.2-26.3,13.2
															c-1.2,0-12.5-11.1-23.6-8.6s-14.3,17-16.4,18.4"/>
													</g>
													<g id="layer-1">
														<path id="path-1-3" class="st28" d="M381.2,450.9c0,0,32.4-15.4,35.2-22.3c6.4-15.8,8.4-8,15.6,1.9
															s18.2,16.2,24.2,28.8c6.4,13.6-0.1,30.8-2.7,33.5s0.3-20.6-10.4-32.1c-12.8-13.9-24.6-11.4-23.8-4.7
															c2.2,17.3-4,25-5.9,27s-1.2-24.8-8.4-29.6c-6.6-4.4-22,2.9-22,2.9L381.2,450.9z"/>
														<path id="path-0-3" class="st28" d="M381.2,450.9l-3.7,3.8c0,0-6,24,9.6,15.1s24.2,13.2,26.2,13.2
															c1.2,0,12.5-11.1,23.6-8.6s14.3,17,16.4,18.4"/>
													</g>
												</g>
											</g>
											<g>
												<g>
													<g>
														<g id="bodyFur-2">
															<g id="body-mainColor">
																<g id="body-mainColor01">
																	<g id="clipping_Path">
																		<defs>
																			<path id="SVGID_12_" d="M184,424.6c-18.8,27-23.4,57-24.3,89.4c-1,32.9,23.4,71.5,55.4,79.3
																				c2.3,5.8,2.9,6.8,7.9,10.5s15.2,3.1,20.6,0c6.9-3.9,11.2-10,11.6-17.9c0.4-8.4-7.5-19.7-8.4-21.6
																				c-0.3-0.8,13,6.3,20.9,7c32.4,2.7,44.1-3.6,48.5-7.5c-2.3,10.5-8.7,17.8-5.7,27.8c2.7,9.1,17.4,19.6,30.9,17
																				s14.9-14.7,15.4-15.3c10.3-12.1,29.3-23.2,38.7-70.9c9.3-47-22.8-99.9-28.9-105.2s-73.9,6.9-101.6,3.8
																				c-20.1-2.3-40.4-3.3-60.6-3.1C196.9,418,184,424.6,184,424.6z"/>
																		</defs>
																		<clipPath id="SVGID_13_">
																			<use xlink:href="#SVGID_12_"  style="overflow:visible;"/>
																		</clipPath>
																		<g class="st36">
																			<rect id="rectangles-2" x="68.6" y="362.1" class="st37" width="402.9" height="269.5"/>
																		</g>
																	</g>
																</g>
															</g>
														</g>
														<g>
															<g>
																<g id="paunchFur">
																	<g id="paunchFur03">
																		<defs>
																			<path id="SVGID_14_" d="M183.4,430.5c-1.6-0.9-18.2,41.5-12.8,75.4c2.3,14.4-1.7,45.7,10.1,47.8
																				c15.1,2.6,17.8,24,17.8,24c6,7.7,15.7,12.7,18,16.9c5.8,10.3,12.7,14.6,25.8,10.3c13.5-9.3,17.9-20.8,6-36.3
																				c-0.8-4.1,5.3,0.1,16.5,1.6c17.3,2.3,43.9,2.9,52.1-5.7c5.1-5.3-6.6,13.1-6.1,23c1,18,28,29.5,40.3,14.3
																				c8.4-6.1,24.7-43,29.4-52.7c5.8-11.7,4.7-26.2,5.7-40.8c2.4-33.1-3.8-66.7-19.7-78.7c-10.5-8-22.1-3.8-37.9-4.9
																				l-57.1-24L183.4,430.5"/>
																		</defs>
																		<clipPath id="SVGID_15_">
																			<use xlink:href="#SVGID_14_"  style="overflow:visible;"/>
																		</clipPath>
																		<g class="st38">
																			<path id="color3" class="st39" d="M335.6,529.5c0,23.1-24.4,41.8-54.4,41.8s-54.5-18.7-54.5-41.8
																				c0-4.7,33.2-39,54.6-38.7C303.2,491,335.6,523.1,335.6,529.5z"/>
																		</g>
																	</g>
																</g>
																<g>
																	<g id="bodyFur">
																		<g id="bodyShadow">
																			<g id="bodyShadow01">
																				<g id="bodyShadow-2">
																					<defs>
																						<path id="SVGID_16_" d="M184,424.6c-18.8,27-23.4,57-24.3,89.4c-1,32.9,23.4,71.5,55.4,79.3
																							c2.3,5.8,2.9,6.8,7.9,10.5s15.2,3.1,20.6,0c6.9-3.9,11.2-10,11.6-17.9c0.4-8.4-7.5-19.7-8.4-21.6
																							c-0.3-0.8,13,6.3,20.9,7c32.4,2.7,44.1-3.6,48.5-7.5c-2.3,10.5-8.7,17.8-5.7,27.8c2.7,9.1,17.4,19.6,30.9,17
																							s14.9-14.7,15.4-15.3c10.3-12.1,29.3-23.2,38.7-70.9c9.3-47-22.8-99.9-28.9-105.2s-73.9,6.9-101.6,3.8
																							c-20.1-2.3-40.4-3.3-60.6-3.1C196.9,418,184,424.6,184,424.6z"/>
																					</defs>
																					<clipPath id="SVGID_17_">
																						<use xlink:href="#SVGID_16_"  style="overflow:visible;"/>
																					</clipPath>
																					<g class="st40">
																						
																							<linearGradient id="path-1-4_1_" gradientUnits="userSpaceOnUse" x1="471.4603" y1="6515.4751" x2="372.7778" y2="6332.3105" gradientTransform="matrix(1 0 0 1 -232.21 -5907.1499)">
																							<stop  offset="0" style="stop-color:#232323"/>
																							<stop  offset="0.32" style="stop-color:#1E1E1E"/>
																							<stop  offset="0.68" style="stop-color:#111111"/>
																							<stop  offset="0.98" style="stop-color:#000000"/>
																						</linearGradient>
																						<path id="path-1-4" class="st41" d="M181.7,403c-0.6,13.6,20.9-7.5,13.3,13.9c-7.6,21.4-18.2,63.5-15.3,103.2
																							s14.9,51.9,23.8,55.8c10.4,4.5,13,10.3,16.9,13c1.9,1.3,7.8,8.3,16,7.2s17-6.9,18.4-20.8
																							c0.8-8.1,8.8,16.3,6.2,19.4c-3.9,4.5-37.2,24.4-48.9,20.3c-11.6-4.1-12.3-0.8-26-20.3
																							c-13.7-19.5-33.1-9.4-35.6-36.8s-11.4-47.3-2.1-73.6S181.7,403,181.7,403z"/>
																						<path id="path-0-4" class="st42" d="M233,550.3c-6.6-10.5,3,1.7,23.2,8.2c18.1,5.8,45.7,6.2,60.8-4.7
																							c31.9-23-10.3,21.7,7.8,41.5s27.7,4.2,27.7,4.2l-6.2,36L281.6,577C281.6,576.8,244.2,568.3,233,550.3z"/>
																						<path id="path-0-5" class="st27" d="M350,380c17.6,31.5,59.7,118.3,30.7,171.7s-10.8,57.1-10.8,57.1
																							l36.1-12.1l21-127.3l-47.4-75.9L350,380z"/>
																					</g>
																				</g>
																			</g>
																		</g>
																	</g>
																	<g id="body">
																		<g id="body01">
																			<path class="st43" d="M182.6,423.8c-16.8,24.3-22.7,53-24.2,82c-0.7,12.7,0.2,24.8,4.5,36.9
																				c4.1,11.5,10.5,22.1,18.6,31.3c8.9,9.7,20.1,17.5,33,20.8l-1.1-1.1c2.5,6.3,6.4,11.9,13.5,13.6
																				c7.6,1.8,15.6-0.2,21.6-5.3c6.1-5,9-13,7.5-20.8c-0.9-3.7-2.3-7.2-4.1-10.5c-0.8-1.6-1.7-3.1-2.6-4.6
																				c-0.3-0.5-0.6-1-0.8-1.4s-0.4-1.4-0.5-0.5l-1.2,1.5c-1.2,0.2,0.9,0.6,1.6,0.9l4.3,1.8c3.4,1.5,6.9,2.7,10.5,3.7
																				c8.7,2.1,18.8,1.8,27.8,1.1s19-2.3,26-8.4l-2.6-1.5c-2.3,9.5-9,18.8-5.5,28.9c2.6,7.8,10.4,13.5,17.8,16.3
																				c8,3,17.7,2.7,24.4-3.1c2.3-2,4.1-4.5,5.3-7.3c0.5-1.2,1-3.4,1.5-4.3c1-1.8,3.1-3.4,4.6-4.9
																				c1.7-1.7,3.4-3.4,5-5.1c4-4.2,7.7-8.7,11-13.5c10.3-15.2,16.3-33.9,19-52c2.9-19.7-0.7-40-7.1-58.7
																				c-4.7-13.7-10.8-27.5-19.3-39.5c-1.7-2.4-3.3-4.9-6.3-5.6c-4.2-1-8.9-0.6-13.2-0.4c-15.5,0.8-31,2.7-46.4,4
																				c-8.2,0.7-16.4,1.3-24.6,1.5c-7.8,0.1-15.5-0.3-23.2-1.2c-13.2-1.3-26.5-2.1-39.7-2.3
																				c-5.4-0.1-11.2-0.6-16.5,0.3c-4.2,0.8-8.2,2.1-12.1,3.8c-2.1,0.9-4.1,1.8-6.1,2.8c-1.8,0.9-0.2,3.6,1.6,2.7
																				c5.4-2.8,11.5-5.5,17.6-6.3c5.5-0.8,11.4-0.2,16.9-0.1c6.3,0.1,12.6,0.4,18.9,0.7c10.5,0.6,20.9,2.1,31.3,2.6
																				c6.7,0.3,13.4,0.2,20.1-0.3c15.4-0.8,30.8-2.5,46.3-3.9c6.2-0.5,12.5-1.1,18.9-1.3c3.1-0.1,7.8-0.8,10.7,0.7
																				c2.3,1.2,4.3,5,5.7,7.2c3.4,5.4,6.5,11.1,9.3,16.9c7.7,16.4,13.4,34.2,15.1,52.3c1.8,19.9-2.5,40.2-10.3,58.4
																				c-5,11.3-12,21.6-20.7,30.4c-2.7,2.8-6.7,5.8-8.7,9.2c-0.5,1.2-0.9,2.4-1.2,3.7c-1,2.8-2.7,5.3-5,7.3
																				c-7.8,6.5-19.4,4.4-27.3-0.8c-3.8-2.3-6.9-5.5-9-9.4c-2.4-4.8-1.6-10.1,0-14.9s3.7-9.2,4.8-14
																				c0.2-0.8-0.3-1.7-1.2-1.8c-0.5-0.1-1.1,0-1.4,0.4c-7.1,6.2-18.1,7.3-27,7.7s-18.5,0.7-27.1-2.1
																				c-3.4-1.1-6.8-2.5-10.1-4c-1.3-0.5-3-1.6-4.5-1.4c-0.7,0.2-1.1,0.8-1.2,1.5c-0.1,1.6,2.2,4.3,3,5.5
																				c2.2,3.5,3.8,7.4,4.9,11.4c2.3,9.3-3.8,19-12.6,22.3c-7.9,2.9-18,1.2-22.1-6.7c-0.7-1.3-1-3.7-2.1-4.7
																				s-3.6-1.2-5-1.6c-3.9-1.3-7.6-3.1-11.1-5.2c-15.2-9.1-26.6-24.3-33.1-40.7c-3.2-7.9-5.1-16.2-5.7-24.7
																				c-0.6-9.7,0.4-19.7,1.4-29.5c2.5-23.2,9.2-45.7,22.6-65.1C186.5,423.7,183.8,422.2,182.6,423.8z"/>
																			<path class="st43" d="M316,566.2c2.8-2.7,5.7-5.2,8-8.4c1.2-1.6-1.5-3.2-2.7-1.6c-2.1,3-4.9,5.3-7.5,7.8
																				C312.4,565.4,314.6,567.6,316,566.2z"/>
																			<path class="st43" d="M239.2,558c1.2,2.2,2.7,4.1,4.7,5.7c1.3,1.2,2.7,2.2,4.2,3c1.8,0.8,3.4-1.8,1.6-2.7
																				c-3.3-1.6-6-4.3-7.7-7.5C241,554.7,238.4,556.3,239.2,558L239.2,558z"/>
																			<g id="path-0-6">
																				<path class="st43" d="M174,449.6c-5.4,12.7-5.8,27.4-5.6,41c0.1,9.5,1.2,19,1.7,28.5c0.2,3.8-0.8,7.6-0.6,11.5
																					c0.3,7.1,1,15.5,5.9,21c5.4,6,13.4,6.9,21.1,6.5c7.9-0.3,12.8-4.4,15.8-11.6c1.9-4.5,1.4-9.8,1.2-14.5
																					c-0.2-6.1-0.6-12.1-1.4-18.2c-1.5-12.2-3.8-24.2-5.6-36.3c-0.3-2-3.3-1.1-3,0.8c2.9,19.5,7.3,39,7,58.9
																					c-0.1,4.5-0.6,8.1-3.1,11.9c-2.6,4-5.7,5.6-10.5,6c-8.1,0.5-17.1-0.5-21.3-8.4c-1.9-3.6-2.3-8.3-2.7-12.3
																					c-0.3-2.7-0.4-5.4-0.3-8.2c0.1-2.6,0.7-5.1,0.5-7.7c-0.7-8.7-1.5-17.4-1.6-26.1c-0.3-13.9,0-28.9,5.5-41.9
																					C177.8,448.6,174.9,447.8,174,449.6L174,449.6z"/>
																				<path class="st43" d="M379.6,450.4c4.9,11.7,5.5,25.1,5.5,37.5c0,9.7-0.6,19.3-1.6,29c-0.2,2.3-0.1,4.6,0.1,6.8
																					c0.5,5.6,0.1,11.2-1,16.7c-0.8,4-2.1,7.5-5.1,10.3c-3.6,3.3-8.1,3.9-12.8,4.2c-3.6,0.2-7.8,0.3-11.2-1.3
																					s-6.2-6.4-7.2-9.9c-1.3-4.8-0.5-10.8-0.3-15.7c0.3-5.2,0.8-10.4,1.4-15.6c1.5-11.5,3.6-22.8,5.3-34.2
																					c0.3-1.9-2.7-2.7-3-0.8c-3.1,21-8.3,42.2-7,63.5c0.4,6.9,5,14.5,12,16.4c3.2,0.7,6.5,0.9,9.8,0.6
																					c4.2-0.2,8.7-0.5,12.3-3c11-7.2,10.2-22.3,9.4-33.9c-0.2-2.7,0.3-5.4,0.5-8.1c0.5-5.8,0.9-11.6,1.1-17.3
																					c0.5-15.1,0.5-31.9-5.5-46.1C381.7,447.8,378.7,448.5,379.6,450.4L379.6,450.4z"/>
																				<path id="path-0-1" class="st44" d="M174.2,517.1"/>
																			</g>
																		</g>
																	</g>
																	<g id="paw">
																		<g id="paw01">
																			<g id="layer">
																				<g id="claw-4">
																					<g id="path-2">
																						
																							<linearGradient id="SVGID_18_" gradientUnits="userSpaceOnUse" x1="136.9522" y1="-248.7012" x2="181.563" y2="-248.7012" gradientTransform="matrix(1 0 0 1 52.94 418)">
																							<stop  offset="0" style="stop-color:#FF7C99"/>
																							<stop  offset="1" style="stop-color:#8000E9"/>
																						</linearGradient>
																						<path class="st45" d="M202.6,190.1c9.6-3.3,32.2-6.1,31.9-11.2c-0.1-1.7-30.1-28.4-40.1-30.5
																							C184.3,146.3,193,193.4,202.6,190.1z"/>
																					</g>
																					<g id="path-1-5">
																						
																							<linearGradient id="SVGID_19_" gradientUnits="userSpaceOnUse" x1="75.461" y1="-178.6059" x2="118.1726" y2="-178.6059" gradientTransform="matrix(1 0 0 1 52.94 418)">
																							<stop  offset="0" style="stop-color:#FF7C99"/>
																							<stop  offset="1" style="stop-color:#FFD62A"/>
																						</linearGradient>
																						<path class="st46" d="M171.1,253c-1-10.1,1.8-32.8-3.2-33.6c-1.6-0.4-34.7,22.5-39.2,31.7
																							C124.2,260.3,172,263.1,171.1,253z"/>
																					</g>
																					<g id="path-0-7">
																						
																							<linearGradient id="SVGID_20_" gradientUnits="userSpaceOnUse" x1="59.1473" y1="-137.4373" x2="103.4695" y2="-137.4373" gradientTransform="matrix(1 0 0 1 52.94 418)">
																							<stop  offset="0" style="stop-color:#FF7C99"/>
																							<stop  offset="1" style="stop-color:#FFD62A"/>
																						</linearGradient>
																						<path class="st47" d="M154.6,294.9c-0.1-10.1,4.5-32.5-0.4-33.8c-1.6-0.4-36.4,19.5-41.7,28.4
																							S154.7,305.1,154.6,294.9z"/>
																					</g>
																				</g>
																				<g id="claw-3">
																					<g id="path-2-2">
																						
																							<linearGradient id="SVGID_21_" gradientUnits="userSpaceOnUse" x1="312.1418" y1="-246.706" x2="267.4547" y2="-246.706" gradientTransform="matrix(1 0 0 1 52.94 418)">
																							<stop  offset="0" style="stop-color:#FF7C99"/>
																							<stop  offset="1" style="stop-color:#8000E9"/>
																						</linearGradient>
																						<path class="st48" d="M352.4,192.1c-9.6-3.3-32.2-6.1-31.9-11.2c0.1-1.7,30.1-28.4,40.2-30.5
																							S362,195.3,352.4,192.1z"/>
																					</g>
																					<g id="path-1-6">
																						
																							<linearGradient id="SVGID_22_" gradientUnits="userSpaceOnUse" x1="332.1474" y1="-176.6677" x2="374.859" y2="-176.6677" gradientTransform="matrix(1 0 0 1 52.94 418)">
																							<stop  offset="0" style="stop-color:#FF7C99"/>
																							<stop  offset="1" style="stop-color:#FFD62A"/>
																						</linearGradient>
																						<path class="st49" d="M385.1,254.9c1-10.1-1.8-32.8,3.2-33.6c1.6-0.3,34.7,22.5,39.2,31.8
																							S384.2,265,385.1,254.9z"/>
																					</g>
																					<g id="path-0-8">
																						
																							<linearGradient id="SVGID_23_" gradientUnits="userSpaceOnUse" x1="367.485" y1="-116.0686" x2="367.485" y2="-154.9552" gradientTransform="matrix(1 0 0 1 52.94 418)">
																							<stop  offset="0" style="stop-color:#FF7C99"/>
																							<stop  offset="1" style="stop-color:#FFD62A"/>
																						</linearGradient>
																						<path class="st50" d="M400.1,296.8c0.1-10.1-4.5-32.5,0.4-33.8c1.6-0.4,36.4,19.5,41.7,28.4
																							S400,307,400.1,296.8z"/>
																					</g>
																				</g>
																				<g id="claw-2">
																					<path id="path-2-3" class="st51" d="M342.8,608.6c-1,4.2-7.2,10.7-9.1,11.7s-5.7-13.5-4.1-12.1
																						C331.3,609.8,342.8,608.6,342.8,608.6z"/>
																					<path id="path-1-7" class="st51" d="M309.8,592.3c-2.9,3.2-5,11.7-4.8,13.8s13.8-3.5,11.8-3.9
																						S309.8,592.3,309.8,592.3z"/>
																					<path id="path-0-9" class="st51" d="M317.8,603.4c-1.9,1.1-2,12.5,0.9,13.2c4.1,1,11.5-9.7,9.6-8.9
																						S317.8,603.4,317.8,603.4z"/>
																					<g id="claw">
																						<path class="st51" d="M220.5,603.4c0.1,4.3,4.5,12.1,6.2,13.5s8.7-11.8,6.8-10.8
																							C231.5,607.2,220.5,603.4,220.5,603.4z"/>
																						<path class="st51" d="M254.1,594.7c2.3,3.6,3.1,12.3,2.5,14.4s-13-5.7-11-5.7
																							C247.9,603.3,254.1,594.7,254.1,594.7z"/>
																						<path class="st51" d="M245.4,603.8c1.7,1.4-0.1,12.6-3,12.8c-4.2,0.3-9.8-11.4-8.1-10.3
																							C236.2,607.4,245.4,603.8,245.4,603.8z"/>
																					</g>
																				</g>
																				<g id="claw-1">
																					<path id="path-2-4" class="st51" d="M347.5,552.6c-0.7,4.3,2.5,12.7,3.9,14.3s10.5-10.2,8.4-9.5
																						S347.5,552.6,347.5,552.6z"/>
																					<path id="path-1-8" class="st51" d="M381.6,548.7c1.6,4,1,12.7,0.1,14.6s-12-7.7-9.9-7.5
																						C374,556.1,381.6,548.7,381.6,548.7z"/>
																					<path id="path-0-10" class="st51" d="M371.8,556.1c1.4,1.6-2.1,12.5-5.1,12.2c-4.2-0.4-7.8-12.8-6.2-11.5
																						S371.8,556.1,371.8,556.1z"/>
																				</g>
																				<g id="claw-0">
																					<path id="path-2-5" class="st51" d="M176.6,551.3c-0.7,4.3,2.5,12.7,3.9,14.3s10.5-10.2,8.4-9.5
																						C186.7,556.9,176.6,551.3,176.6,551.3z"/>
																					<path id="path-1-9" class="st51" d="M211.1,548.3c1.6,4,1,12.7,0.1,14.6c-0.9,1.9-11.9-7.7-9.9-7.5
																						C203.5,555.7,211.1,548.3,211.1,548.3z"/>
																					<path id="path-0-11" class="st51" d="M200.8,556.1c1.4,1.6-2.1,12.5-5.1,12.2c-4.2-0.4-7.8-12.8-6.2-11.5
																						S200.8,556.1,200.8,556.1z"/>
																				</g>
																			</g>
																		</g>
																		<g id="jiao01">
																			<g id="layer-2-2">
																				<path id="path-17" class="st52" d="M220.5,603.4c0.1,4.3,4.5,12.1,6.2,13.5s8.7-11.8,6.8-10.8
																					C231.5,607.2,220.5,603.4,220.5,603.4z"/>
																				<path id="path-16" class="st52" d="M254.1,594.7c2.3,3.6,3.1,12.3,2.5,14.4s-13-5.7-11-5.7
																					C247.9,603.3,254.1,594.7,254.1,594.7z"/>
																				<path id="path-15" class="st52" d="M245.4,603.8c1.7,1.4-0.1,12.6-3,12.8c-4.2,0.3-9.8-11.4-8.1-10.3
																					C236.2,607.4,245.4,603.8,245.4,603.8z"/>
																				<g id="path-2-6">
																					<path d="M203,191.6c6.5-2.2,13.4-3.3,20.1-5c3.6-1,11.5-2.2,12.8-6.4c0.8-2.6-2.6-4.9-4.2-6.5
																						c-4.3-4.1-8.9-8-13.6-11.8c-4.8-4-9.9-7.6-15.2-11c-2.6-1.6-7.3-4.9-10.6-3.6c-2.9,1.2-3.5,5.1-3.8,7.9
																						c-0.3,5.1,0.1,10.2,1.2,15.1C190.7,175.4,194.3,194.3,203,191.6c1.9-0.5,1.1-3.5-0.8-2.9
																						c-2.4,0.7-4.3-3.3-5.1-4.9c-1.8-3.8-3.1-7.8-4-11.9c-1-4.4-1.6-9-1.7-13.5c0-1.9-0.3-6.9,1.6-8.2
																						c1.9-1.3,6.6,2.3,8.2,3.3c4.4,2.8,8.7,5.8,12.7,9.1c4.2,3.3,8.3,6.8,12.3,10.3c1.4,1.2,2.8,2.5,4,3.8
																						c0.7,0.7,2.3,1.8,2.6,2.7c0.1,0.2,0.2-0.2-0.3,0.2c-0.8,0.6-1.6,1.1-2.5,1.5c-2.8,1.1-5.7,2.1-8.6,2.7
																						c-6.4,1.6-13,2.7-19.3,4.8C200.3,189.3,201.1,192.3,203,191.6z"/>
																				</g>
																				<g id="path-1-10">
																					<path d="M172.6,253c-0.6-7,0-14-0.1-21.1c-0.1-3.6,0.6-11.5-3.4-13.7c-2.4-1.4-5.8,1.6-7.6,2.9
																						c-5,3.2-9.8,6.7-14.5,10.4c-5.1,3.8-10,7.9-14.5,12.3c-2.1,2.2-6.3,5.8-5.6,9.3c0.6,3.1,4.5,4.5,7.1,5.4
																						c4.8,1.4,9.8,2.3,14.9,2.4S173.1,261.9,172.6,253c-0.1-2-3.2-2-3.1-0.1c0.1,2.5-3.9,3.4-5.8,3.8
																						c-4.2,0.9-8.5,1.2-12.8,1.1c-4.4-0.1-8.7-0.6-13-1.4c-2-0.5-6.9-1.3-7.9-3.5s3.2-5.6,4.5-6.9
																						c3.7-3.6,7.6-7,11.7-10.2c4.3-3.4,8.6-6.5,13-9.6c1.7-1.2,3.4-2.3,5.1-3.4c0.9-0.5,2.3-1.7,3.3-1.9
																						c0.3-0.1-0.3-0.4,0.1,0.3c0.4,0.9,0.7,1.8,0.9,2.8c0.5,3,0.7,6,0.6,9c0.1,6.6-0.5,13.2,0.1,19.9
																						C169.7,255,172.8,255,172.6,253z"/>
																				</g>
																				<g id="path-0-12">
																					<path d="M156.1,294.9c0-7.1,1.2-14,1.6-21c0.2-3.6,1.4-11.2-2.1-13.7c-2.3-1.6-5.8,1-7.7,2.1
																						c-5.4,2.9-10.5,6-15.6,9.3c-5.3,3.3-10.4,7-15.2,11c-2.3,2-6.8,5.3-6.5,8.8c0.3,3.2,3.9,5,6.5,6
																						c4.7,1.9,9.6,3.1,14.7,3.6C137,301.7,155.8,304.2,156.1,294.9c0.1-1.9-3-1.9-3.1,0.1c-0.1,2.4-4.5,3-6.2,3.2
																						c-4.2,0.5-8.5,0.5-12.7,0c-4.4-0.4-8.8-1.3-13-2.6c-1.9-0.5-6.9-1.9-7.5-4.3c-0.5-2.1,4-5.3,5.3-6.4
																						c4.2-3.5,8.6-6.7,13.2-9.6c4.4-2.9,8.8-5.6,13.4-8.2c1.7-1,3.4-1.9,5.1-2.8c0.9-0.5,2.3-1.5,3.2-1.5
																						c0.2,0-0.1-0.3,0.2,0.5c0.3,1,0.5,2,0.6,3.1c0.2,2.9,0.1,5.9-0.2,8.8c-0.5,6.6-1.6,13.1-1.6,19.8
																						C153.1,296.9,156.2,296.9,156.1,294.9z"/>
																				</g>
																				<g id="path-2-7">
																					<path d="M352.8,190.6c-5.5-1.9-11.2-2.9-16.8-4.2c-4.3-1-10.1-1.9-13.6-4.8c-0.6-0.6-0.5,0.1-0.4-0.2
																						s0.7-0.8,0.9-1c1.2-1.2,2.3-2.3,3.6-3.5c3.5-3.3,7.1-6.4,10.8-9.4c4.3-3.6,8.9-7,13.6-10.2
																						c1.8-1.2,3.6-2.3,5.4-3.3c1.2-0.6,3.4-2.1,4.7-2c4.7,0.5,2,15.4,1.6,18.1c-0.8,4.9-2.1,9.7-4,14.3
																						C357.8,186,355.6,191.4,352.8,190.6c-0.8-0.2-1.6,0.4-1.8,1.2c-0.2,0.7,0.3,1.5,1,1.7
																						c7.7,2.3,11.3-12.6,12.5-17.4c1.3-5.1,2.1-10.4,2.2-15.6c0.1-3.2,0.1-7.9-2.4-10.4s-6-0.8-8.6,0.6
																						c-5.4,2.7-10.2,6.4-14.9,10.1c-5,3.8-9.8,7.9-14.5,12.1c-2,1.9-6,4.4-7,7.2c-1.9,4.6,6.9,6.8,9.7,7.6
																						c7.6,2.3,15.5,3.4,23.2,5.8C353.9,194.1,354.7,191.2,352.8,190.6z"/>
																				</g>
																				<g id="path-1-11">
																					<path d="M386.6,254.9c0.5-5.8,0.1-11.6,0.1-17.3c0-2.8,0-5.6,0.2-8.4c0.1-1.8,0.1-4.8,1.4-6.2
																						c0.3-0.4-0.5-0.2-0.1-0.1c0.4,0.2,0.8,0.4,1.2,0.6c1.5,0.9,3,1.9,4.5,2.8c4.1,2.7,8.1,5.6,12.1,8.6
																						c4.5,3.4,8.9,7,13.1,10.8c1.5,1.4,3,2.9,4.4,4.4c0.8,0.9,2.7,2.7,2.7,4c0.1,2.1-3.9,3.1-5.3,3.6
																						c-4.1,1.2-8.3,1.8-12.6,2c-4.8,0.4-9.6,0.2-14.4-0.6C391.9,258.7,386.6,257.9,386.6,254.9c0.1-2-3-2-3,0
																						c-0.4,7.9,14.8,7.9,19.7,7.9c5.3,0,10.5-0.5,15.7-1.6c3.1-0.7,7.4-1.7,9.5-4.5s-0.1-5.8-2.1-8.1
																						c-3.8-4.6-8.6-8.5-13.2-12.2c-5-4-10.1-7.8-15.4-11.4c-2.4-1.6-5.9-4.9-8.9-5.3c-4.9-0.7-5,8.4-5.1,11.2
																						c-0.4,8,0.5,16-0.2,23.8C383.4,256.9,386.5,256.9,386.6,254.9z"/>
																				</g>
																				<g id="path-0-13">
																					<path d="M401.7,296.8c0-5.8-0.8-11.5-1.3-17.3c-0.4-4.3-1.6-10.5,0.3-14.6c0.4-0.7-0.3-0.4,0.1-0.3
																						s0.8,0.3,1.1,0.5c1.5,0.7,2.9,1.5,4.5,2.3c4.5,2.4,8.8,5,13,7.7c4.5,2.8,8.9,5.8,13.2,9c1.9,1.4,3.7,3,5.5,4.7
																						c0.9,0.9,3,2.4,3.1,3.7c0.4,2.1-3.4,3.4-4.7,4c-3.9,1.5-7.9,2.5-12,3.1c-4.8,0.8-9.8,1-14.7,0.7
																						C407.6,300,401.8,299.6,401.7,296.8c-0.1-2-3.2-2-3.1,0c0.3,8,15.1,6.9,20.1,6.4c5.3-0.3,10.6-1.3,15.7-2.9
																						c3.1-1,7.4-2.4,9.2-5.4s-0.8-5.8-2.9-7.9c-4.3-4.1-9-7.7-14-10.9c-5.3-3.6-10.7-6.9-16.3-10.1
																						c-2.5-1.4-6.4-4.5-9.5-4.7c-4.9-0.3-4.3,8.7-4.1,11.5c0.3,8,1.8,15.8,1.8,23.8
																						C398.6,298.8,401.7,298.8,401.7,296.8z"/>
																				</g>
																				<path id="path-8" class="st52" d="M342.8,608.6c-1,4.2-7.2,10.7-9.1,11.7s-5.7-13.5-4.1-12.1
																					C331.3,609.8,342.8,608.6,342.8,608.6z"/>
																				<path id="path-7" class="st52" d="M309.8,592.3c-2.9,3.2-5,11.7-4.8,13.8s13.8-3.5,11.8-3.9
																					S309.8,592.3,309.8,592.3z"/>
																				<path id="path-6" class="st52" d="M317.8,603.4c-1.9,1.1-2,12.5,0.9,13.2c4.1,1,11.5-9.7,9.6-8.9
																					S317.8,603.4,317.8,603.4z"/>
																				<path id="path-5" class="st52" d="M347.5,552.6c-0.7,4.3,2.5,12.7,3.9,14.3s10.5-10.2,8.4-9.5
																					S347.5,552.6,347.5,552.6z"/>
																				<path id="path-4" class="st52" d="M381.6,548.7c1.6,4,1,12.7,0.1,14.6s-12-7.7-9.9-7.5
																					C374,556.1,381.6,548.7,381.6,548.7z"/>
																				<path id="path-3" class="st52" d="M371.8,556.1c1.4,1.6-2.1,12.5-5.1,12.2c-4.2-0.4-7.8-12.8-6.2-11.5
																					S371.8,556.1,371.8,556.1z"/>
																				<path id="path-2-8" class="st52" d="M176.6,551.3c-0.7,4.3,2.5,12.7,3.9,14.3s10.5-10.2,8.4-9.5
																					C186.7,556.9,176.6,551.3,176.6,551.3z"/>
																				<path id="path-1-12" class="st52" d="M211.1,548.3c1.6,4,1,12.7,0.1,14.6c-0.9,1.9-11.9-7.7-9.9-7.5
																					C203.5,555.7,211.1,548.3,211.1,548.3z"/>
																				<path id="path-0-14" class="st52" d="M200.8,556.1c1.4,1.6-2.1,12.5-5.1,12.2c-4.2-0.4-7.8-12.8-6.2-11.5
																					S200.8,556.1,200.8,556.1z"/>
																			</g>
																		</g>
																	</g>
																	<g>
																		<g>
																			<g>
																				<g id="headFur">
																					<g id="head-mainColor">
																						<g id="head-mainColor01">
																							<defs>
																								<path id="SVGID_24_" d="M287.9,177.9c-18.9-2.6-25-0.2-40,4.3c-7-6-6.2-9.6-16-11s-28.5,6.6-31.8,8.4
																									c-3.3,1.8-3.7,4.3-2.4,7.1c-21.4-7.9-65.8-11.7-67.8-6.9c-2,4.8,11.8,34.6,26.4,43.8
																									c-2.5,3.8-6.2,21.4-3.6,33.7c-13.3,9.9-18.6,23.2-17.2,39.7c0.4,4.8,0.9,6.6,3.1,14.2
																									c-4.2,13.8-16.3,66.7,4.3,89.1c22.1,24.1,75.7,40.9,84.6,42.9c9.6,2.1,16.9,1.9,21.1,2.6
																									s26.9,23.4,63.7,2.2c0,0,52.9-10.2,75.1-25.6s28-21.5,35.1-36.9s-5.2-65.7-4.2-71.7
																									c2.7-16.5,2.2-26-0.3-34.4c-4.8-16.1-16.2-21.9-16.2-21.9c1.2-5.7,1.9-11.5,2.1-17.3
																									c-0.1-5.3-1.2-10.5-3.1-15.4c6.6-6,12.6-12.5,18-19.5c9.6-12.3,10.9-23.3,8.4-25.3s-16.6-2.8-33.1-0.8
																									c-15.8,1.9-31.5,8.6-32.9,8.8c-2.9,0.3-1-5-7.5-8.7s-27.6-7.3-32.8-5.5s-8.7,8-11.2,9.4
																									S306.7,180.4,287.9,177.9z"/>
																							</defs>
																							<clipPath id="SVGID_25_">
																								<use xlink:href="#SVGID_24_"  style="overflow:visible;"/>
																							</clipPath>
																							<g class="st53">
																								<rect id="rectangles-3" x="42.3" y="96.9" class="st37" width="439.1" height="368.6"/>
																							</g>
																						</g>
																					</g>
																				</g>
																				<g>
																					<g id="head">
																						<g id="headShadow">
																							<g id="headShadow01">
																								<g id="headShadow-2">
																									<defs>
																										<path id="SVGID_26_" d="M287.9,180.8c-18.9-2.6-25-0.2-40,4.3c-7-6-6.2-9.6-16-11s-28.5,6.6-31.8,8.4
																											c-3.3,1.8-3.7,4.3-2.4,7.1c-21.4-7.9-65.8-11.7-67.8-6.9c-2,4.8,11.8,34.6,26.4,43.8
																											c-2.5,3.8-6.2,21.4-3.6,33.7c-13.2,9.7-18.6,23.1-17.2,39.5c0.4,4.8,0.9,6.6,3.1,14.2
																											c-4.2,13.9-16.3,66.7,4.3,89.1c22.2,24.2,75.8,41,84.7,43c9.6,2.1,16.9,2,21.1,2.6s26.9,23.4,63.7,2.2
																											c0,0,52.9-10.2,75.1-25.6s28-21.5,35.1-36.9s-5.2-65.7-4.2-71.7c2.7-16.5,2.2-26-0.3-34.4
																											c-4.8-16.1-16.2-21.9-16.2-21.9c1.2-5.7,1.9-11.5,2.1-17.4c-0.1-5.3-1.2-10.5-3.1-15.4
																											c6.6-6,12.6-12.5,18-19.5c9.6-12.3,10.9-23.3,8.4-25.3s-16.6-2.8-33.1-0.8c-15.8,1.9-31.5,8.6-32.9,8.8
																											c-2.9,0.3-1-5-7.5-8.7s-27.6-7.3-32.8-5.5s-8.7,8-11.2,9.4S306.7,183.3,287.9,180.8z"/>
																									</defs>
																									<clipPath id="SVGID_27_">
																										<use xlink:href="#SVGID_26_"  style="overflow:visible;"/>
																									</clipPath>
																									<g class="st54">
																										<path id="path-0-15" class="st55" d="M175,173.4c-44.4,3.9-59.9-1.4-31.7,20.6
																											c9.3,7.2,16.3,16.9,20.4,27.9c2.4,6.2-2.9,6.2-1.6,20.1s-0.3,18.6-4.3,25.8
																											c-8.6,15.5-11.9,32.4-10.1,41.6c9.5,47.5-19.5,46.7,5.4,83.4C185,439.6,262,455.4,262,455.4l-79.8-19
																											l-34.5-13.2l-31.3-54.4l-10.1-56.3l7.5-77.3c0,0,4.3-59.3,18.8-61.7S175,173.4,175,173.4z"/>
																										<path id="path-0-16" class="st27" d="M381.5,176.2c44.4,3.9,59.9-1.4,31.7,20.6
																											c-9.3,7.2-16.3,16.9-20.4,27.9c-2.4,6.2,2.9,6.2,1.6,20.1c-1.2,13.9,0.3,18.6,4.3,25.8
																											c8.6,15.5,11.9,32.4,10.1,41.6c-9.5,47.5,19.5,46.7-5.4,83.4c-32,46.8-108.9,62.6-108.9,62.6l79.8-19
																											l34.5-13.2l31.3-54.3l10.1-56.3l-7.5-77.3c0,0-4.3-59.3-18.8-61.7S381.5,176.2,381.5,176.2z"/>
																									</g>
																								</g>
																							</g>
																						</g>
																						<g id="head01">
																							<g id="layer-3">
																								<path id="path-3-2" class="st56" d="M253.5,366.9c2.3-2.3,33.4-14.5,57.1,2.3"/>
																								<path d="M287.9,177.8c-7.1-1-14.3-1.5-21.5-0.6c-6.4,0.9-12.7,2.9-18.9,4.9l1.5,0.4
																									c-4-3.5-6.9-8.5-12.1-10.3c-5.8-2.1-11.9-1.2-17.7,0.2c-5.8,1.5-11.4,3.4-16.9,5.8c-4.5,2-8.4,4.8-6.2,10.2
																									l1.9-1.9c-9.5-3.4-19.4-5.3-29.3-6.8c-9.3-1.5-18.7-2.3-28.2-2.3c-3.3,0.1-11.2-0.6-12.3,3.8
																									c-0.7,2.4,0.6,5.6,1.3,7.8c1.4,4,3.1,7.9,5.1,11.6c5,9.5,11.6,19.6,20.8,25.6l-0.6-2.1
																									c-2.5,4.2-3.3,9.8-4,14.5c-1.1,6.8-1,13.7,0.3,20.4l0.7-1.7c-10.1,7.7-16.7,18.2-18,30.9
																									c-0.5,5.5-0.2,11.1,0.9,16.5c0.5,2.5,2.1,5.5,2,8c-0.1,1.4-0.9,3.1-1.2,4.6c-5.1,19.8-8.2,41.5-4.5,61.8
																									c1.9,10.1,5.9,19.1,13.3,26.2c8.4,8.2,18.7,14.3,29.1,19.7c16.5,8.6,34.5,16.1,52.6,20.6
																									c5.8,1.3,11.6,2.1,17.6,2.4c3.2,0.2,5,0.5,7.7,2c6.9,4.1,14,7.5,21.9,8.9c12.9,2.2,26.1-1,37.5-7.2
																									c4.6-2.5,10.6-3,15.6-4.1c10.6-2.5,21.2-5.4,31.5-8.9c10.1-3.4,20.5-7.3,29.5-13.2
																									c16.6-11,36.8-26,38.7-47.7c1.7-19.3-3.6-38.8-6-57.8c-0.5-3.6,0-6.4,0.5-10c1-6.7,1.3-13.4,0.8-20.1
																									c-1.1-10.7-5.4-21.2-13.5-28.4c-1.6-1.5-3.3-2.8-5.2-3.8l0.7,1.7c2.5-11,3.5-23.2-1.2-33.9l-0.2,1.9
																									c4.3-3.8,8.3-7.9,12.1-12.3c6.3-7.2,12.5-15,15.1-24.4c1-3.8,2.1-9.6-2.6-11.3c-7-2.5-16-1.6-23.2-1.1
																									c-10.8,0.8-21.4,2.8-31.7,6.1c-3.1,1-6.2,2.5-9.3,3.2c-1.2,0.3-0.7,0.5-1.3-0.3c-0.9-1.2-1.1-2.9-2.1-4.1
																									c-3.8-5.2-11.6-6.6-17.6-7.9s-13.4-3-19.6-1.7c-3.8,0.8-6.6,3.7-9,6.4c-1.4,1.6-2.6,3.6-4.3,3.1
																									s-3.6-1.6-5.4-2.3c-4.7-1.5-9.6-2.6-14.5-3.1c-1.9-0.3-2.8,2.7-0.8,2.9c6.4,0.7,12.6,2.3,18.6,4.8
																									c3,1.3,4.6,0.8,7-1.6c2.6-2.7,5.1-6.4,9-7.3c2.5-0.6,5.4-0.3,7.8,0c7.2,0.5,14.2,2,21,4.5
																									c3.6,1.4,5.5,3.7,7.1,7.2c0.8,1.6,1.6,2.9,3.6,2.7s4-1.3,5.7-1.9c4-1.4,8.1-2.7,12.3-3.8
																									c10.4-2.7,21.1-4.1,31.8-4.2c3.9-0.1,7.8,0.1,11.7,0.7c2.2,0.4,3.6,0.6,3.7,2.9c0.6,9.7-7.7,19.6-13.5,26.4
																									c-4.1,5.1-8.7,9.8-13.6,14.1c-0.5,0.5-0.6,1.3-0.2,1.9c4.3,9.8,3.2,21.3,1,31.5c-0.2,0.7,0.1,1.4,0.7,1.7
																									c7.1,3.6,12.2,11.5,14.7,18.8c1.7,5,2.6,10.2,2.7,15.4c0.2,7-1.2,13.7-1.8,20.6c-0.5,5.9,1.4,12.5,2.3,18.3
																									c1.6,10.1,3.2,20.3,3.8,30.6c0.5,8.7,0.8,17.3-3.1,25.1c-4.7,9.5-11.2,16.9-19.4,23.4
																									c-9.4,7.4-19.2,13.9-30.3,18.6c-10.3,4.1-20.9,7.6-31.7,10.3c-7.6,2.1-15.3,3.9-23.1,5.5
																									c-1.3,0.2-2.5,0.5-3.8,0.9c-3.7,1.3-7.1,3.8-10.8,5.1c-3.3,1.2-6.7,2.2-10.1,2.9
																									c-10.3,1.9-20.9,0.3-30.3-4.3c-4.5-2.2-8.6-5.8-13.6-6.4c-9-0.9-17.7-1.8-26.4-4.5
																									c-8.7-2.7-17.3-5.8-25.8-9.3c-10.8-4.4-21.3-9.7-31.3-15.8c-8.9-5.5-18.5-12.2-23.7-21.6
																									c-5.1-9.2-6.5-20.2-6.7-30.6c-0.1-10.8,0.9-21.6,2.9-32.2c0.8-4,1.6-8,2.6-12c0.3-1.4,0.8-2.9,1.2-4.3
																									c0.7-2.4,0.6-3.3-0.1-5.9c-3.2-11.3-3.7-23.8,1.6-34.5c3-5.8,7.3-10.8,12.6-14.7c0.5-0.4,0.8-1.1,0.7-1.7
																									c-1.2-6.5-1.2-13.2-0.1-19.7c0.6-4.2,1.2-9.2,3.5-12.8c0.4-0.7,0.2-1.7-0.5-2.1
																									c-7.6-4.9-13.2-12.9-17.6-20.6c-2.2-3.7-4.1-7.6-5.8-11.6c-1-2.5-2.6-5.8-2.5-8.5c0.1-3.1,8.6-2.3,11-2.3
																									c8.8,0.1,17.5,0.9,26.2,2.3c9.7,1.4,19.6,3.4,28.9,6.7c0.9,0.2,1.7-0.3,1.9-1.2c0.1-0.2,0.1-0.5,0-0.7
																									c-1.9-4.4,2.8-6,6.2-7.3c3.6-1.4,7.1-2.7,10.8-3.8c7.3-2.2,17.7-4.8,23.9,1.2c1.2,1.2,2.3,2.5,3.4,3.8
																									c1,1.1,2.5,3.2,4,3.6s4.3-1,5.7-1.5c2.1-0.6,4.3-1.3,6.4-1.9c9.4-2.4,18.6-2.2,28.2-0.9
																									C289.9,181.2,289.9,178.1,287.9,177.8z"/>
																								<path id="path-1-13" class="st56" d="M298.5,414.7c7.4-14.5,16.3-10.2,19.7-7.4"/>
																								<path id="path-0-17" class="st56" d="M259.2,413.3c-7.4-14.5-16.3-10.2-19.7-7.4"/>
																							</g>
																						</g>
																					</g>
																					<g id="eye">
																						<circle id="path-11" class="st19" cx="351.7" cy="316" r="42.9"/>
																						<circle id="eyeColor01-right" class="st57" cx="344.1" cy="315" r="35.8"/>
																						<circle id="path-9" cx="339.8" cy="310.1" r="29.1"/>
																						<circle id="path-8-2" class="st58" cx="365.7" cy="300.3" r="18.1"/>
																						<circle id="path-7-2" class="st58" cx="349.8" cy="312.1" r="10.4"/>
																						<circle id="path-6-2" class="st19" cx="206.1" cy="316" r="42.9"/>
																						<circle id="eyeColor01-left" class="st57" cx="213.7" cy="315" r="35.8"/>
																						<circle id="path-4-2" cx="217.6" cy="309.2" r="29.1"/>
																						<ellipse id="path-3-3" class="st58" cx="192.2" cy="300.2" rx="18.1" ry="18.1"/>
																						<circle id="path-2-9" class="st58" cx="208" cy="312.1" r="10.4"/>
																						<circle id="path-0-18" class="st59" cx="206.1" cy="316" r="42.9"/>
																						<circle id="path-1-15" class="st52" cx="351.7" cy="316" r="42.9"/>
																						<circle id="path-0-19" class="st52" cx="206.1" cy="316" r="42.9"/>
																					</g>
																					<g id="mouth">
																						<g id="mouth01">
																							<path id="layer-4" class="st56" d="M361.1,419.5c-6.5,18.5-16.4,23.3-29.7,26.9s-35.4-9.4-47.3-10.2
																								s-41.7,8.6-51.5,10.3c0,0-39.1-10.1-31.5-30.6"/>
																							
																								<linearGradient id="layer-3-2_1_" gradientUnits="userSpaceOnUse" x1="162.1" y1="33.2657" x2="181.05" y2="33.2657" gradientTransform="matrix(1 0 0 1 52.94 418)">
																								<stop  offset="0" style="stop-color:#FF7C99"/>
																								<stop  offset="1" style="stop-color:#FFD62A"/>
																							</linearGradient>
																							<path id="layer-3-2" class="st60" d="M215,441.8c0.2,5.5,7,17,9.1,18.8s13.7-15.5,8.5-14.1
																								C229.7,447.2,215,441.8,215,441.8z"/>
																							
																								<linearGradient id="layer-2-3_1_" gradientUnits="userSpaceOnUse" x1="271.8316" y1="34.1657" x2="290.76" y2="34.1657" gradientTransform="matrix(1 0 0 1 52.94 418)">
																								<stop  offset="0" style="stop-color:#FF7C99"/>
																								<stop  offset="1" style="stop-color:#FFD62A"/>
																							</linearGradient>
																							<path id="layer-2-3" class="st61" d="M343.7,442.7c-0.2,5.6-7,17-9.1,18.8s-13.7-15.5-8.5-14.1
																								C329,448.2,343.7,442.7,343.7,442.7z"/>
																							<g id="layer-1-2">
																								<g id="path-0-21">
																									<path class="st62" d="M81.7,350.6c-2.7,21.9,2.5,49.5,26.2,57.7c12,4.1,25.4,1.9,37.6,0
																										c13.6-2.2,27-5.5,40.1-9.8c7.1-2.3,13.9-5.1,20.8-7.9c3.3-1.3,12.7-5.4,14.9-1c0.2,0.3,0.7,0.4,1,0.2
																										c0.3-0.1,0.4-0.5,0.3-0.8c-2.2-6.4-13.6-1.9-17.6-0.1c-12.8,5.4-26,9.7-39.4,13.1c-13.2,3.2-27,6-40.6,6.3
																										c-13.4,0.4-25.4-4.2-33.4-15.3c-8.8-12.3-10-27.9-8.4-42.5C83.1,349.6,81.8,349.7,81.7,350.6L81.7,350.6z"
																										/>
																								</g>
																							</g>
																							<g id="layer-4-2">
																								<g id="path-0-22">
																									<path class="st62" d="M475.1,350.6c1.5,13.2,0.8,27.3-6.2,39.1c-6.3,11.1-17.9,18.2-30.7,18.6
																										c-13.4,0.7-27.5-2.1-40.5-5.1c-13.2-2.9-26.2-6.9-38.8-11.9c-4.4-1.8-20.6-10.2-23.3-2.2
																										c-0.1,0.4,0.2,0.8,0.5,0.9s0.6-0.1,0.8-0.3c2.1-4,10.2-0.8,13.3,0.3c5.7,2.1,11.2,4.6,17,6.6
																										c13,4.6,26.3,8.2,39.8,10.7c12.3,2.3,25.6,4.7,38,2.3c10.8-2.1,19.5-8.8,25-18.2c7.3-12.3,8-27.1,6.3-40.9
																										c-0.1-0.8-1.4-0.9-1.4,0L475.1,350.6z"/>
																								</g>
																							</g>
																						</g>
																					</g>
																				</g>
																			</g>
																		</g>
																	</g>
																</g>
															</g>
														</g>
													</g>
												</g>
											</g>
										</g>
									</g>
								</g>
							</g>
						</g>
					</g>
				</g>
			</g>
		</g>
	</g>
</g>
</svg>
