<?xml version="1.0" encoding="utf-8"?>
<!-- Generator: Adobe Illustrator 22.0.1, SVG Export Plug-In . SVG Version: 6.00 Build 0)  -->
<svg version="1.1" id="_1" xmlns="http://www.w3.org/2000/svg" xmlns:xlink="http://www.w3.org/1999/xlink" x="0px" y="0px"
	 viewBox="0 0 566 600" style="enable-background:new 0 0 566 600;" xml:space="preserve">
<style type="text/css">
	.st0{clip-path:url(#SVGID_2_);}
	.st1{fill:#F6FFEC;}
	.st2{clip-path:url(#SVGID_4_);}
	.st3{clip-path:url(#SVGID_6_);}
	.st4{fill:#CCE8D2;}
	.st5{clip-path:url(#SVGID_8_);}
	.st6{fill:#00E592;}
	.st7{clip-path:url(#SVGID_10_);}
	.st8{opacity:0.2;stroke:#000002;stroke-width:0.5;enable-background:new    ;}
	.st9{opacity:0.2;fill:#FFFFFF;enable-background:new    ;}
	.st10{fill:none;stroke:#30323C;stroke-width:4;}
	.st11{clip-path:url(#SVGID_12_);}
	.st12{clip-path:url(#SVGID_14_);}
	.st13{clip-path:url(#SVGID_16_);}
	.st14{clip-path:url(#SVGID_18_);}
	.st15{clip-path:url(#SVGID_20_);}
	.st16{clip-path:url(#SVGID_22_);}
	.st17{fill:#FFFFFF;}
	.st18{clip-path:url(#SVGID_24_);}
	.st19{opacity:0.2;fill:url(#path-1-6_1_);enable-background:new    ;}
	.st20{opacity:0.2;enable-background:new    ;}
	.st21{fill:#30323C;}
	.st22{fill:#F5E4B9;}
	.st23{fill:none;stroke:#30323C;stroke-width:3;stroke-miterlimit:10;}
	.st24{clip-path:url(#SVGID_26_);}
	.st25{clip-path:url(#SVGID_28_);}
	.st26{clip-path:url(#SVGID_30_);}
	.st27{clip-path:url(#SVGID_32_);}
	.st28{fill:none;stroke:#30323C;stroke-width:5;stroke-linecap:round;stroke-linejoin:round;stroke-miterlimit:10;}
	.st29{fill:#D66B6B;}
	.st30{fill:#FFFFFF;stroke:#30323C;stroke-width:4;stroke-linecap:round;stroke-linejoin:round;stroke-miterlimit:10;}
	.st31{fill:none;stroke:#30323C;stroke-width:4;stroke-linecap:round;stroke-linejoin:round;stroke-miterlimit:10;}
	.st32{fill:none;stroke:#30323C;stroke-width:16;stroke-linecap:round;stroke-linejoin:round;stroke-miterlimit:10;}
	.st33{fill:#494949;}
</style>
<title>long02</title>
<g>
	<defs>
		<rect id="SVGID_1_" width="567.6" height="600"/>
	</defs>
	<clipPath id="SVGID_2_">
		<use xlink:href="#SVGID_1_"  style="overflow:visible;"/>
	</clipPath>
	<g class="st0">
		<g id="tailFur">
			<g id="tail-mainColor">
				<g id="tail-mainColor02">
					<path id="_tail02_-clip-5" class="st1" d="M449.7,666.2c0,0,26.3,9.2,30.7,13.1c5.3,4.7-5.4,23.9-5.4,23.9l13.8,14.3
						c0,0,31.3-2.9,35.8,0.2s4.7,21.5,4.7,21.5s12.7,6.6,17.6,5.3s14-15.5,20.7-15.8s16.5,12.7,20.2,13s33.6-5.8,34.2-2.5
						s-31.1,30.7-100.1,33.7s-108.3-27-108.3-27l5.3-89.7l23.9-2.9l0,0L449.7,666.2z"/>
					<g>
						<g>
							<g>
								<g>
									<g>
										<defs>
											<path id="SVGID_3_" d="M449.7,666.2c0,0,26.3,9.2,30.7,13.1c5.3,4.7-5.4,23.9-5.4,23.9l13.8,14.3c0,0,31.3-2.9,35.8,0.2
												s4.7,21.5,4.7,21.5s12.7,6.6,17.6,5.3s14-15.5,20.7-15.8s16.5,12.7,20.2,13s33.6-5.8,34.2-2.5s-31.1,30.7-100.1,33.7
												s-108.3-27-108.3-27l5.3-89.7l23.9-2.9l0,0L449.7,666.2z"/>
										</defs>
										<clipPath id="SVGID_4_">
											<use xlink:href="#SVGID_3_"  style="overflow:visible;"/>
										</clipPath>
										<g class="st2">
											<rect id="rectangles" x="390.8" y="569.3" class="st1" width="292.9" height="292.9"/>
										</g>
									</g>
								</g>
							</g>
						</g>
					</g>
				</g>
			</g>
			<g id="tailFur02">
				<g id="color2">
					<g>
						<g>
							<g>
								<g>
									<g>
										<defs>
											<path id="SVGID_5_" d="M428,614.7c4.9,17.1,11.6,33.6,20,49.3c3.8,7.3,29.4,8.4,34.6,15.8c4,5.8-10.6,20.4-5.7,25.9
												c3.2,3.6,6.6,6.9,10.3,10c5.5,4.9,31.1-2,37.4,1.8c3.9,2.3,4.9,9.2,4.3,14.7c-0.5,4.6-2.9,8.2,0.9,9.4
												c4.6,1.4,12.4,4.8,17,2.7c8-3.7,13.3-15,23.2-16c5.9-0.6,14,15.3,20.4,13.8c121.9-28.7-139.3,106.5-206.6-35.3
												S428,614.7,428,614.7z"/>
										</defs>
										<clipPath id="SVGID_6_">
											<use xlink:href="#SVGID_5_"  style="overflow:visible;"/>
										</clipPath>
										<g class="st3">
											<path id="path-3" class="st4" d="M717.4,642.2c-64.1,14.1-24.5-38.6-90.5,32s-108.3,70.7-66,93.3s103.3,66.9,137.4,12.2
												s51-58.4,35-98L717.4,642.2z"/>
											<path id="path-2" class="st4" d="M388,594.9c92.3,42.9,110.2,8.1,122.5,49.5c12.3,41.4-21.4,21.7-36.8,61.2
												c-20,51.5-44,32.2-69.7-18.8c-9.8-19.3-18.6-39.2-26.3-59.5L388,594.9z"/>
										</g>
									</g>
								</g>
							</g>
						</g>
					</g>
				</g>
				<g id="color1">
					<g id="layer01">
						<g>
							<g>
								<g>
									<g>
										<g>
											<defs>
												<path id="SVGID_7_" d="M428,614.7c4.9,17.1,11.6,33.6,20,49.3c3.8,7.3,29.4,8.4,34.6,15.8c4,5.8-10.6,20.4-5.7,25.9
													c3.2,3.6,6.6,6.9,10.3,10c5.5,4.9,31.1-2,37.4,1.8c3.9,2.3,4.9,9.2,4.3,14.7c-0.5,4.6-2.9,8.2,0.9,9.4
													c4.6,1.4,12.4,4.8,17,2.7c8-3.7,13.3-15,23.2-16c5.9-0.6,14,15.3,20.4,13.8c121.9-28.7-139.3,106.5-206.6-35.3
													S428,614.7,428,614.7z"/>
											</defs>
											<clipPath id="SVGID_8_">
												<use xlink:href="#SVGID_7_"  style="overflow:visible;"/>
											</clipPath>
											<g class="st5">
												<path id="path-0" class="st6" d="M376.8,776c97-9.4,113.1-34.9,125.3-26.5c12.2,8.4,19.8,54.7,18.8,74.5
													s73.5,26.4-6.6,34.9s-82.9,34.8-103.7,9.5S376.8,776,376.8,776z"/>
											</g>
										</g>
									</g>
								</g>
							</g>
						</g>
					</g>
				</g>
				<g id="tailShadow02">
					<g>
						<g>
							<g>
								<g>
									<g>
										<defs>
											<path id="SVGID_9_" d="M428,614.7c4.9,17.1,11.6,33.6,20,49.3c3.8,7.3,29.4,8.4,34.6,15.8c4,5.8-10.6,20.4-5.7,25.9
												c3.2,3.6,6.6,6.9,10.3,10c5.5,4.9,31.1-2,37.4,1.8c3.9,2.3,4.9,9.2,4.3,14.7c-0.5,4.6-2.9,8.2,0.9,9.4
												c4.6,1.4,12.4,4.8,17,2.7c8-3.7,13.3-15,23.2-16c5.9-0.6,14,15.3,20.4,13.8c121.9-28.7-139.3,106.5-206.6-35.3
												S428,614.7,428,614.7z"/>
										</defs>
										<clipPath id="SVGID_10_">
											<use xlink:href="#SVGID_9_"  style="overflow:visible;"/>
										</clipPath>
										<g class="st7">
											<path id="path-1" class="st8" d="M607.6,793c-115.8,16-172.6-56.6-184.5-75.8s-12.3-14.9-12.3-14.9l-30.3,16.2l14.9,36
												l96.3,56.9l67.8,7.8L607.6,793z"/>
											<path id="path-0-2" class="st9" d="M641.1,731.4c0,0,63.9-4.5,28.8,4.9c-140.8,37.7-174.5,4.1-183.5-1
												c-17.9-10.3-44.6-51.2-44.6-51.2l23.3-28.9l31.5,10.2l103.7,51.8l38.3,14.6L641.1,731.4z"/>
										</g>
									</g>
								</g>
							</g>
						</g>
					</g>
				</g>
			</g>
		</g>
		<g id="tail">
			<g id="tail02">
				<g id="layer">
					<g id="path-3-2">
						<path id="path-0-3" class="st10" d="M587.5,742.8c1.6-0.3-13.4-16.5-20-14.3s-21.7,13.2-19.9,16.3c5.7,0.6,9.8,1.6,21.2,0.6
							C575.2,745,581.4,744.2,587.5,742.8z"/>
					</g>
					<g id="path-2-2">
						<path id="path-0-4" class="st10" d="M529.3,739c0.6-1.5,1.8-19-4.7-21.5s-17.5-2.9-34-1.1c5.3,5.2,11.1,9.8,17.4,13.8
							C517.5,736,529,739.8,529.3,739z"/>
					</g>
					<g id="path-1-2">
						<path id="path-0-5" class="st10" d="M475.1,703.2c1.2-1.1,11-20.1,6.1-25.2s-15.8-6.3-31.5-11.8
							C449.7,666.2,473.9,704.3,475.1,703.2z"/>
					</g>
					<path id="path-0-6" class="st10" d="M428,614.7c0,0,40.6,156.2,162.4,127.5s-139.3,106.4-206.7-35.4S428,614.7,428,614.7z"/>
				</g>
			</g>
		</g>
		<g id="wingsFur">
			<g id="wingsFur02">
				<g id="wingsColor02-left">
					<path id="_wings02-left_-clip-2" class="st6" d="M138.7,572.9c0,0-21.9-8.5-38.5-19.6c-15.7-10.5-19.1-28.5-23.7-24.8
						c-9.4,7.5-20.3,25.2-27.7,31.7c-7.4,6.5-21.5,23.2-21.9,38.6c-0.3,14.4,3.8,36.2,8.2,32.4s9.3-25.3,25.8-25
						s32.2,11.2,32.2,11.2s18.7-27.2,32.8-18.8C138.2,605.9,138.7,572.9,138.7,572.9z"/>
					<g>
						<g>
							<g>
								<g>
									<g>
										<defs>
											<path id="SVGID_11_" d="M138.7,572.9c0,0-21.9-8.5-38.5-19.6c-15.7-10.5-19.1-28.5-23.7-24.8
												c-9.4,7.5-20.3,25.2-27.7,31.7c-7.4,6.5-21.5,23.2-21.9,38.6c-0.3,14.4,3.8,36.2,8.2,32.4s9.3-25.3,25.8-25
												s32.2,11.2,32.2,11.2s18.7-27.2,32.8-18.8C138.2,605.9,138.7,572.9,138.7,572.9z"/>
										</defs>
										<clipPath id="SVGID_12_">
											<use xlink:href="#SVGID_11_"  style="overflow:visible;"/>
										</clipPath>
										<g class="st11">
											<g id="wingsColor02-left02">
												<rect x="-200.1" y="405.5" class="st6" width="426.9" height="332.3"/>
											</g>
										</g>
									</g>
								</g>
							</g>
						</g>
					</g>
				</g>
				<g id="wingsColor02-right">
					<path id="_wings02-right_-clip-2" class="st6" d="M434,572.9c0,0,21.9-8.5,38.5-19.6c15.7-10.5,19.1-28.5,23.7-24.8
						c9.4,7.5,20.3,25.2,27.7,31.7s21.5,23.2,21.9,38.6c0.3,14.4-3.8,36.2-8.2,32.4s-9.3-25.3-25.8-25
						c-16.5,0.3-32.2,11.2-32.2,11.2s-18.7-27.2-32.8-18.8C434.6,605.9,434,572.9,434,572.9z"/>
					<g>
						<g>
							<g>
								<g>
									<g>
										<defs>
											<path id="SVGID_13_" d="M434,572.9c0,0,21.9-8.5,38.5-19.6c15.7-10.5,19.1-28.5,23.7-24.8c9.4,7.5,20.3,25.2,27.7,31.7
												s21.5,23.2,21.9,38.6c0.3,14.4-3.8,36.2-8.2,32.4s-9.3-25.3-25.8-25c-16.5,0.3-32.2,11.2-32.2,11.2s-18.7-27.2-32.8-18.8
												C434.6,605.9,434,572.9,434,572.9z"/>
										</defs>
										<clipPath id="SVGID_14_">
											<use xlink:href="#SVGID_13_"  style="overflow:visible;"/>
										</clipPath>
										<g class="st12">
											<g id="wingsColor02-right02">
												<rect x="357.6" y="415.7" class="st6" width="421.7" height="328.3"/>
											</g>
										</g>
									</g>
								</g>
							</g>
						</g>
					</g>
				</g>
			</g>
		</g>
		<g id="wings">
			<g id="wings02">
				<g id="layer-2">
					<path id="path-1-3" class="st10" d="M139.5,572.9c0,0-47.3-22.4-51.4-32.6c-9.3-23.1-12.2-11.6-22.8,2.8s-26.6,23.6-35.3,42
						c-9.3,19.8,0.2,45,4,48.9s-0.4-30.1,15.1-46.8c18.7-20.3,35.9-16.6,34.7-6.8c-3.1,25.2,5.9,36.5,8.6,39.4s1.8-36.2,12.4-43.2
						c9.6-6.4,32.2,4.3,32.2,4.3L139.5,572.9z"/>
					<path id="path-0-7" class="st10" d="M139.5,572.9l5.4,5.4c0,0,8.8,35.1-14,22.2s-35.3,19.2-38.4,19.2
						c-1.7,0-18.3-16.2-34.5-12.6S37.2,631.9,34.1,634"/>
				</g>
				<g id="layer-1">
					<path id="path-1-4" class="st10" d="M433.3,572.9c0,0,47.3-22.5,51.4-32.6c9.3-23.1,12.2-11.6,22.8,2.8
						c10.6,14.4,26.6,23.7,35.3,42c9.3,19.8-0.2,45-4,48.9s0.4-30.1-15.1-46.8c-18.7-20.3-35.9-16.6-34.7-6.8
						c3.2,25.3-5.9,36.5-8.6,39.4s-1.8-36.2-12.3-43.2c-9.6-6.4-32.2,4.3-32.2,4.3L433.3,572.9z"/>
					<path id="path-0-8" class="st10" d="M433.3,572.9l-5.4,5.5c0,0-8.8,35.1,14,22.1s35.2,19.2,38.3,19.2
						c1.7,0,18.3-16.2,34.5-12.6c16.2,3.6,20.8,24.8,23.9,26.9"/>
				</g>
			</g>
		</g>
		<g id="bodyFur">
			<g id="bodyFur-2">
				<g id="body-mainColor">
					<g id="body-mainColor02">
						<g id="clipping_Path">
							<path id="_body02_-clip-6" class="st1" d="M134.6,505.2C105.9,542.8,97,611,98.5,662.8c1.5,48,45.7,106.7,92.4,118
								c3.3,8.4,4.2,10,11.5,15.5s22.1,4.5,30,0c10-5.7,16.4-14.6,17-26.1c0.6-12.3-9.7-25.9-11-28.7c-0.3-0.6,16.6,11.3,41.8,13.3
								c24.1,1.9,56.3-6.1,59.5-8.9c-3.3,15.3-14,18-9.6,32.5c4,13.3,25.4,28.6,45.1,24.8s21.7-21.4,22.5-22.4
								c15-17.7,56.1-37.1,69.9-106.8c13.5-68.6-11.8-164.9-20.8-172.5s-142.5,32.6-183.1,28c-29.4-3.3-58.9-4.8-88.5-4.5
								C164.5,525,134.6,505.2,134.6,505.2z"/>
							<g>
								<g>
									<g>
										<g>
											<g>
												<defs>
													<path id="SVGID_15_" d="M134.6,505.2C105.9,542.8,97,611,98.5,662.8c1.5,48,45.7,106.7,92.4,118
														c3.3,8.4,4.2,10,11.5,15.5s22.1,4.5,30,0c10-5.7,16.4-14.6,17-26.1c0.6-12.3-9.7-25.9-11-28.7
														c-0.3-0.6,16.6,11.3,41.8,13.3c24.1,1.9,56.3-6.1,59.5-8.9c-3.3,15.3-14,18-9.6,32.5c4,13.3,25.4,28.6,45.1,24.8
														s21.7-21.4,22.5-22.4c15-17.7,56.1-37.1,69.9-106.8c13.5-68.6-11.8-164.9-20.8-172.5s-142.5,32.6-183.1,28
														c-29.4-3.3-58.9-4.8-88.5-4.5C164.5,525,134.6,505.2,134.6,505.2z"/>
												</defs>
												<clipPath id="SVGID_16_">
													<use xlink:href="#SVGID_15_"  style="overflow:visible;"/>
												</clipPath>
												<g class="st13">
													<rect id="rectangles-2" x="77.7" y="406" class="st1" width="474.3" height="474.3"/>
												</g>
											</g>
										</g>
									</g>
								</g>
							</g>
						</g>
					</g>
				</g>
				<g id="bodyFur02">
					<g id="color2-2">
						<g id="color2-3">
							<g>
								<g>
									<g>
										<g>
											<g>
												<defs>
													<path id="SVGID_17_" d="M134.6,505.2C105.9,542.8,97,611,98.5,662.8c1.5,48,45.7,106.7,92.4,118
														c3.3,8.4,4.2,10,11.5,15.5s22.1,4.5,30,0c10-5.7,16.4-14.6,17-26.1c0.6-12.3-9.7-25.9-11-28.7
														c-0.3-0.6,16.6,11.3,41.8,13.3c24.1,1.9,56.3-6.1,59.5-8.9c-3.3,15.3-14,18-9.6,32.5c4,13.3,25.4,28.6,45.1,24.8
														s21.7-21.4,22.5-22.4c15-17.7,56.1-37.1,69.9-106.8c13.5-68.6-11.8-164.9-20.8-172.5s-142.5,32.6-183.1,28
														c-29.4-3.3-58.9-4.8-88.5-4.5C164.5,525,134.6,505.2,134.6,505.2z"/>
												</defs>
												<clipPath id="SVGID_18_">
													<use xlink:href="#SVGID_17_"  style="overflow:visible;"/>
												</clipPath>
												<g class="st14">
													<rect id="path-2-3" x="22.9" y="476.6" class="st1" width="647.9" height="557.2"/>
												</g>
											</g>
										</g>
									</g>
								</g>
							</g>
						</g>
					</g>
					<g id="color1-2">
						<g>
							<g>
								<g>
									<g>
										<g>
											<defs>
												<path id="SVGID_19_" d="M134.6,505.2C105.9,542.8,97,611,98.5,662.8c1.5,48,45.7,106.7,92.4,118
													c3.3,8.4,4.2,10,11.5,15.5s22.1,4.5,30,0c10-5.7,16.4-14.6,17-26.1c0.6-12.3-9.7-25.9-11-28.7
													c-0.3-0.6,16.6,11.3,41.8,13.3c24.1,1.9,56.3-6.1,59.5-8.9c-3.3,15.3-14,18-9.6,32.5c4,13.3,25.4,28.6,45.1,24.8
													s21.7-21.4,22.5-22.4c15-17.7,56.1-37.1,69.9-106.8c13.5-68.6-11.8-164.9-20.8-172.5s-142.5,32.6-183.1,28
													c-29.4-3.3-58.9-4.8-88.5-4.5C164.5,525,134.6,505.2,134.6,505.2z"/>
											</defs>
											<clipPath id="SVGID_20_">
												<use xlink:href="#SVGID_19_"  style="overflow:visible;"/>
											</clipPath>
											<g class="st15">
												<path id="path-3-3" class="st6" d="M110.9,489.6c23.9-5.4,79.7,16,58.2,69.1c-21.5,53.1,9.6,78,8.9,114.5
													s-54.3,86.8-108.5,5.9S87,495.1,110.9,489.6z"/>
												<path id="path-2-4" class="st6" d="M468.8,498.6c-24-5.4-79.7,16-58.2,69.1s-9.6,78-8.9,114.5s54.3,86.8,108.5,5.9
													S492.7,504.1,468.8,498.6z"/>
												<path id="path-1-5" class="st6" d="M157.7,804c42.4-63.8,79-47,103-13c13.4,19,88,61,41,99s-96,9-116-3
													S125.7,852,157.7,804z"/>
											</g>
										</g>
									</g>
								</g>
							</g>
						</g>
					</g>
				</g>
			</g>
			<g id="paunchFur">
				<g id="paunchFur02">
					<g>
						<g>
							<g>
								<g>
									<g>
										<defs>
											<path id="SVGID_21_" d="M134.6,505.2C105.9,542.8,97,611,98.5,662.8c1.5,48,45.7,106.7,92.4,118
												c3.3,8.4,4.2,10,11.5,15.5s22.1,4.5,30,0c10-5.7,16.4-14.6,17-26.1c0.6-12.3-9.7-25.9-11-28.7
												c-0.3-0.6,16.6,11.3,41.8,13.3c24.1,1.9,56.3-6.1,59.5-8.9c-3.3,15.3-14,18-9.6,32.5c4,13.3,25.4,28.6,45.1,24.8
												s21.7-21.4,22.5-22.4c15-17.7,56.1-37.1,69.9-106.8c13.5-68.6-11.8-164.9-20.8-172.5s-142.5,32.6-183.1,28
												c-29.4-3.3-58.9-4.8-88.5-4.5C164.5,525,134.6,505.2,134.6,505.2z"/>
										</defs>
										<clipPath id="SVGID_22_">
											<use xlink:href="#SVGID_21_"  style="overflow:visible;"/>
										</clipPath>
										<g class="st16">
											<path id="color3" class="st17" d="M366.7,690.5c0,33.7-35.6,61-79.4,61s-79.5-27.3-79.5-61c0-6.8-7.3-52,14.4-76.2
												c12.7-14.1,34.1,19.3,65.3,19.6c32,0.3,54.3-32.6,68.4-15C373.6,641,366.7,681,366.7,690.5z"/>
										</g>
									</g>
								</g>
							</g>
						</g>
					</g>
				</g>
			</g>
			<g id="bodyShadow">
				<g id="bodyShadow02">
					<g id="bodyShadow-2">
						<g>
							<g>
								<g>
									<g>
										<g>
											<defs>
												<path id="SVGID_23_" d="M134.6,505.2C105.9,542.8,97,611,98.5,662.8c1.5,48,45.7,106.7,92.4,118
													c3.3,8.4,4.2,10,11.5,15.5s22.1,4.5,30,0c10-5.7,16.4-14.6,17-26.1c0.6-12.3-9.7-25.9-11-28.7
													c-0.3-0.6,16.6,11.3,41.8,13.3c24.1,1.9,56.3-6.1,59.5-8.9c-3.3,15.3-14,18-9.6,32.5c4,13.3,25.4,28.6,45.1,24.8
													s21.7-21.4,22.5-22.4c15-17.7,56.1-37.1,69.9-106.8c13.5-68.6-11.8-164.9-20.8-172.5s-142.5,32.6-183.1,28
													c-29.4-3.3-58.9-4.8-88.5-4.5C164.5,525,134.6,505.2,134.6,505.2z"/>
											</defs>
											<clipPath id="SVGID_24_">
												<use xlink:href="#SVGID_23_"  style="overflow:visible;"/>
											</clipPath>
											<g class="st18">
												
													<linearGradient id="path-1-6_1_" gradientUnits="userSpaceOnUse" x1="243.3454" y1="-617.0826" x2="96.5044" y2="-889.6089" gradientTransform="matrix(1 0 0 1 -17.12 1419.86)">
													<stop  offset="0" style="stop-color:#232323"/>
													<stop  offset="0.32" style="stop-color:#1E1E1E"/>
													<stop  offset="0.68" style="stop-color:#111111"/>
													<stop  offset="0.98" style="stop-color:#000000"/>
												</linearGradient>
												<path id="path-1-6" class="st19" d="M142.3,503.2c-0.8,19.8,30.5-11,19.4,20.3S135.1,616,139.4,674s21.7,75.8,34.7,81.4
													c15.2,6.5,18.9,15,24.6,19c2.7,1.9,11.4,12.1,23.4,10.5s24.8-10.1,26.8-30.3c1.2-11.8,12.8,23.8,9,28.3
													c-5.7,6.6-54.3,35.6-71.3,29.6s-18-1.1-38-29.6s-48.3-13.7-52-53.7c-1.2-13.5-22.2-24.1-21.5-35.7c1.5-23,10-46.9,3-73
													C48.9,511.3,142.3,503.2,142.3,503.2z"/>
												<path id="path-0-9" class="st20" d="M217.1,718c-9.6-15.4,4.4,2.5,33.9,12c26.4,8.5,66.7,9,88.7-6.9
													c46.5-33.6-15,31.7,11.3,60.5s40.4,6.1,40.4,6.1l-9,52.6L288,756.8c0,0-18.9,3.1-39.5-7.8
													C237.4,743,222.8,727.3,217.1,718z"/>
												<path id="path-0-10" class="st9" d="M387.8,469.6c25.7,45.9,87.1,172.6,44.8,250.5s-15.8,83.3-15.8,83.3l52.7-17.7
													L500,599.9l-69.2-110.7L387.8,469.6z"/>
											</g>
										</g>
									</g>
								</g>
							</g>
						</g>
					</g>
				</g>
			</g>
		</g>
		<g id="body">
			<g id="body02">
				<g id="path-3-4">
					<path class="st21" d="M132.6,504c-12.6,16.7-20.3,36.8-25.6,56.9c-5.9,22.3-9,45.3-10.3,68.3c-1.1,20.7-1.8,41.7,4.6,61.7
						c6.5,20.3,17.8,39,31.9,54.8c15.2,17,34.6,31.6,57.1,37.3l-1.5-1.6c3.5,8.8,8.8,16.7,18.5,19.6c10.5,2.9,21.8,0.9,30.6-5.7
						c8.7-6.5,14.6-17,13.8-28.1c-0.8-10.3-6.8-18.1-11.2-27v2.3l-2.5,1c-0.8-0.2,0.8,0.5,1.1,0.7c1.1,0.7,2.3,1.3,3.5,1.9
						c3.7,1.9,7.4,3.6,11.3,5c11.1,4.1,22.8,6.2,34.7,6.2c11.4-0.1,22.8-1.4,34-3.8c5.9-1.2,14-2.2,18.9-6l-3.8-2.2
						c-1.8,7.5-6.6,12.9-9.4,19.9c-2.3,5.9-1.4,12.4,1.5,17.9c6.7,13,22.4,21.9,36.7,22.9c12.9,0.9,25.4-5.2,30.9-17.2
						c1.2-2.6,1.8-5.9,3.2-7.7c2.5-2.8,5.2-5.4,8.1-7.8c17.1-15.1,33.2-30.3,44.3-50.6c16.1-29.5,21.3-63.5,20.9-96.8
						c-0.5-31.3-4.7-62.4-12.5-92.7c-2.4-9.3-5-18.8-9.1-27.6c-2-4.3-4-7.1-8.9-7.4c-6.6-0.4-13.6,1-20.1,2.1
						c-10.5,1.8-21,4-31.5,6.3c-25.7,5.5-51.3,11.3-77.2,15.9c-11.2,2.1-22.6,3.6-34,4.6c-12.9,0.9-25.5-1-38.4-2.1
						c-11.1-0.9-22.3-1.6-33.4-2c-11.2-0.4-22.6,0.3-33.8-0.4c-5.5-0.3-11-3.3-15.9-5.7c-5.5-2.8-10.8-5.8-16-9
						c-2.5-1.5-4.9-3-7.4-4.7s-4.7,2.3-2.3,3.9c7.2,4.8,14.7,9.2,22.3,13.1c4.7,2.4,9.6,4.8,14.7,6.2c7.7,2,16.6,0.7,24.5,0.8
						c21.3,0.3,42.6,1.6,63.9,3.9c9.1,1,18.3,1,27.3,0c46.3-4.7,91.2-18.2,137-26.2c6.3-1.1,13.1-2.6,19.5-2.2
						c1.8,0.1,2.5,0.2,3.1,0.9c1.7,1.9,2.7,4.8,3.7,7.1c9.3,22.9,13.6,48.6,16.7,72.9c4.1,32.4,5.2,66.1-2.6,98
						c-6.6,27.4-19.8,52-39.9,71.9c-6.5,6.4-13.5,12.2-20.2,18.2c-2.5,2.2-5.5,4.6-7.4,7.4c-1.4,2-1.7,4.7-2.6,6.9
						c-6.2,14.4-22.8,18-36.8,13.3c-13.2-4.5-31.6-19.2-23.3-34.9c3.2-6,6.8-11.2,8.5-18c0.6-2.4-2.1-3.5-3.8-2.2s-4.7,1.8-6.7,2.4
						c-4.2,1.2-8.5,2.2-12.8,3c-10.9,2.2-22.1,3.3-33.2,3.1c-11.3-0.3-22.4-2.6-32.8-6.9c-4.5-1.8-8.9-5.3-13.5-6.6
						c-1-0.3-2,0.1-2.5,1c-1.3,2.7,3.1,7.4,4.3,9.6c3.7,6.6,7,14,6.2,21.7c-1.6,16-16.6,26.7-32,26.1c-6.8-0.2-13.2-3.3-17.5-8.5
						c-1.7-2.3-3.1-4.8-4-7.5c-1.3-3.2-2.6-3-5.9-4c-13.4-4-25.6-11.5-36.2-20.4c-22.2-18.7-39.9-44.7-47.5-72.8
						c-3.6-13.5-3.7-27.1-3.4-41c0.3-15.3,1.5-30.6,3.6-45.8c4.5-31.7,12.7-65.3,32.3-91.3C138.3,504,134.4,501.8,132.6,504z"/>
				</g>
				<g id="path-2-5">
					<path class="st21" d="M341,748c4.1-3.9,8.3-7.6,11.6-12.3c1.7-2.4-2.2-4.6-3.9-2.3c-3,4.3-7.1,7.7-10.9,11.3
						C335.8,746.9,339,750,341,748L341,748z"/>
				</g>
				<g id="path-1-7">
					<path class="st21" d="M226.2,729.3c1.6,3.2,3.6,6.2,5.9,9c1.4,1.8,3.1,4,5.2,5.1c2.6,1.3,4.9-2.6,2.3-3.9
						c-1.7-0.9-3.1-2.9-4.3-4.4c-2-2.5-3.7-5.2-5.1-8.1C228.8,724.4,225,726.7,226.2,729.3L226.2,729.3z"/>
				</g>
				<g id="path-0_">
					<g id="path-0-3-2">
						<path class="st21" d="M122.9,560c-7.6,18.1-6.3,40-4.7,59.2c1.3,16.8,4,33.3,6.7,49.9c0.7,4,0.2,7.7-0.1,11.8
							c-0.9,9.9,0,22.2,3.7,31.4c5,12.2,16.3,16.3,28.6,17c5.6,0.3,11.5,0.4,16.8-1.7c5-2,8.1-5.9,10.8-10.4
							c4.1-6.8,4.4-13.4,4.4-21.2c0-9.1-0.6-18.3-1.7-27.4c-2.2-19.1-5.9-37.9-8.7-56.9c-0.4-2.9-4.8-1.6-4.3,1.2
							c4.5,30,12.5,61,10,91.5c-0.5,5.8-3.7,12.8-8.3,16.7c-4.9,4.2-12.3,3.9-18.3,3.7c-7.2-0.3-13.9-1.1-19.4-6.1
							c-5.3-4.8-6.9-10.9-8-17.8c-1.3-7.7-1.6-15.6-0.8-23.4c0.3-3.4,0.2-6.8-0.5-10.1c-2.5-15-4.9-30-6.2-45.1
							c-1.8-19.7-3.5-42.4,4.3-61.1C128.3,558.5,124,557.5,122.9,560L122.9,560z"/>
					</g>
					<g id="path-0-2-2">
						<path class="st21" d="M439.1,565.7c7,16.8,6.1,36.7,4.7,54.4c-1.2,15.6-3.7,31-6.4,46.3c-1.7,9.7,0.5,19.2-0.7,29
							c-0.7,6.1-1.3,13-4.7,18.4c-4,6.6-10.5,9.9-18,10.7c-5.4,0.6-11.3,1-16.6-0.1c-6.8-1.4-10.5-6.2-13.5-12.2
							c-3.4-6.7-2.3-15.4-2.1-22.7c0.3-8.2,1-16.4,2-24.6c2.2-17.3,5.5-34.5,8.1-51.8c0.4-2.8-3.9-4-4.3-1.2
							c-2.4,16.3-5.5,32.5-7.7,48.8c-1,7.7-1.9,15.4-2.3,23.1s-1.1,16.2,0.1,24c1.6,10.3,9.8,19.7,20.2,21.3
							c11,1.7,24.7,0.8,33.2-7.1s9.9-20.5,10.6-31.7c0.3-5.9-1.2-11.8-0.8-17.6c0.3-4.5,1.6-9.5,2.3-14c1.5-8.9,2.8-17.8,3.8-26.8
							c2.5-21.6,4.9-46.9-3.7-67.5C442.3,561.9,438,563,439.1,565.7L439.1,565.7z"/>
					</g>
				</g>
			</g>
		</g>
		<g id="paw">
			<g id="paw01">
				<g id="layer-2-2">
					<g id="claw-4">
						<g id="path-2-6">
							<path class="st22" d="M172.7,192.5c14-4.8,47-8.9,46.6-16.3c-0.1-2.5-43.9-41.4-58.6-44.5S158.7,197.3,172.7,192.5z"/>
						</g>
						<g id="path-1-8">
							<path class="st22" d="M126.7,284.2c-1.4-14.8,2.6-47.8-4.7-49.1c-2.4-0.4-50.6,32.8-57.2,46.3S128.1,299,126.7,284.2z"/>
						</g>
						<g id="path-0-11">
							<path class="st22" d="M102.6,345.4c-0.1-14.8,6.5-47.4-0.6-49.3c-2.4-0.6-53.1,28.5-60.8,41.4S102.8,360.2,102.6,345.4z"/>
						</g>
					</g>
					<g id="claw-3">
						<g id="path-2-7">
							<path class="st22" d="M391.3,195.2c-14-4.8-47-8.9-46.6-16.3c0.1-2.5,43.9-41.4,58.6-44.5S405.3,200.1,391.3,195.2z"/>
						</g>
						<g id="path-1-9">
							<path class="st22" d="M439,287c1.4-14.8-2.6-47.8,4.7-49.1c2.4-0.4,50.6,32.8,57.2,46.3S437.7,301.7,439,287z"/>
						</g>
						<g id="path-0-12">
							<path class="st22" d="M461,348.2c0.1-14.8-6.5-47.4,0.6-49.3c2.4-0.6,53.1,28.5,60.8,41.4S460.9,363,461,348.2z"/>
						</g>
					</g>
					<g id="claw-2">
						<path id="path-2-8" class="st22" d="M377.3,803c-1.5,6.1-10.5,15.6-13.3,17s-8.3-19.7-6-17.5C360.5,804.8,377.3,803,377.3,803
							z"/>
						<path id="path-1-10" class="st22" d="M329.2,779.3c-4.2,4.7-7.3,17.1-7,20.1s20.1-5.1,17.2-5.7
							C336.3,793,329.2,779.3,329.2,779.3z"/>
						<path id="path-0-13" class="st22" d="M340.8,795.5c-2.8,1.6-2.9,18.2,1.3,19.2c6,1.4,16.8-14.1,14-13
							C353.2,802.9,340.8,795.5,340.8,795.5z"/>
						<g id="claw">
							<path class="st22" d="M198.8,795.5c0.1,6.3,6.6,17.6,9,19.7s12.7-17.2,9.9-15.7C214.7,801,198.8,795.5,198.8,795.5z"/>
							<path class="st22" d="M247.9,782.9c3.4,5.3,4.5,18,3.7,21s-19-8.3-16.1-8.3C238.7,795.5,247.9,782.9,247.9,782.9z"/>
							<path class="st22" d="M235.1,796c2.5,2-0.1,18.4-4.4,18.7c-6.1,0.4-14.3-16.6-11.8-15.1C221.7,801.3,235.1,796,235.1,796z"/>
						</g>
					</g>
					<g id="claw-1">
						<path id="path-2-9" class="st22" d="M384.1,721.5c-1,6.2,3.7,18.5,5.7,20.9s15.3-14.9,12.3-13.8
							C398.9,729.7,384.1,721.5,384.1,721.5z"/>
						<path id="path-1-11" class="st22" d="M433.9,715.7c2.4,5.8,1.4,18.5,0.2,21.3s-17.4-11.2-14.4-10.8S433.9,715.7,433.9,715.7z"
							/>
						<path id="path-0-14" class="st22" d="M419.6,726.5c2.1,2.4-3.1,18.2-7.4,17.8c-6.1-0.6-11.4-18.7-9.1-16.8
							C405.5,729.5,419.6,726.5,419.6,726.5z"/>
					</g>
					<g id="claw-0">
						<path id="path-2-10" class="st22" d="M134.7,719.5c-1,6.2,3.6,18.5,5.7,20.9s15.3-14.9,12.3-13.8
							C149.5,727.7,134.7,719.5,134.7,719.5z"/>
						<path id="path-1-12" class="st22" d="M185.2,715c2.4,5.8,1.4,18.5,0.2,21.3S168,725,170.9,725.4
							C174.1,725.9,185.2,715,185.2,715z"/>
						<path id="path-0-15" class="st22" d="M170,726.5c2.1,2.4-3.1,18.2-7.4,17.8c-6.1-0.6-11.4-18.7-9.1-16.8
							C155.9,729.5,170,726.5,170,726.5z"/>
					</g>
				</g>
			</g>
			<g id="jiao01">
				<g id="layer-3">
					<path id="path-17" class="st23" d="M198.8,795.5c0.1,6.3,6.6,17.6,9,19.7s12.7-17.2,9.9-15.7
						C214.7,801,198.8,795.5,198.8,795.5z"/>
					<path id="path-16" class="st23" d="M247.9,782.9c3.4,5.3,4.5,18,3.7,21s-19-8.3-16.1-8.3C238.7,795.5,247.9,782.9,247.9,782.9z
						"/>
					<path id="path-15" class="st23" d="M235.1,796c2.5,2-0.1,18.4-4.4,18.7c-6.1,0.4-14.3-16.6-11.8-15.1
						C221.7,801.3,235.1,796,235.1,796z"/>
					<g id="path-14">
						<path class="st21" d="M173.3,194.6c9.5-3.2,19.6-4.8,29.3-7.3c5.2-1.4,16.7-3.2,18.7-9.4c1.2-3.8-3.8-7.2-6.1-9.5
							c-6.4-6-13-11.7-19.9-17.2c-7.1-5.8-14.5-11.2-22.2-16.1c-3.9-2.4-10.6-7.2-15.5-5.3c-4.3,1.7-5.1,7.5-5.5,11.4
							c-0.7,7.3,0.3,14.9,1.7,22.1C155.2,170.9,160.5,198.4,173.3,194.6c2.8-0.8,1.6-5.2-1.2-4.3c-3.5,1-6.3-4.8-7.5-7.2
							c-2.6-5.5-4.5-11.3-5.8-17.3c-1.5-6.5-2.4-13.1-2.5-19.7c0-2.7-0.5-10.1,2.4-11.9c2.9-1.8,9.6,3.3,12,4.8
							c6.5,4.1,12.7,8.5,18.6,13.3c6.1,4.8,12.1,9.9,17.9,15.1c2,1.8,4,3.6,5.9,5.5c1,1,3.3,2.6,3.8,4c0.1,0.3,0.3-0.3-0.5,0.3
							c-1.1,0.9-2.4,1.6-3.7,2.2c-4.1,1.7-8.3,3-12.6,4c-9.3,2.4-19,3.9-28.1,7C169.4,191.2,170.5,195.6,173.3,194.6z"/>
					</g>
					<g id="path-13">
						<path class="st21" d="M129,284.2c-0.9-10.2,0-20.5-0.1-30.8c-0.1-5.2,0.8-16.8-4.9-20c-3.5-2-8.4,2.4-11.1,4.2
							c-7.3,4.7-14.3,9.8-21.2,15.1c-7.4,5.5-14.5,11.5-21.2,18c-3.1,3.1-9.2,8.5-8.1,13.5c0.9,4.5,6.5,6.6,10.3,7.9
							c6.9,2.3,14.4,3.1,21.7,3.5C101.9,296,129.6,297.3,129,284.2c-0.1-2.9-4.6-3-4.5-0.1c0.2,3.6-5.7,4.9-8.4,5.5
							c-6.1,1.3-12.4,1.8-18.6,1.6c-6.4-0.1-12.8-0.8-19-2.1c-2.9-0.7-10.1-1.9-11.5-5.1s4.7-8.1,6.6-10.1
							c5.4-5.3,11.1-10.3,17.1-14.9c6.2-4.9,12.5-9.5,19-14c2.5-1.7,5-3.4,7.5-4.9c1.3-0.8,3.3-2.6,4.8-2.8c0.5-0.1-0.4-0.5,0.1,0.5
							c0.6,1.3,1.1,2.7,1.3,4.1c0.7,4.4,1,8.8,0.8,13.2c0.1,9.6-0.7,19.3,0.1,29C124.7,287.1,129.2,287.1,129,284.2z"/>
					</g>
					<g id="path-12">
						<path class="st21" d="M104.9,345.4c0-10.3,1.7-20.5,2.4-30.7c0.4-5.2,2.1-16.4-3.1-20c-3.3-2.4-8.4,1.5-11.3,3.1
							c-7.8,4.1-15.4,8.7-22.8,13.5c-7.7,4.8-15.2,10.2-22.2,16c-3.4,2.9-9.9,7.7-9.5,12.8c0.4,4.7,5.7,7.3,9.5,8.9
							c6.8,2.9,14.1,4.3,21.4,5.3C77,355.2,104.4,358.8,104.9,345.4c0.1-2.9-4.4-2.9-4.5,0c-0.1,3.5-6.6,4.3-9.1,4.7
							c-6.2,0.7-12.4,0.7-18.5-0.1c-6.4-0.6-12.8-1.9-18.9-3.8c-2.6-0.9-10.1-2.8-10.9-6.2c-0.7-3.1,5.8-7.7,7.7-9.4
							c6.1-5.1,12.6-9.7,19.3-14c6.4-4.2,12.9-8.2,19.6-12c2.5-1.4,5-2.8,7.5-4.1c1.3-0.7,3.3-2.2,4.7-2.2c0.3,0-0.1-0.5,0.3,0.7
							c0.5,1.5,0.8,3,0.9,4.5c0.3,4.3,0.2,8.6-0.3,12.9c-0.7,9.6-2.3,19.2-2.3,28.9C100.4,348.3,104.9,348.3,104.9,345.4z"/>
					</g>
					<g id="path-11">
						<path class="st21" d="M391.9,193.1c-8-2.7-16.3-4.2-24.5-6.1c-6.3-1.5-14.8-2.7-19.9-7c-0.9-0.8-0.7,0.1-0.5-0.3
							s1-1.1,1.3-1.5c1.7-1.8,3.4-3.4,5.2-5.1c5.1-4.8,10.4-9.3,15.8-13.7c6.4-5.3,12.9-10.3,19.8-14.9c2.6-1.7,5.2-3.4,7.9-4.8
							c1.7-0.9,4.9-3.1,6.9-2.9c6.9,0.7,3,22.5,2.3,26.4c-1.1,7.1-3.1,14.1-5.9,20.8C399.2,186.5,396,194.3,391.9,193.1
							c-2.8-0.8-4,3.6-1.2,4.4c11.2,3.3,16.5-18.4,18.3-25.4c1.9-7.4,3-15.1,3.2-22.8c0.1-4.7,0.1-11.5-3.5-15.2s-8.7-1.1-12.5,0.8
							c-7.8,4-14.9,9.4-21.8,14.7c-7.3,5.6-14.3,11.5-21.2,17.6c-3,2.7-8.7,6.5-10.3,10.5c-2.7,6.7,10.1,9.9,14.1,11.1
							c11.1,3.2,22.8,4.8,33.8,8.5C393.5,198.3,394.6,194,391.9,193.1z"/>
					</g>
					<g id="path-10">
						<path class="st21" d="M441.3,287c0.7-8.4,0.2-16.9,0.1-25.3c0-4.1,0-8.2,0.3-12.2c0.2-2.6,0.2-7,2.1-9.1
							c0.5-0.6-0.8-0.3-0.1-0.2c0.6,0.2,1.2,0.5,1.8,0.9c2.2,1.3,4.4,2.7,6.5,4.1c6,4,11.9,8.2,17.7,12.5c6.6,4.9,13,10.2,19.1,15.8
							c2.2,2.1,4.4,4.2,6.4,6.4c1.1,1.3,3.9,4,4,5.8c0.1,3-5.7,4.5-7.8,5.2c-6,1.7-12.2,2.7-18.4,3c-7,0.6-14.1,0.2-21-0.9
							C449,292.4,441.2,291.2,441.3,287c0.2-2.9-4.3-2.9-4.4,0c-0.6,11.6,21.6,11.6,28.8,11.6c7.7,0.1,15.4-0.7,22.9-2.3
							c4.6-1,10.8-2.5,13.8-6.6s-0.2-8.5-3-11.8c-5.6-6.7-12.6-12.4-19.3-17.8c-7.3-5.8-14.8-11.4-22.5-16.6
							c-3.5-2.4-8.6-7.1-13-7.8c-7.1-1-7.3,12.3-7.4,16.4c-0.5,11.6,0.7,23.3-0.3,34.8C436.5,289.9,441,289.8,441.3,287z"/>
					</g>
					<g id="path-9">
						<path class="st21" d="M463.2,348.2c0-8.4-1.2-16.8-2-25.2c-0.5-6.2-2.4-15.4,0.4-21.3c0.5-1-0.5-0.5,0.2-0.4
							c0.6,0.1,1.1,0.4,1.6,0.7c2.2,1,4.3,2.2,6.5,3.3c6.5,3.5,12.8,7.3,19,11.2c6.5,4.1,13,8.4,19.2,13.2c2.8,2.1,5.5,4.4,8,6.8
							c1.3,1.3,4.3,3.5,4.6,5.4c0.5,3-4.9,5-6.9,5.9c-5.6,2.2-11.5,3.7-17.5,4.5c-7.1,1.2-14.3,1.5-21.4,1
							C471.9,352.9,463.3,352.3,463.2,348.2c-0.2-2.9-4.7-2.9-4.6,0c0.4,11.7,22.1,10,29.4,9.4c7.8-0.5,15.4-1.9,22.9-4.2
							c4.5-1.4,10.8-3.5,13.4-7.9s-1.2-8.4-4.2-11.5c-6-6.1-13.3-11.1-20.4-15.9c-7.7-5.2-15.6-10.1-23.8-14.7
							c-3.7-2.1-9.3-6.5-13.8-6.8c-7.1-0.4-6.2,12.7-6,16.8c0.4,11.6,2.6,23.1,2.6,34.7C458.7,351.1,463.2,351.1,463.2,348.2z"/>
					</g>
					<path id="path-8" class="st23" d="M377.3,803c-1.5,6.1-10.5,15.6-13.3,17s-8.3-19.7-6-17.5C360.5,804.8,377.3,803,377.3,803z"
						/>
					<path id="path-7" class="st23" d="M329.2,779.3c-4.2,4.7-7.3,17.1-7,20.1s20.1-5.1,17.2-5.7C336.3,793,329.2,779.3,329.2,779.3
						z"/>
					<path id="path-6" class="st23" d="M340.8,795.5c-2.8,1.6-2.9,18.2,1.3,19.2c6,1.4,16.8-14.1,14-13
						C353.2,802.9,340.8,795.5,340.8,795.5z"/>
					<path id="path-5" class="st23" d="M384.1,721.5c-1,6.2,3.7,18.5,5.7,20.9s15.3-14.9,12.3-13.8
						C398.9,729.7,384.1,721.5,384.1,721.5z"/>
					<path id="path-4" class="st23" d="M433.9,715.7c2.4,5.8,1.4,18.5,0.2,21.3s-17.4-11.2-14.4-10.8S433.9,715.7,433.9,715.7z"/>
					<path id="path-3-5" class="st23" d="M419.6,726.5c2.1,2.4-3.1,18.2-7.4,17.8c-6.1-0.6-11.4-18.7-9.1-16.8
						C405.5,729.5,419.6,726.5,419.6,726.5z"/>
					<path id="path-2-11" class="st23" d="M134.7,719.5c-1,6.2,3.6,18.5,5.7,20.9s15.3-14.9,12.3-13.8
						C149.5,727.7,134.7,719.5,134.7,719.5z"/>
					<path id="path-1-13" class="st23" d="M185.2,715c2.4,5.8,1.4,18.5,0.2,21.3S168,725,170.9,725.4
						C174.1,725.9,185.2,715,185.2,715z"/>
					<path id="path-0-16" class="st23" d="M170,726.5c2.1,2.4-3.1,18.2-7.4,17.8c-6.1-0.6-11.4-18.7-9.1-16.8
						C155.9,729.5,170,726.5,170,726.5z"/>
				</g>
			</g>
		</g>
		<g id="head">
			<g id="headFur">
				<g id="head-mainColor">
					<g id="head-mainColor02">
						<path id="_head02_-clip-5" class="st1" d="M165.7,189.5c-31.3-11.5-96-17.1-98.9-10S84,230,105.4,243.4
							c-1.8,2.8-24.8,56.9-33,116.6s-1.6,124.9,13.4,141.2c32.3,35.3,110.5,59.7,123.5,62.6c14,3.1,24.6,2.9,30.8,3.8
							s39.3,34.1,93,3.2c0,0,77.2-14.9,109.6-37.3c32.2-22.2,40.8-31.4,51.2-53.8c5.5-11.8,6.7-76.6-3.1-134.8
							c-8.9-52.6-28.6-99.6-28.6-99.6c9.6-8.7,18.4-18.2,26.3-28.5c14-18,15.9-34,12.3-36.9s-24.2-4.1-48.3-1.1
							c-23.1,2.8-46,12.6-48,12.8c-2,0.2-53.6-15.5-112.7-18S164.7,187.5,165.7,189.5z"/>
						<g>
							<g>
								<g>
									<g>
										<g>
											<defs>
												<path id="SVGID_25_" d="M165.7,189.5c-31.3-11.5-96-17.1-98.9-10S84,230,105.4,243.4c-1.8,2.8-24.8,56.9-33,116.6
													s-1.6,124.9,13.4,141.2c32.3,35.3,110.5,59.7,123.5,62.6c14,3.1,24.6,2.9,30.8,3.8s39.3,34.1,93,3.2
													c0,0,77.2-14.9,109.6-37.3c32.2-22.2,40.8-31.4,51.2-53.8c5.5-11.8,6.7-76.6-3.1-134.8c-8.9-52.6-28.6-99.6-28.6-99.6
													c9.6-8.7,18.4-18.2,26.3-28.5c14-18,15.9-34,12.3-36.9s-24.2-4.1-48.3-1.1c-23.1,2.8-46,12.6-48,12.8
													c-2,0.2-53.6-15.5-112.7-18S164.7,187.5,165.7,189.5z"/>
											</defs>
											<clipPath id="SVGID_26_">
												<use xlink:href="#SVGID_25_"  style="overflow:visible;"/>
											</clipPath>
											<g class="st24">
												<rect id="rectangles-3" x="57.9" y="108.7" class="st1" width="450.3" height="480"/>
											</g>
										</g>
									</g>
								</g>
							</g>
						</g>
					</g>
				</g>
				<g id="headFur02">
					<g id="color2-4">
						<g id="color2-5">
							<g>
								<g>
									<g>
										<g>
											<g>
												<defs>
													<path id="SVGID_27_" d="M165.7,189.5c-31.3-11.5-96-17.1-98.9-10S84,230,105.4,243.4c-1.8,2.8-24.8,56.9-33,116.6
														s-1.6,124.9,13.4,141.2c32.3,35.3,110.5,59.7,123.5,62.6c14,3.1,24.6,2.9,30.8,3.8s39.3,34.1,93,3.2
														c0,0,77.2-14.9,109.6-37.3c32.2-22.2,40.8-31.4,51.2-53.8c5.5-11.8,6.7-76.6-3.1-134.8c-8.9-52.6-28.6-99.6-28.6-99.6
														c9.6-8.7,18.4-18.2,26.3-28.5c14-18,15.9-34,12.3-36.9s-24.2-4.1-48.3-1.1c-23.1,2.8-46,12.6-48,12.8
														c-2,0.2-53.6-15.5-112.7-18S164.7,187.5,165.7,189.5z"/>
												</defs>
												<clipPath id="SVGID_28_">
													<use xlink:href="#SVGID_27_"  style="overflow:visible;"/>
												</clipPath>
												<g class="st25">
													<path id="path-1-14" class="st4" d="M213.1,190.2c30.3,43.8,24.1,117.9-16,182.8S87.8,487.1,5.7,491.5
														s-112.4-98.2-103.8-159.3S-46.2,130.3,19.3,126S182.9,146.3,213.1,190.2z"/>
												</g>
											</g>
										</g>
									</g>
								</g>
							</g>
						</g>
					</g>
					<g id="color1-3">
						<g>
							<g>
								<g>
									<g>
										<g>
											<defs>
												<path id="SVGID_29_" d="M165.7,189.5c-31.3-11.5-96-17.1-98.9-10S84,230,105.4,243.4c-1.8,2.8-24.8,56.9-33,116.6
													s-1.6,124.9,13.4,141.2c32.3,35.3,110.5,59.7,123.5,62.6c14,3.1,24.6,2.9,30.8,3.8s39.3,34.1,93,3.2
													c0,0,77.2-14.9,109.6-37.3c32.2-22.2,40.8-31.4,51.2-53.8c5.5-11.8,6.7-76.6-3.1-134.8c-8.9-52.6-28.6-99.6-28.6-99.6
													c9.6-8.7,18.4-18.2,26.3-28.5c14-18,15.9-34,12.3-36.9s-24.2-4.1-48.3-1.1c-23.1,2.8-46,12.6-48,12.8
													c-2,0.2-53.6-15.5-112.7-18S164.7,187.5,165.7,189.5z"/>
											</defs>
											<clipPath id="SVGID_30_">
												<use xlink:href="#SVGID_29_"  style="overflow:visible;"/>
											</clipPath>
											<g class="st26">
												<path id="path-1-15" class="st6" d="M284.6,190.2C254.3,234,260.5,308.1,300.7,373S409.9,487.1,492,491.5
													s112.4-98.2,103.7-159.3S543.8,130.3,478.4,126S314.8,146.3,284.6,190.2z"/>
											</g>
										</g>
									</g>
								</g>
							</g>
						</g>
					</g>
				</g>
			</g>
			<g id="headShadow">
				<g id="headShadow02">
					<g id="headShadow-2">
						<g>
							<g>
								<g>
									<g>
										<g>
											<defs>
												<path id="SVGID_31_" d="M165.7,189.5c-31.3-11.5-96-17.1-98.9-10S84,230,105.4,243.4c-1.8,2.8-24.8,56.9-33,116.6
													s-1.6,124.9,13.4,141.2c32.3,35.3,110.5,59.7,123.5,62.6c14,3.1,24.6,2.9,30.8,3.8s39.3,34.1,93,3.2
													c0,0,77.2-14.9,109.6-37.3c32.2-22.2,40.8-31.4,51.2-53.8c5.5-11.8,6.7-76.6-3.1-134.8c-8.9-52.6-28.6-99.6-28.6-99.6
													c9.6-8.7,18.4-18.2,26.3-28.5c14-18,15.9-34,12.3-36.9s-24.2-4.1-48.3-1.1c-23.1,2.8-46,12.6-48,12.8
													c-2,0.2-53.6-15.5-112.7-18S164.7,187.5,165.7,189.5z"/>
											</defs>
											<clipPath id="SVGID_32_">
												<use xlink:href="#SVGID_31_"  style="overflow:visible;"/>
											</clipPath>
											<g class="st27">
												<path id="path-0-17" class="st20" d="M94,166.4c-64.8,5.7,24.2,58.8,31.2,70.6c5,8.4-12.3,58.2-18.2,68.7
													c-12.5,22.6-43.2,128.9-6.7,182.3c46.6,68.3,158.9,91.4,158.9,91.4l-116.5-27.8l-50.3-19.3L46.7,453L32,370.8L43,258
													c0,0,6.3-86.5,27.4-90S94,166.4,94,166.4z"/>
												<path id="path-0-18" class="st9" d="M510.4,157.1c-1.5-6.8-4.3,21.2-21,40.3c-18.2,20.9-29.7,28-39,45.3
													s51.8,195.9,15.4,249.3c-46.7,68.4-159,91.6-159,91.6l116.5-27.8l50.4-19.3l45.7-79.4l14.7-82.2l-11-112.8
													C523.1,262.1,513.1,169.6,510.4,157.1z"/>
											</g>
										</g>
									</g>
								</g>
							</g>
						</g>
					</g>
				</g>
			</g>
			<g id="head02">
				<g id="layer-4">
					<path id="path-3-6" class="st28" d="M247,450.5c3.3-3.4,48.7-21.1,83.3,3.3"/>
					<g id="path-2-12">
						<path class="st21" d="M309.7,583.2c4.4-1.2,8.7-2.8,12.9-4.6c3.8-1.6,7.4-4.3,11.2-5.6c2.3-0.8,4.9-1,7.3-1.5
							c11.6-2.5,23.1-5.3,34.5-8.5c15.1-4,30-9.1,44.5-15c15.3-6.5,28.7-15.4,41.8-25.5c11.4-8.8,21.5-18.5,28.6-31.1
							c2.6-4.6,5.5-9.5,6.7-14.8c1.1-5.1,1.8-10.2,2.1-15.4c3.2-38.9,0-79.3-6.6-117.6c-5.7-33.8-15.3-66.9-28.5-98.6l-0.6,2.2
							c9.7-8.4,18.4-18.4,26.3-28.5c5.3-6.9,9.9-14.4,12.6-22.8c1.4-4.4,3-10.3,1.3-14.8c-1.4-3.6-5.1-4.4-8.6-4.9
							c-7.5-1.3-15.2-1.2-22.7-0.9c-19.7,0.7-39.2,4.4-57.8,10.8c-2.6,0.9-5.2,1.8-7.8,2.7c-0.7,0.3-1.5,0.6-2.3,0.8
							c-1.2,0.3,0,0.2-0.2,0.1c-2.9-0.1-6.1-1.4-8.8-2.1c-13.5-3.3-27-6.3-40.7-8.7c-39.5-7-79.2-9.2-119.1-5
							c-17.9,1.8-35.6,4.7-53.1,8.5c-4.9,1-9.7,2.2-14.5,3.7c-2.1,0.7-5.1,1.4-4.7,4.3l2.8-2.8c-13.8-5-28.3-7.8-42.8-9.9
							c-13.6-2-27.4-3.5-41.1-3.3c-4.8,0.1-16.3-0.8-18,5.5c-1,3.5,0.8,8.1,1.9,11.4c2.1,5.9,4.6,11.6,7.5,17.1
							c7.3,13.9,16.9,28.6,30.4,37.3l-0.8-3.1c-5.2,8.5-8.1,19.3-11.3,28.6c-7.3,20.9-13.2,42.2-17.7,63.8
							c-9,44.4-11.9,92.7-2.6,137.4c2.9,13.9,7.1,26.2,17.6,36c12.7,11.9,28,20.9,43.5,28.8c15.3,7.7,31.1,14.5,47.3,20.2
							c9.4,3.4,18.9,6.7,28.6,8.9c6.2,1.3,12.6,2.2,18.9,2.7c3.9,0.3,8.5,0,12.2,1.1c4.4,1.4,8.5,5,12.6,7.1
							C270,586.2,290.5,588.5,309.7,583.2c2.8-0.7,1.6-5.1-1.2-4.3c-17.7,4.9-36.6,3-53-5.4c-4.2-2.1-8-4.8-12.2-7
							c-4.7-2.4-10.6-1.8-15.8-2.3c-27.5-2.4-54.5-13.6-79.4-25c-15.9-7.2-31.5-15.4-45.5-25.8c-5.8-4.4-12.1-9.3-16.6-15.1
							c-3.8-5-5.9-11.4-7.6-17.4c-5.3-18.5-6.9-38.2-7.4-57.4c-0.7-24.1,0.9-48.3,4.7-72.1c4.2-24.8,10.3-49.2,18.4-73
							c2.7-7.8,5.5-15.6,8.5-23.3c1.4-3.4,2.6-7.3,4.5-10.4c0.6-1.1,0.2-2.4-0.8-3.1c-11.1-7.2-19.2-18.9-25.7-30.1
							c-3.2-5.4-6-11.1-8.4-16.9c-1.5-3.6-3.8-8.4-3.6-12.4c0.2-4.5,12.6-3.4,16.1-3.4c12.8,0.2,25.5,1.3,38.2,3.3
							c14.2,2.1,28.6,4.9,42.1,9.8c1.8,0.6,3-1.3,2.8-2.8c0.5,3.3-1.6,1.8,0.7,1.6c1.4-0.3,2.8-0.7,4.1-1.3
							c4.5-1.3,9.1-2.3,13.8-3.3c14.7-3.1,29.6-5.5,44.5-7.2c37.4-4.3,75.3-3.4,112.5,2.5c14.5,2.3,28.8,5.2,43,8.5
							c4.2,1,8.4,2,12.5,3.1c1.7,0.4,3.6,1.2,5.3,1.1c3.7-0.1,8-2.6,11.5-3.8c8-2.8,16.2-5.1,24.5-6.9c16.8-3.6,36.1-5.6,53.2-3
							c1.5,0.2,4.7,0.4,5.8,1.6c1.3,1.5,0.6,4.9,0.4,6.6c-1.3,8.8-6,17.1-11,24.3c-8.2,11.4-17.6,21.9-28.2,31.1
							c-0.6,0.6-0.8,1.4-0.6,2.2c26.5,63.2,37.8,133.2,35.7,201.5c-0.3,10.3,0.1,22.7-4.2,32.3c-5.5,12.4-13.6,23.4-23.8,32.3
							c-12.7,11.1-26.9,21.3-42.1,28.5c-13.7,6.4-28.3,11.3-42.7,15.6c-13.5,4-27.1,7.5-40.8,10.5c-2.9,0.7-6,1-8.9,1.9
							c-2.1,0.8-4.2,1.9-6.1,3.1c-5.8,3-12,5.4-18.3,7.3C305.8,579.7,307,584,309.7,583.2L309.7,583.2z"/>
					</g>
					<path id="path-1-16" class="st28" d="M312.7,520.1c10.8-21.2,23.8-14.9,28.7-10.8"/>
					<path id="path-0-19" class="st28" d="M255.4,518.1c-10.9-21.2-23.8-14.9-28.7-10.8"/>
				</g>
			</g>
		</g>
		<g id="eye">
			<g id="eye07">
				<g id="path-4-2">
					<path class="st21" d="M190.7,403.5c9.4,0,18.4-8.3,18-18s-7.9-18-18-18c-9.4,0-18.4,8.3-18,18S180.6,403.5,190.7,403.5z"/>
				</g>
				<g id="eyeColor07-left">
					<path class="st17" d="M190.7,394.5c11.6,0,11.6-18,0-18S179.1,394.5,190.7,394.5z"/>
				</g>
				<g id="path-2-13">
					<path class="st21" d="M380.7,407.5c9.4,0,18.4-8.3,18-18s-7.9-18-18-18c-9.4,0-18.4,8.3-18,18S370.6,407.5,380.7,407.5z"/>
				</g>
				<g id="eyeColor07-right">
					<path class="st17" d="M380.7,398.5c11.6,0,11.6-18,0-18S369.1,398.5,380.7,398.5z"/>
				</g>
			</g>
		</g>
		<g id="blush">
			<g id="blush07">
				<g id="path-3-7">
					<path class="st29" d="M467,456.6l20.2,41.7c1.1,2.3,4.5,0.3,3.4-2l-19.8-40.7c-1.1-2.3-4.5-0.3-3.4,2l19.7,40.7l3.4-2
						l-20.2-41.7C469.3,452.3,465.9,454.3,467,456.6L467,456.6z"/>
				</g>
				<g id="path-3-8">
					<path class="st29" d="M453.1,456.6l20.2,41.7l3.4-2L457,455.6c-1.1-2.3-4.5-0.3-3.4,2l19.7,40.7c1.1,2.3,4.5,0.3,3.4-2
						l-20.2-41.7C455.4,452.3,452,454.3,453.1,456.6z"/>
				</g>
				<g id="path-3-9">
					<path class="st29" d="M440.7,456.6l20.2,41.7c1.1,2.3,4.5,0.3,3.4-2l-19.7-40.7c-1.1-2.3-4.5-0.3-3.4,2l19.7,40.7l3.4-2
						l-20.2-41.7C443,452.3,439.7,454.3,440.7,456.6z"/>
				</g>
				<g id="path-3-10">
					<path class="st29" d="M467,456.6l20.2,41.7c1.1,2.3,4.5,0.3,3.4-2l-20.2-41.7C469.3,452.3,465.9,454.3,467,456.6L467,456.6z"/>
				</g>
				<g id="path-3-11">
					<path class="st29" d="M429.9,456.6l20.2,41.7l3.4-2l-19.7-40.7c-1.1-2.3-4.5-0.3-3.4,2l19.7,40.7c1.1,2.3,4.5,0.3,3.4-2
						l-20.2-41.7C432.2,452.4,428.8,454.3,429.9,456.6L429.9,456.6z"/>
				</g>
				<g id="path-3-12">
					<path class="st29" d="M417.5,456.6l20.2,41.7c1.1,2.3,4.5,0.3,3.4-2l-19.7-40.7c-1.1-2.3-4.5-0.3-3.4,2l19.7,40.7l3.4-2
						l-20.2-41.7C419.8,452.3,416.4,454.3,417.5,456.6L417.5,456.6z"/>
				</g>
				<g id="path-3-13">
					<path class="st29" d="M112.1,451.6l20.2,41.7l3.4-2L116,450.6c-1.1-2.3-4.5-0.3-3.4,2l19.7,40.7c1.1,2.3,4.5,0.3,3.4-2
						l-20.2-41.7C114.3,447.3,111,449.3,112.1,451.6z"/>
				</g>
				<g id="path-3-14">
					<path class="st29" d="M99.7,451.6l20.2,41.7c1.1,2.3,4.5,0.3,3.4-2l-19.7-40.7c-1.1-2.3-4.5-0.3-3.4,2l19.7,40.7l3.4-2
						l-20.2-41.7C102,447.3,98.7,449.3,99.7,451.6L99.7,451.6z"/>
				</g>
				<g id="path-3-15">
					<path class="st29" d="M126,451.6l20.2,41.7c1.1,2.3,4.5,0.3,3.4-2l-20.2-41.7C128.2,447.3,124.9,449.3,126,451.6z"/>
				</g>
				<g id="path-3-16">
					<path class="st29" d="M88.8,451.6l20.2,41.7l3.4-2l-19.7-40.7c-1.1-2.3-4.5-0.3-3.4,2l19.7,40.7c1.1,2.3,4.5,0.3,3.4-2
						l-20.2-41.7C91.2,447.3,87.8,449.3,88.8,451.6L88.8,451.6z"/>
				</g>
				<g id="path-3-17">
					<path class="st29" d="M76.5,451.6l20.2,41.7c1.1,2.3,4.5,0.3,3.4-2l-19.7-40.7c-1.1-2.3-4.5-0.3-3.4,2l19.7,40.7l3.4-2
						l-20.2-41.7C78.8,447.3,75.4,449.3,76.5,451.6L76.5,451.6z"/>
				</g>
			</g>
		</g>
		<g id="mouth">
			<g id="mouth07">
				<path id="path-2-14" class="st30" d="M223.3,558.7c-1.3-2.2,1.7-17.2,4.7-17.8s9.6,15.3,8.5,17
					C235.1,560,224.9,561.4,223.3,558.7z"/>
				<path id="path-1-17" class="st30" d="M333.3,561.2c-1.6-2.9,2.7-22.3,6.7-23s12,20.2,10.6,22.3
					C348.6,563.3,335.3,564.7,333.3,561.2z"/>
				<path id="path-0-20" class="st31" d="M179.3,518.8c-11,5.6,37.2,46.1,53.3,41.1c5.4-1.7,37.6-18.8,50.8-19.1
					c13.4-0.2,47.2,20.9,55,23c14.7,3.9,66.6-44.1,55.7-49"/>
			</g>
		</g>
		<path class="st32" d="M168.7,333.8c0,0,16.1,8,35.9-6.6"/>
		<path class="st32" d="M398.6,333.8c0,0-16.1,8-35.9-6.6"/>
		<circle class="st33" cx="206.7" cy="47.4" r="9.1"/>
		<circle class="st33" cx="248.9" cy="47.4" r="9.1"/>
		<circle class="st33" cx="286.7" cy="47.4" r="9.1"/>
		<circle class="st33" cx="324.3" cy="47.4" r="9.1"/>
		<circle class="st33" cx="361.9" cy="47.4" r="9.1"/>
		<g>
			<path class="st33" d="M406.4,22.4h-12.3c-0.1-6,2-11,6.2-14.9s9.7-5.9,16.6-5.9c4.4,0,8.2,0.8,11.3,2.4s5.6,4,7.4,7
				c1.9,3.1,2.8,6.3,2.8,9.7c0,1.8-0.3,3.7-0.9,5.4c-0.6,1.8-1.5,3.6-2.8,5.5c-0.8,1.1-2.5,2.9-5.4,5.5c-2.7,2.5-4.4,4.2-5.1,5.2
				c-0.7,1-1.3,2.4-1.7,4.1c-0.5,1.7-0.8,4-0.9,7h-12.7v-2.1c0-4.2,0.8-8,2.3-11.4s4-6.6,7.5-9.6c3.3-2.9,5.3-4.9,6-6s1-2.4,1-3.8
				c0-2-0.8-3.7-2.5-5.1s-3.9-2.1-6.7-2.1c-2.9,0-5.2,0.8-7.1,2.5C407.4,17.5,406.4,19.7,406.4,22.4z M415.3,58.9
				c2.3,0,4.2,0.8,5.8,2.3c1.6,1.6,2.4,3.5,2.4,5.7s-0.8,4.1-2.4,5.7c-1.6,1.6-3.5,2.4-5.8,2.4s-4.2-0.8-5.7-2.4
				c-1.6-1.6-2.4-3.5-2.4-5.7s0.8-4.1,2.3-5.7C411.2,59.6,413.1,58.9,415.3,58.9z"/>
		</g>
	</g>
</g>
</svg>
